<svg width="978" height="385" viewBox="0 0 978 385" fill="none" xmlns="http://www.w3.org/2000/svg">
<path d="M22.6 72C14.9333 72 9.23333 70.3 5.5 66.9C1.83333 63.4333 2.98023e-08 58.1667 2.98023e-08 51.1V2H7.2V51.1C7.2 56.2333 8.43333 60.0333 10.9 62.5C13.4333 64.9667 17.3333 66.2 22.6 66.2H45.1V72H22.6ZM97.2664 49.5H65.6664L58.7664 72H51.5664L69.6664 13.5C71.1331 8.76666 72.6997 5.5 74.3664 3.7C76.0997 1.83333 78.4664 0.899997 81.4664 0.899997C84.4664 0.899997 86.8331 1.83333 88.5664 3.7C90.2997 5.5 91.8997 8.76666 93.3664 13.5L111.466 72H104.166L97.2664 49.5ZM95.5664 43.9L86.2664 13.6C85.5331 11.3333 84.8331 9.76666 84.1664 8.9C83.4997 8.03333 82.5997 7.59999 81.4664 7.59999C80.3997 7.59999 79.5331 8.03333 78.8664 8.9C78.1997 9.76666 77.4997 11.3333 76.7664 13.6L67.4664 43.9H95.5664ZM141.08 73.1C134.947 73.1 129.88 72.2 125.88 70.4C121.947 68.5333 118.314 65.4 114.98 61L119.88 56.7C122.747 60.5667 125.714 63.3 128.78 64.9C131.914 66.5 135.88 67.3 140.68 67.3C146.947 67.3 151.78 66.1 155.18 63.7C158.647 61.3 160.38 57.9333 160.38 53.6C160.38 50.8667 159.747 48.7 158.48 47.1C157.214 45.5 154.98 44.1333 151.78 43C148.58 41.8 143.847 40.5667 137.58 39.3C130.714 37.9667 125.614 35.7667 122.28 32.7C119.014 29.6333 117.38 25.5333 117.38 20.4C117.38 14.3333 119.547 9.56666 123.88 6.1C128.28 2.63333 134.314 0.899997 141.98 0.899997C147.447 0.899997 152.18 1.86666 156.18 3.8C160.18 5.66666 163.28 8.43333 165.48 12.1L160.58 16.1C158.514 13.0333 155.88 10.7 152.68 9.1C149.547 7.5 145.914 6.69999 141.78 6.69999C136.514 6.69999 132.314 7.89999 129.18 10.3C126.114 12.7 124.58 15.9333 124.58 20C124.58 23.6 125.947 26.4667 128.68 28.6C131.414 30.6667 135.914 32.3333 142.18 33.6C148.78 34.9333 153.88 36.4333 157.48 38.1C161.147 39.7667 163.747 41.8 165.28 44.2C166.814 46.5333 167.58 49.6 167.58 53.4C167.58 59.8 165.314 64.7 160.78 68.1C156.247 71.4333 149.68 73.1 141.08 73.1ZM201.597 72C193.797 72 187.997 70.3 184.197 66.9C180.464 63.4333 178.597 58.1667 178.597 51.1V22.9C178.597 15.8333 180.464 10.6 184.197 7.2C187.997 3.73333 193.797 2 201.597 2H225.697V7.8H201.597C196.197 7.8 192.197 9.03333 189.597 11.5C187.064 13.9667 185.797 17.7667 185.797 22.9V34.1H220.597V39.9H185.797V51.1C185.797 56.2333 187.064 60.0333 189.597 62.5C192.197 64.9667 196.197 66.2 201.597 66.2H226.297V72H201.597ZM292.893 72H285.193L280.393 54C279.46 50.5333 278.393 47.8333 277.193 45.9C275.993 43.9667 274.326 42.5667 272.193 41.7C270.126 40.7667 267.293 40.3 263.693 40.3H247.493V72H240.293V2H270.293C276.826 2 281.793 3.63333 285.193 6.9C288.66 10.1667 290.393 14.7667 290.393 20.7C290.393 25.7 289.193 29.7 286.793 32.7C284.46 35.6333 281.126 37.4667 276.793 38.2C279.726 39.2667 281.993 41.0333 283.593 43.5C285.26 45.9667 286.726 49.4667 287.993 54L292.893 72ZM269.493 34.5C273.826 34.5 277.193 33.3333 279.593 31C281.993 28.6667 283.193 25.4 283.193 21.2C283.193 16.9333 281.993 13.6333 279.593 11.3C277.193 8.96666 273.826 7.8 269.493 7.8H247.493V34.5H269.493ZM331.504 2H361.204C367.871 2 372.937 3.73333 376.404 7.2C379.937 10.6667 381.704 15.7 381.704 22.3C381.704 28.9667 379.937 34.0333 376.404 37.5C372.937 40.9667 367.871 42.7 361.204 42.7H338.704V72H331.504V2ZM360.604 36.9C365.004 36.9 368.404 35.6333 370.804 33.1C373.271 30.5 374.504 26.9 374.504 22.3C374.504 17.7667 373.271 14.2333 370.804 11.7C368.404 9.1 365.004 7.8 360.604 7.8H338.704V36.9H360.604ZM446.799 72H439.099L434.299 54C433.366 50.5333 432.299 47.8333 431.099 45.9C429.899 43.9667 428.233 42.5667 426.099 41.7C424.033 40.7667 421.199 40.3 417.599 40.3H401.399V72H394.199V2H424.199C430.733 2 435.699 3.63333 439.099 6.9C442.566 10.1667 444.299 14.7667 444.299 20.7C444.299 25.7 443.099 29.7 440.699 32.7C438.366 35.6333 435.033 37.4667 430.699 38.2C433.633 39.2667 435.899 41.0333 437.499 43.5C439.166 45.9667 440.633 49.4667 441.899 54L446.799 72ZM423.399 34.5C427.733 34.5 431.099 33.3333 433.499 31C435.899 28.6667 437.099 25.4 437.099 21.2C437.099 16.9333 435.899 13.6333 433.499 11.3C431.099 8.96666 427.733 7.8 423.399 7.8H401.399V34.5H423.399ZM485.105 73.1C476.239 73.1 469.439 70.9333 464.705 66.6C459.972 62.2 457.605 55.8667 457.605 47.6V26.4C457.605 18.1333 459.972 11.8333 464.705 7.5C469.439 3.1 476.239 0.899997 485.105 0.899997C493.972 0.899997 500.772 3.1 505.505 7.5C510.239 11.8333 512.605 18.1333 512.605 26.4V47.6C512.605 55.8667 510.239 62.2 505.505 66.6C500.772 70.9333 493.972 73.1 485.105 73.1ZM485.105 67.3C491.639 67.3 496.639 65.6 500.105 62.2C503.639 58.8 505.405 53.9333 505.405 47.6V26.4C505.405 20.0667 503.639 15.2 500.105 11.8C496.639 8.39999 491.639 6.69999 485.105 6.69999C478.572 6.69999 473.539 8.39999 470.005 11.8C466.539 15.2 464.805 20.0667 464.805 26.4V47.6C464.805 53.9333 466.539 58.8 470.005 62.2C473.539 65.6 478.572 67.3 485.105 67.3ZM537.77 73.1C533.437 73.1 529.737 72.4667 526.67 71.2C523.67 69.8667 520.804 67.6667 518.07 64.6L522.37 60.1C524.437 62.6333 526.637 64.4667 528.97 65.6C531.37 66.7333 534.237 67.3 537.57 67.3C542.504 67.3 546.304 66.0667 548.97 63.6C551.637 61.0667 552.97 57.4667 552.97 52.8V2H560.17V53C560.17 59.4667 558.237 64.4333 554.37 67.9C550.504 71.3667 544.97 73.1 537.77 73.1ZM596.519 72C588.719 72 582.919 70.3 579.119 66.9C575.385 63.4333 573.519 58.1667 573.519 51.1V22.9C573.519 15.8333 575.385 10.6 579.119 7.2C582.919 3.73333 588.719 2 596.519 2H620.619V7.8H596.519C591.119 7.8 587.119 9.03333 584.519 11.5C581.985 13.9667 580.719 17.7667 580.719 22.9V34.1H615.519V39.9H580.719V51.1C580.719 56.2333 581.985 60.0333 584.519 62.5C587.119 64.9667 591.119 66.2 596.519 66.2H621.219V72H596.519ZM660.615 73.1C651.348 73.1 644.282 70.9333 639.415 66.6C634.615 62.2667 632.215 55.9333 632.215 47.6V26.3C632.215 18.1 634.548 11.8333 639.215 7.5C643.948 3.1 650.748 0.899997 659.615 0.899997C665.415 0.899997 670.382 1.83333 674.515 3.7C678.648 5.5 682.048 8.33333 684.715 12.2L679.615 15.9C677.282 12.7667 674.515 10.4667 671.315 8.99999C668.182 7.46666 664.382 6.69999 659.915 6.69999C653.248 6.69999 648.148 8.36666 644.615 11.7C641.148 15.0333 639.415 19.9 639.415 26.3V47.6C639.415 54.0667 641.182 58.9667 644.715 62.3C648.315 65.6333 653.582 67.3 660.515 67.3C665.115 67.3 669.015 66.5333 672.215 65C675.415 63.4667 678.182 61.0667 680.515 57.8L685.615 61.7C682.615 65.7 679.148 68.6 675.215 70.4C671.282 72.2 666.415 73.1 660.615 73.1ZM714.598 7.8H691.898V2H744.498V7.8H721.798V72H714.598V7.8ZM777.488 73.1C768.622 73.1 761.822 70.9333 757.088 66.6C752.355 62.2 749.988 55.8667 749.988 47.6V26.4C749.988 18.1333 752.355 11.8333 757.088 7.5C761.822 3.1 768.622 0.899997 777.488 0.899997C786.355 0.899997 793.155 3.1 797.888 7.5C802.622 11.8333 804.988 18.1333 804.988 26.4V47.6C804.988 55.8667 802.622 62.2 797.888 66.6C793.155 70.9333 786.355 73.1 777.488 73.1ZM777.488 67.3C784.022 67.3 789.022 65.6 792.488 62.2C796.022 58.8 797.788 53.9333 797.788 47.6V26.4C797.788 20.0667 796.022 15.2 792.488 11.8C789.022 8.39999 784.022 6.69999 777.488 6.69999C770.955 6.69999 765.922 8.39999 762.388 11.8C758.922 15.2 757.188 20.0667 757.188 26.4V47.6C757.188 53.9333 758.922 58.8 762.388 62.2C765.922 65.6 770.955 67.3 777.488 67.3ZM873.557 72H865.857L861.057 54C860.124 50.5333 859.057 47.8333 857.857 45.9C856.657 43.9667 854.99 42.5667 852.857 41.7C850.79 40.7667 847.957 40.3 844.357 40.3H828.157V72H820.957V2H850.957C857.49 2 862.457 3.63333 865.857 6.9C869.324 10.1667 871.057 14.7667 871.057 20.7C871.057 25.7 869.857 29.7 867.457 32.7C865.124 35.6333 861.79 37.4667 857.457 38.2C860.39 39.2667 862.657 41.0333 864.257 43.5C865.924 45.9667 867.39 49.4667 868.657 54L873.557 72ZM850.157 34.5C854.49 34.5 857.857 33.3333 860.257 31C862.657 28.6667 863.857 25.4 863.857 21.2C863.857 16.9333 862.657 13.6333 860.257 11.3C857.857 8.96666 854.49 7.8 850.157 7.8H828.157V34.5H850.157Z" fill="white"/>
<path d="M221.4 380.6C217.867 380.6 214.4 380.4 211 380C207.667 379.6 204.8 378.967 202.4 378.1V371.3C205.067 372.167 208.067 372.833 211.4 373.3C214.733 373.767 217.933 374 221 374C226 374 229.667 373.7 232 373.1C234.333 372.5 235.5 370.967 235.5 368.5C235.5 366.767 234.867 365.533 233.6 364.8C232.4 364.067 230.233 363.7 227.1 363.7H214.5C205.767 363.7 201.4 360.767 201.4 354.9C201.4 352.967 202 351.133 203.2 349.4C204.467 347.6 206.333 346.333 208.8 345.6C206.133 344.267 204.167 342.433 202.9 340.1C201.633 337.7 201 334.867 201 331.6C201 325.667 202.7 321.367 206.1 318.7C209.567 315.967 214.833 314.6 221.9 314.6C223.367 314.6 224.867 314.733 226.4 315C228 315.2 229.233 315.4 230.1 315.6H247.2L246.9 321.2H238.3C239.833 322.467 240.933 324 241.6 325.8C242.267 327.533 242.6 329.467 242.6 331.6C242.6 336.867 241.067 340.967 238 343.9C234.933 346.767 230.233 348.2 223.9 348.2C222.833 348.2 221.867 348.167 221 348.1C220.2 347.967 219.233 347.833 218.1 347.7C216.033 347.767 214.1 348.367 212.3 349.5C210.5 350.567 209.6 351.967 209.6 353.7C209.6 354.833 210.033 355.667 210.9 356.2C211.833 356.733 213.5 357 215.9 357H229C233.733 357 237.367 357.967 239.9 359.9C242.433 361.767 243.7 364.533 243.7 368.2C243.7 372.867 241.767 376.1 237.9 377.9C234.033 379.7 228.533 380.6 221.4 380.6ZM221.9 342C226.633 342 229.9 341.233 231.7 339.7C233.5 338.167 234.4 335.467 234.4 331.6C234.4 327.733 233.433 324.933 231.5 323.2C229.633 321.467 226.433 320.6 221.9 320.6C217.433 320.6 214.2 321.433 212.2 323.1C210.2 324.767 209.2 327.6 209.2 331.6C209.2 335.267 210.133 337.933 212 339.6C213.933 341.2 217.233 342 221.9 342ZM256.719 304.5V297H265.819V304.5H256.719ZM257.519 363V322.1H250.219L251.019 315.6H265.719V363H257.519ZM297.155 364C292.489 364 288.955 362.767 286.555 360.3C284.222 357.767 283.055 354.267 283.055 349.8V322.1H275.855V315.6H283.055V303.9L291.255 301.4V315.6H304.355L303.855 322.1H291.255V349.4C291.255 352.267 291.889 354.333 293.155 355.6C294.489 356.8 296.755 357.4 299.955 357.4C301.689 357.4 303.589 357.067 305.655 356.4V362.6C303.189 363.533 300.355 364 297.155 364ZM315.109 363V295.6H323.309V320.7C325.509 318.9 328.076 317.433 331.009 316.3C334.009 315.167 337.476 314.6 341.409 314.6C347.143 314.6 351.443 316 354.309 318.8C357.176 321.6 358.609 326 358.609 332V363H350.409V332.3C350.409 328.167 349.476 325.3 347.609 323.7C345.809 322.033 342.809 321.2 338.609 321.2C335.943 321.2 333.176 321.8 330.309 323C327.509 324.133 325.176 325.633 323.309 327.5V363H315.109ZM388.841 364C383.174 364 378.874 362.433 375.941 359.3C373.074 356.167 371.641 351.6 371.641 345.6V315.6H379.841V345.9C379.841 349.833 380.807 352.733 382.741 354.6C384.741 356.467 387.807 357.4 391.941 357.4C394.874 357.4 397.641 356.867 400.241 355.8C402.841 354.733 405.074 353.267 406.941 351.4V315.6H415.141V363H407.741L407.241 357.6C404.974 359.467 402.274 361 399.141 362.2C396.007 363.4 392.574 364 388.841 364ZM453.272 364C449.739 364 446.639 363.533 443.972 362.6C441.372 361.6 438.972 360.067 436.772 358L436.172 363H429.172V295.6H437.372V319.1C441.705 316.1 446.972 314.6 453.172 314.6C459.905 314.6 465.172 316.533 468.972 320.4C472.772 324.2 474.672 330.367 474.672 338.9C474.672 347.5 472.772 353.833 468.972 357.9C465.172 361.967 459.939 364 453.272 364ZM451.172 357.4C456.705 357.4 460.639 355.867 462.972 352.8C465.305 349.733 466.472 345.1 466.472 338.9C466.472 332.433 465.205 327.867 462.672 325.2C460.205 322.533 456.305 321.2 450.972 321.2C448.105 321.2 445.539 321.633 443.272 322.5C441.005 323.3 439.039 324.433 437.372 325.9V351.7C439.172 353.633 441.239 355.067 443.572 356C445.905 356.933 448.439 357.4 451.172 357.4ZM484.691 363V356.1H492.091V363H484.691ZM526.474 364C518.208 364 512.074 361.867 508.074 357.6C504.074 353.267 502.074 347.167 502.074 339.3C502.074 330.967 504.341 324.767 508.874 320.7C513.408 316.633 519.508 314.6 527.174 314.6C530.308 314.6 532.908 314.833 534.974 315.3C537.041 315.7 539.041 316.367 540.974 317.3V323.8C537.374 322.067 533.274 321.2 528.674 321.2C522.808 321.2 518.274 322.6 515.074 325.4C511.874 328.133 510.274 332.767 510.274 339.3C510.274 345.567 511.674 350.167 514.474 353.1C517.274 355.967 521.908 357.4 528.374 357.4C532.974 357.4 537.208 356.533 541.074 354.8V361.4C539.008 362.267 536.774 362.9 534.374 363.3C532.041 363.767 529.408 364 526.474 364ZM571.966 364C563.699 364 557.666 361.9 553.866 357.7C550.132 353.433 548.266 347.3 548.266 339.3C548.266 331.367 550.166 325.267 553.966 321C557.766 316.733 563.766 314.6 571.966 314.6C580.166 314.6 586.166 316.733 589.966 321C593.766 325.267 595.666 331.367 595.666 339.3C595.666 347.3 593.799 353.433 590.066 357.7C586.332 361.9 580.299 364 571.966 364ZM571.966 357C577.632 357 581.632 355.6 583.966 352.8C586.299 349.933 587.466 345.433 587.466 339.3C587.466 333.167 586.266 328.7 583.866 325.9C581.532 323.033 577.566 321.6 571.966 321.6C566.366 321.6 562.366 323.033 559.966 325.9C557.632 328.7 556.466 333.167 556.466 339.3C556.466 345.433 557.632 349.933 559.966 352.8C562.299 355.6 566.299 357 571.966 357ZM607.688 363V315.6H615.088L615.588 321C618.121 319 620.788 317.433 623.588 316.3C626.454 315.167 629.521 314.6 632.788 314.6C636.321 314.6 639.054 315.167 640.988 316.3C642.988 317.433 644.454 319.033 645.388 321.1C647.654 319.233 650.254 317.7 653.188 316.5C656.121 315.233 659.621 314.6 663.688 314.6C669.088 314.6 673.088 316 675.688 318.8C678.354 321.533 679.688 325.767 679.688 331.5V363H671.588V332.3C671.588 328.1 670.688 325.2 668.888 323.6C667.154 322 664.321 321.2 660.388 321.2C657.788 321.2 655.288 321.633 652.888 322.5C650.554 323.367 648.554 324.7 646.888 326.5C647.288 328.167 647.488 330.1 647.488 332.3V363H639.788V332.5C639.788 328.5 639.121 325.633 637.788 323.9C636.454 322.1 633.821 321.2 629.888 321.2C627.221 321.2 624.654 321.8 622.188 323C619.788 324.133 617.654 325.567 615.788 327.3V363H607.688ZM691.234 363L714.634 296.8H722.934L699.534 363H691.234ZM734.934 384.6V315.6H741.934L742.534 320.6C744.734 318.533 747.134 317.033 749.734 316.1C752.4 315.1 755.5 314.6 759.034 314.6C765.7 314.6 770.934 316.467 774.734 320.2C778.534 323.867 780.434 330 780.434 338.6C780.434 347.133 778.534 353.5 774.734 357.7C770.934 361.9 765.667 364 758.934 364C752.734 364 747.467 362.5 743.134 359.5V384.6H734.934ZM756.734 357.4C762.067 357.4 765.967 355.9 768.434 352.9C770.967 349.833 772.234 345.067 772.234 338.6C772.234 332.4 771.067 327.967 768.734 325.3C766.4 322.567 762.467 321.2 756.934 321.2C754.2 321.2 751.667 321.667 749.334 322.6C747 323.533 744.934 324.967 743.134 326.9V352.7C744.8 354.167 746.767 355.333 749.034 356.2C751.3 357 753.867 357.4 756.734 357.4ZM792.453 363V295.6H800.653V320.7C802.853 318.9 805.42 317.433 808.353 316.3C811.353 315.167 814.82 314.6 818.753 314.6C824.486 314.6 828.786 316 831.653 318.8C834.52 321.6 835.953 326 835.953 332V363H827.753V332.3C827.753 328.167 826.82 325.3 824.953 323.7C823.153 322.033 820.153 321.2 815.953 321.2C813.286 321.2 810.52 321.8 807.653 323C804.853 324.133 802.52 325.633 800.653 327.5V363H792.453ZM866.184 364C860.518 364 856.218 362.433 853.284 359.3C850.418 356.167 848.984 351.6 848.984 345.6V315.6H857.184V345.9C857.184 349.833 858.151 352.733 860.084 354.6C862.084 356.467 865.151 357.4 869.284 357.4C872.218 357.4 874.984 356.867 877.584 355.8C880.184 354.733 882.418 353.267 884.284 351.4V315.6H892.484V363H885.084L884.584 357.6C882.318 359.467 879.618 361 876.484 362.2C873.351 363.4 869.918 364 866.184 364ZM911.016 304.5V297H920.116V304.5H911.016ZM911.816 363V322.1H904.516L905.316 315.6H920.016V363H911.816ZM953.552 364C946.886 364 941.652 362.167 937.852 358.5C934.052 354.767 932.152 348.6 932.152 340C932.152 331.467 934.119 325.1 938.052 320.9C942.052 316.7 947.386 314.6 954.052 314.6C959.986 314.6 965.119 316.1 969.452 319.1V295.6H977.652V363H970.652L970.052 358C967.852 360.067 965.419 361.6 962.752 362.6C960.152 363.533 957.086 364 953.552 364ZM955.652 357.4C958.386 357.4 960.919 356.933 963.252 356C965.586 355.067 967.652 353.633 969.452 351.7V325.9C967.786 324.433 965.819 323.3 963.552 322.5C961.286 321.633 958.719 321.2 955.852 321.2C950.586 321.2 946.686 322.733 944.152 325.8C941.619 328.8 940.352 333.533 940.352 340C940.352 346.2 941.519 350.667 943.852 353.4C946.186 356.067 950.119 357.4 955.652 357.4Z" fill="white"/>
</svg>
