<svg width="313" height="549" viewBox="0 0 313 549" fill="none" xmlns="http://www.w3.org/2000/svg">
<path d="M210.5 420L179 398.5L211.5 357H257L286 398.5L256 420L242 388H223.5L210.5 420Z" stroke="white"/>
<path d="M216.951 169C188.371 169.275 164.811 146.081 164.951 117.5C165.087 89.4715 187.427 67.0443 215.451 66.5C244.302 65.9397 268.377 89.6459 267.951 118.5C267.536 146.526 244.978 168.731 216.951 169Z" stroke="white"/>
<path d="M95 141C82.0213 141 71.6366 130.478 71.5 117.5C71.3619 104.383 81.8825 93.5 95 93.5C108.117 93.5 118.638 104.383 118.5 117.5C118.363 130.478 107.979 141 95 141Z" stroke="white"/>
<path d="M216.501 141.5C203.523 141.5 193.138 130.978 193.001 118C192.863 104.883 203.384 94 216.501 94C229.619 94 240.139 104.883 240.001 118C239.865 130.978 229.48 141.5 216.501 141.5Z" stroke="white"/>
</svg>
