<svg width="621" height="546" viewBox="0 0 621 546" fill="none" xmlns="http://www.w3.org/2000/svg">
<rect x="114.5" y="98.5" width="384" height="347" stroke="black"/>
<path d="M46 411C43.6 407.8 87 267.667 109 198L295 186C309 195.667 342 233.8 362 309C387 403 260 551 198 406C136 261 625 480 390 212C155 -56 688 180 346 330C72.4 450 145.333 253.333 216 140" stroke="black"/>
<path d="M620.5 273C620.5 423.439 481.771 545.5 310.5 545.5C139.229 545.5 0.5 423.439 0.5 273C0.5 122.561 139.229 0.5 310.5 0.5C481.771 0.5 620.5 122.561 620.5 273Z" stroke="black"/>
</svg>
