<?xml version="1.0" encoding="UTF-8" standalone="no"?>
<svg xmlns:xlink="http://www.w3.org/1999/xlink" xmlns="http://www.w3.org/2000/svg" version="1.1" width="17403" height="2800" id="svg2">
<defs>
</defs>
<g id="76-10" transform="translate(400,400)">
 <g id="76-10-line" style="fill:none; stroke-linecap:round; stroke-linejoin:round;stroke-width:12; opacity:1; stroke:#050505">
  <path id="line-00L10" d="M 108 111 L 108 759 L 550 759 L 550 620" />
 </g>
</g>
<g id="65-11" transform="translate(1038,400)">
 <g id="65-11-line" style="fill:none; stroke-linecap:round; stroke-linejoin:round;stroke-width:12; opacity:1; stroke:#050505">
  <path id="line-00A11" d="M 602 759 L 602 140 C 527 115 445 101 356 101 C 265.3 101 183.4 115.2 108 140.1 L 108 759" />
  <path id="line-01A11" d="M 108 444 L 602 444" />
 </g>
</g>
<g id="83-12" transform="translate(1758,400)">
 <g id="83-12-line" style="fill:none; stroke-linecap:round; stroke-linejoin:round;stroke-width:12; opacity:1; stroke:#050505">
  <path id="line-00S12" d="M 108 631.5 L 108 730.1 C 184.6 756.1 255.6 769 338 769 C 420.1 769 490.6 755.8 567 730.1 L 567 467.9 L 122 383 L 122 139 C 194 114 260 101 337 101 C 415 101 481 114 553 139 L 553 238" />
 </g>
</g>
<g id="69-13" transform="translate(2443,400)">
 <g id="69-13-line" style="fill:none; stroke-linecap:round; stroke-linejoin:round;stroke-width:12; opacity:1; stroke:#050505">
  <path id="line-00E13" d="M 439 449 L 108 449" />
  <path id="line-01E13" d="M 567 207 L 567 111 L 108 111 L 108 759 L 562 759" />
 </g>
</g>
<g id="82-14" transform="translate(3113,400)">
 <g id="82-14-line" style="fill:none; stroke-linecap:round; stroke-linejoin:round;stroke-width:12; opacity:1; stroke:#050505">
  <path id="line-00R14" d="M 108 759 L 108 111 L 324 111 C 412.9 111 496.3 125.3 572 150.3 L 572 429.7 C 496.3 454.8 412.9 469 324 469 L 108 469" />
  <path id="line-01R14" d="M 318 469 L 542.4 759 L 588 759" />
 </g>
</g>
<g id="32-15" transform="translate(3811,400)">
</g>
<g id="80-16" transform="translate(4201,400)">
 <g id="80-16-line" style="fill:none; stroke-linecap:round; stroke-linejoin:round;stroke-width:12; opacity:1; stroke:#050505">
  <path id="line-00P16" d="M 108 509 L 334 509 C 422.9 509 506.3 494.8 582 469.7 L 582 150.3 C 506.3 125.3 422.9 111 334 111 L 108 111 L 108 759" />
 </g>
</g>
<g id="82-17" transform="translate(4887,400)">
 <g id="82-17-line" style="fill:none; stroke-linecap:round; stroke-linejoin:round;stroke-width:12; opacity:1; stroke:#050505">
  <path id="line-00R17" d="M 108 759 L 108 111 L 324 111 C 412.9 111 496.3 125.3 572 150.3 L 572 429.7 C 496.3 454.8 412.9 469 324 469 L 108 469" />
  <path id="line-01R17" d="M 318 469 L 542.4 759 L 588 759" />
 </g>
</g>
<g id="79-18" transform="translate(5585,400)">
 <g id="79-18-line" style="fill:none; stroke-linecap:round; stroke-linejoin:round;stroke-width:12; opacity:1; stroke:#050505">
  <path id="line-00O18" d="M 108 729.9 L 108 140.1 C 183.4 115.2 265.3 101 354 101 C 442.8 101 526.3 115.2 602 140.2 L 602 729.8 C 526.3 754.8 442.8 769 354 769 C 265.3 769 183.4 754.8 108 729.9 z" />
 </g>
</g>
<g id="74-19" transform="translate(6305,400)">
 <g id="74-19-line" style="fill:none; stroke-linecap:round; stroke-linejoin:round;stroke-width:12; opacity:1; stroke:#050505">
  <path id="line-00J19" d="M 108 278.5 L 108 111 L 542 111 L 542 730 C 463.4 756.4 390.6 769 306 769 C 231.6 769 166.6 760 98 740.6" />
 </g>
</g>
<g id="69-20" transform="translate(6965,400)">
 <g id="69-20-line" style="fill:none; stroke-linecap:round; stroke-linejoin:round;stroke-width:12; opacity:1; stroke:#050505">
  <path id="line-00E20" d="M 439 449 L 108 449" />
  <path id="line-01E20" d="M 567 207 L 567 111 L 108 111 L 108 759 L 562 759" />
 </g>
</g>
<g id="67-21" transform="translate(7635,400)">
 <g id="67-21-line" style="fill:none; stroke-linecap:round; stroke-linejoin:round;stroke-width:12; opacity:1; stroke:#050505">
  <path id="line-00C21" d="M 570 739.6 C 502.8 758.4 430.9 769 354 769 C 265.3 769 183.4 754.8 108 729.9 L 108 140.1 C 183.4 115.2 265.3 101 354 101 C 429.6 101 500.9 111.4 567 130 L 567 235.5" />
 </g>
</g>
<g id="84-22" transform="translate(8315,400)">
 <g id="84-22-line" style="fill:none; stroke-linecap:round; stroke-linejoin:round;stroke-width:12; opacity:1; stroke:#050505">
  <path id="line-00T22" d="M 320 110 L 320 759" />
  <path id="line-01T22" d="M 55 248 L 55 111 L 585 111 L 585 248" />
 </g>
</g>
<g id="79-23" transform="translate(8965,400)">
 <g id="79-23-line" style="fill:none; stroke-linecap:round; stroke-linejoin:round;stroke-width:12; opacity:1; stroke:#050505">
  <path id="line-00O23" d="M 108 729.9 L 108 140.1 C 183.4 115.2 265.3 101 354 101 C 442.8 101 526.3 115.2 602 140.2 L 602 729.8 C 526.3 754.8 442.8 769 354 769 C 265.3 769 183.4 754.8 108 729.9 z" />
 </g>
</g>
<g id="82-24" transform="translate(9685,400)">
 <g id="82-24-line" style="fill:none; stroke-linecap:round; stroke-linejoin:round;stroke-width:12; opacity:1; stroke:#050505">
  <path id="line-00R24" d="M 108 759 L 108 111 L 324 111 C 412.9 111 496.3 125.3 572 150.3 L 572 429.7 C 496.3 454.8 412.9 469 324 469 L 108 469" />
  <path id="line-01R24" d="M 318 469 L 542.4 759 L 588 759" />
 </g>
</g>
<g id="32-25" transform="translate(10383,400)">
</g>
<g id="32-26" transform="translate(10773,400)">
</g>
<g id="32-27" transform="translate(11163,400)">
</g>
<g id="32-28" transform="translate(11553,400)">
</g>
<g id="32-29" transform="translate(11943,400)">
</g>
<g id="32-30" transform="translate(12333,400)">
</g>
<g id="32-31" transform="translate(12723,400)">
</g>
<g id="32-32" transform="translate(13113,400)">
</g>
<g id="32-33" transform="translate(13503,400)">
</g>
<g id="32-34" transform="translate(13893,400)">
</g>
<g id="32-35" transform="translate(14283,400)">
</g>
<g id="32-36" transform="translate(14673,400)">
</g>
<g id="32-37" transform="translate(15063,400)">
</g>
<g id="32-38" transform="translate(15453,400)">
</g>
<g id="32-39" transform="translate(15843,400)">
</g>
<g id="32-40" transform="translate(16233,400)">
</g>
<g id="32-41" transform="translate(16623,400)">
</g>
<g id="32-42" transform="translate(2481,1400)">
</g>
<g id="32-43" transform="translate(2871,1400)">
</g>
<g id="32-44" transform="translate(3261,1400)">
</g>
<g id="32-45" transform="translate(3651,1400)">
</g>
<g id="32-46" transform="translate(4041,1400)">
</g>
<g id="32-47" transform="translate(4431,1400)">
</g>
<g id="32-48" transform="translate(4821,1400)">
</g>
<g id="32-49" transform="translate(5211,1400)">
</g>
<g id="103-50" transform="translate(5601,1400)">
 <g id="103-50-line" style="fill:none; stroke-linecap:round; stroke-linejoin:round;stroke-width:12; opacity:1; stroke:#050505">
  <path id="line-00g50" d="M 553 724.2 C 476.9 755.2 404.6 770 320.5 770 C 244 770 179.1 757.7 107 731.8 L 107 368.2 C 175.2 343.8 250.5 330 330 330 C 409.4 330 486.6 350.6 553 377.4" />
  <path id="line-01g50" d="M 572 330 L 553 377.4 L 553 935.2 C 479.3 963.6 397.2 980 310 980 C 242 980 177 969.8 117 951.5 L 117 873" />
 </g>
</g>
<g id="105-51" transform="translate(6274,1400)">
 <g id="105-51-line" style="fill:none; stroke-linecap:round; stroke-linejoin:round;stroke-width:12; opacity:1; stroke:#050505">
  <path id="line-00i51" d="M 158 165 L 158 84" />
  <path id="line-01i51" d="M 80 759 L 235 759" />
  <path id="line-02i51" d="M 75 340 L 158 340 L 157.5 759" />
 </g>
</g>
<g id="116-52" transform="translate(6569,1400)">
 <g id="116-52-line" style="fill:none; stroke-linecap:round; stroke-linejoin:round;stroke-width:12; opacity:1; stroke:#050505">
  <path id="line-00t52" d="M 55 350 L 380 350" />
  <path id="line-01t52" d="M 162 191 L 162 731.8 C 233.3 757.1 305.4 770 395 770" />
 </g>
</g>
<g id="104-53" transform="translate(7034,1400)">
 <g id="104-53-line" style="fill:none; stroke-linecap:round; stroke-linejoin:round;stroke-width:12; opacity:1; stroke:#050505">
  <path id="line-00h53" d="M 556 759 L 556 368.2 C 487.8 343.8 412.5 330 333 330 C 253.6 330 178.5 343.6 110 367.4" />
  <path id="line-01h53" d="M 110 759 L 110 70" />
 </g>
</g>
<g id="117-54" transform="translate(7707,1400)">
 <g id="117-54-line" style="fill:none; stroke-linecap:round; stroke-linejoin:round;stroke-width:12; opacity:1; stroke:#050505">
  <path id="line-00u54" d="M 107 343 L 107 731.8 C 175.2 756.2 250.5 770 330 770 C 409.4 770 486.6 749.4 553 722.6" />
  <path id="line-01u54" d="M 553 343 L 553 722.6 L 572 770" />
 </g>
</g>
<g id="98-55" transform="translate(8379,1400)">
 <g id="98-55-line" style="fill:none; stroke-linecap:round; stroke-linejoin:round;stroke-width:12; opacity:1; stroke:#050505">
  <path id="line-00b55" d="M 110 70 L 110 732.6 C 178.5 756.4 253.6 770 333 770 C 412.5 770 487.8 756.2 556 731.8 L 556 368.2 C 483.9 342.3 419.1 330 342.5 330 C 258.5 330 186.1 344.8 110 375.8" />
 </g>
</g>
<g id="46-56" transform="translate(9052,1400)">
 <g id="46-56-line" style="fill:none; stroke-linecap:round; stroke-linejoin:round;stroke-width:12; opacity:1; stroke:#050505">
  <path id="line-00period56" d="M 108 727 L 108 815" />
 </g>
</g>
<g id="99-57" transform="translate(9278,1400)">
 <g id="99-57-line" style="fill:none; stroke-linecap:round; stroke-linejoin:round;stroke-width:12; opacity:1; stroke:#050505">
  <path id="line-00c57" d="M 523 488.8 L 523 358.5 C 463 340.2 398.1 330 330 330 C 250.5 330 175.2 343.8 107 368.2 L 107 731.8 C 175.2 756.2 250.5 770 330 770 C 397.7 770 462.1 760 522 742.4" />
 </g>
</g>
<g id="111-58" transform="translate(9913,1400)">
 <g id="111-58-line" style="fill:none; stroke-linecap:round; stroke-linejoin:round;stroke-width:12; opacity:1; stroke:#050505">
  <path id="line-00o58" d="M 107 731.8 L 107 368.2 C 175.2 343.8 250.5 330 330 330 C 409.5 330 484.8 343.8 553 368.2 L 553 731.8 C 484.8 756.2 409.5 770 330 770 C 250.5 770 175.2 756.2 107 731.8 z" />
 </g>
</g>
<g id="109-59" transform="translate(10583,1400)">
 <g id="109-59-line" style="fill:none; stroke-linecap:round; stroke-linejoin:round;stroke-width:12; opacity:1; stroke:#050505">
  <path id="line-00m59" d="M 465 375.4 C 520.3 349.2 584.3 330 646.5 330 C 714.9 330 763.4 344.9 822 375.4 L 822 759" />
  <path id="line-01m59" d="M 109 759 L 109 381.4 L 90 330" />
  <path id="line-02m59" d="M 109 381.4 C 162.3 352.3 227.3 330 289.5 330 C 357.9 330 406.4 344.9 465 375.4 L 465 759" />
 </g>
</g>
<g id="47-60" transform="translate(11522,1400)">
 <g id="47-60-line" style="fill:none; stroke-linecap:round; stroke-linejoin:round;stroke-width:12; opacity:1; stroke:#050505">
  <path id="line-00slash60" d="M 88 828 L 297 42" />
 </g>
</g>
<g id="112-61" transform="translate(11917,1400)">
 <g id="112-61-line" style="fill:none; stroke-linecap:round; stroke-linejoin:round;stroke-width:12; opacity:1; stroke:#050505">
  <path id="line-00p61" d="M 109 724.2 C 185.1 755.2 257.5 770 341.5 770 C 418.1 770 482.9 757.7 555 731.8 L 555 368.2 C 486.8 343.8 411.5 330 332 330 C 252.6 330 175.5 350.6 109 377.4" />
  <path id="line-01p61" d="M 109 980 L 109 377.4 L 90 330" />
 </g>
</g>
<g id="104-62" transform="translate(12589,1400)">
 <g id="104-62-line" style="fill:none; stroke-linecap:round; stroke-linejoin:round;stroke-width:12; opacity:1; stroke:#050505">
  <path id="line-00h62" d="M 556 759 L 556 368.2 C 487.8 343.8 412.5 330 333 330 C 253.6 330 178.5 343.6 110 367.4" />
  <path id="line-01h62" d="M 110 759 L 110 70" />
 </g>
</g>
<g id="117-63" transform="translate(13262,1400)">
 <g id="117-63-line" style="fill:none; stroke-linecap:round; stroke-linejoin:round;stroke-width:12; opacity:1; stroke:#050505">
  <path id="line-00u63" d="M 107 343 L 107 731.8 C 175.2 756.2 250.5 770 330 770 C 409.4 770 486.6 749.4 553 722.6" />
  <path id="line-01u63" d="M 553 343 L 553 722.6 L 572 770" />
 </g>
</g>
<g id="105-64" transform="translate(13934,1400)">
 <g id="105-64-line" style="fill:none; stroke-linecap:round; stroke-linejoin:round;stroke-width:12; opacity:1; stroke:#050505">
  <path id="line-00i64" d="M 158 165 L 158 84" />
  <path id="line-01i64" d="M 80 759 L 235 759" />
  <path id="line-02i64" d="M 75 340 L 158 340 L 157.5 759" />
 </g>
</g>
<g id="100-65" transform="translate(14259,1400)">
 <g id="100-65-line" style="fill:none; stroke-linecap:round; stroke-linejoin:round;stroke-width:12; opacity:1; stroke:#050505">
  <path id="line-00d65" d="M 553 375.8 C 476.9 344.8 404.6 330 320.5 330 C 244 330 179.1 342.3 107 368.2 L 107 731.8 C 175.2 756.2 250.5 770 330 770 C 409.4 770 486.6 749.4 553 722.6" />
  <path id="line-01d65" d="M 553 70 L 553 722.6 L 572 770" />
 </g>
</g>
</svg>