<?xml version="1.0" encoding="UTF-8" standalone="no"?>
<svg xmlns:xlink="http://www.w3.org/1999/xlink" xmlns="http://www.w3.org/2000/svg" version="1.1" width="17566" height="2800" id="svg2">
<defs>
</defs>
<g id="76-10" transform="translate(400,400)">
 <g id="76-10-sing" style="fill:none; stroke-linecap:round; stroke-linejoin:round;stroke-width:18; opacity:1; stroke:#050505">
  <path id="sing-00L10" d="M 570 770 L 138 770 L 138 130" />
 </g>
</g>
<g id="65-11" transform="translate(1025,400)">
 <g id="65-11-sing" style="fill:none; stroke-linecap:round; stroke-linejoin:round;stroke-width:18; opacity:1; stroke:#050505">
  <path id="sing-00A11" d="M 664 770 L 357 110 L 50 770" />
  <path id="sing-01A11" d="M 574 576 L 140.3 576" />
 </g>
</g>
<g id="83-12" transform="translate(1739,400)">
 <g id="83-12-sing" style="fill:none; stroke-linecap:round; stroke-linejoin:round;stroke-width:18; opacity:1; stroke:#050505">
  <path id="sing-00S12" d="M 568 181.4 C 506.5 142.8 430.4 120 348 120 C 214.6 121 118 179.6 118 262 C 118 356.5 237.5 395.5 357.5 426.5 C 483.5 459 618 499.5 618 611 C 618 705 499.5 780 348 780 C 248.1 780 157 745.9 88 690" />
 </g>
</g>
<g id="69-13" transform="translate(2444,400)">
 <g id="69-13-sing" style="fill:none; stroke-linecap:round; stroke-linejoin:round;stroke-width:18; opacity:1; stroke:#050505">
  <path id="sing-00E13" d="M 138 452 L 534 452" />
  <path id="sing-01E13" d="M 594 770 L 138 770 L 138 130 L 594 130" />
 </g>
</g>
<g id="82-14" transform="translate(3128,400)">
 <g id="82-14-sing" style="fill:none; stroke-linecap:round; stroke-linejoin:round;stroke-width:18; opacity:1; stroke:#050505">
  <path id="sing-00R14" d="M 138 770 L 138 130 L 496 130 C 609.7 130 702 218.3 702 332 C 702 445.7 609.7 532 496 532 L 138 532" />
  <path id="sing-01R14" d="M 678.8 770 L 428 532" />
 </g>
</g>
<g id="32-15" transform="translate(3922,400)">
</g>
<g id="80-16" transform="translate(4282,400)">
 <g id="80-16-sing" style="fill:none; stroke-linecap:round; stroke-linejoin:round;stroke-width:18; opacity:1; stroke:#050505">
  <path id="sing-00P16" d="M 138 573 L 476 573 C 600.8 573 702 474.8 702 350 C 702 225.3 600.8 130 476 130 L 138 130 L 138 770" />
 </g>
</g>
<g id="82-17" transform="translate(5066,400)">
 <g id="82-17-sing" style="fill:none; stroke-linecap:round; stroke-linejoin:round;stroke-width:18; opacity:1; stroke:#050505">
  <path id="sing-00R17" d="M 138 770 L 138 130 L 496 130 C 609.7 130 702 218.3 702 332 C 702 445.7 609.7 532 496 532 L 138 532" />
  <path id="sing-01R17" d="M 678.8 770 L 428 532" />
 </g>
</g>
<g id="79-18" transform="translate(5860,400)">
 <g id="79-18-sing" style="fill:none; stroke-linecap:round; stroke-linejoin:round;stroke-width:18; opacity:1; stroke:#050505">
  <path id="sing-00O18" d="M 93 450 C 93 270.1 239.1 120 419 120 C 598.9 120 745 270.1 745 450 C 745 629.9 598.9 780 419 780 C 239.1 780 93 629.9 93 450 z" />
 </g>
</g>
<g id="74-19" transform="translate(6698,400)">
 <g id="74-19-sing" style="fill:none; stroke-linecap:round; stroke-linejoin:round;stroke-width:18; opacity:1; stroke:#050505">
  <path id="sing-00J19" d="M 78 734.4 C 135.2 764.5 197.9 780 263 780 C 403.4 780 505 688 505 561 L 505 130 L 98 130" />
 </g>
</g>
<g id="69-20" transform="translate(7324,400)">
 <g id="69-20-sing" style="fill:none; stroke-linecap:round; stroke-linejoin:round;stroke-width:18; opacity:1; stroke:#050505">
  <path id="sing-00E20" d="M 138 452 L 534 452" />
  <path id="sing-01E20" d="M 594 770 L 138 770 L 138 130 L 594 130" />
 </g>
</g>
<g id="67-21" transform="translate(8008,400)">
 <g id="67-21-sing" style="fill:none; stroke-linecap:round; stroke-linejoin:round;stroke-width:18; opacity:1; stroke:#050505">
  <path id="sing-00C21" d="M 667 717.3 C 593.8 764.2 517.3 780 429 780 C 234.1 780 93 640.8 93 450 C 93 259.2 234.1 120 429 120 C 517.3 120 593.8 135.8 667 182.7" />
 </g>
</g>
<g id="84-22" transform="translate(8763,400)">
 <g id="84-22-sing" style="fill:none; stroke-linecap:round; stroke-linejoin:round;stroke-width:18; opacity:1; stroke:#050505">
  <path id="sing-00T22" d="M 51 130 L 627 130" />
  <path id="sing-01T22" d="M 339 770 L 339 130" />
 </g>
</g>
<g id="79-23" transform="translate(9414,400)">
 <g id="79-23-sing" style="fill:none; stroke-linecap:round; stroke-linejoin:round;stroke-width:18; opacity:1; stroke:#050505">
  <path id="sing-00O23" d="M 93 450 C 93 270.1 239.1 120 419 120 C 598.9 120 745 270.1 745 450 C 745 629.9 598.9 780 419 780 C 239.1 780 93 629.9 93 450 z" />
 </g>
</g>
<g id="82-24" transform="translate(10252,400)">
 <g id="82-24-sing" style="fill:none; stroke-linecap:round; stroke-linejoin:round;stroke-width:18; opacity:1; stroke:#050505">
  <path id="sing-00R24" d="M 138 770 L 138 130 L 496 130 C 609.7 130 702 218.3 702 332 C 702 445.7 609.7 532 496 532 L 138 532" />
  <path id="sing-01R24" d="M 678.8 770 L 428 532" />
 </g>
</g>
<g id="32-25" transform="translate(11046,400)">
</g>
<g id="32-26" transform="translate(11406,400)">
</g>
<g id="32-27" transform="translate(11766,400)">
</g>
<g id="32-28" transform="translate(12126,400)">
</g>
<g id="32-29" transform="translate(12486,400)">
</g>
<g id="32-30" transform="translate(12846,400)">
</g>
<g id="32-31" transform="translate(13206,400)">
</g>
<g id="32-32" transform="translate(13566,400)">
</g>
<g id="32-33" transform="translate(13926,400)">
</g>
<g id="32-34" transform="translate(14286,400)">
</g>
<g id="32-35" transform="translate(14646,400)">
</g>
<g id="32-36" transform="translate(15006,400)">
</g>
<g id="32-37" transform="translate(15366,400)">
</g>
<g id="32-38" transform="translate(15726,400)">
</g>
<g id="32-39" transform="translate(16086,400)">
</g>
<g id="32-40" transform="translate(16446,400)">
</g>
<g id="32-41" transform="translate(16806,400)">
</g>
<g id="32-42" transform="translate(2673,1400)">
</g>
<g id="32-43" transform="translate(3033,1400)">
</g>
<g id="32-44" transform="translate(3393,1400)">
</g>
<g id="32-45" transform="translate(3753,1400)">
</g>
<g id="32-46" transform="translate(4113,1400)">
</g>
<g id="32-47" transform="translate(4473,1400)">
</g>
<g id="32-48" transform="translate(4833,1400)">
</g>
<g id="32-49" transform="translate(5193,1400)">
</g>
<g id="103-50" transform="translate(5553,1400)">
 <g id="103-50-sing" style="fill:none; stroke-linecap:round; stroke-linejoin:round;stroke-width:18; opacity:1; stroke:#050505">
  <path id="sing-00g50" d="M 548 704 C 479.2 742.2 413.2 762 335 762 C 198.7 762 89 655.8 89 525 C 89 378 187.8 280 336 280 C 411.2 280 491 302 548 329" />
  <path id="sing-01g50" d="M 157 957 C 210.3 978 279.1 994 342 994 C 455.7 994 548 913.5 548 814 L 548 329 L 568 279" />
 </g>
</g>
<g id="105-51" transform="translate(6229,1400)">
 <g id="105-51-sing" style="fill:none; stroke-linecap:round; stroke-linejoin:round;stroke-width:18; opacity:1; stroke:#050505">
  <path id="sing-00i51" d="M 128 770 L 128 290" />
  <path id="sing-01i51" d="M 128 156 L 128 82" />
 </g>
</g>
<g id="116-52" transform="translate(6485,1400)">
 <g id="116-52-sing" style="fill:none; stroke-linecap:round; stroke-linejoin:round;stroke-width:18; opacity:1; stroke:#050505">
  <path id="sing-00t52" d="M 118 300 L 405 300" />
  <path id="sing-01t52" d="M 118 142.5 L 118 646 C 118 717.8 196.4 776 293 776 C 331.9 776 374.8 765.1 418 741" />
 </g>
</g>
<g id="104-53" transform="translate(6986,1400)">
 <g id="104-53-sing" style="fill:none; stroke-linecap:round; stroke-linejoin:round;stroke-width:18; opacity:1; stroke:#050505">
  <path id="sing-00h53" d="M 130 335.8 C 174.8 311.8 265.6 280 356 280 C 458.1 280 532 343 532 430 L 532 770" />
  <path id="sing-01h53" d="M 130 770 L 130 100" />
 </g>
</g>
<g id="117-54" transform="translate(7637,1400)">
 <g id="117-54-sing" style="fill:none; stroke-linecap:round; stroke-linejoin:round;stroke-width:18; opacity:1; stroke:#050505">
  <path id="sing-00u54" d="M 521 724 C 476 748 385.4 780 295 780 C 192.9 780 119 717 119 630 L 119 290" />
  <path id="sing-01u54" d="M 521 290 L 521 724 L 541 780" />
 </g>
</g>
<g id="98-55" transform="translate(8282,1400)">
 <g id="98-55-sing" style="fill:none; stroke-linecap:round; stroke-linejoin:round;stroke-width:18; opacity:1; stroke:#050505">
  <path id="sing-00b55" d="M 130 100 L 130 733 C 188 759 271 780 340 780 C 478 780 589 668 589 530 C 589 385 485.3 280 342 280 C 266.8 280 187.1 301.7 130 328.6" />
 </g>
</g>
<g id="46-56" transform="translate(8957,1400)">
 <g id="46-56-sing" style="fill:none; stroke-linecap:round; stroke-linejoin:round;stroke-width:18; opacity:1; stroke:#050505">
  <path id="sing-00period56" d="M 84 798 L 84 743" />
 </g>
</g>
<g id="99-57" transform="translate(9125,1400)">
 <g id="99-57-sing" style="fill:none; stroke-linecap:round; stroke-linejoin:round;stroke-width:18; opacity:1; stroke:#050505">
  <path id="sing-00c57" d="M 514 737.3 C 459.2 764.9 407.9 780 347 780 C 196.9 780 90 675 90 530 C 90 385 196.9 280 347 280 C 407.9 280 459.2 295.1 514 322.7" />
 </g>
</g>
<g id="111-58" transform="translate(9735,1400)">
 <g id="111-58-sing" style="fill:none; stroke-linecap:round; stroke-linejoin:round;stroke-width:18; opacity:1; stroke:#050505">
  <path id="sing-00o58" d="M 89 530 C 89 392 199.7 280 336 280 C 472.3 280 583 392 583 530 C 583 668 472.3 780 336 780 C 199.7 780 89 668 89 530 z" />
 </g>
</g>
<g id="109-59" transform="translate(10407,1400)">
 <g id="109-59-sing" style="fill:none; stroke-linecap:round; stroke-linejoin:round;stroke-width:18; opacity:1; stroke:#050505">
  <path id="sing-00m59" d="M 130 770 L 130 326 L 110 280" />
  <path id="sing-01m59" d="M 130 326 C 182 304 255.8 280 330 280 C 426.3 280 496 338.8 496 420 L 496 770" />
  <path id="sing-02m59" d="M 468.8 339.9 C 518.5 314.8 608.2 280 698 280 C 794.3 280 864 338.8 864 420 L 864 770" />
 </g>
</g>
<g id="47-60" transform="translate(11390,1400)">
 <g id="47-60-sing" style="fill:none; stroke-linecap:round; stroke-linejoin:round;stroke-width:18; opacity:1; stroke:#050505">
  <path id="sing-00slash60" d="M 546 80 L 48 820" />
 </g>
</g>
<g id="112-61" transform="translate(11985,1400)">
 <g id="112-61-sing" style="fill:none; stroke-linecap:round; stroke-linejoin:round;stroke-width:18; opacity:1; stroke:#050505">
  <path id="sing-00p61" d="M 130 722 C 198.8 760.2 263.8 780 342 780 C 479 780 589 668 589 530 C 589 385 485.3 280 342 280 C 266.8 280 187 302 130 329" />
  <path id="sing-01p61" d="M 130 990 L 130 329 L 110 280" />
 </g>
</g>
<g id="104-62" transform="translate(12663,1400)">
 <g id="104-62-sing" style="fill:none; stroke-linecap:round; stroke-linejoin:round;stroke-width:18; opacity:1; stroke:#050505">
  <path id="sing-00h62" d="M 130 335.8 C 174.8 311.8 265.6 280 356 280 C 458.1 280 532 343 532 430 L 532 770" />
  <path id="sing-01h62" d="M 130 770 L 130 100" />
 </g>
</g>
<g id="117-63" transform="translate(13314,1400)">
 <g id="117-63-sing" style="fill:none; stroke-linecap:round; stroke-linejoin:round;stroke-width:18; opacity:1; stroke:#050505">
  <path id="sing-00u63" d="M 521 724 C 476 748 385.4 780 295 780 C 192.9 780 119 717 119 630 L 119 290" />
  <path id="sing-01u63" d="M 521 290 L 521 724 L 541 780" />
 </g>
</g>
<g id="105-64" transform="translate(13959,1400)">
 <g id="105-64-sing" style="fill:none; stroke-linecap:round; stroke-linejoin:round;stroke-width:18; opacity:1; stroke:#050505">
  <path id="sing-00i64" d="M 128 770 L 128 290" />
  <path id="sing-01i64" d="M 128 156 L 128 82" />
 </g>
</g>
<g id="100-65" transform="translate(14215,1400)">
 <g id="100-65-sing" style="fill:none; stroke-linecap:round; stroke-linejoin:round;stroke-width:18; opacity:1; stroke:#050505">
  <path id="sing-00d65" d="M 548 722 C 479.2 760.2 413.2 780 335 780 C 198 780 89 668 89 530 C 89 385 192.7 280 336 280" />
  <path id="sing-01d65" d="M 548 328.6 C 490.9 301.7 410.2 280 336 280" />
  <path id="sing-02d65" d="M 548 100 L 548 722 L 568 780" />
 </g>
</g>
</svg>