<svg width="777" height="90" viewBox="0 0 777 90" fill="none" xmlns="http://www.w3.org/2000/svg">
<path d="M20.4 85.6C16.8667 85.6 13.4 85.4 10 85C6.66667 84.6 3.8 83.9667 1.4 83.1V76.3C4.06667 77.1667 7.06667 77.8333 10.4 78.3C13.7333 78.7667 16.9333 79 20 79C25 79 28.6667 78.7 31 78.1C33.3333 77.5 34.5 75.9667 34.5 73.5C34.5 71.7667 33.8667 70.5333 32.6 69.8C31.4 69.0667 29.2333 68.7 26.1 68.7H13.5C4.76667 68.7 0.4 65.7667 0.4 59.9C0.4 57.9667 1 56.1333 2.2 54.4C3.46667 52.6 5.33333 51.3333 7.8 50.6C5.13333 49.2667 3.16667 47.4333 1.9 45.1C0.633334 42.7 7.45058e-08 39.8667 7.45058e-08 36.6C7.45058e-08 30.6667 1.7 26.3667 5.1 23.7C8.56667 20.9667 13.8333 19.6 20.9 19.6C22.3667 19.6 23.8667 19.7333 25.4 20C27 20.2 28.2333 20.4 29.1 20.6H46.2L45.9 26.2H37.3C38.8333 27.4667 39.9333 29 40.6 30.8C41.2667 32.5333 41.6 34.4667 41.6 36.6C41.6 41.8667 40.0667 45.9667 37 48.9C33.9333 51.7667 29.2333 53.2 22.9 53.2C21.8333 53.2 20.8667 53.1667 20 53.1C19.2 52.9667 18.2333 52.8333 17.1 52.7C15.0333 52.7667 13.1 53.3667 11.3 54.5C9.5 55.5667 8.6 56.9667 8.6 58.7C8.6 59.8333 9.03333 60.6667 9.9 61.2C10.8333 61.7333 12.5 62 14.9 62H28C32.7333 62 36.3667 62.9667 38.9 64.9C41.4333 66.7667 42.7 69.5333 42.7 73.2C42.7 77.8667 40.7667 81.1 36.9 82.9C33.0333 84.7 27.5333 85.6 20.4 85.6ZM20.9 47C25.6333 47 28.9 46.2333 30.7 44.7C32.5 43.1667 33.4 40.4667 33.4 36.6C33.4 32.7333 32.4333 29.9333 30.5 28.2C28.6333 26.4667 25.4333 25.6 20.9 25.6C16.4333 25.6 13.2 26.4333 11.2 28.1C9.2 29.7667 8.2 32.6 8.2 36.6C8.2 40.2667 9.13333 42.9333 11 44.6C12.9333 46.2 16.2333 47 20.9 47ZM55.7188 9.5V2H64.8188V9.5H55.7188ZM56.5188 68V27.1H49.2188L50.0188 20.6H64.7188V68H56.5188ZM96.1555 69C91.4888 69 87.9555 67.7667 85.5555 65.3C83.2221 62.7667 82.0555 59.2667 82.0555 54.8V27.1H74.8555V20.6H82.0555V8.9L90.2555 6.39999V20.6H103.355L102.855 27.1H90.2555V54.4C90.2555 57.2667 90.8888 59.3333 92.1555 60.6C93.4888 61.8 95.7555 62.4 98.9555 62.4C100.689 62.4 102.589 62.0667 104.655 61.4V67.6C102.189 68.5333 99.3555 69 96.1555 69ZM114.109 68V0.599998H122.309V25.7C124.509 23.9 127.076 22.4333 130.009 21.3C133.009 20.1667 136.476 19.6 140.409 19.6C146.143 19.6 150.443 21 153.309 23.8C156.176 26.6 157.609 31 157.609 37V68H149.409V37.3C149.409 33.1667 148.476 30.3 146.609 28.7C144.809 27.0333 141.809 26.2 137.609 26.2C134.943 26.2 132.176 26.8 129.309 28C126.509 29.1333 124.176 30.6333 122.309 32.5V68H114.109ZM187.841 69C182.174 69 177.874 67.4333 174.941 64.3C172.074 61.1667 170.641 56.6 170.641 50.6V20.6H178.841V50.9C178.841 54.8333 179.807 57.7333 181.741 59.6C183.741 61.4667 186.807 62.4 190.941 62.4C193.874 62.4 196.641 61.8667 199.241 60.8C201.841 59.7333 204.074 58.2667 205.941 56.4V20.6H214.141V68H206.741L206.241 62.6C203.974 64.4667 201.274 66 198.141 67.2C195.007 68.4 191.574 69 187.841 69ZM252.272 69C248.739 69 245.639 68.5333 242.972 67.6C240.372 66.6 237.972 65.0667 235.772 63L235.172 68H228.172V0.599998H236.372V24.1C240.705 21.1 245.972 19.6 252.172 19.6C258.905 19.6 264.172 21.5333 267.972 25.4C271.772 29.2 273.672 35.3667 273.672 43.9C273.672 52.5 271.772 58.8333 267.972 62.9C264.172 66.9667 258.939 69 252.272 69ZM250.172 62.4C255.705 62.4 259.639 60.8667 261.972 57.8C264.305 54.7333 265.472 50.1 265.472 43.9C265.472 37.4333 264.205 32.8667 261.672 30.2C259.205 27.5333 255.305 26.2 249.972 26.2C247.105 26.2 244.539 26.6333 242.272 27.5C240.005 28.3 238.039 29.4333 236.372 30.9V56.7C238.172 58.6333 240.239 60.0667 242.572 61C244.905 61.9333 247.439 62.4 250.172 62.4ZM283.691 68V61.1H291.091V68H283.691ZM325.474 69C317.208 69 311.074 66.8667 307.074 62.6C303.074 58.2667 301.074 52.1667 301.074 44.3C301.074 35.9667 303.341 29.7667 307.874 25.7C312.408 21.6333 318.508 19.6 326.174 19.6C329.308 19.6 331.908 19.8333 333.974 20.3C336.041 20.7 338.041 21.3667 339.974 22.3V28.8C336.374 27.0667 332.274 26.2 327.674 26.2C321.808 26.2 317.274 27.6 314.074 30.4C310.874 33.1333 309.274 37.7667 309.274 44.3C309.274 50.5667 310.674 55.1667 313.474 58.1C316.274 60.9667 320.908 62.4 327.374 62.4C331.974 62.4 336.208 61.5333 340.074 59.8V66.4C338.008 67.2667 335.774 67.9 333.374 68.3C331.041 68.7667 328.408 69 325.474 69ZM370.966 69C362.699 69 356.666 66.9 352.866 62.7C349.132 58.4333 347.266 52.3 347.266 44.3C347.266 36.3667 349.166 30.2667 352.966 26C356.766 21.7333 362.766 19.6 370.966 19.6C379.166 19.6 385.166 21.7333 388.966 26C392.766 30.2667 394.666 36.3667 394.666 44.3C394.666 52.3 392.799 58.4333 389.066 62.7C385.332 66.9 379.299 69 370.966 69ZM370.966 62C376.632 62 380.632 60.6 382.966 57.8C385.299 54.9333 386.466 50.4333 386.466 44.3C386.466 38.1667 385.266 33.7 382.866 30.9C380.532 28.0333 376.566 26.6 370.966 26.6C365.366 26.6 361.366 28.0333 358.966 30.9C356.632 33.7 355.466 38.1667 355.466 44.3C355.466 50.4333 356.632 54.9333 358.966 57.8C361.299 60.6 365.299 62 370.966 62ZM406.688 68V20.6H414.088L414.588 26C417.121 24 419.788 22.4333 422.588 21.3C425.454 20.1667 428.521 19.6 431.788 19.6C435.321 19.6 438.054 20.1667 439.988 21.3C441.988 22.4333 443.454 24.0333 444.388 26.1C446.654 24.2333 449.254 22.7 452.188 21.5C455.121 20.2333 458.621 19.6 462.688 19.6C468.088 19.6 472.088 21 474.688 23.8C477.354 26.5333 478.688 30.7667 478.688 36.5V68H470.588V37.3C470.588 33.1 469.688 30.2 467.888 28.6C466.154 27 463.321 26.2 459.388 26.2C456.788 26.2 454.288 26.6333 451.888 27.5C449.554 28.3667 447.554 29.7 445.888 31.5C446.288 33.1667 446.488 35.1 446.488 37.3V68H438.788V37.5C438.788 33.5 438.121 30.6333 436.788 28.9C435.454 27.1 432.821 26.2 428.888 26.2C426.221 26.2 423.654 26.8 421.188 28C418.788 29.1333 416.654 30.5667 414.788 32.3V68H406.688ZM490.234 68L513.634 1.79999H521.934L498.534 68H490.234ZM533.934 89.6V20.6H540.934L541.534 25.6C543.734 23.5333 546.134 22.0333 548.734 21.1C551.4 20.1 554.5 19.6 558.034 19.6C564.7 19.6 569.934 21.4667 573.734 25.2C577.534 28.8667 579.434 35 579.434 43.6C579.434 52.1333 577.534 58.5 573.734 62.7C569.934 66.9 564.667 69 557.934 69C551.734 69 546.467 67.5 542.134 64.5V89.6H533.934ZM555.734 62.4C561.067 62.4 564.967 60.9 567.434 57.9C569.967 54.8333 571.234 50.0667 571.234 43.6C571.234 37.4 570.067 32.9667 567.734 30.3C565.4 27.5667 561.467 26.2 555.934 26.2C553.2 26.2 550.667 26.6667 548.334 27.6C546 28.5333 543.934 29.9667 542.134 31.9V57.7C543.8 59.1667 545.767 60.3333 548.034 61.2C550.3 62 552.867 62.4 555.734 62.4ZM591.453 68V0.599998H599.653V25.7C601.853 23.9 604.42 22.4333 607.353 21.3C610.353 20.1667 613.82 19.6 617.753 19.6C623.486 19.6 627.786 21 630.653 23.8C633.52 26.6 634.953 31 634.953 37V68H626.753V37.3C626.753 33.1667 625.82 30.3 623.953 28.7C622.153 27.0333 619.153 26.2 614.953 26.2C612.286 26.2 609.52 26.8 606.653 28C603.853 29.1333 601.52 30.6333 599.653 32.5V68H591.453ZM665.184 69C659.518 69 655.218 67.4333 652.284 64.3C649.418 61.1667 647.984 56.6 647.984 50.6V20.6H656.184V50.9C656.184 54.8333 657.151 57.7333 659.084 59.6C661.084 61.4667 664.151 62.4 668.284 62.4C671.218 62.4 673.984 61.8667 676.584 60.8C679.184 59.7333 681.418 58.2667 683.284 56.4V20.6H691.484V68H684.084L683.584 62.6C681.318 64.4667 678.618 66 675.484 67.2C672.351 68.4 668.918 69 665.184 69ZM710.016 9.5V2H719.116V9.5H710.016ZM710.816 68V27.1H703.516L704.316 20.6H719.016V68H710.816ZM752.552 69C745.886 69 740.652 67.1667 736.852 63.5C733.052 59.7667 731.152 53.6 731.152 45C731.152 36.4667 733.119 30.1 737.052 25.9C741.052 21.7 746.386 19.6 753.052 19.6C758.986 19.6 764.119 21.1 768.452 24.1V0.599998H776.652V68H769.652L769.052 63C766.852 65.0667 764.419 66.6 761.752 67.6C759.152 68.5333 756.086 69 752.552 69ZM754.652 62.4C757.386 62.4 759.919 61.9333 762.252 61C764.586 60.0667 766.652 58.6333 768.452 56.7V30.9C766.786 29.4333 764.819 28.3 762.552 27.5C760.286 26.6333 757.719 26.2 754.852 26.2C749.586 26.2 745.686 27.7333 743.152 30.8C740.619 33.8 739.352 38.5333 739.352 45C739.352 51.2 740.519 55.6667 742.852 58.4C745.186 61.0667 749.119 62.4 754.652 62.4Z" fill="white"/>
</svg>
