<svg width="513" height="362" viewBox="0 0 513 362" fill="none" xmlns="http://www.w3.org/2000/svg" xmlns:xlink="http://www.w3.org/1999/xlink">
<path stroke="black" d="M1 284.5C209.5 279.5 431.5 297.5 501 11"/>
<rect stroke="black" x="86.5" y="2.5" width="354" height="357"/>
<path stroke="black" d="M288.5 108.5C288.5 123.109 284.421 136.225 277.957 145.62C271.485 155.026 262.796 160.5 253.5 160.5C244.204 160.5 235.515 155.026 229.043 145.62C222.579 136.225 218.5 123.109 218.5 108.5C218.5 93.8912 222.579 80.7748 229.043 71.3798C235.515 61.9738 244.204 56.5 253.5 56.5C262.796 56.5 271.485 61.9738 277.957 71.3798C284.421 80.7748 288.5 93.8912 288.5 108.5Z"/>
<path stroke="black" d="M348.5 115C352.136 99 342.667 83 337 71L356 62.5C356.167 61 356.7 58.9 357.5 62.5C358.5 67 377.5 86 388 86C413.6 84 415.333 67.8333 413 60C411 43 377 41.5 369.5 43C364.648 43.9703 337.833 55.5 325 62.5C275.5 31.5 215.5 47 188.5 62.5C161.5 78 153.5 99 158 126C161.6 147.6 194.167 162.333 210 167C209 167.5 201.3 170.5 178.5 178.5C156 186 153.5 207.5 163.5 221C171.5 231.8 198.833 236.833 211.5 238C186 245 177 248.5 156 260C135 271.5 134 294 145.5 303C157 312 200.5 342 290 326.5C361.6 314.1 383.167 287.333 385 275.5C394 254.167 392.7 210.7 315.5 207.5C219 203.5 218.5 202 210 201C201.5 200 199 190 201 188C203 186 209.5 169.5 252.5 171C286.9 172.2 313.5 159.5 322.5 153C348.5 130 346 126 348.5 115Z"/>
<path stroke="black" d="M193.5 267C207.667 253.667 251.6 230.3 314 243.5C337 248.5 334 246.5 340 250C346 253.5 345.5 280 343.5 283.5C341.5 287 311 312 285 315C259 318 211 320 192 293.5C188 285.5 188.036 275.5 193.5 269"/>
</svg>
