<svg width="874" height="74" viewBox="0 0 874 74" fill="none" xmlns="http://www.w3.org/2000/svg">
<path d="M22.6 72C14.9333 72 9.23333 70.3 5.5 66.9C1.83333 63.4333 2.98023e-08 58.1667 2.98023e-08 51.1V2H7.2V51.1C7.2 56.2333 8.43333 60.0333 10.9 62.5C13.4333 64.9667 17.3333 66.2 22.6 66.2H45.1V72H22.6ZM97.2664 49.5H65.6664L58.7664 72H51.5664L69.6664 13.5C71.1331 8.76666 72.6997 5.5 74.3664 3.7C76.0997 1.83333 78.4664 0.899997 81.4664 0.899997C84.4664 0.899997 86.8331 1.83333 88.5664 3.7C90.2997 5.5 91.8997 8.76666 93.3664 13.5L111.466 72H104.166L97.2664 49.5ZM95.5664 43.9L86.2664 13.6C85.5331 11.3333 84.8331 9.76666 84.1664 8.9C83.4997 8.03333 82.5997 7.59999 81.4664 7.59999C80.3997 7.59999 79.5331 8.03333 78.8664 8.9C78.1997 9.76666 77.4997 11.3333 76.7664 13.6L67.4664 43.9H95.5664ZM141.08 73.1C134.947 73.1 129.88 72.2 125.88 70.4C121.947 68.5333 118.314 65.4 114.98 61L119.88 56.7C122.747 60.5667 125.714 63.3 128.78 64.9C131.914 66.5 135.88 67.3 140.68 67.3C146.947 67.3 151.78 66.1 155.18 63.7C158.647 61.3 160.38 57.9333 160.38 53.6C160.38 50.8667 159.747 48.7 158.48 47.1C157.214 45.5 154.98 44.1333 151.78 43C148.58 41.8 143.847 40.5667 137.58 39.3C130.714 37.9667 125.614 35.7667 122.28 32.7C119.014 29.6333 117.38 25.5333 117.38 20.4C117.38 14.3333 119.547 9.56666 123.88 6.1C128.28 2.63333 134.314 0.899997 141.98 0.899997C147.447 0.899997 152.18 1.86666 156.18 3.8C160.18 5.66666 163.28 8.43333 165.48 12.1L160.58 16.1C158.514 13.0333 155.88 10.7 152.68 9.1C149.547 7.5 145.914 6.69999 141.78 6.69999C136.514 6.69999 132.314 7.89999 129.18 10.3C126.114 12.7 124.58 15.9333 124.58 20C124.58 23.6 125.947 26.4667 128.68 28.6C131.414 30.6667 135.914 32.3333 142.18 33.6C148.78 34.9333 153.88 36.4333 157.48 38.1C161.147 39.7667 163.747 41.8 165.28 44.2C166.814 46.5333 167.58 49.6 167.58 53.4C167.58 59.8 165.314 64.7 160.78 68.1C156.247 71.4333 149.68 73.1 141.08 73.1ZM201.597 72C193.797 72 187.997 70.3 184.197 66.9C180.464 63.4333 178.597 58.1667 178.597 51.1V22.9C178.597 15.8333 180.464 10.6 184.197 7.2C187.997 3.73333 193.797 2 201.597 2H225.697V7.8H201.597C196.197 7.8 192.197 9.03333 189.597 11.5C187.064 13.9667 185.797 17.7667 185.797 22.9V34.1H220.597V39.9H185.797V51.1C185.797 56.2333 187.064 60.0333 189.597 62.5C192.197 64.9667 196.197 66.2 201.597 66.2H226.297V72H201.597ZM292.893 72H285.193L280.393 54C279.46 50.5333 278.393 47.8333 277.193 45.9C275.993 43.9667 274.326 42.5667 272.193 41.7C270.126 40.7667 267.293 40.3 263.693 40.3H247.493V72H240.293V2H270.293C276.826 2 281.793 3.63333 285.193 6.9C288.66 10.1667 290.393 14.7667 290.393 20.7C290.393 25.7 289.193 29.7 286.793 32.7C284.46 35.6333 281.126 37.4667 276.793 38.2C279.726 39.2667 281.993 41.0333 283.593 43.5C285.26 45.9667 286.726 49.4667 287.993 54L292.893 72ZM269.493 34.5C273.826 34.5 277.193 33.3333 279.593 31C281.993 28.6667 283.193 25.4 283.193 21.2C283.193 16.9333 281.993 13.6333 279.593 11.3C277.193 8.96666 273.826 7.8 269.493 7.8H247.493V34.5H269.493ZM331.504 2H361.204C367.871 2 372.937 3.73333 376.404 7.2C379.937 10.6667 381.704 15.7 381.704 22.3C381.704 28.9667 379.937 34.0333 376.404 37.5C372.937 40.9667 367.871 42.7 361.204 42.7H338.704V72H331.504V2ZM360.604 36.9C365.004 36.9 368.404 35.6333 370.804 33.1C373.271 30.5 374.504 26.9 374.504 22.3C374.504 17.7667 373.271 14.2333 370.804 11.7C368.404 9.1 365.004 7.8 360.604 7.8H338.704V36.9H360.604ZM446.799 72H439.099L434.299 54C433.366 50.5333 432.299 47.8333 431.099 45.9C429.899 43.9667 428.233 42.5667 426.099 41.7C424.033 40.7667 421.199 40.3 417.599 40.3H401.399V72H394.199V2H424.199C430.733 2 435.699 3.63333 439.099 6.9C442.566 10.1667 444.299 14.7667 444.299 20.7C444.299 25.7 443.099 29.7 440.699 32.7C438.366 35.6333 435.033 37.4667 430.699 38.2C433.633 39.2667 435.899 41.0333 437.499 43.5C439.166 45.9667 440.633 49.4667 441.899 54L446.799 72ZM423.399 34.5C427.733 34.5 431.099 33.3333 433.499 31C435.899 28.6667 437.099 25.4 437.099 21.2C437.099 16.9333 435.899 13.6333 433.499 11.3C431.099 8.96666 427.733 7.8 423.399 7.8H401.399V34.5H423.399ZM485.105 73.1C476.239 73.1 469.439 70.9333 464.705 66.6C459.972 62.2 457.605 55.8667 457.605 47.6V26.4C457.605 18.1333 459.972 11.8333 464.705 7.5C469.439 3.1 476.239 0.899997 485.105 0.899997C493.972 0.899997 500.772 3.1 505.505 7.5C510.239 11.8333 512.605 18.1333 512.605 26.4V47.6C512.605 55.8667 510.239 62.2 505.505 66.6C500.772 70.9333 493.972 73.1 485.105 73.1ZM485.105 67.3C491.639 67.3 496.639 65.6 500.105 62.2C503.639 58.8 505.405 53.9333 505.405 47.6V26.4C505.405 20.0667 503.639 15.2 500.105 11.8C496.639 8.39999 491.639 6.69999 485.105 6.69999C478.572 6.69999 473.539 8.39999 470.005 11.8C466.539 15.2 464.805 20.0667 464.805 26.4V47.6C464.805 53.9333 466.539 58.8 470.005 62.2C473.539 65.6 478.572 67.3 485.105 67.3ZM537.77 73.1C533.437 73.1 529.737 72.4667 526.67 71.2C523.67 69.8667 520.804 67.6667 518.07 64.6L522.37 60.1C524.437 62.6333 526.637 64.4667 528.97 65.6C531.37 66.7333 534.237 67.3 537.57 67.3C542.504 67.3 546.304 66.0667 548.97 63.6C551.637 61.0667 552.97 57.4667 552.97 52.8V2H560.17V53C560.17 59.4667 558.237 64.4333 554.37 67.9C550.504 71.3667 544.97 73.1 537.77 73.1ZM596.519 72C588.719 72 582.919 70.3 579.119 66.9C575.385 63.4333 573.519 58.1667 573.519 51.1V22.9C573.519 15.8333 575.385 10.6 579.119 7.2C582.919 3.73333 588.719 2 596.519 2H620.619V7.8H596.519C591.119 7.8 587.119 9.03333 584.519 11.5C581.985 13.9667 580.719 17.7667 580.719 22.9V34.1H615.519V39.9H580.719V51.1C580.719 56.2333 581.985 60.0333 584.519 62.5C587.119 64.9667 591.119 66.2 596.519 66.2H621.219V72H596.519ZM660.615 73.1C651.348 73.1 644.282 70.9333 639.415 66.6C634.615 62.2667 632.215 55.9333 632.215 47.6V26.3C632.215 18.1 634.548 11.8333 639.215 7.5C643.948 3.1 650.748 0.899997 659.615 0.899997C665.415 0.899997 670.382 1.83333 674.515 3.7C678.648 5.5 682.048 8.33333 684.715 12.2L679.615 15.9C677.282 12.7667 674.515 10.4667 671.315 8.99999C668.182 7.46666 664.382 6.69999 659.915 6.69999C653.248 6.69999 648.148 8.36666 644.615 11.7C641.148 15.0333 639.415 19.9 639.415 26.3V47.6C639.415 54.0667 641.182 58.9667 644.715 62.3C648.315 65.6333 653.582 67.3 660.515 67.3C665.115 67.3 669.015 66.5333 672.215 65C675.415 63.4667 678.182 61.0667 680.515 57.8L685.615 61.7C682.615 65.7 679.148 68.6 675.215 70.4C671.282 72.2 666.415 73.1 660.615 73.1ZM714.598 7.8H691.898V2H744.498V7.8H721.798V72H714.598V7.8ZM777.488 73.1C768.622 73.1 761.822 70.9333 757.088 66.6C752.355 62.2 749.988 55.8667 749.988 47.6V26.4C749.988 18.1333 752.355 11.8333 757.088 7.5C761.822 3.1 768.622 0.899997 777.488 0.899997C786.355 0.899997 793.155 3.1 797.888 7.5C802.622 11.8333 804.988 18.1333 804.988 26.4V47.6C804.988 55.8667 802.622 62.2 797.888 66.6C793.155 70.9333 786.355 73.1 777.488 73.1ZM777.488 67.3C784.022 67.3 789.022 65.6 792.488 62.2C796.022 58.8 797.788 53.9333 797.788 47.6V26.4C797.788 20.0667 796.022 15.2 792.488 11.8C789.022 8.39999 784.022 6.69999 777.488 6.69999C770.955 6.69999 765.922 8.39999 762.388 11.8C758.922 15.2 757.188 20.0667 757.188 26.4V47.6C757.188 53.9333 758.922 58.8 762.388 62.2C765.922 65.6 770.955 67.3 777.488 67.3ZM873.557 72H865.857L861.057 54C860.124 50.5333 859.057 47.8333 857.857 45.9C856.657 43.9667 854.99 42.5667 852.857 41.7C850.79 40.7667 847.957 40.3 844.357 40.3H828.157V72H820.957V2H850.957C857.49 2 862.457 3.63333 865.857 6.9C869.324 10.1667 871.057 14.7667 871.057 20.7C871.057 25.7 869.857 29.7 867.457 32.7C865.124 35.6333 861.79 37.4667 857.457 38.2C860.39 39.2667 862.657 41.0333 864.257 43.5C865.924 45.9667 867.39 49.4667 868.657 54L873.557 72ZM850.157 34.5C854.49 34.5 857.857 33.3333 860.257 31C862.657 28.6667 863.857 25.4 863.857 21.2C863.857 16.9333 862.657 13.6333 860.257 11.3C857.857 8.96666 854.49 7.8 850.157 7.8H828.157V34.5H850.157Z" fill="white"/>
</svg>
