  0
SECTION
  2
HEADER
  9
$ANGBASE
  50
0.0
  9
$ANGDIR
  70
1
  9
$MEASUREMENT
  70
1
  0
ENDSEC
  0
SECTION
  2
TABLES
  0
TABLE
  2
LTYPE
  70
4
  0
LTYPE
  5
40F
  2
CONTINUOUS
  70
0
  3
Solid line
  72
65
  73
0
  40
0.0
  0
LTYPE
  5
410
  2
DASHDOT
 70
0
  3
Dash Dot ____ _ ____ _
 72
65
 73
4
 40
2.0
 49
1.25
 49
-0.25
 49
0.25
 49
-0.25
  0
LTYPE
  5
411
  2
DASHED
 70
0
  3
Dashed __ __ __ __ __
 72
65
 73
2
 40
0.75
 49
0.5
 49
-0.25
  0
LTYPE
  5
43B
  2
DOTTED
 70
0
  3
Dotted .  .  .  .
 72
65
 73
2
 40
0.2
 49
0.0
 49
-0.2
  0
ENDTAB
  0
TABLE
  2
STYLE
  70
4
  0
STYLE
  2
KICAD
  70
0
  40
0
  41
1
  42
1
  50
0
  71
0
  3
isocp.shx
  0
STYLE
  2
KICADB
  70
0
  40
0
  41
1
  42
1
  50
0
  71
0
  3
isocp.shx
  0
STYLE
  2
KICADI
  70
0
  40
0
  41
1
  42
1
  50
15
  71
0
  3
isocp.shx
  0
STYLE
  2
KICADBI
  70
0
  40
0
  41
1
  42
1
  50
15
  71
0
  3
isocp.shx
  0
ENDTAB
  0
TABLE
  2
LAYER
  70
1
  0
LAYER
  2
BLACK
  70
0
  62
7
  6
CONTINUOUS
  0
ENDTAB
  0
ENDSEC
  0
SECTION
  2
ENTITIES
0
LINE
8
BLACK
6
CONTINUOUS
10
225.8059999999999832
20
-21.5645999999999987
11
282.0670000000000073
21
-21.5645999999999987
0
LINE
8
BLACK
6
CONTINUOUS
10
282.0670000000000073
20
-21.5645999999999987
11
282.0670000000000073
21
-84.3533999999999935
0
LINE
8
BLACK
6
CONTINUOUS
10
282.0670000000000073
20
-84.3533999999999935
11
225.8059999999999832
21
-84.3533999999999935
0
LINE
8
BLACK
6
CONTINUOUS
10
225.8059999999999832
20
-84.3533999999999935
11
225.8059999999999832
21
-21.5645999999999987
0
LINE
8
BLACK
6
CONTINUOUS
10
231.1577999999999804
20
-43.1577999999999946
11
231.5577999999999861
21
-43.5578000000000003
0
LINE
8
BLACK
6
CONTINUOUS
10
231.5577999999999861
20
-43.1577999999999946
11
231.1577999999999804
21
-43.5578000000000003
0
LINE
8
BLACK
6
CONTINUOUS
10
236.8074000000000012
20
-58.4993999999999943
11
237.2073999999999785
21
-58.8994
0
LINE
8
BLACK
6
CONTINUOUS
10
237.2073999999999785
20
-58.4993999999999943
11
236.8074000000000012
21
-58.8994
0
LINE
8
BLACK
6
CONTINUOUS
10
239.2999999999999829
20
-70.564399999999992
11
239.6999999999999886
21
-70.9643999999999977
0
LINE
8
BLACK
6
CONTINUOUS
10
239.6999999999999886
20
-70.564399999999992
11
239.2999999999999829
21
-70.9643999999999977
0
LINE
8
BLACK
6
CONTINUOUS
10
240.0331999999999937
20
-54.3337999999999965
11
240.4331999999999994
21
-54.7337999999999951
0
LINE
8
BLACK
6
CONTINUOUS
10
240.4331999999999994
20
-54.3337999999999965
11
240.0331999999999937
21
-54.7337999999999951
0
LINE
8
BLACK
6
CONTINUOUS
10
245.6973999999999876
20
-37.1379999999999981
11
246.0973999999999933
21
-37.5379999999999967
0
LINE
8
BLACK
6
CONTINUOUS
10
246.0973999999999933
20
-37.1379999999999981
11
245.6973999999999876
21
-37.5379999999999967
0
LINE
8
BLACK
6
CONTINUOUS
10
247.5007999999999981
20
-59.6931999999999974
11
247.9007999999999754
21
-60.093199999999996
0
LINE
8
BLACK
6
CONTINUOUS
10
247.9007999999999754
20
-59.6931999999999974
11
247.5007999999999981
21
-60.093199999999996
0
LINE
8
BLACK
6
CONTINUOUS
10
258.6999999999999886
20
-42.7999999999999972
11
259.0999999999999659
21
-43.1999999999999957
0
LINE
8
BLACK
6
CONTINUOUS
10
259.0999999999999659
20
-42.7999999999999972
11
258.6999999999999886
21
-43.1999999999999957
0
LINE
8
BLACK
6
CONTINUOUS
10
259.2609999999999673
20
-36.985599999999998
11
259.6610000000000014
21
-37.3855999999999966
0
LINE
8
BLACK
6
CONTINUOUS
10
259.6610000000000014
20
-36.985599999999998
11
259.2609999999999673
21
-37.3855999999999966
0
LINE
8
BLACK
6
CONTINUOUS
10
260.0991999999999962
20
-68.1259999999999906
11
260.4991999999999734
21
-68.5259999999999962
0
LINE
8
BLACK
6
CONTINUOUS
10
260.4991999999999734
20
-68.1259999999999906
11
260.0991999999999962
21
-68.5259999999999962
0
LINE
8
BLACK
6
CONTINUOUS
10
260.5
20
-42.7999999999999972
11
260.8999999999999773
21
-43.1999999999999957
0
LINE
8
BLACK
6
CONTINUOUS
10
260.8999999999999773
20
-42.7999999999999972
11
260.5
21
-43.1999999999999957
0
LINE
8
BLACK
6
CONTINUOUS
10
260.507253999999989
20
-61.3046999999999969
11
260.9072539999999663
21
-61.7046999999999954
0
LINE
8
BLACK
6
CONTINUOUS
10
260.9072539999999663
20
-61.3046999999999969
11
260.507253999999989
21
-61.7046999999999954
0
LINE
8
BLACK
6
CONTINUOUS
10
260.581799999999987
20
-47.6027999999999949
11
260.9817999999999643
21
-48.0028000000000006
0
LINE
8
BLACK
6
CONTINUOUS
10
260.9817999999999643
20
-47.6027999999999949
11
260.581799999999987
21
-48.0028000000000006
0
LINE
8
BLACK
6
CONTINUOUS
10
261.470799999999997
20
-48.4664000000000001
11
261.8707999999999743
21
-48.8663999999999987
0
LINE
8
BLACK
6
CONTINUOUS
10
261.8707999999999743
20
-48.4664000000000001
11
261.470799999999997
21
-48.8663999999999987
0
LINE
8
BLACK
6
CONTINUOUS
10
261.470799999999997
20
-57.6357999999999961
11
261.8707999999999743
21
-58.0357999999999947
0
LINE
8
BLACK
6
CONTINUOUS
10
261.8707999999999743
20
-57.6357999999999961
11
261.470799999999997
21
-58.0357999999999947
0
LINE
8
BLACK
6
CONTINUOUS
10
261.4961999999999875
20
-62.8935999999999993
11
261.8961999999999648
21
-63.2935999999999979
0
LINE
8
BLACK
6
CONTINUOUS
10
261.8961999999999648
20
-62.8935999999999993
11
261.4961999999999875
21
-63.2935999999999979
0
LINE
8
BLACK
6
CONTINUOUS
10
264.3000000000000114
20
-56.7999999999999972
11
264.6999999999999886
21
-57.1999999999999957
0
LINE
8
BLACK
6
CONTINUOUS
10
264.6999999999999886
20
-56.7999999999999972
11
264.3000000000000114
21
-57.1999999999999957
0
LINE
8
BLACK
6
CONTINUOUS
10
264.3000000000000114
20
-58.7999999999999972
11
264.6999999999999886
21
-59.1999999999999957
0
LINE
8
BLACK
6
CONTINUOUS
10
264.6999999999999886
20
-58.7999999999999972
11
264.3000000000000114
21
-59.1999999999999957
0
LINE
8
BLACK
6
CONTINUOUS
10
264.9759999999999991
20
-43.3609999999999971
11
265.3759999999999764
21
-43.7609999999999957
0
LINE
8
BLACK
6
CONTINUOUS
10
265.3759999999999764
20
-43.3609999999999971
11
264.9759999999999991
21
-43.7609999999999957
0
LINE
8
BLACK
6
CONTINUOUS
10
268.5999999999999659
20
-51.4635999999999996
11
269.
21
-51.8635999999999981
0
LINE
8
BLACK
6
CONTINUOUS
10
269.
20
-51.4635999999999996
11
268.5999999999999659
21
-51.8635999999999981
0
LINE
8
BLACK
6
CONTINUOUS
10
269.852800000000002
20
-55.6499999999999986
11
270.2527999999999793
21
-56.0499999999999972
0
LINE
8
BLACK
6
CONTINUOUS
10
270.2527999999999793
20
-55.6499999999999986
11
269.852800000000002
21
-56.0499999999999972
0
LINE
8
BLACK
6
CONTINUOUS
10
270.5131999999999834
20
-41.9131999999999962
11
270.9131999999999607
21
-42.3131999999999948
0
LINE
8
BLACK
6
CONTINUOUS
10
270.9131999999999607
20
-41.9131999999999962
11
270.5131999999999834
21
-42.3131999999999948
0
LINE
8
BLACK
6
CONTINUOUS
10
271.9499999999999886
20
-60.2999999999999972
11
272.3499999999999659
21
-60.6999999999999957
0
LINE
8
BLACK
6
CONTINUOUS
10
272.3499999999999659
20
-60.2999999999999972
11
271.9499999999999886
21
-60.6999999999999957
0
LINE
8
BLACK
6
CONTINUOUS
10
272.0117999999999938
20
-37.0364000000000004
11
272.4117999999999711
21
-37.436399999999999
0
LINE
8
BLACK
6
CONTINUOUS
10
272.4117999999999711
20
-37.0364000000000004
11
272.0117999999999938
21
-37.436399999999999
0
CIRCLE
8
BLACK
10
240.7057999999999822
20
-37.3534000000000006
40
0.4
0
CIRCLE
8
BLACK
10
240.7057999999999822
20
-39.8933999999999997
40
0.4
0
CIRCLE
8
BLACK
10
240.7057999999999822
20
-42.4333999999999989
40
0.4
0
CIRCLE
8
BLACK
10
240.7057999999999822
20
-44.973399999999998
40
0.4
0
CIRCLE
8
BLACK
10
241.4831999999999823
20
-49.6415999999999968
40
0.4
0
CIRCLE
8
BLACK
10
241.4831999999999823
20
-57.2615999999999943
40
0.4
0
CIRCLE
8
BLACK
10
241.5185999999999922
20
-61.5695999999999941
40
0.4
0
CIRCLE
8
BLACK
10
241.5185999999999922
20
-69.1895999999999987
40
0.4
0
CIRCLE
8
BLACK
10
244.0232000000000028
20
-49.6415999999999968
40
0.4
0
CIRCLE
8
BLACK
10
244.0232000000000028
20
-57.2615999999999943
40
0.4
0
CIRCLE
8
BLACK
10
244.0585999999999842
20
-61.5695999999999941
40
0.4
0
CIRCLE
8
BLACK
10
244.0585999999999842
20
-69.1895999999999987
40
0.4
0
CIRCLE
8
BLACK
10
246.5631999999999948
20
-49.6415999999999968
40
0.4
0
CIRCLE
8
BLACK
10
246.5631999999999948
20
-57.2615999999999943
40
0.4
0
CIRCLE
8
BLACK
10
246.5985999999999763
20
-61.5695999999999941
40
0.4
0
CIRCLE
8
BLACK
10
246.5985999999999763
20
-69.1895999999999987
40
0.4
0
CIRCLE
8
BLACK
10
248.3257999999999868
20
-37.3534000000000006
40
0.4
0
CIRCLE
8
BLACK
10
248.3257999999999868
20
-39.8933999999999997
40
0.4
0
CIRCLE
8
BLACK
10
248.3257999999999868
20
-42.4333999999999989
40
0.4
0
CIRCLE
8
BLACK
10
248.3257999999999868
20
-44.973399999999998
40
0.4
0
CIRCLE
8
BLACK
10
249.1031999999999869
20
-49.6415999999999968
40
0.4
0
CIRCLE
8
BLACK
10
249.1031999999999869
20
-57.2615999999999943
40
0.4
0
CIRCLE
8
BLACK
10
249.1385999999999967
20
-61.5695999999999941
40
0.4
0
CIRCLE
8
BLACK
10
249.1385999999999967
20
-69.1895999999999987
40
0.4
0
CIRCLE
8
BLACK
10
253.756087999999977
20
-60.070999999999998
40
0.4
0
CIRCLE
8
BLACK
10
254.4418879999999774
20
-67.0814000000000021
40
0.4
0
CIRCLE
8
BLACK
10
255.756087999999977
20
-60.070999999999998
40
0.4
0
CIRCLE
8
BLACK
10
256.1689999999999827
20
-37.1193999999999988
40
0.4
0
CIRCLE
8
BLACK
10
256.1689999999999827
20
-39.659399999999998
40
0.4
0
CIRCLE
8
BLACK
10
256.1689999999999827
20
-42.1993999999999971
40
0.4
0
CIRCLE
8
BLACK
10
256.1689999999999827
20
-44.7393999999999963
40
0.4
0
CIRCLE
8
BLACK
10
256.4418880000000058
20
-67.0814000000000021
40
0.4
0
CIRCLE
8
BLACK
10
258.5720000000000027
20
-49.3667999999999978
40
0.4
0
CIRCLE
8
BLACK
10
258.5720000000000027
20
-54.3667999999999978
40
0.4
0
CIRCLE
8
BLACK
10
263.7889999999999873
20
-37.1193999999999988
40
0.4
0
CIRCLE
8
BLACK
10
263.7889999999999873
20
-39.659399999999998
40
0.4
0
CIRCLE
8
BLACK
10
263.7889999999999873
20
-42.1993999999999971
40
0.4
0
CIRCLE
8
BLACK
10
263.7889999999999873
20
-44.7393999999999963
40
0.4
0
CIRCLE
8
BLACK
10
266.5475999999999885
20
-37.2209999999999965
40
0.4
0
CIRCLE
8
BLACK
10
266.5475999999999885
20
-39.7609999999999957
40
0.4
0
CIRCLE
8
BLACK
10
266.5475999999999885
20
-42.3009999999999948
40
0.4
0
CIRCLE
8
BLACK
10
266.5475999999999885
20
-44.8410000000000011
40
0.4
0
CIRCLE
8
BLACK
10
274.1675999999999931
20
-37.2209999999999965
40
0.4
0
CIRCLE
8
BLACK
10
274.1675999999999931
20
-39.7609999999999957
40
0.4
0
CIRCLE
8
BLACK
10
274.1675999999999931
20
-42.3009999999999948
40
0.4
0
CIRCLE
8
BLACK
10
274.1675999999999931
20
-44.8410000000000011
40
0.4
0
LINE
8
BLACK
6
CONTINUOUS
10
227.4504000000000019
20
-35.5779999999999959
11
227.4504000000000019
21
-36.5779999999999959
0
LINE
8
BLACK
6
CONTINUOUS
10
226.9504000000000019
20
-36.0779999999999959
11
227.9504000000000019
21
-36.0779999999999959
0
LINE
8
BLACK
6
CONTINUOUS
10
227.4504000000000019
20
-38.0779999999999959
11
227.4504000000000019
21
-39.0779999999999959
0
LINE
8
BLACK
6
CONTINUOUS
10
226.9504000000000019
20
-38.5779999999999959
11
227.9504000000000019
21
-38.5779999999999959
0
LINE
8
BLACK
6
CONTINUOUS
10
227.4504000000000019
20
-40.5779999999999959
11
227.4504000000000019
21
-41.5779999999999959
0
LINE
8
BLACK
6
CONTINUOUS
10
226.9504000000000019
20
-41.0779999999999959
11
227.9504000000000019
21
-41.0779999999999959
0
LINE
8
BLACK
6
CONTINUOUS
10
227.4504000000000019
20
-56.7061999999999955
11
227.4504000000000019
21
-57.7061999999999955
0
LINE
8
BLACK
6
CONTINUOUS
10
226.9504000000000019
20
-57.2061999999999955
11
227.9504000000000019
21
-57.2061999999999955
0
LINE
8
BLACK
6
CONTINUOUS
10
227.4504000000000019
20
-59.2061999999999955
11
227.4504000000000019
21
-60.2061999999999955
0
LINE
8
BLACK
6
CONTINUOUS
10
226.9504000000000019
20
-59.7061999999999955
11
227.9504000000000019
21
-59.7061999999999955
0
LINE
8
BLACK
6
CONTINUOUS
10
227.4504000000000019
20
-61.7061999999999955
11
227.4504000000000019
21
-62.7061999999999955
0
LINE
8
BLACK
6
CONTINUOUS
10
226.9504000000000019
20
-62.2061999999999955
11
227.9504000000000019
21
-62.2061999999999955
0
LINE
8
BLACK
6
CONTINUOUS
10
227.4966000000000008
20
-67.3164000000000016
11
227.4966000000000008
21
-68.3164000000000016
0
LINE
8
BLACK
6
CONTINUOUS
10
226.9966000000000008
20
-67.8164000000000016
11
227.9966000000000008
21
-67.8164000000000016
0
LINE
8
BLACK
6
CONTINUOUS
10
227.4966000000000008
20
-69.8164000000000016
11
227.4966000000000008
21
-70.8164000000000016
0
LINE
8
BLACK
6
CONTINUOUS
10
226.9966000000000008
20
-70.3164000000000016
11
227.9966000000000008
21
-70.3164000000000016
0
LINE
8
BLACK
6
CONTINUOUS
10
227.4966000000000008
20
-72.3164000000000016
11
227.4966000000000008
21
-73.3164000000000016
0
LINE
8
BLACK
6
CONTINUOUS
10
226.9966000000000008
20
-72.8164000000000016
11
227.9966000000000008
21
-72.8164000000000016
0
LINE
8
BLACK
6
CONTINUOUS
10
227.5258000000000038
20
-46.0127999999999986
11
227.5258000000000038
21
-47.0127999999999986
0
LINE
8
BLACK
6
CONTINUOUS
10
227.0258000000000038
20
-46.5127999999999986
11
228.0258000000000038
21
-46.5127999999999986
0
LINE
8
BLACK
6
CONTINUOUS
10
227.5258000000000038
20
-48.5127999999999986
11
227.5258000000000038
21
-49.5127999999999986
0
LINE
8
BLACK
6
CONTINUOUS
10
227.0258000000000038
20
-49.0127999999999986
11
228.0258000000000038
21
-49.0127999999999986
0
LINE
8
BLACK
6
CONTINUOUS
10
227.5258000000000038
20
-51.0127999999999986
11
227.5258000000000038
21
-52.0127999999999986
0
LINE
8
BLACK
6
CONTINUOUS
10
227.0258000000000038
20
-51.5127999999999986
11
228.0258000000000038
21
-51.5127999999999986
0
LINE
8
BLACK
6
CONTINUOUS
10
228.2189999999999941
20
-32.0882000000000005
11
228.2189999999999941
21
-33.0882000000000005
0
LINE
8
BLACK
6
CONTINUOUS
10
227.7189999999999941
20
-32.5882000000000005
11
228.7189999999999941
21
-32.5882000000000005
0
LINE
8
BLACK
6
CONTINUOUS
10
230.7589999999999861
20
-32.0882000000000005
11
230.7589999999999861
21
-33.0882000000000005
0
LINE
8
BLACK
6
CONTINUOUS
10
230.2589999999999861
20
-32.5882000000000005
11
231.2589999999999861
21
-32.5882000000000005
0
LINE
8
BLACK
6
CONTINUOUS
10
231.4507999999999868
20
-73.2265999999999906
11
231.4507999999999868
21
-74.2265999999999906
0
LINE
8
BLACK
6
CONTINUOUS
10
230.9507999999999868
20
-73.7265999999999906
11
231.9507999999999868
21
-73.7265999999999906
0
LINE
8
BLACK
6
CONTINUOUS
10
233.2989999999999782
20
-32.0882000000000005
11
233.2989999999999782
21
-33.0882000000000005
0
LINE
8
BLACK
6
CONTINUOUS
10
232.7989999999999782
20
-32.5882000000000005
11
233.7989999999999782
21
-32.5882000000000005
0
LINE
8
BLACK
6
CONTINUOUS
10
233.9907999999999788
20
-73.2265999999999906
11
233.9907999999999788
21
-74.2265999999999906
0
LINE
8
BLACK
6
CONTINUOUS
10
233.4907999999999788
20
-73.7265999999999906
11
234.4907999999999788
21
-73.7265999999999906
0
LINE
8
BLACK
6
CONTINUOUS
10
235.8389999999999986
20
-32.0882000000000005
11
235.8389999999999986
21
-33.0882000000000005
0
LINE
8
BLACK
6
CONTINUOUS
10
235.3389999999999986
20
-32.5882000000000005
11
236.3389999999999986
21
-32.5882000000000005
0
LINE
8
BLACK
6
CONTINUOUS
10
236.5307999999999993
20
-73.2265999999999906
11
236.5307999999999993
21
-74.2265999999999906
0
LINE
8
BLACK
6
CONTINUOUS
10
236.0307999999999993
20
-73.7265999999999906
11
237.0307999999999993
21
-73.7265999999999906
0
LINE
8
BLACK
6
CONTINUOUS
10
238.3789999999999907
20
-32.0882000000000005
11
238.3789999999999907
21
-33.0882000000000005
0
LINE
8
BLACK
6
CONTINUOUS
10
237.8789999999999907
20
-32.5882000000000005
11
238.8789999999999907
21
-32.5882000000000005
0
LINE
8
BLACK
6
CONTINUOUS
10
239.0707999999999913
20
-73.2265999999999906
11
239.0707999999999913
21
-74.2265999999999906
0
LINE
8
BLACK
6
CONTINUOUS
10
238.5707999999999913
20
-73.7265999999999906
11
239.5707999999999913
21
-73.7265999999999906
0
LINE
8
BLACK
6
CONTINUOUS
10
242.341399999999993
20
-32.1389999999999958
11
242.341399999999993
21
-33.1389999999999958
0
LINE
8
BLACK
6
CONTINUOUS
10
241.841399999999993
20
-32.6389999999999958
11
242.841399999999993
21
-32.6389999999999958
0
LINE
8
BLACK
6
CONTINUOUS
10
243.9819999999999993
20
-73.1283999999999992
11
243.9819999999999993
21
-74.1283999999999992
0
LINE
8
BLACK
6
CONTINUOUS
10
243.4819999999999993
20
-73.6283999999999992
11
244.4819999999999993
21
-73.6283999999999992
0
LINE
8
BLACK
6
CONTINUOUS
10
246.4561999999999955
20
-32.1389999999999958
11
246.4561999999999955
21
-33.1389999999999958
0
LINE
8
BLACK
6
CONTINUOUS
10
245.9561999999999955
20
-32.6389999999999958
11
246.9561999999999955
21
-32.6389999999999958
0
LINE
8
BLACK
6
CONTINUOUS
10
246.5219999999999914
20
-73.1283999999999992
11
246.5219999999999914
21
-74.1283999999999992
0
LINE
8
BLACK
6
CONTINUOUS
10
246.0219999999999914
20
-73.6283999999999992
11
247.0219999999999914
21
-73.6283999999999992
0
LINE
8
BLACK
6
CONTINUOUS
10
248.9961999999999875
20
-32.1389999999999958
11
248.9961999999999875
21
-33.1389999999999958
0
LINE
8
BLACK
6
CONTINUOUS
10
248.4961999999999875
20
-32.6389999999999958
11
249.4961999999999875
21
-32.6389999999999958
0
LINE
8
BLACK
6
CONTINUOUS
10
249.0619999999999834
20
-73.1283999999999992
11
249.0619999999999834
21
-74.1283999999999992
0
LINE
8
BLACK
6
CONTINUOUS
10
248.5619999999999834
20
-73.6283999999999992
11
249.5619999999999834
21
-73.6283999999999992
0
LINE
8
BLACK
6
CONTINUOUS
10
251.5361999999999796
20
-32.1389999999999958
11
251.5361999999999796
21
-33.1389999999999958
0
LINE
8
BLACK
6
CONTINUOUS
10
251.0361999999999796
20
-32.6389999999999958
11
252.0361999999999796
21
-32.6389999999999958
0
LINE
8
BLACK
6
CONTINUOUS
10
253.4157999999999902
20
-73.1092000000000013
11
253.4157999999999902
21
-74.1092000000000013
0
LINE
8
BLACK
6
CONTINUOUS
10
252.9157999999999902
20
-73.6092000000000013
11
253.9157999999999902
21
-73.6092000000000013
0
LINE
8
BLACK
6
CONTINUOUS
10
255.1225999999999772
20
-32.1706000000000003
11
255.1225999999999772
21
-33.1706000000000003
0
LINE
8
BLACK
6
CONTINUOUS
10
254.6225999999999772
20
-32.6706000000000003
11
255.6225999999999772
21
-32.6706000000000003
0
LINE
8
BLACK
6
CONTINUOUS
10
255.9557999999999822
20
-73.1092000000000013
11
255.9557999999999822
21
-74.1092000000000013
0
LINE
8
BLACK
6
CONTINUOUS
10
255.4557999999999822
20
-73.6092000000000013
11
256.4558000000000106
21
-73.6092000000000013
0
LINE
8
BLACK
6
CONTINUOUS
10
257.6625999999999976
20
-32.1706000000000003
11
257.6625999999999976
21
-33.1706000000000003
0
LINE
8
BLACK
6
CONTINUOUS
10
257.1625999999999976
20
-32.6706000000000003
11
258.1625999999999976
21
-32.6706000000000003
0
LINE
8
BLACK
6
CONTINUOUS
10
258.4957999999999743
20
-73.1092000000000013
11
258.4957999999999743
21
-74.1092000000000013
0
LINE
8
BLACK
6
CONTINUOUS
10
257.9957999999999743
20
-73.6092000000000013
11
258.9957999999999743
21
-73.6092000000000013
0
LINE
8
BLACK
6
CONTINUOUS
10
262.6664000000000101
20
-32.1451999999999956
11
262.6664000000000101
21
-33.1451999999999956
0
LINE
8
BLACK
6
CONTINUOUS
10
262.1664000000000101
20
-32.6451999999999956
11
263.1664000000000101
21
-32.6451999999999956
0
LINE
8
BLACK
6
CONTINUOUS
10
263.3471999999999866
20
-73.0330000000000013
11
263.3471999999999866
21
-74.0330000000000013
0
LINE
8
BLACK
6
CONTINUOUS
10
262.8471999999999866
20
-73.5330000000000013
11
263.8471999999999866
21
-73.5330000000000013
0
LINE
8
BLACK
6
CONTINUOUS
10
265.2063999999999737
20
-32.1451999999999956
11
265.2063999999999737
21
-33.1451999999999956
0
LINE
8
BLACK
6
CONTINUOUS
10
264.7063999999999737
20
-32.6451999999999956
11
265.7063999999999737
21
-32.6451999999999956
0
LINE
8
BLACK
6
CONTINUOUS
10
265.8872000000000071
20
-73.0330000000000013
11
265.8872000000000071
21
-74.0330000000000013
0
LINE
8
BLACK
6
CONTINUOUS
10
265.3872000000000071
20
-73.5330000000000013
11
266.3872000000000071
21
-73.5330000000000013
0
LINE
8
BLACK
6
CONTINUOUS
10
268.4271999999999707
20
-73.0330000000000013
11
268.4271999999999707
21
-74.0330000000000013
0
LINE
8
BLACK
6
CONTINUOUS
10
267.9271999999999707
20
-73.5330000000000013
11
268.9271999999999707
21
-73.5330000000000013
0
LINE
8
BLACK
6
CONTINUOUS
10
270.2864000000000146
20
-32.1706000000000003
11
270.2864000000000146
21
-33.1706000000000003
0
LINE
8
BLACK
6
CONTINUOUS
10
269.7864000000000146
20
-32.6706000000000003
11
270.7864000000000146
21
-32.6706000000000003
0
LINE
8
BLACK
6
CONTINUOUS
10
271.3736000000000104
20
-78.3415999999999997
11
271.3736000000000104
21
-79.3415999999999997
0
LINE
8
BLACK
6
CONTINUOUS
10
270.8736000000000104
20
-78.8415999999999997
11
271.8736000000000104
21
-78.8415999999999997
0
LINE
8
BLACK
6
CONTINUOUS
10
271.3736000000000104
20
-80.8815999999999917
11
271.3736000000000104
21
-81.8815999999999917
0
LINE
8
BLACK
6
CONTINUOUS
10
270.8736000000000104
20
-81.3815999999999917
11
271.8736000000000104
21
-81.3815999999999917
0
LINE
8
BLACK
6
CONTINUOUS
10
272.8263999999999783
20
-32.1706000000000003
11
272.8263999999999783
21
-33.1706000000000003
0
LINE
8
BLACK
6
CONTINUOUS
10
272.3263999999999783
20
-32.6706000000000003
11
273.3263999999999783
21
-32.6706000000000003
0
LINE
8
BLACK
6
CONTINUOUS
10
276.8600000000000136
20
-24.8999999999999986
11
276.8600000000000136
21
-25.8999999999999986
0
LINE
8
BLACK
6
CONTINUOUS
10
276.3600000000000136
20
-25.3999999999999986
11
277.3600000000000136
21
-25.3999999999999986
0
LINE
8
BLACK
6
CONTINUOUS
10
276.8600000000000136
20
-27.4399999999999977
11
276.8600000000000136
21
-28.4399999999999977
0
LINE
8
BLACK
6
CONTINUOUS
10
276.3600000000000136
20
-27.9399999999999977
11
277.3600000000000136
21
-27.9399999999999977
0
LINE
8
BLACK
6
CONTINUOUS
10
276.8600000000000136
20
-29.9799999999999969
11
276.8600000000000136
21
-30.9799999999999969
0
LINE
8
BLACK
6
CONTINUOUS
10
276.3600000000000136
20
-30.4799999999999969
11
277.3600000000000136
21
-30.4799999999999969
0
LINE
8
BLACK
6
CONTINUOUS
10
276.8600000000000136
20
-32.519999999999996
11
276.8600000000000136
21
-33.519999999999996
0
LINE
8
BLACK
6
CONTINUOUS
10
276.3600000000000136
20
-33.019999999999996
11
277.3600000000000136
21
-33.019999999999996
0
LINE
8
BLACK
6
CONTINUOUS
10
276.8600000000000136
20
-35.0599999999999952
11
276.8600000000000136
21
-36.0599999999999952
0
LINE
8
BLACK
6
CONTINUOUS
10
276.3600000000000136
20
-35.5599999999999952
11
277.3600000000000136
21
-35.5599999999999952
0
LINE
8
BLACK
6
CONTINUOUS
10
276.8600000000000136
20
-37.6000000000000014
11
276.8600000000000136
21
-38.6000000000000014
0
LINE
8
BLACK
6
CONTINUOUS
10
276.3600000000000136
20
-38.1000000000000014
11
277.3600000000000136
21
-38.1000000000000014
0
LINE
8
BLACK
6
CONTINUOUS
10
276.8600000000000136
20
-40.1400000000000006
11
276.8600000000000136
21
-41.1400000000000006
0
LINE
8
BLACK
6
CONTINUOUS
10
276.3600000000000136
20
-40.6400000000000006
11
277.3600000000000136
21
-40.6400000000000006
0
LINE
8
BLACK
6
CONTINUOUS
10
276.8600000000000136
20
-42.6799999999999997
11
276.8600000000000136
21
-43.6799999999999997
0
LINE
8
BLACK
6
CONTINUOUS
10
276.3600000000000136
20
-43.1799999999999997
11
277.3600000000000136
21
-43.1799999999999997
0
LINE
8
BLACK
6
CONTINUOUS
10
276.8600000000000136
20
-45.2199999999999989
11
276.8600000000000136
21
-46.2199999999999989
0
LINE
8
BLACK
6
CONTINUOUS
10
276.3600000000000136
20
-45.7199999999999989
11
277.3600000000000136
21
-45.7199999999999989
0
LINE
8
BLACK
6
CONTINUOUS
10
276.8600000000000136
20
-47.759999999999998
11
276.8600000000000136
21
-48.759999999999998
0
LINE
8
BLACK
6
CONTINUOUS
10
276.3600000000000136
20
-48.259999999999998
11
277.3600000000000136
21
-48.259999999999998
0
LINE
8
BLACK
6
CONTINUOUS
10
276.8600000000000136
20
-50.2999999999999972
11
276.8600000000000136
21
-51.2999999999999972
0
LINE
8
BLACK
6
CONTINUOUS
10
276.3600000000000136
20
-50.7999999999999972
11
277.3600000000000136
21
-50.7999999999999972
0
LINE
8
BLACK
6
CONTINUOUS
10
276.8600000000000136
20
-52.8399999999999963
11
276.8600000000000136
21
-53.8399999999999963
0
LINE
8
BLACK
6
CONTINUOUS
10
276.3600000000000136
20
-53.3399999999999963
11
277.3600000000000136
21
-53.3399999999999963
0
LINE
8
BLACK
6
CONTINUOUS
10
276.8600000000000136
20
-55.3799999999999955
11
276.8600000000000136
21
-56.3799999999999955
0
LINE
8
BLACK
6
CONTINUOUS
10
276.3600000000000136
20
-55.8799999999999955
11
277.3600000000000136
21
-55.8799999999999955
0
LINE
8
BLACK
6
CONTINUOUS
10
276.8600000000000136
20
-57.9199999999999946
11
276.8600000000000136
21
-58.9199999999999946
0
LINE
8
BLACK
6
CONTINUOUS
10
276.3600000000000136
20
-58.4199999999999946
11
277.3600000000000136
21
-58.4199999999999946
0
LINE
8
BLACK
6
CONTINUOUS
10
276.8600000000000136
20
-60.4599999999999937
11
276.8600000000000136
21
-61.4599999999999937
0
LINE
8
BLACK
6
CONTINUOUS
10
276.3600000000000136
20
-60.9599999999999937
11
277.3600000000000136
21
-60.9599999999999937
0
LINE
8
BLACK
6
CONTINUOUS
10
276.8600000000000136
20
-63.
11
276.8600000000000136
21
-64.
0
LINE
8
BLACK
6
CONTINUOUS
10
276.3600000000000136
20
-63.5
11
277.3600000000000136
21
-63.5
0
LINE
8
BLACK
6
CONTINUOUS
10
276.8600000000000136
20
-65.539999999999992
11
276.8600000000000136
21
-66.539999999999992
0
LINE
8
BLACK
6
CONTINUOUS
10
276.3600000000000136
20
-66.039999999999992
11
277.3600000000000136
21
-66.039999999999992
0
LINE
8
BLACK
6
CONTINUOUS
10
276.8600000000000136
20
-68.0799999999999983
11
276.8600000000000136
21
-69.0799999999999983
0
LINE
8
BLACK
6
CONTINUOUS
10
276.3600000000000136
20
-68.5799999999999983
11
277.3600000000000136
21
-68.5799999999999983
0
LINE
8
BLACK
6
CONTINUOUS
10
276.8600000000000136
20
-70.6199999999999903
11
276.8600000000000136
21
-71.6199999999999903
0
LINE
8
BLACK
6
CONTINUOUS
10
276.3600000000000136
20
-71.1199999999999903
11
277.3600000000000136
21
-71.1199999999999903
0
LINE
8
BLACK
6
CONTINUOUS
10
276.8600000000000136
20
-73.1599999999999966
11
276.8600000000000136
21
-74.1599999999999966
0
LINE
8
BLACK
6
CONTINUOUS
10
276.3600000000000136
20
-73.6599999999999966
11
277.3600000000000136
21
-73.6599999999999966
0
LINE
8
BLACK
6
CONTINUOUS
10
279.3999999999999773
20
-24.8999999999999986
11
279.3999999999999773
21
-25.8999999999999986
0
LINE
8
BLACK
6
CONTINUOUS
10
278.8999999999999773
20
-25.3999999999999986
11
279.8999999999999773
21
-25.3999999999999986
0
LINE
8
BLACK
6
CONTINUOUS
10
279.3999999999999773
20
-27.4399999999999977
11
279.3999999999999773
21
-28.4399999999999977
0
LINE
8
BLACK
6
CONTINUOUS
10
278.8999999999999773
20
-27.9399999999999977
11
279.8999999999999773
21
-27.9399999999999977
0
LINE
8
BLACK
6
CONTINUOUS
10
279.3999999999999773
20
-29.9799999999999969
11
279.3999999999999773
21
-30.9799999999999969
0
LINE
8
BLACK
6
CONTINUOUS
10
278.8999999999999773
20
-30.4799999999999969
11
279.8999999999999773
21
-30.4799999999999969
0
LINE
8
BLACK
6
CONTINUOUS
10
279.3999999999999773
20
-32.519999999999996
11
279.3999999999999773
21
-33.519999999999996
0
LINE
8
BLACK
6
CONTINUOUS
10
278.8999999999999773
20
-33.019999999999996
11
279.8999999999999773
21
-33.019999999999996
0
LINE
8
BLACK
6
CONTINUOUS
10
279.3999999999999773
20
-35.0599999999999952
11
279.3999999999999773
21
-36.0599999999999952
0
LINE
8
BLACK
6
CONTINUOUS
10
278.8999999999999773
20
-35.5599999999999952
11
279.8999999999999773
21
-35.5599999999999952
0
LINE
8
BLACK
6
CONTINUOUS
10
279.3999999999999773
20
-37.6000000000000014
11
279.3999999999999773
21
-38.6000000000000014
0
LINE
8
BLACK
6
CONTINUOUS
10
278.8999999999999773
20
-38.1000000000000014
11
279.8999999999999773
21
-38.1000000000000014
0
LINE
8
BLACK
6
CONTINUOUS
10
279.3999999999999773
20
-40.1400000000000006
11
279.3999999999999773
21
-41.1400000000000006
0
LINE
8
BLACK
6
CONTINUOUS
10
278.8999999999999773
20
-40.6400000000000006
11
279.8999999999999773
21
-40.6400000000000006
0
LINE
8
BLACK
6
CONTINUOUS
10
279.3999999999999773
20
-42.6799999999999997
11
279.3999999999999773
21
-43.6799999999999997
0
LINE
8
BLACK
6
CONTINUOUS
10
278.8999999999999773
20
-43.1799999999999997
11
279.8999999999999773
21
-43.1799999999999997
0
LINE
8
BLACK
6
CONTINUOUS
10
279.3999999999999773
20
-45.2199999999999989
11
279.3999999999999773
21
-46.2199999999999989
0
LINE
8
BLACK
6
CONTINUOUS
10
278.8999999999999773
20
-45.7199999999999989
11
279.8999999999999773
21
-45.7199999999999989
0
LINE
8
BLACK
6
CONTINUOUS
10
279.3999999999999773
20
-47.759999999999998
11
279.3999999999999773
21
-48.759999999999998
0
LINE
8
BLACK
6
CONTINUOUS
10
278.8999999999999773
20
-48.259999999999998
11
279.8999999999999773
21
-48.259999999999998
0
LINE
8
BLACK
6
CONTINUOUS
10
279.3999999999999773
20
-50.2999999999999972
11
279.3999999999999773
21
-51.2999999999999972
0
LINE
8
BLACK
6
CONTINUOUS
10
278.8999999999999773
20
-50.7999999999999972
11
279.8999999999999773
21
-50.7999999999999972
0
LINE
8
BLACK
6
CONTINUOUS
10
279.3999999999999773
20
-52.8399999999999963
11
279.3999999999999773
21
-53.8399999999999963
0
LINE
8
BLACK
6
CONTINUOUS
10
278.8999999999999773
20
-53.3399999999999963
11
279.8999999999999773
21
-53.3399999999999963
0
LINE
8
BLACK
6
CONTINUOUS
10
279.3999999999999773
20
-55.3799999999999955
11
279.3999999999999773
21
-56.3799999999999955
0
LINE
8
BLACK
6
CONTINUOUS
10
278.8999999999999773
20
-55.8799999999999955
11
279.8999999999999773
21
-55.8799999999999955
0
LINE
8
BLACK
6
CONTINUOUS
10
279.3999999999999773
20
-57.9199999999999946
11
279.3999999999999773
21
-58.9199999999999946
0
LINE
8
BLACK
6
CONTINUOUS
10
278.8999999999999773
20
-58.4199999999999946
11
279.8999999999999773
21
-58.4199999999999946
0
LINE
8
BLACK
6
CONTINUOUS
10
279.3999999999999773
20
-60.4599999999999937
11
279.3999999999999773
21
-61.4599999999999937
0
LINE
8
BLACK
6
CONTINUOUS
10
278.8999999999999773
20
-60.9599999999999937
11
279.8999999999999773
21
-60.9599999999999937
0
LINE
8
BLACK
6
CONTINUOUS
10
279.3999999999999773
20
-63.
11
279.3999999999999773
21
-64.
0
LINE
8
BLACK
6
CONTINUOUS
10
278.8999999999999773
20
-63.5
11
279.8999999999999773
21
-63.5
0
LINE
8
BLACK
6
CONTINUOUS
10
279.3999999999999773
20
-65.539999999999992
11
279.3999999999999773
21
-66.539999999999992
0
LINE
8
BLACK
6
CONTINUOUS
10
278.8999999999999773
20
-66.039999999999992
11
279.8999999999999773
21
-66.039999999999992
0
LINE
8
BLACK
6
CONTINUOUS
10
279.3999999999999773
20
-68.0799999999999983
11
279.3999999999999773
21
-69.0799999999999983
0
LINE
8
BLACK
6
CONTINUOUS
10
278.8999999999999773
20
-68.5799999999999983
11
279.8999999999999773
21
-68.5799999999999983
0
LINE
8
BLACK
6
CONTINUOUS
10
279.3999999999999773
20
-70.6199999999999903
11
279.3999999999999773
21
-71.6199999999999903
0
LINE
8
BLACK
6
CONTINUOUS
10
278.8999999999999773
20
-71.1199999999999903
11
279.8999999999999773
21
-71.1199999999999903
0
LINE
8
BLACK
6
CONTINUOUS
10
279.3999999999999773
20
-73.1599999999999966
11
279.3999999999999773
21
-74.1599999999999966
0
LINE
8
BLACK
6
CONTINUOUS
10
278.8999999999999773
20
-73.6599999999999966
11
279.8999999999999773
21
-73.6599999999999966
0
LINE
8
BLACK
6
CONTINUOUS
10
228.3887679999999989
20
-87.493237999999991
11
228.3887679999999989
21
-85.493237999999991
0
LINE
8
BLACK
6
CONTINUOUS
10
228.3887679999999989
20
-85.493237999999991
11
228.8649580000000014
21
-85.493237999999991
0
LINE
8
BLACK
6
CONTINUOUS
10
228.8649580000000014
20
-85.493237999999991
11
229.1506729999999834
21
-85.588476
0
LINE
8
BLACK
6
CONTINUOUS
10
229.1506729999999834
20
-85.588476
11
229.3411490000000015
21
-85.7789519999999897
0
LINE
8
BLACK
6
CONTINUOUS
10
229.3411490000000015
20
-85.7789519999999897
11
229.4363869999999963
21
-85.9694279999999935
0
LINE
8
BLACK
6
CONTINUOUS
10
229.4363869999999963
20
-85.9694279999999935
11
229.5316249999999911
21
-86.3503800000000012
0
LINE
8
BLACK
6
CONTINUOUS
10
229.5316249999999911
20
-86.3503800000000012
11
229.5316249999999911
21
-86.6360949999999974
0
LINE
8
BLACK
6
CONTINUOUS
10
229.5316249999999911
20
-86.6360949999999974
11
229.4363869999999963
21
-87.0170469999999909
0
LINE
8
BLACK
6
CONTINUOUS
10
229.4363869999999963
20
-87.0170469999999909
11
229.3411490000000015
21
-87.2075229999999948
0
LINE
8
BLACK
6
CONTINUOUS
10
229.3411490000000015
20
-87.2075229999999948
11
229.1506729999999834
21
-87.3979999999999961
0
LINE
8
BLACK
6
CONTINUOUS
10
229.1506729999999834
20
-87.3979999999999961
11
228.8649580000000014
21
-87.493237999999991
0
LINE
8
BLACK
6
CONTINUOUS
10
228.8649580000000014
20
-87.493237999999991
11
228.3887679999999989
21
-87.493237999999991
0
LINE
8
BLACK
6
CONTINUOUS
10
230.3887679999999989
20
-87.493237999999991
11
230.3887679999999989
21
-86.1599039999999974
0
LINE
8
BLACK
6
CONTINUOUS
10
230.3887679999999989
20
-86.5408570000000026
11
230.4840059999999937
21
-86.3503800000000012
0
LINE
8
BLACK
6
CONTINUOUS
10
230.4840059999999937
20
-86.3503800000000012
11
230.5792439999999885
21
-86.2551419999999922
0
LINE
8
BLACK
6
CONTINUOUS
10
230.5792439999999885
20
-86.2551419999999922
11
230.7697199999999782
21
-86.1599039999999974
0
LINE
8
BLACK
6
CONTINUOUS
10
230.7697199999999782
20
-86.1599039999999974
11
230.9601969999999937
21
-86.1599039999999974
0
LINE
8
BLACK
6
CONTINUOUS
10
231.626862999999986
20
-87.493237999999991
11
231.626862999999986
21
-86.1599039999999974
0
LINE
8
BLACK
6
CONTINUOUS
10
231.626862999999986
20
-85.493237999999991
11
231.5316249999999911
21
-85.588476
0
LINE
8
BLACK
6
CONTINUOUS
10
231.5316249999999911
20
-85.588476
11
231.626862999999986
21
-85.6837139999999948
0
LINE
8
BLACK
6
CONTINUOUS
10
231.626862999999986
20
-85.6837139999999948
11
231.7221009999999808
21
-85.588476
0
LINE
8
BLACK
6
CONTINUOUS
10
231.7221009999999808
20
-85.588476
11
231.626862999999986
21
-85.493237999999991
0
LINE
8
BLACK
6
CONTINUOUS
10
231.626862999999986
20
-85.493237999999991
11
231.626862999999986
21
-85.6837139999999948
0
LINE
8
BLACK
6
CONTINUOUS
10
232.8649580000000014
20
-87.493237999999991
11
232.6744819999999834
21
-87.3979999999999961
0
LINE
8
BLACK
6
CONTINUOUS
10
232.6744819999999834
20
-87.3979999999999961
11
232.5792439999999885
21
-87.2075229999999948
0
LINE
8
BLACK
6
CONTINUOUS
10
232.5792439999999885
20
-87.2075229999999948
11
232.5792439999999885
21
-85.493237999999991
0
LINE
8
BLACK
6
CONTINUOUS
10
233.9125769999999989
20
-87.493237999999991
11
233.7221009999999808
21
-87.3979999999999961
0
LINE
8
BLACK
6
CONTINUOUS
10
233.7221009999999808
20
-87.3979999999999961
11
233.626862999999986
21
-87.2075229999999948
0
LINE
8
BLACK
6
CONTINUOUS
10
233.626862999999986
20
-87.2075229999999948
11
233.626862999999986
21
-85.493237999999991
0
LINE
8
BLACK
6
CONTINUOUS
10
236.1982919999999808
20
-87.493237999999991
11
236.1982919999999808
21
-85.493237999999991
0
LINE
8
BLACK
6
CONTINUOUS
10
236.1982919999999808
20
-85.493237999999991
11
236.8649589999999989
21
-86.9218089999999961
0
LINE
8
BLACK
6
CONTINUOUS
10
236.8649589999999989
20
-86.9218089999999961
11
237.5316249999999911
21
-85.493237999999991
0
LINE
8
BLACK
6
CONTINUOUS
10
237.5316249999999911
20
-85.493237999999991
11
237.5316249999999911
21
-87.493237999999991
0
LINE
8
BLACK
6
CONTINUOUS
10
239.3411490000000015
20
-87.493237999999991
11
239.3411490000000015
21
-86.4456189999999935
0
LINE
8
BLACK
6
CONTINUOUS
10
239.3411490000000015
20
-86.4456189999999935
11
239.2459109999999782
21
-86.2551419999999922
0
LINE
8
BLACK
6
CONTINUOUS
10
239.2459109999999782
20
-86.2551419999999922
11
239.0554349999999886
21
-86.1599039999999974
0
LINE
8
BLACK
6
CONTINUOUS
10
239.0554349999999886
20
-86.1599039999999974
11
238.6744819999999834
21
-86.1599039999999974
0
LINE
8
BLACK
6
CONTINUOUS
10
238.6744819999999834
20
-86.1599039999999974
11
238.4840059999999937
21
-86.2551419999999922
0
LINE
8
BLACK
6
CONTINUOUS
10
239.3411490000000015
20
-87.3979999999999961
11
239.1506729999999834
21
-87.493237999999991
0
LINE
8
BLACK
6
CONTINUOUS
10
239.1506729999999834
20
-87.493237999999991
11
238.6744819999999834
21
-87.493237999999991
0
LINE
8
BLACK
6
CONTINUOUS
10
238.6744819999999834
20
-87.493237999999991
11
238.4840059999999937
21
-87.3979999999999961
0
LINE
8
BLACK
6
CONTINUOUS
10
238.4840059999999937
20
-87.3979999999999961
11
238.3887679999999989
21
-87.2075229999999948
0
LINE
8
BLACK
6
CONTINUOUS
10
238.3887679999999989
20
-87.2075229999999948
11
238.3887679999999989
21
-87.0170469999999909
0
LINE
8
BLACK
6
CONTINUOUS
10
238.3887679999999989
20
-87.0170469999999909
11
238.4840059999999937
21
-86.8265710000000013
0
LINE
8
BLACK
6
CONTINUOUS
10
238.4840059999999937
20
-86.8265710000000013
11
238.6744819999999834
21
-86.7313329999999922
0
LINE
8
BLACK
6
CONTINUOUS
10
238.6744819999999834
20
-86.7313329999999922
11
239.1506729999999834
21
-86.7313329999999922
0
LINE
8
BLACK
6
CONTINUOUS
10
239.1506729999999834
20
-86.7313329999999922
11
239.3411490000000015
21
-86.6360949999999974
0
LINE
8
BLACK
6
CONTINUOUS
10
240.2935299999999756
20
-86.1599039999999974
11
240.2935299999999756
21
-88.1599039999999974
0
LINE
8
BLACK
6
CONTINUOUS
10
240.2935299999999756
20
-86.2551419999999922
11
240.4840059999999937
21
-86.1599039999999974
0
LINE
8
BLACK
6
CONTINUOUS
10
240.4840059999999937
20
-86.1599039999999974
11
240.8649589999999989
21
-86.1599039999999974
0
LINE
8
BLACK
6
CONTINUOUS
10
240.8649589999999989
20
-86.1599039999999974
11
241.0554349999999886
21
-86.2551419999999922
0
LINE
8
BLACK
6
CONTINUOUS
10
241.0554349999999886
20
-86.2551419999999922
11
241.1506729999999834
21
-86.3503800000000012
0
LINE
8
BLACK
6
CONTINUOUS
10
241.1506729999999834
20
-86.3503800000000012
11
241.2459109999999782
21
-86.5408570000000026
0
LINE
8
BLACK
6
CONTINUOUS
10
241.2459109999999782
20
-86.5408570000000026
11
241.2459109999999782
21
-87.112285
0
LINE
8
BLACK
6
CONTINUOUS
10
241.2459109999999782
20
-87.112285
11
241.1506729999999834
21
-87.3027609999999896
0
LINE
8
BLACK
6
CONTINUOUS
10
241.1506729999999834
20
-87.3027609999999896
11
241.0554349999999886
21
-87.3979999999999961
0
LINE
8
BLACK
6
CONTINUOUS
10
241.0554349999999886
20
-87.3979999999999961
11
240.8649589999999989
21
-87.493237999999991
0
LINE
8
BLACK
6
CONTINUOUS
10
240.8649589999999989
20
-87.493237999999991
11
240.4840059999999937
21
-87.493237999999991
0
LINE
8
BLACK
6
CONTINUOUS
10
240.4840059999999937
20
-87.493237999999991
11
240.2935299999999756
21
-87.3979999999999961
0
LINE
8
BLACK
6
CONTINUOUS
10
242.103053999999986
20
-87.3027609999999896
11
242.1982919999999808
21
-87.3979999999999961
0
LINE
8
BLACK
6
CONTINUOUS
10
242.1982919999999808
20
-87.3979999999999961
11
242.103053999999986
21
-87.493237999999991
0
LINE
8
BLACK
6
CONTINUOUS
10
242.103053999999986
20
-87.493237999999991
11
242.0078159999999912
21
-87.3979999999999961
0
LINE
8
BLACK
6
CONTINUOUS
10
242.0078159999999912
20
-87.3979999999999961
11
242.103053999999986
21
-87.3027609999999896
0
LINE
8
BLACK
6
CONTINUOUS
10
242.103053999999986
20
-87.3027609999999896
11
242.103053999999986
21
-87.493237999999991
0
LINE
8
BLACK
6
CONTINUOUS
10
242.103053999999986
20
-86.2551419999999922
11
242.1982919999999808
21
-86.3503800000000012
0
LINE
8
BLACK
6
CONTINUOUS
10
242.1982919999999808
20
-86.3503800000000012
11
242.103053999999986
21
-86.4456189999999935
0
LINE
8
BLACK
6
CONTINUOUS
10
242.103053999999986
20
-86.4456189999999935
11
242.0078159999999912
21
-86.3503800000000012
0
LINE
8
BLACK
6
CONTINUOUS
10
242.0078159999999912
20
-86.3503800000000012
11
242.103053999999986
21
-86.2551419999999922
0
LINE
8
BLACK
6
CONTINUOUS
10
242.103053999999986
20
-86.2551419999999922
11
242.103053999999986
21
-86.4456189999999935
0
LINE
8
BLACK
6
CONTINUOUS
10
225.3810000000000002
20
-90.578400000000002
11
225.7809999999999775
21
-90.9783999999999935
0
LINE
8
BLACK
6
CONTINUOUS
10
225.7809999999999775
20
-90.578400000000002
11
225.3810000000000002
21
-90.9783999999999935
0
LINE
8
BLACK
6
CONTINUOUS
10
228.7697199999999782
20
-89.6932379999999938
11
228.9601969999999937
21
-89.6932379999999938
0
LINE
8
BLACK
6
CONTINUOUS
10
228.9601969999999937
20
-89.6932379999999938
11
229.1506729999999834
21
-89.7884760000000028
0
LINE
8
BLACK
6
CONTINUOUS
10
229.1506729999999834
20
-89.7884760000000028
11
229.2459109999999782
21
-89.8837139999999977
0
LINE
8
BLACK
6
CONTINUOUS
10
229.2459109999999782
20
-89.8837139999999977
11
229.3411490000000015
21
-90.0741900000000015
0
LINE
8
BLACK
6
CONTINUOUS
10
229.3411490000000015
20
-90.0741900000000015
11
229.4363869999999963
21
-90.4551419999999951
0
LINE
8
BLACK
6
CONTINUOUS
10
229.4363869999999963
20
-90.4551419999999951
11
229.4363869999999963
21
-90.9313329999999951
0
LINE
8
BLACK
6
CONTINUOUS
10
229.4363869999999963
20
-90.9313329999999951
11
229.3411490000000015
21
-91.3122850000000028
0
LINE
8
BLACK
6
CONTINUOUS
10
229.3411490000000015
20
-91.3122850000000028
11
229.2459109999999782
21
-91.5027609999999925
0
LINE
8
BLACK
6
CONTINUOUS
10
229.2459109999999782
20
-91.5027609999999925
11
229.1506729999999834
21
-91.597999999999999
0
LINE
8
BLACK
6
CONTINUOUS
10
229.1506729999999834
20
-91.597999999999999
11
228.9601969999999937
21
-91.6932379999999938
0
LINE
8
BLACK
6
CONTINUOUS
10
228.9601969999999937
20
-91.6932379999999938
11
228.7697199999999782
21
-91.6932379999999938
0
LINE
8
BLACK
6
CONTINUOUS
10
228.7697199999999782
20
-91.6932379999999938
11
228.5792439999999885
21
-91.597999999999999
0
LINE
8
BLACK
6
CONTINUOUS
10
228.5792439999999885
20
-91.597999999999999
11
228.4840059999999937
21
-91.5027609999999925
0
LINE
8
BLACK
6
CONTINUOUS
10
228.4840059999999937
20
-91.5027609999999925
11
228.3887679999999989
21
-91.3122850000000028
0
LINE
8
BLACK
6
CONTINUOUS
10
228.3887679999999989
20
-91.3122850000000028
11
228.2935299999999756
21
-90.9313329999999951
0
LINE
8
BLACK
6
CONTINUOUS
10
228.2935299999999756
20
-90.9313329999999951
11
228.2935299999999756
21
-90.4551419999999951
0
LINE
8
BLACK
6
CONTINUOUS
10
228.2935299999999756
20
-90.4551419999999951
11
228.3887679999999989
21
-90.0741900000000015
0
LINE
8
BLACK
6
CONTINUOUS
10
228.3887679999999989
20
-90.0741900000000015
11
228.4840059999999937
21
-89.8837139999999977
0
LINE
8
BLACK
6
CONTINUOUS
10
228.4840059999999937
20
-89.8837139999999977
11
228.5792439999999885
21
-89.7884760000000028
0
LINE
8
BLACK
6
CONTINUOUS
10
228.5792439999999885
20
-89.7884760000000028
11
228.7697199999999782
21
-89.6932379999999938
0
LINE
8
BLACK
6
CONTINUOUS
10
230.2935299999999756
20
-91.5027609999999925
11
230.3887679999999989
21
-91.597999999999999
0
LINE
8
BLACK
6
CONTINUOUS
10
230.3887679999999989
20
-91.597999999999999
11
230.2935299999999756
21
-91.6932379999999938
0
LINE
8
BLACK
6
CONTINUOUS
10
230.2935299999999756
20
-91.6932379999999938
11
230.1982919999999808
21
-91.597999999999999
0
LINE
8
BLACK
6
CONTINUOUS
10
230.1982919999999808
20
-91.597999999999999
11
230.2935299999999756
21
-91.5027609999999925
0
LINE
8
BLACK
6
CONTINUOUS
10
230.2935299999999756
20
-91.5027609999999925
11
230.2935299999999756
21
-91.6932379999999938
0
LINE
8
BLACK
6
CONTINUOUS
10
232.103053999999986
20
-90.3599040000000002
11
232.103053999999986
21
-91.6932379999999938
0
LINE
8
BLACK
6
CONTINUOUS
10
231.626862999999986
20
-89.597999999999999
11
231.1506729999999834
21
-91.0265709999999899
0
LINE
8
BLACK
6
CONTINUOUS
10
231.1506729999999834
20
-91.0265709999999899
11
232.3887679999999989
21
-91.0265709999999899
0
LINE
8
BLACK
6
CONTINUOUS
10
233.5316249999999911
20
-89.6932379999999938
11
233.7221019999999783
21
-89.6932379999999938
0
LINE
8
BLACK
6
CONTINUOUS
10
233.7221019999999783
20
-89.6932379999999938
11
233.9125779999999963
21
-89.7884760000000028
0
LINE
8
BLACK
6
CONTINUOUS
10
233.9125779999999963
20
-89.7884760000000028
11
234.0078159999999912
21
-89.8837139999999977
0
LINE
8
BLACK
6
CONTINUOUS
10
234.0078159999999912
20
-89.8837139999999977
11
234.103053999999986
21
-90.0741900000000015
0
LINE
8
BLACK
6
CONTINUOUS
10
234.103053999999986
20
-90.0741900000000015
11
234.1982919999999808
21
-90.4551419999999951
0
LINE
8
BLACK
6
CONTINUOUS
10
234.1982919999999808
20
-90.4551419999999951
11
234.1982919999999808
21
-90.9313329999999951
0
LINE
8
BLACK
6
CONTINUOUS
10
234.1982919999999808
20
-90.9313329999999951
11
234.103053999999986
21
-91.3122850000000028
0
LINE
8
BLACK
6
CONTINUOUS
10
234.103053999999986
20
-91.3122850000000028
11
234.0078159999999912
21
-91.5027609999999925
0
LINE
8
BLACK
6
CONTINUOUS
10
234.0078159999999912
20
-91.5027609999999925
11
233.9125779999999963
21
-91.597999999999999
0
LINE
8
BLACK
6
CONTINUOUS
10
233.9125779999999963
20
-91.597999999999999
11
233.7221019999999783
21
-91.6932379999999938
0
LINE
8
BLACK
6
CONTINUOUS
10
233.7221019999999783
20
-91.6932379999999938
11
233.5316249999999911
21
-91.6932379999999938
0
LINE
8
BLACK
6
CONTINUOUS
10
233.5316249999999911
20
-91.6932379999999938
11
233.3411490000000015
21
-91.597999999999999
0
LINE
8
BLACK
6
CONTINUOUS
10
233.3411490000000015
20
-91.597999999999999
11
233.2459109999999782
21
-91.5027609999999925
0
LINE
8
BLACK
6
CONTINUOUS
10
233.2459109999999782
20
-91.5027609999999925
11
233.1506729999999834
21
-91.3122850000000028
0
LINE
8
BLACK
6
CONTINUOUS
10
233.1506729999999834
20
-91.3122850000000028
11
233.0554349999999886
21
-90.9313329999999951
0
LINE
8
BLACK
6
CONTINUOUS
10
233.0554349999999886
20
-90.9313329999999951
11
233.0554349999999886
21
-90.4551419999999951
0
LINE
8
BLACK
6
CONTINUOUS
10
233.0554349999999886
20
-90.4551419999999951
11
233.1506729999999834
21
-90.0741900000000015
0
LINE
8
BLACK
6
CONTINUOUS
10
233.1506729999999834
20
-90.0741900000000015
11
233.2459109999999782
21
-89.8837139999999977
0
LINE
8
BLACK
6
CONTINUOUS
10
233.2459109999999782
20
-89.8837139999999977
11
233.3411490000000015
21
-89.7884760000000028
0
LINE
8
BLACK
6
CONTINUOUS
10
233.3411490000000015
20
-89.7884760000000028
11
233.5316249999999911
21
-89.6932379999999938
0
LINE
8
BLACK
6
CONTINUOUS
10
235.4363869999999963
20
-89.6932379999999938
11
235.6268639999999834
21
-89.6932379999999938
0
LINE
8
BLACK
6
CONTINUOUS
10
235.6268639999999834
20
-89.6932379999999938
11
235.8173400000000015
21
-89.7884760000000028
0
LINE
8
BLACK
6
CONTINUOUS
10
235.8173400000000015
20
-89.7884760000000028
11
235.9125779999999963
21
-89.8837139999999977
0
LINE
8
BLACK
6
CONTINUOUS
10
235.9125779999999963
20
-89.8837139999999977
11
236.0078159999999912
21
-90.0741900000000015
0
LINE
8
BLACK
6
CONTINUOUS
10
236.0078159999999912
20
-90.0741900000000015
11
236.103053999999986
21
-90.4551419999999951
0
LINE
8
BLACK
6
CONTINUOUS
10
236.103053999999986
20
-90.4551419999999951
11
236.103053999999986
21
-90.9313329999999951
0
LINE
8
BLACK
6
CONTINUOUS
10
236.103053999999986
20
-90.9313329999999951
11
236.0078159999999912
21
-91.3122850000000028
0
LINE
8
BLACK
6
CONTINUOUS
10
236.0078159999999912
20
-91.3122850000000028
11
235.9125779999999963
21
-91.5027609999999925
0
LINE
8
BLACK
6
CONTINUOUS
10
235.9125779999999963
20
-91.5027609999999925
11
235.8173400000000015
21
-91.597999999999999
0
LINE
8
BLACK
6
CONTINUOUS
10
235.8173400000000015
20
-91.597999999999999
11
235.6268639999999834
21
-91.6932379999999938
0
LINE
8
BLACK
6
CONTINUOUS
10
235.6268639999999834
20
-91.6932379999999938
11
235.4363869999999963
21
-91.6932379999999938
0
LINE
8
BLACK
6
CONTINUOUS
10
235.4363869999999963
20
-91.6932379999999938
11
235.2459109999999782
21
-91.597999999999999
0
LINE
8
BLACK
6
CONTINUOUS
10
235.2459109999999782
20
-91.597999999999999
11
235.1506729999999834
21
-91.5027609999999925
0
LINE
8
BLACK
6
CONTINUOUS
10
235.1506729999999834
20
-91.5027609999999925
11
235.0554349999999886
21
-91.3122850000000028
0
LINE
8
BLACK
6
CONTINUOUS
10
235.0554349999999886
20
-91.3122850000000028
11
234.9601969999999937
21
-90.9313329999999951
0
LINE
8
BLACK
6
CONTINUOUS
10
234.9601969999999937
20
-90.9313329999999951
11
234.9601969999999937
21
-90.4551419999999951
0
LINE
8
BLACK
6
CONTINUOUS
10
234.9601969999999937
20
-90.4551419999999951
11
235.0554349999999886
21
-90.0741900000000015
0
LINE
8
BLACK
6
CONTINUOUS
10
235.0554349999999886
20
-90.0741900000000015
11
235.1506729999999834
21
-89.8837139999999977
0
LINE
8
BLACK
6
CONTINUOUS
10
235.1506729999999834
20
-89.8837139999999977
11
235.2459109999999782
21
-89.7884760000000028
0
LINE
8
BLACK
6
CONTINUOUS
10
235.2459109999999782
20
-89.7884760000000028
11
235.4363869999999963
21
-89.6932379999999938
0
LINE
8
BLACK
6
CONTINUOUS
10
236.9601969999999937
20
-91.6932379999999938
11
236.9601969999999937
21
-90.3599040000000002
0
LINE
8
BLACK
6
CONTINUOUS
10
236.9601969999999937
20
-90.5503799999999899
11
237.0554349999999886
21
-90.4551419999999951
0
LINE
8
BLACK
6
CONTINUOUS
10
237.0554349999999886
20
-90.4551419999999951
11
237.2459109999999782
21
-90.3599040000000002
0
LINE
8
BLACK
6
CONTINUOUS
10
237.2459109999999782
20
-90.3599040000000002
11
237.5316259999999886
21
-90.3599040000000002
0
LINE
8
BLACK
6
CONTINUOUS
10
237.5316259999999886
20
-90.3599040000000002
11
237.7221019999999783
21
-90.4551419999999951
0
LINE
8
BLACK
6
CONTINUOUS
10
237.7221019999999783
20
-90.4551419999999951
11
237.8173400000000015
21
-90.6456189999999964
0
LINE
8
BLACK
6
CONTINUOUS
10
237.8173400000000015
20
-90.6456189999999964
11
237.8173400000000015
21
-91.6932379999999938
0
LINE
8
BLACK
6
CONTINUOUS
10
237.8173400000000015
20
-90.6456189999999964
11
237.9125779999999963
21
-90.4551419999999951
0
LINE
8
BLACK
6
CONTINUOUS
10
237.9125779999999963
20
-90.4551419999999951
11
238.103053999999986
21
-90.3599040000000002
0
LINE
8
BLACK
6
CONTINUOUS
10
238.103053999999986
20
-90.3599040000000002
11
238.3887679999999989
21
-90.3599040000000002
0
LINE
8
BLACK
6
CONTINUOUS
10
238.3887679999999989
20
-90.3599040000000002
11
238.579244999999986
21
-90.4551419999999951
0
LINE
8
BLACK
6
CONTINUOUS
10
238.579244999999986
20
-90.4551419999999951
11
238.6744829999999808
21
-90.6456189999999964
0
LINE
8
BLACK
6
CONTINUOUS
10
238.6744829999999808
20
-90.6456189999999964
11
238.6744829999999808
21
-91.6932379999999938
0
LINE
8
BLACK
6
CONTINUOUS
10
239.6268639999999834
20
-91.6932379999999938
11
239.6268639999999834
21
-90.3599040000000002
0
LINE
8
BLACK
6
CONTINUOUS
10
239.6268639999999834
20
-90.5503799999999899
11
239.7221019999999783
21
-90.4551419999999951
0
LINE
8
BLACK
6
CONTINUOUS
10
239.7221019999999783
20
-90.4551419999999951
11
239.9125779999999963
21
-90.3599040000000002
0
LINE
8
BLACK
6
CONTINUOUS
10
239.9125779999999963
20
-90.3599040000000002
11
240.1982929999999783
21
-90.3599040000000002
0
LINE
8
BLACK
6
CONTINUOUS
10
240.1982929999999783
20
-90.3599040000000002
11
240.3887689999999964
21
-90.4551419999999951
0
LINE
8
BLACK
6
CONTINUOUS
10
240.3887689999999964
20
-90.4551419999999951
11
240.4840069999999912
21
-90.6456189999999964
0
LINE
8
BLACK
6
CONTINUOUS
10
240.4840069999999912
20
-90.6456189999999964
11
240.4840069999999912
21
-91.6932379999999938
0
LINE
8
BLACK
6
CONTINUOUS
10
240.4840069999999912
20
-90.6456189999999964
11
240.579244999999986
21
-90.4551419999999951
0
LINE
8
BLACK
6
CONTINUOUS
10
240.579244999999986
20
-90.4551419999999951
11
240.7697209999999757
21
-90.3599040000000002
0
LINE
8
BLACK
6
CONTINUOUS
10
240.7697209999999757
20
-90.3599040000000002
11
241.0554349999999886
21
-90.3599040000000002
0
LINE
8
BLACK
6
CONTINUOUS
10
241.0554349999999886
20
-90.3599040000000002
11
241.2459119999999757
21
-90.4551419999999951
0
LINE
8
BLACK
6
CONTINUOUS
10
241.2459119999999757
20
-90.4551419999999951
11
241.341149999999999
21
-90.6456189999999964
0
LINE
8
BLACK
6
CONTINUOUS
10
241.341149999999999
20
-90.6456189999999964
11
241.341149999999999
21
-91.6932379999999938
0
LINE
8
BLACK
6
CONTINUOUS
10
245.2459119999999757
20
-89.597999999999999
11
243.5316269999999861
21
-92.1694279999999964
0
LINE
8
BLACK
6
CONTINUOUS
10
247.817340999999999
20
-89.6932379999999938
11
248.0078179999999861
21
-89.6932379999999938
0
LINE
8
BLACK
6
CONTINUOUS
10
248.0078179999999861
20
-89.6932379999999938
11
248.1982939999999758
21
-89.7884760000000028
0
LINE
8
BLACK
6
CONTINUOUS
10
248.1982939999999758
20
-89.7884760000000028
11
248.293531999999999
21
-89.8837139999999977
0
LINE
8
BLACK
6
CONTINUOUS
10
248.293531999999999
20
-89.8837139999999977
11
248.3887699999999938
21
-90.0741900000000015
0
LINE
8
BLACK
6
CONTINUOUS
10
248.3887699999999938
20
-90.0741900000000015
11
248.4840079999999887
21
-90.4551419999999951
0
LINE
8
BLACK
6
CONTINUOUS
10
248.4840079999999887
20
-90.4551419999999951
11
248.4840079999999887
21
-90.9313329999999951
0
LINE
8
BLACK
6
CONTINUOUS
10
248.4840079999999887
20
-90.9313329999999951
11
248.3887699999999938
21
-91.3122850000000028
0
LINE
8
BLACK
6
CONTINUOUS
10
248.3887699999999938
20
-91.3122850000000028
11
248.293531999999999
21
-91.5027609999999925
0
LINE
8
BLACK
6
CONTINUOUS
10
248.293531999999999
20
-91.5027609999999925
11
248.1982939999999758
21
-91.597999999999999
0
LINE
8
BLACK
6
CONTINUOUS
10
248.1982939999999758
20
-91.597999999999999
11
248.0078179999999861
21
-91.6932379999999938
0
LINE
8
BLACK
6
CONTINUOUS
10
248.0078179999999861
20
-91.6932379999999938
11
247.817340999999999
21
-91.6932379999999938
0
LINE
8
BLACK
6
CONTINUOUS
10
247.817340999999999
20
-91.6932379999999938
11
247.6268649999999809
21
-91.597999999999999
0
LINE
8
BLACK
6
CONTINUOUS
10
247.6268649999999809
20
-91.597999999999999
11
247.5316269999999861
21
-91.5027609999999925
0
LINE
8
BLACK
6
CONTINUOUS
10
247.5316269999999861
20
-91.5027609999999925
11
247.4363889999999913
21
-91.3122850000000028
0
LINE
8
BLACK
6
CONTINUOUS
10
247.4363889999999913
20
-91.3122850000000028
11
247.3411509999999964
21
-90.9313329999999951
0
LINE
8
BLACK
6
CONTINUOUS
10
247.3411509999999964
20
-90.9313329999999951
11
247.3411509999999964
21
-90.4551419999999951
0
LINE
8
BLACK
6
CONTINUOUS
10
247.3411509999999964
20
-90.4551419999999951
11
247.4363889999999913
21
-90.0741900000000015
0
LINE
8
BLACK
6
CONTINUOUS
10
247.4363889999999913
20
-90.0741900000000015
11
247.5316269999999861
21
-89.8837139999999977
0
LINE
8
BLACK
6
CONTINUOUS
10
247.5316269999999861
20
-89.8837139999999977
11
247.6268649999999809
21
-89.7884760000000028
0
LINE
8
BLACK
6
CONTINUOUS
10
247.6268649999999809
20
-89.7884760000000028
11
247.817340999999999
21
-89.6932379999999938
0
LINE
8
BLACK
6
CONTINUOUS
10
249.3411509999999964
20
-91.5027609999999925
11
249.4363889999999913
21
-91.597999999999999
0
LINE
8
BLACK
6
CONTINUOUS
10
249.4363889999999913
20
-91.597999999999999
11
249.3411509999999964
21
-91.6932379999999938
0
LINE
8
BLACK
6
CONTINUOUS
10
249.3411509999999964
20
-91.6932379999999938
11
249.2459130000000016
21
-91.597999999999999
0
LINE
8
BLACK
6
CONTINUOUS
10
249.2459130000000016
20
-91.597999999999999
11
249.3411509999999964
21
-91.5027609999999925
0
LINE
8
BLACK
6
CONTINUOUS
10
249.3411509999999964
20
-91.5027609999999925
11
249.3411509999999964
21
-91.6932379999999938
0
LINE
8
BLACK
6
CONTINUOUS
10
250.6744839999999783
20
-89.6932379999999938
11
250.8649609999999939
21
-89.6932379999999938
0
LINE
8
BLACK
6
CONTINUOUS
10
250.8649609999999939
20
-89.6932379999999938
11
251.0554369999999835
21
-89.7884760000000028
0
LINE
8
BLACK
6
CONTINUOUS
10
251.0554369999999835
20
-89.7884760000000028
11
251.1506749999999784
21
-89.8837139999999977
0
LINE
8
BLACK
6
CONTINUOUS
10
251.1506749999999784
20
-89.8837139999999977
11
251.2459130000000016
21
-90.0741900000000015
0
LINE
8
BLACK
6
CONTINUOUS
10
251.2459130000000016
20
-90.0741900000000015
11
251.3411509999999964
21
-90.4551419999999951
0
LINE
8
BLACK
6
CONTINUOUS
10
251.3411509999999964
20
-90.4551419999999951
11
251.3411509999999964
21
-90.9313329999999951
0
LINE
8
BLACK
6
CONTINUOUS
10
251.3411509999999964
20
-90.9313329999999951
11
251.2459130000000016
21
-91.3122850000000028
0
LINE
8
BLACK
6
CONTINUOUS
10
251.2459130000000016
20
-91.3122850000000028
11
251.1506749999999784
21
-91.5027609999999925
0
LINE
8
BLACK
6
CONTINUOUS
10
251.1506749999999784
20
-91.5027609999999925
11
251.0554369999999835
21
-91.597999999999999
0
LINE
8
BLACK
6
CONTINUOUS
10
251.0554369999999835
20
-91.597999999999999
11
250.8649609999999939
21
-91.6932379999999938
0
LINE
8
BLACK
6
CONTINUOUS
10
250.8649609999999939
20
-91.6932379999999938
11
250.6744839999999783
21
-91.6932379999999938
0
LINE
8
BLACK
6
CONTINUOUS
10
250.6744839999999783
20
-91.6932379999999938
11
250.4840079999999887
21
-91.597999999999999
0
LINE
8
BLACK
6
CONTINUOUS
10
250.4840079999999887
20
-91.597999999999999
11
250.3887699999999938
21
-91.5027609999999925
0
LINE
8
BLACK
6
CONTINUOUS
10
250.3887699999999938
20
-91.5027609999999925
11
250.293531999999999
21
-91.3122850000000028
0
LINE
8
BLACK
6
CONTINUOUS
10
250.293531999999999
20
-91.3122850000000028
11
250.1982939999999758
21
-90.9313329999999951
0
LINE
8
BLACK
6
CONTINUOUS
10
250.1982939999999758
20
-90.9313329999999951
11
250.1982939999999758
21
-90.4551419999999951
0
LINE
8
BLACK
6
CONTINUOUS
10
250.1982939999999758
20
-90.4551419999999951
11
250.293531999999999
21
-90.0741900000000015
0
LINE
8
BLACK
6
CONTINUOUS
10
250.293531999999999
20
-90.0741900000000015
11
250.3887699999999938
21
-89.8837139999999977
0
LINE
8
BLACK
6
CONTINUOUS
10
250.3887699999999938
20
-89.8837139999999977
11
250.4840079999999887
21
-89.7884760000000028
0
LINE
8
BLACK
6
CONTINUOUS
10
250.4840079999999887
20
-89.7884760000000028
11
250.6744839999999783
21
-89.6932379999999938
0
LINE
8
BLACK
6
CONTINUOUS
10
253.2459130000000016
20
-91.6932379999999938
11
252.1030559999999809
21
-91.6932379999999938
0
LINE
8
BLACK
6
CONTINUOUS
10
252.6744839999999783
20
-91.6932379999999938
11
252.6744839999999783
21
-89.6932379999999938
0
LINE
8
BLACK
6
CONTINUOUS
10
252.6744839999999783
20
-89.6932379999999938
11
252.4840079999999887
21
-89.9789519999999925
0
LINE
8
BLACK
6
CONTINUOUS
10
252.4840079999999887
20
-89.9789519999999925
11
252.293531999999999
21
-90.1694279999999964
0
LINE
8
BLACK
6
CONTINUOUS
10
252.293531999999999
20
-90.1694279999999964
11
252.1030559999999809
21
-90.2646659999999912
0
LINE
8
BLACK
6
CONTINUOUS
10
255.0554369999999835
20
-89.6932379999999938
11
254.1030559999999809
21
-89.6932379999999938
0
LINE
8
BLACK
6
CONTINUOUS
10
254.1030559999999809
20
-89.6932379999999938
11
254.0078179999999861
21
-90.6456189999999964
0
LINE
8
BLACK
6
CONTINUOUS
10
254.0078179999999861
20
-90.6456189999999964
11
254.1030559999999809
21
-90.5503799999999899
0
LINE
8
BLACK
6
CONTINUOUS
10
254.1030559999999809
20
-90.5503799999999899
11
254.293531999999999
21
-90.4551419999999951
0
LINE
8
BLACK
6
CONTINUOUS
10
254.293531999999999
20
-90.4551419999999951
11
254.769722999999999
21
-90.4551419999999951
0
LINE
8
BLACK
6
CONTINUOUS
10
254.769722999999999
20
-90.4551419999999951
11
254.9601989999999887
21
-90.5503799999999899
0
LINE
8
BLACK
6
CONTINUOUS
10
254.9601989999999887
20
-90.5503799999999899
11
255.0554369999999835
21
-90.6456189999999964
0
LINE
8
BLACK
6
CONTINUOUS
10
255.0554369999999835
20
-90.6456189999999964
11
255.1506749999999784
21
-90.8360950000000003
0
LINE
8
BLACK
6
CONTINUOUS
10
255.1506749999999784
20
-90.8360950000000003
11
255.1506749999999784
21
-91.3122850000000028
0
LINE
8
BLACK
6
CONTINUOUS
10
255.1506749999999784
20
-91.3122850000000028
11
255.0554369999999835
21
-91.5027609999999925
0
LINE
8
BLACK
6
CONTINUOUS
10
255.0554369999999835
20
-91.5027609999999925
11
254.9601989999999887
21
-91.597999999999999
0
LINE
8
BLACK
6
CONTINUOUS
10
254.9601989999999887
20
-91.597999999999999
11
254.769722999999999
21
-91.6932379999999938
0
LINE
8
BLACK
6
CONTINUOUS
10
254.769722999999999
20
-91.6932379999999938
11
254.293531999999999
21
-91.6932379999999938
0
LINE
8
BLACK
6
CONTINUOUS
10
254.293531999999999
20
-91.6932379999999938
11
254.1030559999999809
21
-91.597999999999999
0
LINE
8
BLACK
6
CONTINUOUS
10
254.1030559999999809
20
-91.597999999999999
11
254.0078179999999861
21
-91.5027609999999925
0
LINE
8
BLACK
6
CONTINUOUS
10
255.8173419999999965
20
-89.6932379999999938
11
257.1506749999999784
21
-89.6932379999999938
0
LINE
8
BLACK
6
CONTINUOUS
10
257.1506749999999784
20
-89.6932379999999938
11
256.2935319999999706
21
-91.6932379999999938
0
LINE
8
BLACK
6
CONTINUOUS
10
257.8173419999999965
20
-89.6932379999999938
11
257.8173419999999965
21
-90.0741900000000015
0
LINE
8
BLACK
6
CONTINUOUS
10
258.5792470000000094
20
-89.6932379999999938
11
258.5792470000000094
21
-90.0741900000000015
0
LINE
8
BLACK
6
CONTINUOUS
10
261.5316290000000095
20
-92.4551419999999951
11
261.4363899999999603
21
-92.3599040000000002
0
LINE
8
BLACK
6
CONTINUOUS
10
261.4363899999999603
20
-92.3599040000000002
11
261.2459139999999707
21
-92.0741900000000015
0
LINE
8
BLACK
6
CONTINUOUS
10
261.2459139999999707
20
-92.0741900000000015
11
261.1506759999999758
21
-91.8837139999999977
0
LINE
8
BLACK
6
CONTINUOUS
10
261.1506759999999758
20
-91.8837139999999977
11
261.055437999999981
21
-91.597999999999999
0
LINE
8
BLACK
6
CONTINUOUS
10
261.055437999999981
20
-91.597999999999999
11
260.9601999999999862
21
-91.1218089999999989
0
LINE
8
BLACK
6
CONTINUOUS
10
260.9601999999999862
20
-91.1218089999999989
11
260.9601999999999862
21
-90.7408569999999912
0
LINE
8
BLACK
6
CONTINUOUS
10
260.9601999999999862
20
-90.7408569999999912
11
261.055437999999981
21
-90.2646659999999912
0
LINE
8
BLACK
6
CONTINUOUS
10
261.055437999999981
20
-90.2646659999999912
11
261.1506759999999758
21
-89.9789519999999925
0
LINE
8
BLACK
6
CONTINUOUS
10
261.1506759999999758
20
-89.9789519999999925
11
261.2459139999999707
21
-89.7884760000000028
0
LINE
8
BLACK
6
CONTINUOUS
10
261.2459139999999707
20
-89.7884760000000028
11
261.4363899999999603
21
-89.5027609999999925
0
LINE
8
BLACK
6
CONTINUOUS
10
261.4363899999999603
20
-89.5027609999999925
11
261.5316290000000095
21
-89.4075229999999976
0
LINE
8
BLACK
6
CONTINUOUS
10
262.1982949999999732
20
-89.8837139999999977
11
262.2935329999999681
21
-89.7884760000000028
0
LINE
8
BLACK
6
CONTINUOUS
10
262.2935329999999681
20
-89.7884760000000028
11
262.4840090000000146
21
-89.6932379999999938
0
LINE
8
BLACK
6
CONTINUOUS
10
262.4840090000000146
20
-89.6932379999999938
11
262.9601999999999862
21
-89.6932379999999938
0
LINE
8
BLACK
6
CONTINUOUS
10
262.9601999999999862
20
-89.6932379999999938
11
263.1506759999999758
21
-89.7884760000000028
0
LINE
8
BLACK
6
CONTINUOUS
10
263.1506759999999758
20
-89.7884760000000028
11
263.2459139999999707
21
-89.8837139999999977
0
LINE
8
BLACK
6
CONTINUOUS
10
263.2459139999999707
20
-89.8837139999999977
11
263.3411519999999655
21
-90.0741900000000015
0
LINE
8
BLACK
6
CONTINUOUS
10
263.3411519999999655
20
-90.0741900000000015
11
263.3411519999999655
21
-90.2646659999999912
0
LINE
8
BLACK
6
CONTINUOUS
10
263.3411519999999655
20
-90.2646659999999912
11
263.2459139999999707
21
-90.5503799999999899
0
LINE
8
BLACK
6
CONTINUOUS
10
263.2459139999999707
20
-90.5503799999999899
11
262.1030569999999784
21
-91.6932379999999938
0
LINE
8
BLACK
6
CONTINUOUS
10
262.1030569999999784
20
-91.6932379999999938
11
263.3411519999999655
21
-91.6932379999999938
0
LINE
8
BLACK
6
CONTINUOUS
10
264.0078189999999836
20
-89.6932379999999938
11
265.2459139999999707
21
-89.6932379999999938
0
LINE
8
BLACK
6
CONTINUOUS
10
265.2459139999999707
20
-89.6932379999999938
11
264.5792470000000094
21
-90.4551419999999951
0
LINE
8
BLACK
6
CONTINUOUS
10
264.5792470000000094
20
-90.4551419999999951
11
264.8649619999999913
21
-90.4551419999999951
0
LINE
8
BLACK
6
CONTINUOUS
10
264.8649619999999913
20
-90.4551419999999951
11
265.055437999999981
21
-90.5503799999999899
0
LINE
8
BLACK
6
CONTINUOUS
10
265.055437999999981
20
-90.5503799999999899
11
265.1506759999999758
21
-90.6456189999999964
0
LINE
8
BLACK
6
CONTINUOUS
10
265.1506759999999758
20
-90.6456189999999964
11
265.2459139999999707
21
-90.8360950000000003
0
LINE
8
BLACK
6
CONTINUOUS
10
265.2459139999999707
20
-90.8360950000000003
11
265.2459139999999707
21
-91.3122850000000028
0
LINE
8
BLACK
6
CONTINUOUS
10
265.2459139999999707
20
-91.3122850000000028
11
265.1506759999999758
21
-91.5027609999999925
0
LINE
8
BLACK
6
CONTINUOUS
10
265.1506759999999758
20
-91.5027609999999925
11
265.055437999999981
21
-91.597999999999999
0
LINE
8
BLACK
6
CONTINUOUS
10
265.055437999999981
20
-91.597999999999999
11
264.8649619999999913
21
-91.6932379999999938
0
LINE
8
BLACK
6
CONTINUOUS
10
264.8649619999999913
20
-91.6932379999999938
11
264.2935329999999681
21
-91.6932379999999938
0
LINE
8
BLACK
6
CONTINUOUS
10
264.2935329999999681
20
-91.6932379999999938
11
264.1030569999999784
21
-91.597999999999999
0
LINE
8
BLACK
6
CONTINUOUS
10
264.1030569999999784
20
-91.597999999999999
11
264.0078189999999836
21
-91.5027609999999925
0
LINE
8
BLACK
6
CONTINUOUS
10
267.6268670000000043
20
-91.6932379999999938
11
267.6268670000000043
21
-89.6932379999999938
0
LINE
8
BLACK
6
CONTINUOUS
10
268.484010000000012
20
-91.6932379999999938
11
268.484010000000012
21
-90.6456189999999964
0
LINE
8
BLACK
6
CONTINUOUS
10
268.484010000000012
20
-90.6456189999999964
11
268.3887719999999604
21
-90.4551419999999951
0
LINE
8
BLACK
6
CONTINUOUS
10
268.3887719999999604
20
-90.4551419999999951
11
268.1982959999999707
21
-90.3599040000000002
0
LINE
8
BLACK
6
CONTINUOUS
10
268.1982959999999707
20
-90.3599040000000002
11
267.9125809999999888
21
-90.3599040000000002
0
LINE
8
BLACK
6
CONTINUOUS
10
267.9125809999999888
20
-90.3599040000000002
11
267.7221049999999991
21
-90.4551419999999951
0
LINE
8
BLACK
6
CONTINUOUS
10
267.7221049999999991
20
-90.4551419999999951
11
267.6268670000000043
21
-90.5503799999999899
0
LINE
8
BLACK
6
CONTINUOUS
10
269.7221049999999991
20
-91.6932379999999938
11
269.5316290000000095
21
-91.597999999999999
0
LINE
8
BLACK
6
CONTINUOUS
10
269.5316290000000095
20
-91.597999999999999
11
269.4363910000000146
21
-91.5027609999999925
0
LINE
8
BLACK
6
CONTINUOUS
10
269.4363910000000146
20
-91.5027609999999925
11
269.341152999999963
21
-91.3122850000000028
0
LINE
8
BLACK
6
CONTINUOUS
10
269.341152999999963
20
-91.3122850000000028
11
269.341152999999963
21
-90.7408569999999912
0
LINE
8
BLACK
6
CONTINUOUS
10
269.341152999999963
20
-90.7408569999999912
11
269.4363910000000146
21
-90.5503799999999899
0
LINE
8
BLACK
6
CONTINUOUS
10
269.4363910000000146
20
-90.5503799999999899
11
269.5316290000000095
21
-90.4551419999999951
0
LINE
8
BLACK
6
CONTINUOUS
10
269.5316290000000095
20
-90.4551419999999951
11
269.7221049999999991
21
-90.3599040000000002
0
LINE
8
BLACK
6
CONTINUOUS
10
269.7221049999999991
20
-90.3599040000000002
11
270.0078199999999811
21
-90.3599040000000002
0
LINE
8
BLACK
6
CONTINUOUS
10
270.0078199999999811
20
-90.3599040000000002
11
270.1982959999999707
21
-90.4551419999999951
0
LINE
8
BLACK
6
CONTINUOUS
10
270.1982959999999707
20
-90.4551419999999951
11
270.2935339999999655
21
-90.5503799999999899
0
LINE
8
BLACK
6
CONTINUOUS
10
270.2935339999999655
20
-90.5503799999999899
11
270.3887719999999604
21
-90.7408569999999912
0
LINE
8
BLACK
6
CONTINUOUS
10
270.3887719999999604
20
-90.7408569999999912
11
270.3887719999999604
21
-91.3122850000000028
0
LINE
8
BLACK
6
CONTINUOUS
10
270.3887719999999604
20
-91.3122850000000028
11
270.2935339999999655
21
-91.5027609999999925
0
LINE
8
BLACK
6
CONTINUOUS
10
270.2935339999999655
20
-91.5027609999999925
11
270.1982959999999707
21
-91.597999999999999
0
LINE
8
BLACK
6
CONTINUOUS
10
270.1982959999999707
20
-91.597999999999999
11
270.0078199999999811
21
-91.6932379999999938
0
LINE
8
BLACK
6
CONTINUOUS
10
270.0078199999999811
20
-91.6932379999999938
11
269.7221049999999991
21
-91.6932379999999938
0
LINE
8
BLACK
6
CONTINUOUS
10
271.5316290000000095
20
-91.6932379999999938
11
271.341152999999963
21
-91.597999999999999
0
LINE
8
BLACK
6
CONTINUOUS
10
271.341152999999963
20
-91.597999999999999
11
271.2459149999999681
21
-91.4075229999999976
0
LINE
8
BLACK
6
CONTINUOUS
10
271.2459149999999681
20
-91.4075229999999976
11
271.2459149999999681
21
-89.6932379999999938
0
LINE
8
BLACK
6
CONTINUOUS
10
273.0554389999999785
20
-91.597999999999999
11
272.8649629999999888
21
-91.6932379999999938
0
LINE
8
BLACK
6
CONTINUOUS
10
272.8649629999999888
20
-91.6932379999999938
11
272.484010000000012
21
-91.6932379999999938
0
LINE
8
BLACK
6
CONTINUOUS
10
272.484010000000012
20
-91.6932379999999938
11
272.2935339999999655
21
-91.597999999999999
0
LINE
8
BLACK
6
CONTINUOUS
10
272.2935339999999655
20
-91.597999999999999
11
272.1982959999999707
21
-91.4075229999999976
0
LINE
8
BLACK
6
CONTINUOUS
10
272.1982959999999707
20
-91.4075229999999976
11
272.1982959999999707
21
-90.6456189999999964
0
LINE
8
BLACK
6
CONTINUOUS
10
272.1982959999999707
20
-90.6456189999999964
11
272.2935339999999655
21
-90.4551419999999951
0
LINE
8
BLACK
6
CONTINUOUS
10
272.2935339999999655
20
-90.4551419999999951
11
272.484010000000012
21
-90.3599040000000002
0
LINE
8
BLACK
6
CONTINUOUS
10
272.484010000000012
20
-90.3599040000000002
11
272.8649629999999888
21
-90.3599040000000002
0
LINE
8
BLACK
6
CONTINUOUS
10
272.8649629999999888
20
-90.3599040000000002
11
273.0554389999999785
21
-90.4551419999999951
0
LINE
8
BLACK
6
CONTINUOUS
10
273.0554389999999785
20
-90.4551419999999951
11
273.1506769999999733
21
-90.6456189999999964
0
LINE
8
BLACK
6
CONTINUOUS
10
273.1506769999999733
20
-90.6456189999999964
11
273.1506769999999733
21
-90.8360950000000003
0
LINE
8
BLACK
6
CONTINUOUS
10
273.1506769999999733
20
-90.8360950000000003
11
272.1982959999999707
21
-91.0265709999999899
0
LINE
8
BLACK
6
CONTINUOUS
10
273.9125819999999862
20
-91.597999999999999
11
274.1030579999999759
21
-91.6932379999999938
0
LINE
8
BLACK
6
CONTINUOUS
10
274.1030579999999759
20
-91.6932379999999938
11
274.484010000000012
21
-91.6932379999999938
0
LINE
8
BLACK
6
CONTINUOUS
10
274.484010000000012
20
-91.6932379999999938
11
274.6744869999999992
21
-91.597999999999999
0
LINE
8
BLACK
6
CONTINUOUS
10
274.6744869999999992
20
-91.597999999999999
11
274.769724999999994
21
-91.4075229999999976
0
LINE
8
BLACK
6
CONTINUOUS
10
274.769724999999994
20
-91.4075229999999976
11
274.769724999999994
21
-91.3122850000000028
0
LINE
8
BLACK
6
CONTINUOUS
10
274.769724999999994
20
-91.3122850000000028
11
274.6744869999999992
21
-91.1218089999999989
0
LINE
8
BLACK
6
CONTINUOUS
10
274.6744869999999992
20
-91.1218089999999989
11
274.484010000000012
21
-91.0265709999999899
0
LINE
8
BLACK
6
CONTINUOUS
10
274.484010000000012
20
-91.0265709999999899
11
274.1982959999999707
21
-91.0265709999999899
0
LINE
8
BLACK
6
CONTINUOUS
10
274.1982959999999707
20
-91.0265709999999899
11
274.0078199999999811
21
-90.9313329999999951
0
LINE
8
BLACK
6
CONTINUOUS
10
274.0078199999999811
20
-90.9313329999999951
11
273.9125819999999862
21
-90.7408569999999912
0
LINE
8
BLACK
6
CONTINUOUS
10
273.9125819999999862
20
-90.7408569999999912
11
273.9125819999999862
21
-90.6456189999999964
0
LINE
8
BLACK
6
CONTINUOUS
10
273.9125819999999862
20
-90.6456189999999964
11
274.0078199999999811
21
-90.4551419999999951
0
LINE
8
BLACK
6
CONTINUOUS
10
274.0078199999999811
20
-90.4551419999999951
11
274.1982959999999707
21
-90.3599040000000002
0
LINE
8
BLACK
6
CONTINUOUS
10
274.1982959999999707
20
-90.3599040000000002
11
274.484010000000012
21
-90.3599040000000002
0
LINE
8
BLACK
6
CONTINUOUS
10
274.484010000000012
20
-90.3599040000000002
11
274.6744869999999992
21
-90.4551419999999951
0
LINE
8
BLACK
6
CONTINUOUS
10
275.4363920000000121
20
-92.4551419999999951
11
275.5316300000000069
21
-92.3599040000000002
0
LINE
8
BLACK
6
CONTINUOUS
10
275.5316300000000069
20
-92.3599040000000002
11
275.7221059999999966
21
-92.0741900000000015
0
LINE
8
BLACK
6
CONTINUOUS
10
275.7221059999999966
20
-92.0741900000000015
11
275.8173439999999914
21
-91.8837139999999977
0
LINE
8
BLACK
6
CONTINUOUS
10
275.8173439999999914
20
-91.8837139999999977
11
275.9125819999999862
21
-91.597999999999999
0
LINE
8
BLACK
6
CONTINUOUS
10
275.9125819999999862
20
-91.597999999999999
11
276.0078199999999811
21
-91.1218089999999989
0
LINE
8
BLACK
6
CONTINUOUS
10
276.0078199999999811
20
-91.1218089999999989
11
276.0078199999999811
21
-90.7408569999999912
0
LINE
8
BLACK
6
CONTINUOUS
10
276.0078199999999811
20
-90.7408569999999912
11
275.9125819999999862
21
-90.2646659999999912
0
LINE
8
BLACK
6
CONTINUOUS
10
275.9125819999999862
20
-90.2646659999999912
11
275.8173439999999914
21
-89.9789519999999925
0
LINE
8
BLACK
6
CONTINUOUS
10
275.8173439999999914
20
-89.9789519999999925
11
275.7221059999999966
21
-89.7884760000000028
0
LINE
8
BLACK
6
CONTINUOUS
10
275.7221059999999966
20
-89.7884760000000028
11
275.5316300000000069
21
-89.5027609999999925
0
LINE
8
BLACK
6
CONTINUOUS
10
275.5316300000000069
20
-89.5027609999999925
11
275.4363920000000121
21
-89.4075229999999976
0
CIRCLE
8
BLACK
10
225.3810000000000002
20
-93.4183999999999912
40
0.4
0
LINE
8
BLACK
6
CONTINUOUS
10
228.7697199999999782
20
-92.3332379999999944
11
228.9601969999999937
21
-92.3332379999999944
0
LINE
8
BLACK
6
CONTINUOUS
10
228.9601969999999937
20
-92.3332379999999944
11
229.1506729999999834
21
-92.4284759999999892
0
LINE
8
BLACK
6
CONTINUOUS
10
229.1506729999999834
20
-92.4284759999999892
11
229.2459109999999782
21
-92.5237139999999982
0
LINE
8
BLACK
6
CONTINUOUS
10
229.2459109999999782
20
-92.5237139999999982
11
229.3411490000000015
21
-92.7141900000000021
0
LINE
8
BLACK
6
CONTINUOUS
10
229.3411490000000015
20
-92.7141900000000021
11
229.4363869999999963
21
-93.0951419999999956
0
LINE
8
BLACK
6
CONTINUOUS
10
229.4363869999999963
20
-93.0951419999999956
11
229.4363869999999963
21
-93.5713329999999956
0
LINE
8
BLACK
6
CONTINUOUS
10
229.4363869999999963
20
-93.5713329999999956
11
229.3411490000000015
21
-93.9522849999999892
0
LINE
8
BLACK
6
CONTINUOUS
10
229.3411490000000015
20
-93.9522849999999892
11
229.2459109999999782
21
-94.142760999999993
0
LINE
8
BLACK
6
CONTINUOUS
10
229.2459109999999782
20
-94.142760999999993
11
229.1506729999999834
21
-94.2379999999999995
0
LINE
8
BLACK
6
CONTINUOUS
10
229.1506729999999834
20
-94.2379999999999995
11
228.9601969999999937
21
-94.3332379999999944
0
LINE
8
BLACK
6
CONTINUOUS
10
228.9601969999999937
20
-94.3332379999999944
11
228.7697199999999782
21
-94.3332379999999944
0
LINE
8
BLACK
6
CONTINUOUS
10
228.7697199999999782
20
-94.3332379999999944
11
228.5792439999999885
21
-94.2379999999999995
0
LINE
8
BLACK
6
CONTINUOUS
10
228.5792439999999885
20
-94.2379999999999995
11
228.4840059999999937
21
-94.142760999999993
0
LINE
8
BLACK
6
CONTINUOUS
10
228.4840059999999937
20
-94.142760999999993
11
228.3887679999999989
21
-93.9522849999999892
0
LINE
8
BLACK
6
CONTINUOUS
10
228.3887679999999989
20
-93.9522849999999892
11
228.2935299999999756
21
-93.5713329999999956
0
LINE
8
BLACK
6
CONTINUOUS
10
228.2935299999999756
20
-93.5713329999999956
11
228.2935299999999756
21
-93.0951419999999956
0
LINE
8
BLACK
6
CONTINUOUS
10
228.2935299999999756
20
-93.0951419999999956
11
228.3887679999999989
21
-92.7141900000000021
0
LINE
8
BLACK
6
CONTINUOUS
10
228.3887679999999989
20
-92.7141900000000021
11
228.4840059999999937
21
-92.5237139999999982
0
LINE
8
BLACK
6
CONTINUOUS
10
228.4840059999999937
20
-92.5237139999999982
11
228.5792439999999885
21
-92.4284759999999892
0
LINE
8
BLACK
6
CONTINUOUS
10
228.5792439999999885
20
-92.4284759999999892
11
228.7697199999999782
21
-92.3332379999999944
0
LINE
8
BLACK
6
CONTINUOUS
10
230.2935299999999756
20
-94.142760999999993
11
230.3887679999999989
21
-94.2379999999999995
0
LINE
8
BLACK
6
CONTINUOUS
10
230.3887679999999989
20
-94.2379999999999995
11
230.2935299999999756
21
-94.3332379999999944
0
LINE
8
BLACK
6
CONTINUOUS
10
230.2935299999999756
20
-94.3332379999999944
11
230.1982919999999808
21
-94.2379999999999995
0
LINE
8
BLACK
6
CONTINUOUS
10
230.1982919999999808
20
-94.2379999999999995
11
230.2935299999999756
21
-94.142760999999993
0
LINE
8
BLACK
6
CONTINUOUS
10
230.2935299999999756
20
-94.142760999999993
11
230.2935299999999756
21
-94.3332379999999944
0
LINE
8
BLACK
6
CONTINUOUS
10
231.5316249999999911
20
-93.1903799999999904
11
231.3411490000000015
21
-93.0951419999999956
0
LINE
8
BLACK
6
CONTINUOUS
10
231.3411490000000015
20
-93.0951419999999956
11
231.2459109999999782
21
-92.9999040000000008
0
LINE
8
BLACK
6
CONTINUOUS
10
231.2459109999999782
20
-92.9999040000000008
11
231.1506729999999834
21
-92.8094279999999969
0
LINE
8
BLACK
6
CONTINUOUS
10
231.1506729999999834
20
-92.8094279999999969
11
231.1506729999999834
21
-92.7141900000000021
0
LINE
8
BLACK
6
CONTINUOUS
10
231.1506729999999834
20
-92.7141900000000021
11
231.2459109999999782
21
-92.5237139999999982
0
LINE
8
BLACK
6
CONTINUOUS
10
231.2459109999999782
20
-92.5237139999999982
11
231.3411490000000015
21
-92.4284759999999892
0
LINE
8
BLACK
6
CONTINUOUS
10
231.3411490000000015
20
-92.4284759999999892
11
231.5316249999999911
21
-92.3332379999999944
0
LINE
8
BLACK
6
CONTINUOUS
10
231.5316249999999911
20
-92.3332379999999944
11
231.9125779999999963
21
-92.3332379999999944
0
LINE
8
BLACK
6
CONTINUOUS
10
231.9125779999999963
20
-92.3332379999999944
11
232.103053999999986
21
-92.4284759999999892
0
LINE
8
BLACK
6
CONTINUOUS
10
232.103053999999986
20
-92.4284759999999892
11
232.1982919999999808
21
-92.5237139999999982
0
LINE
8
BLACK
6
CONTINUOUS
10
232.1982919999999808
20
-92.5237139999999982
11
232.2935299999999756
21
-92.7141900000000021
0
LINE
8
BLACK
6
CONTINUOUS
10
232.2935299999999756
20
-92.7141900000000021
11
232.2935299999999756
21
-92.8094279999999969
0
LINE
8
BLACK
6
CONTINUOUS
10
232.2935299999999756
20
-92.8094279999999969
11
232.1982919999999808
21
-92.9999040000000008
0
LINE
8
BLACK
6
CONTINUOUS
10
232.1982919999999808
20
-92.9999040000000008
11
232.103053999999986
21
-93.0951419999999956
0
LINE
8
BLACK
6
CONTINUOUS
10
232.103053999999986
20
-93.0951419999999956
11
231.9125779999999963
21
-93.1903799999999904
0
LINE
8
BLACK
6
CONTINUOUS
10
231.9125779999999963
20
-93.1903799999999904
11
231.5316249999999911
21
-93.1903799999999904
0
LINE
8
BLACK
6
CONTINUOUS
10
231.5316249999999911
20
-93.1903799999999904
11
231.3411490000000015
21
-93.285618999999997
0
LINE
8
BLACK
6
CONTINUOUS
10
231.3411490000000015
20
-93.285618999999997
11
231.2459109999999782
21
-93.3808569999999918
0
LINE
8
BLACK
6
CONTINUOUS
10
231.2459109999999782
20
-93.3808569999999918
11
231.1506729999999834
21
-93.5713329999999956
0
LINE
8
BLACK
6
CONTINUOUS
10
231.1506729999999834
20
-93.5713329999999956
11
231.1506729999999834
21
-93.9522849999999892
0
LINE
8
BLACK
6
CONTINUOUS
10
231.1506729999999834
20
-93.9522849999999892
11
231.2459109999999782
21
-94.142760999999993
0
LINE
8
BLACK
6
CONTINUOUS
10
231.2459109999999782
20
-94.142760999999993
11
231.3411490000000015
21
-94.2379999999999995
0
LINE
8
BLACK
6
CONTINUOUS
10
231.3411490000000015
20
-94.2379999999999995
11
231.5316249999999911
21
-94.3332379999999944
0
LINE
8
BLACK
6
CONTINUOUS
10
231.5316249999999911
20
-94.3332379999999944
11
231.9125779999999963
21
-94.3332379999999944
0
LINE
8
BLACK
6
CONTINUOUS
10
231.9125779999999963
20
-94.3332379999999944
11
232.103053999999986
21
-94.2379999999999995
0
LINE
8
BLACK
6
CONTINUOUS
10
232.103053999999986
20
-94.2379999999999995
11
232.1982919999999808
21
-94.142760999999993
0
LINE
8
BLACK
6
CONTINUOUS
10
232.1982919999999808
20
-94.142760999999993
11
232.2935299999999756
21
-93.9522849999999892
0
LINE
8
BLACK
6
CONTINUOUS
10
232.2935299999999756
20
-93.9522849999999892
11
232.2935299999999756
21
-93.5713329999999956
0
LINE
8
BLACK
6
CONTINUOUS
10
232.2935299999999756
20
-93.5713329999999956
11
232.1982919999999808
21
-93.3808569999999918
0
LINE
8
BLACK
6
CONTINUOUS
10
232.1982919999999808
20
-93.3808569999999918
11
232.103053999999986
21
-93.285618999999997
0
LINE
8
BLACK
6
CONTINUOUS
10
232.103053999999986
20
-93.285618999999997
11
231.9125779999999963
21
-93.1903799999999904
0
LINE
8
BLACK
6
CONTINUOUS
10
233.5316249999999911
20
-92.3332379999999944
11
233.7221019999999783
21
-92.3332379999999944
0
LINE
8
BLACK
6
CONTINUOUS
10
233.7221019999999783
20
-92.3332379999999944
11
233.9125779999999963
21
-92.4284759999999892
0
LINE
8
BLACK
6
CONTINUOUS
10
233.9125779999999963
20
-92.4284759999999892
11
234.0078159999999912
21
-92.5237139999999982
0
LINE
8
BLACK
6
CONTINUOUS
10
234.0078159999999912
20
-92.5237139999999982
11
234.103053999999986
21
-92.7141900000000021
0
LINE
8
BLACK
6
CONTINUOUS
10
234.103053999999986
20
-92.7141900000000021
11
234.1982919999999808
21
-93.0951419999999956
0
LINE
8
BLACK
6
CONTINUOUS
10
234.1982919999999808
20
-93.0951419999999956
11
234.1982919999999808
21
-93.5713329999999956
0
LINE
8
BLACK
6
CONTINUOUS
10
234.1982919999999808
20
-93.5713329999999956
11
234.103053999999986
21
-93.9522849999999892
0
LINE
8
BLACK
6
CONTINUOUS
10
234.103053999999986
20
-93.9522849999999892
11
234.0078159999999912
21
-94.142760999999993
0
LINE
8
BLACK
6
CONTINUOUS
10
234.0078159999999912
20
-94.142760999999993
11
233.9125779999999963
21
-94.2379999999999995
0
LINE
8
BLACK
6
CONTINUOUS
10
233.9125779999999963
20
-94.2379999999999995
11
233.7221019999999783
21
-94.3332379999999944
0
LINE
8
BLACK
6
CONTINUOUS
10
233.7221019999999783
20
-94.3332379999999944
11
233.5316249999999911
21
-94.3332379999999944
0
LINE
8
BLACK
6
CONTINUOUS
10
233.5316249999999911
20
-94.3332379999999944
11
233.3411490000000015
21
-94.2379999999999995
0
LINE
8
BLACK
6
CONTINUOUS
10
233.3411490000000015
20
-94.2379999999999995
11
233.2459109999999782
21
-94.142760999999993
0
LINE
8
BLACK
6
CONTINUOUS
10
233.2459109999999782
20
-94.142760999999993
11
233.1506729999999834
21
-93.9522849999999892
0
LINE
8
BLACK
6
CONTINUOUS
10
233.1506729999999834
20
-93.9522849999999892
11
233.0554349999999886
21
-93.5713329999999956
0
LINE
8
BLACK
6
CONTINUOUS
10
233.0554349999999886
20
-93.5713329999999956
11
233.0554349999999886
21
-93.0951419999999956
0
LINE
8
BLACK
6
CONTINUOUS
10
233.0554349999999886
20
-93.0951419999999956
11
233.1506729999999834
21
-92.7141900000000021
0
LINE
8
BLACK
6
CONTINUOUS
10
233.1506729999999834
20
-92.7141900000000021
11
233.2459109999999782
21
-92.5237139999999982
0
LINE
8
BLACK
6
CONTINUOUS
10
233.2459109999999782
20
-92.5237139999999982
11
233.3411490000000015
21
-92.4284759999999892
0
LINE
8
BLACK
6
CONTINUOUS
10
233.3411490000000015
20
-92.4284759999999892
11
233.5316249999999911
21
-92.3332379999999944
0
LINE
8
BLACK
6
CONTINUOUS
10
235.4363869999999963
20
-92.3332379999999944
11
235.6268639999999834
21
-92.3332379999999944
0
LINE
8
BLACK
6
CONTINUOUS
10
235.6268639999999834
20
-92.3332379999999944
11
235.8173400000000015
21
-92.4284759999999892
0
LINE
8
BLACK
6
CONTINUOUS
10
235.8173400000000015
20
-92.4284759999999892
11
235.9125779999999963
21
-92.5237139999999982
0
LINE
8
BLACK
6
CONTINUOUS
10
235.9125779999999963
20
-92.5237139999999982
11
236.0078159999999912
21
-92.7141900000000021
0
LINE
8
BLACK
6
CONTINUOUS
10
236.0078159999999912
20
-92.7141900000000021
11
236.103053999999986
21
-93.0951419999999956
0
LINE
8
BLACK
6
CONTINUOUS
10
236.103053999999986
20
-93.0951419999999956
11
236.103053999999986
21
-93.5713329999999956
0
LINE
8
BLACK
6
CONTINUOUS
10
236.103053999999986
20
-93.5713329999999956
11
236.0078159999999912
21
-93.9522849999999892
0
LINE
8
BLACK
6
CONTINUOUS
10
236.0078159999999912
20
-93.9522849999999892
11
235.9125779999999963
21
-94.142760999999993
0
LINE
8
BLACK
6
CONTINUOUS
10
235.9125779999999963
20
-94.142760999999993
11
235.8173400000000015
21
-94.2379999999999995
0
LINE
8
BLACK
6
CONTINUOUS
10
235.8173400000000015
20
-94.2379999999999995
11
235.6268639999999834
21
-94.3332379999999944
0
LINE
8
BLACK
6
CONTINUOUS
10
235.6268639999999834
20
-94.3332379999999944
11
235.4363869999999963
21
-94.3332379999999944
0
LINE
8
BLACK
6
CONTINUOUS
10
235.4363869999999963
20
-94.3332379999999944
11
235.2459109999999782
21
-94.2379999999999995
0
LINE
8
BLACK
6
CONTINUOUS
10
235.2459109999999782
20
-94.2379999999999995
11
235.1506729999999834
21
-94.142760999999993
0
LINE
8
BLACK
6
CONTINUOUS
10
235.1506729999999834
20
-94.142760999999993
11
235.0554349999999886
21
-93.9522849999999892
0
LINE
8
BLACK
6
CONTINUOUS
10
235.0554349999999886
20
-93.9522849999999892
11
234.9601969999999937
21
-93.5713329999999956
0
LINE
8
BLACK
6
CONTINUOUS
10
234.9601969999999937
20
-93.5713329999999956
11
234.9601969999999937
21
-93.0951419999999956
0
LINE
8
BLACK
6
CONTINUOUS
10
234.9601969999999937
20
-93.0951419999999956
11
235.0554349999999886
21
-92.7141900000000021
0
LINE
8
BLACK
6
CONTINUOUS
10
235.0554349999999886
20
-92.7141900000000021
11
235.1506729999999834
21
-92.5237139999999982
0
LINE
8
BLACK
6
CONTINUOUS
10
235.1506729999999834
20
-92.5237139999999982
11
235.2459109999999782
21
-92.4284759999999892
0
LINE
8
BLACK
6
CONTINUOUS
10
235.2459109999999782
20
-92.4284759999999892
11
235.4363869999999963
21
-92.3332379999999944
0
LINE
8
BLACK
6
CONTINUOUS
10
236.9601969999999937
20
-94.3332379999999944
11
236.9601969999999937
21
-92.9999040000000008
0
LINE
8
BLACK
6
CONTINUOUS
10
236.9601969999999937
20
-93.1903799999999904
11
237.0554349999999886
21
-93.0951419999999956
0
LINE
8
BLACK
6
CONTINUOUS
10
237.0554349999999886
20
-93.0951419999999956
11
237.2459109999999782
21
-92.9999040000000008
0
LINE
8
BLACK
6
CONTINUOUS
10
237.2459109999999782
20
-92.9999040000000008
11
237.5316259999999886
21
-92.9999040000000008
0
LINE
8
BLACK
6
CONTINUOUS
10
237.5316259999999886
20
-92.9999040000000008
11
237.7221019999999783
21
-93.0951419999999956
0
LINE
8
BLACK
6
CONTINUOUS
10
237.7221019999999783
20
-93.0951419999999956
11
237.8173400000000015
21
-93.285618999999997
0
LINE
8
BLACK
6
CONTINUOUS
10
237.8173400000000015
20
-93.285618999999997
11
237.8173400000000015
21
-94.3332379999999944
0
LINE
8
BLACK
6
CONTINUOUS
10
237.8173400000000015
20
-93.285618999999997
11
237.9125779999999963
21
-93.0951419999999956
0
LINE
8
BLACK
6
CONTINUOUS
10
237.9125779999999963
20
-93.0951419999999956
11
238.103053999999986
21
-92.9999040000000008
0
LINE
8
BLACK
6
CONTINUOUS
10
238.103053999999986
20
-92.9999040000000008
11
238.3887679999999989
21
-92.9999040000000008
0
LINE
8
BLACK
6
CONTINUOUS
10
238.3887679999999989
20
-92.9999040000000008
11
238.579244999999986
21
-93.0951419999999956
0
LINE
8
BLACK
6
CONTINUOUS
10
238.579244999999986
20
-93.0951419999999956
11
238.6744829999999808
21
-93.285618999999997
0
LINE
8
BLACK
6
CONTINUOUS
10
238.6744829999999808
20
-93.285618999999997
11
238.6744829999999808
21
-94.3332379999999944
0
LINE
8
BLACK
6
CONTINUOUS
10
239.6268639999999834
20
-94.3332379999999944
11
239.6268639999999834
21
-92.9999040000000008
0
LINE
8
BLACK
6
CONTINUOUS
10
239.6268639999999834
20
-93.1903799999999904
11
239.7221019999999783
21
-93.0951419999999956
0
LINE
8
BLACK
6
CONTINUOUS
10
239.7221019999999783
20
-93.0951419999999956
11
239.9125779999999963
21
-92.9999040000000008
0
LINE
8
BLACK
6
CONTINUOUS
10
239.9125779999999963
20
-92.9999040000000008
11
240.1982929999999783
21
-92.9999040000000008
0
LINE
8
BLACK
6
CONTINUOUS
10
240.1982929999999783
20
-92.9999040000000008
11
240.3887689999999964
21
-93.0951419999999956
0
LINE
8
BLACK
6
CONTINUOUS
10
240.3887689999999964
20
-93.0951419999999956
11
240.4840069999999912
21
-93.285618999999997
0
LINE
8
BLACK
6
CONTINUOUS
10
240.4840069999999912
20
-93.285618999999997
11
240.4840069999999912
21
-94.3332379999999944
0
LINE
8
BLACK
6
CONTINUOUS
10
240.4840069999999912
20
-93.285618999999997
11
240.579244999999986
21
-93.0951419999999956
0
LINE
8
BLACK
6
CONTINUOUS
10
240.579244999999986
20
-93.0951419999999956
11
240.7697209999999757
21
-92.9999040000000008
0
LINE
8
BLACK
6
CONTINUOUS
10
240.7697209999999757
20
-92.9999040000000008
11
241.0554349999999886
21
-92.9999040000000008
0
LINE
8
BLACK
6
CONTINUOUS
10
241.0554349999999886
20
-92.9999040000000008
11
241.2459119999999757
21
-93.0951419999999956
0
LINE
8
BLACK
6
CONTINUOUS
10
241.2459119999999757
20
-93.0951419999999956
11
241.341149999999999
21
-93.285618999999997
0
LINE
8
BLACK
6
CONTINUOUS
10
241.341149999999999
20
-93.285618999999997
11
241.341149999999999
21
-94.3332379999999944
0
LINE
8
BLACK
6
CONTINUOUS
10
245.2459119999999757
20
-92.2379999999999995
11
243.5316269999999861
21
-94.8094279999999969
0
LINE
8
BLACK
6
CONTINUOUS
10
247.817340999999999
20
-92.3332379999999944
11
248.0078179999999861
21
-92.3332379999999944
0
LINE
8
BLACK
6
CONTINUOUS
10
248.0078179999999861
20
-92.3332379999999944
11
248.1982939999999758
21
-92.4284759999999892
0
LINE
8
BLACK
6
CONTINUOUS
10
248.1982939999999758
20
-92.4284759999999892
11
248.293531999999999
21
-92.5237139999999982
0
LINE
8
BLACK
6
CONTINUOUS
10
248.293531999999999
20
-92.5237139999999982
11
248.3887699999999938
21
-92.7141900000000021
0
LINE
8
BLACK
6
CONTINUOUS
10
248.3887699999999938
20
-92.7141900000000021
11
248.4840079999999887
21
-93.0951419999999956
0
LINE
8
BLACK
6
CONTINUOUS
10
248.4840079999999887
20
-93.0951419999999956
11
248.4840079999999887
21
-93.5713329999999956
0
LINE
8
BLACK
6
CONTINUOUS
10
248.4840079999999887
20
-93.5713329999999956
11
248.3887699999999938
21
-93.9522849999999892
0
LINE
8
BLACK
6
CONTINUOUS
10
248.3887699999999938
20
-93.9522849999999892
11
248.293531999999999
21
-94.142760999999993
0
LINE
8
BLACK
6
CONTINUOUS
10
248.293531999999999
20
-94.142760999999993
11
248.1982939999999758
21
-94.2379999999999995
0
LINE
8
BLACK
6
CONTINUOUS
10
248.1982939999999758
20
-94.2379999999999995
11
248.0078179999999861
21
-94.3332379999999944
0
LINE
8
BLACK
6
CONTINUOUS
10
248.0078179999999861
20
-94.3332379999999944
11
247.817340999999999
21
-94.3332379999999944
0
LINE
8
BLACK
6
CONTINUOUS
10
247.817340999999999
20
-94.3332379999999944
11
247.6268649999999809
21
-94.2379999999999995
0
LINE
8
BLACK
6
CONTINUOUS
10
247.6268649999999809
20
-94.2379999999999995
11
247.5316269999999861
21
-94.142760999999993
0
LINE
8
BLACK
6
CONTINUOUS
10
247.5316269999999861
20
-94.142760999999993
11
247.4363889999999913
21
-93.9522849999999892
0
LINE
8
BLACK
6
CONTINUOUS
10
247.4363889999999913
20
-93.9522849999999892
11
247.3411509999999964
21
-93.5713329999999956
0
LINE
8
BLACK
6
CONTINUOUS
10
247.3411509999999964
20
-93.5713329999999956
11
247.3411509999999964
21
-93.0951419999999956
0
LINE
8
BLACK
6
CONTINUOUS
10
247.3411509999999964
20
-93.0951419999999956
11
247.4363889999999913
21
-92.7141900000000021
0
LINE
8
BLACK
6
CONTINUOUS
10
247.4363889999999913
20
-92.7141900000000021
11
247.5316269999999861
21
-92.5237139999999982
0
LINE
8
BLACK
6
CONTINUOUS
10
247.5316269999999861
20
-92.5237139999999982
11
247.6268649999999809
21
-92.4284759999999892
0
LINE
8
BLACK
6
CONTINUOUS
10
247.6268649999999809
20
-92.4284759999999892
11
247.817340999999999
21
-92.3332379999999944
0
LINE
8
BLACK
6
CONTINUOUS
10
249.3411509999999964
20
-94.142760999999993
11
249.4363889999999913
21
-94.2379999999999995
0
LINE
8
BLACK
6
CONTINUOUS
10
249.4363889999999913
20
-94.2379999999999995
11
249.3411509999999964
21
-94.3332379999999944
0
LINE
8
BLACK
6
CONTINUOUS
10
249.3411509999999964
20
-94.3332379999999944
11
249.2459130000000016
21
-94.2379999999999995
0
LINE
8
BLACK
6
CONTINUOUS
10
249.2459130000000016
20
-94.2379999999999995
11
249.3411509999999964
21
-94.142760999999993
0
LINE
8
BLACK
6
CONTINUOUS
10
249.3411509999999964
20
-94.142760999999993
11
249.3411509999999964
21
-94.3332379999999944
0
LINE
8
BLACK
6
CONTINUOUS
10
250.6744839999999783
20
-92.3332379999999944
11
250.8649609999999939
21
-92.3332379999999944
0
LINE
8
BLACK
6
CONTINUOUS
10
250.8649609999999939
20
-92.3332379999999944
11
251.0554369999999835
21
-92.4284759999999892
0
LINE
8
BLACK
6
CONTINUOUS
10
251.0554369999999835
20
-92.4284759999999892
11
251.1506749999999784
21
-92.5237139999999982
0
LINE
8
BLACK
6
CONTINUOUS
10
251.1506749999999784
20
-92.5237139999999982
11
251.2459130000000016
21
-92.7141900000000021
0
LINE
8
BLACK
6
CONTINUOUS
10
251.2459130000000016
20
-92.7141900000000021
11
251.3411509999999964
21
-93.0951419999999956
0
LINE
8
BLACK
6
CONTINUOUS
10
251.3411509999999964
20
-93.0951419999999956
11
251.3411509999999964
21
-93.5713329999999956
0
LINE
8
BLACK
6
CONTINUOUS
10
251.3411509999999964
20
-93.5713329999999956
11
251.2459130000000016
21
-93.9522849999999892
0
LINE
8
BLACK
6
CONTINUOUS
10
251.2459130000000016
20
-93.9522849999999892
11
251.1506749999999784
21
-94.142760999999993
0
LINE
8
BLACK
6
CONTINUOUS
10
251.1506749999999784
20
-94.142760999999993
11
251.0554369999999835
21
-94.2379999999999995
0
LINE
8
BLACK
6
CONTINUOUS
10
251.0554369999999835
20
-94.2379999999999995
11
250.8649609999999939
21
-94.3332379999999944
0
LINE
8
BLACK
6
CONTINUOUS
10
250.8649609999999939
20
-94.3332379999999944
11
250.6744839999999783
21
-94.3332379999999944
0
LINE
8
BLACK
6
CONTINUOUS
10
250.6744839999999783
20
-94.3332379999999944
11
250.4840079999999887
21
-94.2379999999999995
0
LINE
8
BLACK
6
CONTINUOUS
10
250.4840079999999887
20
-94.2379999999999995
11
250.3887699999999938
21
-94.142760999999993
0
LINE
8
BLACK
6
CONTINUOUS
10
250.3887699999999938
20
-94.142760999999993
11
250.293531999999999
21
-93.9522849999999892
0
LINE
8
BLACK
6
CONTINUOUS
10
250.293531999999999
20
-93.9522849999999892
11
250.1982939999999758
21
-93.5713329999999956
0
LINE
8
BLACK
6
CONTINUOUS
10
250.1982939999999758
20
-93.5713329999999956
11
250.1982939999999758
21
-93.0951419999999956
0
LINE
8
BLACK
6
CONTINUOUS
10
250.1982939999999758
20
-93.0951419999999956
11
250.293531999999999
21
-92.7141900000000021
0
LINE
8
BLACK
6
CONTINUOUS
10
250.293531999999999
20
-92.7141900000000021
11
250.3887699999999938
21
-92.5237139999999982
0
LINE
8
BLACK
6
CONTINUOUS
10
250.3887699999999938
20
-92.5237139999999982
11
250.4840079999999887
21
-92.4284759999999892
0
LINE
8
BLACK
6
CONTINUOUS
10
250.4840079999999887
20
-92.4284759999999892
11
250.6744839999999783
21
-92.3332379999999944
0
LINE
8
BLACK
6
CONTINUOUS
10
252.0078179999999861
20
-92.3332379999999944
11
253.2459130000000016
21
-92.3332379999999944
0
LINE
8
BLACK
6
CONTINUOUS
10
253.2459130000000016
20
-92.3332379999999944
11
252.5792459999999835
21
-93.0951419999999956
0
LINE
8
BLACK
6
CONTINUOUS
10
252.5792459999999835
20
-93.0951419999999956
11
252.8649609999999939
21
-93.0951419999999956
0
LINE
8
BLACK
6
CONTINUOUS
10
252.8649609999999939
20
-93.0951419999999956
11
253.0554369999999835
21
-93.1903799999999904
0
LINE
8
BLACK
6
CONTINUOUS
10
253.0554369999999835
20
-93.1903799999999904
11
253.1506749999999784
21
-93.285618999999997
0
LINE
8
BLACK
6
CONTINUOUS
10
253.1506749999999784
20
-93.285618999999997
11
253.2459130000000016
21
-93.4760950000000008
0
LINE
8
BLACK
6
CONTINUOUS
10
253.2459130000000016
20
-93.4760950000000008
11
253.2459130000000016
21
-93.9522849999999892
0
LINE
8
BLACK
6
CONTINUOUS
10
253.2459130000000016
20
-93.9522849999999892
11
253.1506749999999784
21
-94.142760999999993
0
LINE
8
BLACK
6
CONTINUOUS
10
253.1506749999999784
20
-94.142760999999993
11
253.0554369999999835
21
-94.2379999999999995
0
LINE
8
BLACK
6
CONTINUOUS
10
253.0554369999999835
20
-94.2379999999999995
11
252.8649609999999939
21
-94.3332379999999944
0
LINE
8
BLACK
6
CONTINUOUS
10
252.8649609999999939
20
-94.3332379999999944
11
252.293531999999999
21
-94.3332379999999944
0
LINE
8
BLACK
6
CONTINUOUS
10
252.293531999999999
20
-94.3332379999999944
11
252.1030559999999809
21
-94.2379999999999995
0
LINE
8
BLACK
6
CONTINUOUS
10
252.1030559999999809
20
-94.2379999999999995
11
252.0078179999999861
21
-94.142760999999993
0
LINE
8
BLACK
6
CONTINUOUS
10
255.1506749999999784
20
-94.3332379999999944
11
254.0078179999999861
21
-94.3332379999999944
0
LINE
8
BLACK
6
CONTINUOUS
10
254.5792459999999835
20
-94.3332379999999944
11
254.5792459999999835
21
-92.3332379999999944
0
LINE
8
BLACK
6
CONTINUOUS
10
254.5792459999999835
20
-92.3332379999999944
11
254.3887699999999938
21
-92.6189519999999931
0
LINE
8
BLACK
6
CONTINUOUS
10
254.3887699999999938
20
-92.6189519999999931
11
254.1982939999999758
21
-92.8094279999999969
0
LINE
8
BLACK
6
CONTINUOUS
10
254.1982939999999758
20
-92.8094279999999969
11
254.0078179999999861
21
-92.9046659999999918
0
LINE
8
BLACK
6
CONTINUOUS
10
256.9601989999999887
20
-92.3332379999999944
11
256.0078179999999861
21
-92.3332379999999944
0
LINE
8
BLACK
6
CONTINUOUS
10
256.0078179999999861
20
-92.3332379999999944
11
255.9125799999999913
21
-93.285618999999997
0
LINE
8
BLACK
6
CONTINUOUS
10
255.9125799999999913
20
-93.285618999999997
11
256.0078179999999861
21
-93.1903799999999904
0
LINE
8
BLACK
6
CONTINUOUS
10
256.0078179999999861
20
-93.1903799999999904
11
256.1982939999999758
21
-93.0951419999999956
0
LINE
8
BLACK
6
CONTINUOUS
10
256.1982939999999758
20
-93.0951419999999956
11
256.6744850000000042
21
-93.0951419999999956
0
LINE
8
BLACK
6
CONTINUOUS
10
256.6744850000000042
20
-93.0951419999999956
11
256.8649609999999939
21
-93.1903799999999904
0
LINE
8
BLACK
6
CONTINUOUS
10
256.8649609999999939
20
-93.1903799999999904
11
256.9601989999999887
21
-93.285618999999997
0
LINE
8
BLACK
6
CONTINUOUS
10
256.9601989999999887
20
-93.285618999999997
11
257.0554369999999835
21
-93.4760950000000008
0
LINE
8
BLACK
6
CONTINUOUS
10
257.0554369999999835
20
-93.4760950000000008
11
257.0554369999999835
21
-93.9522849999999892
0
LINE
8
BLACK
6
CONTINUOUS
10
257.0554369999999835
20
-93.9522849999999892
11
256.9601989999999887
21
-94.142760999999993
0
LINE
8
BLACK
6
CONTINUOUS
10
256.9601989999999887
20
-94.142760999999993
11
256.8649609999999939
21
-94.2379999999999995
0
LINE
8
BLACK
6
CONTINUOUS
10
256.8649609999999939
20
-94.2379999999999995
11
256.6744850000000042
21
-94.3332379999999944
0
LINE
8
BLACK
6
CONTINUOUS
10
256.6744850000000042
20
-94.3332379999999944
11
256.1982939999999758
21
-94.3332379999999944
0
LINE
8
BLACK
6
CONTINUOUS
10
256.1982939999999758
20
-94.3332379999999944
11
256.0078179999999861
21
-94.2379999999999995
0
LINE
8
BLACK
6
CONTINUOUS
10
256.0078179999999861
20
-94.2379999999999995
11
255.9125799999999913
21
-94.142760999999993
0
LINE
8
BLACK
6
CONTINUOUS
10
257.8173419999999965
20
-92.3332379999999944
11
257.8173419999999965
21
-92.7141900000000021
0
LINE
8
BLACK
6
CONTINUOUS
10
258.5792470000000094
20
-92.3332379999999944
11
258.5792470000000094
21
-92.7141900000000021
0
LINE
8
BLACK
6
CONTINUOUS
10
261.5316290000000095
20
-95.0951419999999956
11
261.4363899999999603
21
-94.9999040000000008
0
LINE
8
BLACK
6
CONTINUOUS
10
261.4363899999999603
20
-94.9999040000000008
11
261.2459139999999707
21
-94.7141900000000021
0
LINE
8
BLACK
6
CONTINUOUS
10
261.2459139999999707
20
-94.7141900000000021
11
261.1506759999999758
21
-94.5237139999999982
0
LINE
8
BLACK
6
CONTINUOUS
10
261.1506759999999758
20
-94.5237139999999982
11
261.055437999999981
21
-94.2379999999999995
0
LINE
8
BLACK
6
CONTINUOUS
10
261.055437999999981
20
-94.2379999999999995
11
260.9601999999999862
21
-93.7618089999999995
0
LINE
8
BLACK
6
CONTINUOUS
10
260.9601999999999862
20
-93.7618089999999995
11
260.9601999999999862
21
-93.3808569999999918
0
LINE
8
BLACK
6
CONTINUOUS
10
260.9601999999999862
20
-93.3808569999999918
11
261.055437999999981
21
-92.9046659999999918
0
LINE
8
BLACK
6
CONTINUOUS
10
261.055437999999981
20
-92.9046659999999918
11
261.1506759999999758
21
-92.6189519999999931
0
LINE
8
BLACK
6
CONTINUOUS
10
261.1506759999999758
20
-92.6189519999999931
11
261.2459139999999707
21
-92.4284759999999892
0
LINE
8
BLACK
6
CONTINUOUS
10
261.2459139999999707
20
-92.4284759999999892
11
261.4363899999999603
21
-92.142760999999993
0
LINE
8
BLACK
6
CONTINUOUS
10
261.4363899999999603
20
-92.142760999999993
11
261.5316290000000095
21
-92.0475229999999982
0
LINE
8
BLACK
6
CONTINUOUS
10
263.1506759999999758
20
-92.9999040000000008
11
263.1506759999999758
21
-94.3332379999999944
0
LINE
8
BLACK
6
CONTINUOUS
10
262.6744850000000042
20
-92.2379999999999995
11
262.1982949999999732
21
-93.6665709999999905
0
LINE
8
BLACK
6
CONTINUOUS
10
262.1982949999999732
20
-93.6665709999999905
11
263.4363899999999603
21
-93.6665709999999905
0
LINE
8
BLACK
6
CONTINUOUS
10
265.055437999999981
20
-92.3332379999999944
11
264.6744850000000042
21
-92.3332379999999944
0
LINE
8
BLACK
6
CONTINUOUS
10
264.6744850000000042
20
-92.3332379999999944
11
264.4840090000000146
21
-92.4284759999999892
0
LINE
8
BLACK
6
CONTINUOUS
10
264.4840090000000146
20
-92.4284759999999892
11
264.3887709999999629
21
-92.5237139999999982
0
LINE
8
BLACK
6
CONTINUOUS
10
264.3887709999999629
20
-92.5237139999999982
11
264.1982949999999732
21
-92.8094279999999969
0
LINE
8
BLACK
6
CONTINUOUS
10
264.1982949999999732
20
-92.8094279999999969
11
264.1030569999999784
21
-93.1903799999999904
0
LINE
8
BLACK
6
CONTINUOUS
10
264.1030569999999784
20
-93.1903799999999904
11
264.1030569999999784
21
-93.9522849999999892
0
LINE
8
BLACK
6
CONTINUOUS
10
264.1030569999999784
20
-93.9522849999999892
11
264.1982949999999732
21
-94.142760999999993
0
LINE
8
BLACK
6
CONTINUOUS
10
264.1982949999999732
20
-94.142760999999993
11
264.2935329999999681
21
-94.2379999999999995
0
LINE
8
BLACK
6
CONTINUOUS
10
264.2935329999999681
20
-94.2379999999999995
11
264.4840090000000146
21
-94.3332379999999944
0
LINE
8
BLACK
6
CONTINUOUS
10
264.4840090000000146
20
-94.3332379999999944
11
264.8649619999999913
21
-94.3332379999999944
0
LINE
8
BLACK
6
CONTINUOUS
10
264.8649619999999913
20
-94.3332379999999944
11
265.055437999999981
21
-94.2379999999999995
0
LINE
8
BLACK
6
CONTINUOUS
10
265.055437999999981
20
-94.2379999999999995
11
265.1506759999999758
21
-94.142760999999993
0
LINE
8
BLACK
6
CONTINUOUS
10
265.1506759999999758
20
-94.142760999999993
11
265.2459139999999707
21
-93.9522849999999892
0
LINE
8
BLACK
6
CONTINUOUS
10
265.2459139999999707
20
-93.9522849999999892
11
265.2459139999999707
21
-93.4760950000000008
0
LINE
8
BLACK
6
CONTINUOUS
10
265.2459139999999707
20
-93.4760950000000008
11
265.1506759999999758
21
-93.285618999999997
0
LINE
8
BLACK
6
CONTINUOUS
10
265.1506759999999758
20
-93.285618999999997
11
265.055437999999981
21
-93.1903799999999904
0
LINE
8
BLACK
6
CONTINUOUS
10
265.055437999999981
20
-93.1903799999999904
11
264.8649619999999913
21
-93.0951419999999956
0
LINE
8
BLACK
6
CONTINUOUS
10
264.8649619999999913
20
-93.0951419999999956
11
264.4840090000000146
21
-93.0951419999999956
0
LINE
8
BLACK
6
CONTINUOUS
10
264.4840090000000146
20
-93.0951419999999956
11
264.2935329999999681
21
-93.1903799999999904
0
LINE
8
BLACK
6
CONTINUOUS
10
264.2935329999999681
20
-93.1903799999999904
11
264.1982949999999732
21
-93.285618999999997
0
LINE
8
BLACK
6
CONTINUOUS
10
264.1982949999999732
20
-93.285618999999997
11
264.1030569999999784
21
-93.4760950000000008
0
LINE
8
BLACK
6
CONTINUOUS
10
267.6268670000000043
20
-94.3332379999999944
11
267.6268670000000043
21
-92.3332379999999944
0
LINE
8
BLACK
6
CONTINUOUS
10
268.484010000000012
20
-94.3332379999999944
11
268.484010000000012
21
-93.285618999999997
0
LINE
8
BLACK
6
CONTINUOUS
10
268.484010000000012
20
-93.285618999999997
11
268.3887719999999604
21
-93.0951419999999956
0
LINE
8
BLACK
6
CONTINUOUS
10
268.3887719999999604
20
-93.0951419999999956
11
268.1982959999999707
21
-92.9999040000000008
0
LINE
8
BLACK
6
CONTINUOUS
10
268.1982959999999707
20
-92.9999040000000008
11
267.9125809999999888
21
-92.9999040000000008
0
LINE
8
BLACK
6
CONTINUOUS
10
267.9125809999999888
20
-92.9999040000000008
11
267.7221049999999991
21
-93.0951419999999956
0
LINE
8
BLACK
6
CONTINUOUS
10
267.7221049999999991
20
-93.0951419999999956
11
267.6268670000000043
21
-93.1903799999999904
0
LINE
8
BLACK
6
CONTINUOUS
10
269.7221049999999991
20
-94.3332379999999944
11
269.5316290000000095
21
-94.2379999999999995
0
LINE
8
BLACK
6
CONTINUOUS
10
269.5316290000000095
20
-94.2379999999999995
11
269.4363910000000146
21
-94.142760999999993
0
LINE
8
BLACK
6
CONTINUOUS
10
269.4363910000000146
20
-94.142760999999993
11
269.341152999999963
21
-93.9522849999999892
0
LINE
8
BLACK
6
CONTINUOUS
10
269.341152999999963
20
-93.9522849999999892
11
269.341152999999963
21
-93.3808569999999918
0
LINE
8
BLACK
6
CONTINUOUS
10
269.341152999999963
20
-93.3808569999999918
11
269.4363910000000146
21
-93.1903799999999904
0
LINE
8
BLACK
6
CONTINUOUS
10
269.4363910000000146
20
-93.1903799999999904
11
269.5316290000000095
21
-93.0951419999999956
0
LINE
8
BLACK
6
CONTINUOUS
10
269.5316290000000095
20
-93.0951419999999956
11
269.7221049999999991
21
-92.9999040000000008
0
LINE
8
BLACK
6
CONTINUOUS
10
269.7221049999999991
20
-92.9999040000000008
11
270.0078199999999811
21
-92.9999040000000008
0
LINE
8
BLACK
6
CONTINUOUS
10
270.0078199999999811
20
-92.9999040000000008
11
270.1982959999999707
21
-93.0951419999999956
0
LINE
8
BLACK
6
CONTINUOUS
10
270.1982959999999707
20
-93.0951419999999956
11
270.2935339999999655
21
-93.1903799999999904
0
LINE
8
BLACK
6
CONTINUOUS
10
270.2935339999999655
20
-93.1903799999999904
11
270.3887719999999604
21
-93.3808569999999918
0
LINE
8
BLACK
6
CONTINUOUS
10
270.3887719999999604
20
-93.3808569999999918
11
270.3887719999999604
21
-93.9522849999999892
0
LINE
8
BLACK
6
CONTINUOUS
10
270.3887719999999604
20
-93.9522849999999892
11
270.2935339999999655
21
-94.142760999999993
0
LINE
8
BLACK
6
CONTINUOUS
10
270.2935339999999655
20
-94.142760999999993
11
270.1982959999999707
21
-94.2379999999999995
0
LINE
8
BLACK
6
CONTINUOUS
10
270.1982959999999707
20
-94.2379999999999995
11
270.0078199999999811
21
-94.3332379999999944
0
LINE
8
BLACK
6
CONTINUOUS
10
270.0078199999999811
20
-94.3332379999999944
11
269.7221049999999991
21
-94.3332379999999944
0
LINE
8
BLACK
6
CONTINUOUS
10
271.5316290000000095
20
-94.3332379999999944
11
271.341152999999963
21
-94.2379999999999995
0
LINE
8
BLACK
6
CONTINUOUS
10
271.341152999999963
20
-94.2379999999999995
11
271.2459149999999681
21
-94.0475229999999982
0
LINE
8
BLACK
6
CONTINUOUS
10
271.2459149999999681
20
-94.0475229999999982
11
271.2459149999999681
21
-92.3332379999999944
0
LINE
8
BLACK
6
CONTINUOUS
10
273.0554389999999785
20
-94.2379999999999995
11
272.8649629999999888
21
-94.3332379999999944
0
LINE
8
BLACK
6
CONTINUOUS
10
272.8649629999999888
20
-94.3332379999999944
11
272.484010000000012
21
-94.3332379999999944
0
LINE
8
BLACK
6
CONTINUOUS
10
272.484010000000012
20
-94.3332379999999944
11
272.2935339999999655
21
-94.2379999999999995
0
LINE
8
BLACK
6
CONTINUOUS
10
272.2935339999999655
20
-94.2379999999999995
11
272.1982959999999707
21
-94.0475229999999982
0
LINE
8
BLACK
6
CONTINUOUS
10
272.1982959999999707
20
-94.0475229999999982
11
272.1982959999999707
21
-93.285618999999997
0
LINE
8
BLACK
6
CONTINUOUS
10
272.1982959999999707
20
-93.285618999999997
11
272.2935339999999655
21
-93.0951419999999956
0
LINE
8
BLACK
6
CONTINUOUS
10
272.2935339999999655
20
-93.0951419999999956
11
272.484010000000012
21
-92.9999040000000008
0
LINE
8
BLACK
6
CONTINUOUS
10
272.484010000000012
20
-92.9999040000000008
11
272.8649629999999888
21
-92.9999040000000008
0
LINE
8
BLACK
6
CONTINUOUS
10
272.8649629999999888
20
-92.9999040000000008
11
273.0554389999999785
21
-93.0951419999999956
0
LINE
8
BLACK
6
CONTINUOUS
10
273.0554389999999785
20
-93.0951419999999956
11
273.1506769999999733
21
-93.285618999999997
0
LINE
8
BLACK
6
CONTINUOUS
10
273.1506769999999733
20
-93.285618999999997
11
273.1506769999999733
21
-93.4760950000000008
0
LINE
8
BLACK
6
CONTINUOUS
10
273.1506769999999733
20
-93.4760950000000008
11
272.1982959999999707
21
-93.6665709999999905
0
LINE
8
BLACK
6
CONTINUOUS
10
273.9125819999999862
20
-94.2379999999999995
11
274.1030579999999759
21
-94.3332379999999944
0
LINE
8
BLACK
6
CONTINUOUS
10
274.1030579999999759
20
-94.3332379999999944
11
274.484010000000012
21
-94.3332379999999944
0
LINE
8
BLACK
6
CONTINUOUS
10
274.484010000000012
20
-94.3332379999999944
11
274.6744869999999992
21
-94.2379999999999995
0
LINE
8
BLACK
6
CONTINUOUS
10
274.6744869999999992
20
-94.2379999999999995
11
274.769724999999994
21
-94.0475229999999982
0
LINE
8
BLACK
6
CONTINUOUS
10
274.769724999999994
20
-94.0475229999999982
11
274.769724999999994
21
-93.9522849999999892
0
LINE
8
BLACK
6
CONTINUOUS
10
274.769724999999994
20
-93.9522849999999892
11
274.6744869999999992
21
-93.7618089999999995
0
LINE
8
BLACK
6
CONTINUOUS
10
274.6744869999999992
20
-93.7618089999999995
11
274.484010000000012
21
-93.6665709999999905
0
LINE
8
BLACK
6
CONTINUOUS
10
274.484010000000012
20
-93.6665709999999905
11
274.1982959999999707
21
-93.6665709999999905
0
LINE
8
BLACK
6
CONTINUOUS
10
274.1982959999999707
20
-93.6665709999999905
11
274.0078199999999811
21
-93.5713329999999956
0
LINE
8
BLACK
6
CONTINUOUS
10
274.0078199999999811
20
-93.5713329999999956
11
273.9125819999999862
21
-93.3808569999999918
0
LINE
8
BLACK
6
CONTINUOUS
10
273.9125819999999862
20
-93.3808569999999918
11
273.9125819999999862
21
-93.285618999999997
0
LINE
8
BLACK
6
CONTINUOUS
10
273.9125819999999862
20
-93.285618999999997
11
274.0078199999999811
21
-93.0951419999999956
0
LINE
8
BLACK
6
CONTINUOUS
10
274.0078199999999811
20
-93.0951419999999956
11
274.1982959999999707
21
-92.9999040000000008
0
LINE
8
BLACK
6
CONTINUOUS
10
274.1982959999999707
20
-92.9999040000000008
11
274.484010000000012
21
-92.9999040000000008
0
LINE
8
BLACK
6
CONTINUOUS
10
274.484010000000012
20
-92.9999040000000008
11
274.6744869999999992
21
-93.0951419999999956
0
LINE
8
BLACK
6
CONTINUOUS
10
275.4363920000000121
20
-95.0951419999999956
11
275.5316300000000069
21
-94.9999040000000008
0
LINE
8
BLACK
6
CONTINUOUS
10
275.5316300000000069
20
-94.9999040000000008
11
275.7221059999999966
21
-94.7141900000000021
0
LINE
8
BLACK
6
CONTINUOUS
10
275.7221059999999966
20
-94.7141900000000021
11
275.8173439999999914
21
-94.5237139999999982
0
LINE
8
BLACK
6
CONTINUOUS
10
275.8173439999999914
20
-94.5237139999999982
11
275.9125819999999862
21
-94.2379999999999995
0
LINE
8
BLACK
6
CONTINUOUS
10
275.9125819999999862
20
-94.2379999999999995
11
276.0078199999999811
21
-93.7618089999999995
0
LINE
8
BLACK
6
CONTINUOUS
10
276.0078199999999811
20
-93.7618089999999995
11
276.0078199999999811
21
-93.3808569999999918
0
LINE
8
BLACK
6
CONTINUOUS
10
276.0078199999999811
20
-93.3808569999999918
11
275.9125819999999862
21
-92.9046659999999918
0
LINE
8
BLACK
6
CONTINUOUS
10
275.9125819999999862
20
-92.9046659999999918
11
275.8173439999999914
21
-92.6189519999999931
0
LINE
8
BLACK
6
CONTINUOUS
10
275.8173439999999914
20
-92.6189519999999931
11
275.7221059999999966
21
-92.4284759999999892
0
LINE
8
BLACK
6
CONTINUOUS
10
275.7221059999999966
20
-92.4284759999999892
11
275.5316300000000069
21
-92.142760999999993
0
LINE
8
BLACK
6
CONTINUOUS
10
275.5316300000000069
20
-92.142760999999993
11
275.4363920000000121
21
-92.0475229999999982
0
LINE
8
BLACK
6
CONTINUOUS
10
225.2809999999999775
20
-95.5583999999999918
11
225.2809999999999775
21
-96.5583999999999918
0
LINE
8
BLACK
6
CONTINUOUS
10
224.7809999999999775
20
-96.0583999999999918
11
225.7809999999999775
21
-96.0583999999999918
0
LINE
8
BLACK
6
CONTINUOUS
10
229.4363869999999963
20
-96.9732379999999949
11
228.2935299999999756
21
-96.9732379999999949
0
LINE
8
BLACK
6
CONTINUOUS
10
228.8649580000000014
20
-96.9732379999999949
11
228.8649580000000014
21
-94.9732379999999949
0
LINE
8
BLACK
6
CONTINUOUS
10
228.8649580000000014
20
-94.9732379999999949
11
228.6744819999999834
21
-95.2589519999999936
0
LINE
8
BLACK
6
CONTINUOUS
10
228.6744819999999834
20
-95.2589519999999936
11
228.4840059999999937
21
-95.4494279999999975
0
LINE
8
BLACK
6
CONTINUOUS
10
228.4840059999999937
20
-95.4494279999999975
11
228.2935299999999756
21
-95.5446659999999923
0
LINE
8
BLACK
6
CONTINUOUS
10
230.2935299999999756
20
-96.7827609999999936
11
230.3887679999999989
21
-96.8780000000000001
0
LINE
8
BLACK
6
CONTINUOUS
10
230.3887679999999989
20
-96.8780000000000001
11
230.2935299999999756
21
-96.9732379999999949
0
LINE
8
BLACK
6
CONTINUOUS
10
230.2935299999999756
20
-96.9732379999999949
11
230.1982919999999808
21
-96.8780000000000001
0
LINE
8
BLACK
6
CONTINUOUS
10
230.1982919999999808
20
-96.8780000000000001
11
230.2935299999999756
21
-96.7827609999999936
0
LINE
8
BLACK
6
CONTINUOUS
10
230.2935299999999756
20
-96.7827609999999936
11
230.2935299999999756
21
-96.9732379999999949
0
LINE
8
BLACK
6
CONTINUOUS
10
231.626862999999986
20
-94.9732379999999949
11
231.8173400000000015
21
-94.9732379999999949
0
LINE
8
BLACK
6
CONTINUOUS
10
231.8173400000000015
20
-94.9732379999999949
11
232.0078159999999912
21
-95.0684759999999898
0
LINE
8
BLACK
6
CONTINUOUS
10
232.0078159999999912
20
-95.0684759999999898
11
232.103053999999986
21
-95.1637139999999988
0
LINE
8
BLACK
6
CONTINUOUS
10
232.103053999999986
20
-95.1637139999999988
11
232.1982919999999808
21
-95.3541900000000027
0
LINE
8
BLACK
6
CONTINUOUS
10
232.1982919999999808
20
-95.3541900000000027
11
232.2935299999999756
21
-95.7351419999999962
0
LINE
8
BLACK
6
CONTINUOUS
10
232.2935299999999756
20
-95.7351419999999962
11
232.2935299999999756
21
-96.2113329999999962
0
LINE
8
BLACK
6
CONTINUOUS
10
232.2935299999999756
20
-96.2113329999999962
11
232.1982919999999808
21
-96.5922849999999897
0
LINE
8
BLACK
6
CONTINUOUS
10
232.1982919999999808
20
-96.5922849999999897
11
232.103053999999986
21
-96.7827609999999936
0
LINE
8
BLACK
6
CONTINUOUS
10
232.103053999999986
20
-96.7827609999999936
11
232.0078159999999912
21
-96.8780000000000001
0
LINE
8
BLACK
6
CONTINUOUS
10
232.0078159999999912
20
-96.8780000000000001
11
231.8173400000000015
21
-96.9732379999999949
0
LINE
8
BLACK
6
CONTINUOUS
10
231.8173400000000015
20
-96.9732379999999949
11
231.626862999999986
21
-96.9732379999999949
0
LINE
8
BLACK
6
CONTINUOUS
10
231.626862999999986
20
-96.9732379999999949
11
231.4363869999999963
21
-96.8780000000000001
0
LINE
8
BLACK
6
CONTINUOUS
10
231.4363869999999963
20
-96.8780000000000001
11
231.3411490000000015
21
-96.7827609999999936
0
LINE
8
BLACK
6
CONTINUOUS
10
231.3411490000000015
20
-96.7827609999999936
11
231.2459109999999782
21
-96.5922849999999897
0
LINE
8
BLACK
6
CONTINUOUS
10
231.2459109999999782
20
-96.5922849999999897
11
231.1506729999999834
21
-96.2113329999999962
0
LINE
8
BLACK
6
CONTINUOUS
10
231.1506729999999834
20
-96.2113329999999962
11
231.1506729999999834
21
-95.7351419999999962
0
LINE
8
BLACK
6
CONTINUOUS
10
231.1506729999999834
20
-95.7351419999999962
11
231.2459109999999782
21
-95.3541900000000027
0
LINE
8
BLACK
6
CONTINUOUS
10
231.2459109999999782
20
-95.3541900000000027
11
231.3411490000000015
21
-95.1637139999999988
0
LINE
8
BLACK
6
CONTINUOUS
10
231.3411490000000015
20
-95.1637139999999988
11
231.4363869999999963
21
-95.0684759999999898
0
LINE
8
BLACK
6
CONTINUOUS
10
231.4363869999999963
20
-95.0684759999999898
11
231.626862999999986
21
-94.9732379999999949
0
LINE
8
BLACK
6
CONTINUOUS
10
233.5316249999999911
20
-94.9732379999999949
11
233.7221019999999783
21
-94.9732379999999949
0
LINE
8
BLACK
6
CONTINUOUS
10
233.7221019999999783
20
-94.9732379999999949
11
233.9125779999999963
21
-95.0684759999999898
0
LINE
8
BLACK
6
CONTINUOUS
10
233.9125779999999963
20
-95.0684759999999898
11
234.0078159999999912
21
-95.1637139999999988
0
LINE
8
BLACK
6
CONTINUOUS
10
234.0078159999999912
20
-95.1637139999999988
11
234.103053999999986
21
-95.3541900000000027
0
LINE
8
BLACK
6
CONTINUOUS
10
234.103053999999986
20
-95.3541900000000027
11
234.1982919999999808
21
-95.7351419999999962
0
LINE
8
BLACK
6
CONTINUOUS
10
234.1982919999999808
20
-95.7351419999999962
11
234.1982919999999808
21
-96.2113329999999962
0
LINE
8
BLACK
6
CONTINUOUS
10
234.1982919999999808
20
-96.2113329999999962
11
234.103053999999986
21
-96.5922849999999897
0
LINE
8
BLACK
6
CONTINUOUS
10
234.103053999999986
20
-96.5922849999999897
11
234.0078159999999912
21
-96.7827609999999936
0
LINE
8
BLACK
6
CONTINUOUS
10
234.0078159999999912
20
-96.7827609999999936
11
233.9125779999999963
21
-96.8780000000000001
0
LINE
8
BLACK
6
CONTINUOUS
10
233.9125779999999963
20
-96.8780000000000001
11
233.7221019999999783
21
-96.9732379999999949
0
LINE
8
BLACK
6
CONTINUOUS
10
233.7221019999999783
20
-96.9732379999999949
11
233.5316249999999911
21
-96.9732379999999949
0
LINE
8
BLACK
6
CONTINUOUS
10
233.5316249999999911
20
-96.9732379999999949
11
233.3411490000000015
21
-96.8780000000000001
0
LINE
8
BLACK
6
CONTINUOUS
10
233.3411490000000015
20
-96.8780000000000001
11
233.2459109999999782
21
-96.7827609999999936
0
LINE
8
BLACK
6
CONTINUOUS
10
233.2459109999999782
20
-96.7827609999999936
11
233.1506729999999834
21
-96.5922849999999897
0
LINE
8
BLACK
6
CONTINUOUS
10
233.1506729999999834
20
-96.5922849999999897
11
233.0554349999999886
21
-96.2113329999999962
0
LINE
8
BLACK
6
CONTINUOUS
10
233.0554349999999886
20
-96.2113329999999962
11
233.0554349999999886
21
-95.7351419999999962
0
LINE
8
BLACK
6
CONTINUOUS
10
233.0554349999999886
20
-95.7351419999999962
11
233.1506729999999834
21
-95.3541900000000027
0
LINE
8
BLACK
6
CONTINUOUS
10
233.1506729999999834
20
-95.3541900000000027
11
233.2459109999999782
21
-95.1637139999999988
0
LINE
8
BLACK
6
CONTINUOUS
10
233.2459109999999782
20
-95.1637139999999988
11
233.3411490000000015
21
-95.0684759999999898
0
LINE
8
BLACK
6
CONTINUOUS
10
233.3411490000000015
20
-95.0684759999999898
11
233.5316249999999911
21
-94.9732379999999949
0
LINE
8
BLACK
6
CONTINUOUS
10
235.4363869999999963
20
-94.9732379999999949
11
235.6268639999999834
21
-94.9732379999999949
0
LINE
8
BLACK
6
CONTINUOUS
10
235.6268639999999834
20
-94.9732379999999949
11
235.8173400000000015
21
-95.0684759999999898
0
LINE
8
BLACK
6
CONTINUOUS
10
235.8173400000000015
20
-95.0684759999999898
11
235.9125779999999963
21
-95.1637139999999988
0
LINE
8
BLACK
6
CONTINUOUS
10
235.9125779999999963
20
-95.1637139999999988
11
236.0078159999999912
21
-95.3541900000000027
0
LINE
8
BLACK
6
CONTINUOUS
10
236.0078159999999912
20
-95.3541900000000027
11
236.103053999999986
21
-95.7351419999999962
0
LINE
8
BLACK
6
CONTINUOUS
10
236.103053999999986
20
-95.7351419999999962
11
236.103053999999986
21
-96.2113329999999962
0
LINE
8
BLACK
6
CONTINUOUS
10
236.103053999999986
20
-96.2113329999999962
11
236.0078159999999912
21
-96.5922849999999897
0
LINE
8
BLACK
6
CONTINUOUS
10
236.0078159999999912
20
-96.5922849999999897
11
235.9125779999999963
21
-96.7827609999999936
0
LINE
8
BLACK
6
CONTINUOUS
10
235.9125779999999963
20
-96.7827609999999936
11
235.8173400000000015
21
-96.8780000000000001
0
LINE
8
BLACK
6
CONTINUOUS
10
235.8173400000000015
20
-96.8780000000000001
11
235.6268639999999834
21
-96.9732379999999949
0
LINE
8
BLACK
6
CONTINUOUS
10
235.6268639999999834
20
-96.9732379999999949
11
235.4363869999999963
21
-96.9732379999999949
0
LINE
8
BLACK
6
CONTINUOUS
10
235.4363869999999963
20
-96.9732379999999949
11
235.2459109999999782
21
-96.8780000000000001
0
LINE
8
BLACK
6
CONTINUOUS
10
235.2459109999999782
20
-96.8780000000000001
11
235.1506729999999834
21
-96.7827609999999936
0
LINE
8
BLACK
6
CONTINUOUS
10
235.1506729999999834
20
-96.7827609999999936
11
235.0554349999999886
21
-96.5922849999999897
0
LINE
8
BLACK
6
CONTINUOUS
10
235.0554349999999886
20
-96.5922849999999897
11
234.9601969999999937
21
-96.2113329999999962
0
LINE
8
BLACK
6
CONTINUOUS
10
234.9601969999999937
20
-96.2113329999999962
11
234.9601969999999937
21
-95.7351419999999962
0
LINE
8
BLACK
6
CONTINUOUS
10
234.9601969999999937
20
-95.7351419999999962
11
235.0554349999999886
21
-95.3541900000000027
0
LINE
8
BLACK
6
CONTINUOUS
10
235.0554349999999886
20
-95.3541900000000027
11
235.1506729999999834
21
-95.1637139999999988
0
LINE
8
BLACK
6
CONTINUOUS
10
235.1506729999999834
20
-95.1637139999999988
11
235.2459109999999782
21
-95.0684759999999898
0
LINE
8
BLACK
6
CONTINUOUS
10
235.2459109999999782
20
-95.0684759999999898
11
235.4363869999999963
21
-94.9732379999999949
0
LINE
8
BLACK
6
CONTINUOUS
10
236.9601969999999937
20
-96.9732379999999949
11
236.9601969999999937
21
-95.6399040000000014
0
LINE
8
BLACK
6
CONTINUOUS
10
236.9601969999999937
20
-95.830379999999991
11
237.0554349999999886
21
-95.7351419999999962
0
LINE
8
BLACK
6
CONTINUOUS
10
237.0554349999999886
20
-95.7351419999999962
11
237.2459109999999782
21
-95.6399040000000014
0
LINE
8
BLACK
6
CONTINUOUS
10
237.2459109999999782
20
-95.6399040000000014
11
237.5316259999999886
21
-95.6399040000000014
0
LINE
8
BLACK
6
CONTINUOUS
10
237.5316259999999886
20
-95.6399040000000014
11
237.7221019999999783
21
-95.7351419999999962
0
LINE
8
BLACK
6
CONTINUOUS
10
237.7221019999999783
20
-95.7351419999999962
11
237.8173400000000015
21
-95.9256189999999975
0
LINE
8
BLACK
6
CONTINUOUS
10
237.8173400000000015
20
-95.9256189999999975
11
237.8173400000000015
21
-96.9732379999999949
0
LINE
8
BLACK
6
CONTINUOUS
10
237.8173400000000015
20
-95.9256189999999975
11
237.9125779999999963
21
-95.7351419999999962
0
LINE
8
BLACK
6
CONTINUOUS
10
237.9125779999999963
20
-95.7351419999999962
11
238.103053999999986
21
-95.6399040000000014
0
LINE
8
BLACK
6
CONTINUOUS
10
238.103053999999986
20
-95.6399040000000014
11
238.3887679999999989
21
-95.6399040000000014
0
LINE
8
BLACK
6
CONTINUOUS
10
238.3887679999999989
20
-95.6399040000000014
11
238.579244999999986
21
-95.7351419999999962
0
LINE
8
BLACK
6
CONTINUOUS
10
238.579244999999986
20
-95.7351419999999962
11
238.6744829999999808
21
-95.9256189999999975
0
LINE
8
BLACK
6
CONTINUOUS
10
238.6744829999999808
20
-95.9256189999999975
11
238.6744829999999808
21
-96.9732379999999949
0
LINE
8
BLACK
6
CONTINUOUS
10
239.6268639999999834
20
-96.9732379999999949
11
239.6268639999999834
21
-95.6399040000000014
0
LINE
8
BLACK
6
CONTINUOUS
10
239.6268639999999834
20
-95.830379999999991
11
239.7221019999999783
21
-95.7351419999999962
0
LINE
8
BLACK
6
CONTINUOUS
10
239.7221019999999783
20
-95.7351419999999962
11
239.9125779999999963
21
-95.6399040000000014
0
LINE
8
BLACK
6
CONTINUOUS
10
239.9125779999999963
20
-95.6399040000000014
11
240.1982929999999783
21
-95.6399040000000014
0
LINE
8
BLACK
6
CONTINUOUS
10
240.1982929999999783
20
-95.6399040000000014
11
240.3887689999999964
21
-95.7351419999999962
0
LINE
8
BLACK
6
CONTINUOUS
10
240.3887689999999964
20
-95.7351419999999962
11
240.4840069999999912
21
-95.9256189999999975
0
LINE
8
BLACK
6
CONTINUOUS
10
240.4840069999999912
20
-95.9256189999999975
11
240.4840069999999912
21
-96.9732379999999949
0
LINE
8
BLACK
6
CONTINUOUS
10
240.4840069999999912
20
-95.9256189999999975
11
240.579244999999986
21
-95.7351419999999962
0
LINE
8
BLACK
6
CONTINUOUS
10
240.579244999999986
20
-95.7351419999999962
11
240.7697209999999757
21
-95.6399040000000014
0
LINE
8
BLACK
6
CONTINUOUS
10
240.7697209999999757
20
-95.6399040000000014
11
241.0554349999999886
21
-95.6399040000000014
0
LINE
8
BLACK
6
CONTINUOUS
10
241.0554349999999886
20
-95.6399040000000014
11
241.2459119999999757
21
-95.7351419999999962
0
LINE
8
BLACK
6
CONTINUOUS
10
241.2459119999999757
20
-95.7351419999999962
11
241.341149999999999
21
-95.9256189999999975
0
LINE
8
BLACK
6
CONTINUOUS
10
241.341149999999999
20
-95.9256189999999975
11
241.341149999999999
21
-96.9732379999999949
0
LINE
8
BLACK
6
CONTINUOUS
10
245.2459119999999757
20
-94.8780000000000001
11
243.5316269999999861
21
-97.4494279999999975
0
LINE
8
BLACK
6
CONTINUOUS
10
247.817340999999999
20
-94.9732379999999949
11
248.0078179999999861
21
-94.9732379999999949
0
LINE
8
BLACK
6
CONTINUOUS
10
248.0078179999999861
20
-94.9732379999999949
11
248.1982939999999758
21
-95.0684759999999898
0
LINE
8
BLACK
6
CONTINUOUS
10
248.1982939999999758
20
-95.0684759999999898
11
248.293531999999999
21
-95.1637139999999988
0
LINE
8
BLACK
6
CONTINUOUS
10
248.293531999999999
20
-95.1637139999999988
11
248.3887699999999938
21
-95.3541900000000027
0
LINE
8
BLACK
6
CONTINUOUS
10
248.3887699999999938
20
-95.3541900000000027
11
248.4840079999999887
21
-95.7351419999999962
0
LINE
8
BLACK
6
CONTINUOUS
10
248.4840079999999887
20
-95.7351419999999962
11
248.4840079999999887
21
-96.2113329999999962
0
LINE
8
BLACK
6
CONTINUOUS
10
248.4840079999999887
20
-96.2113329999999962
11
248.3887699999999938
21
-96.5922849999999897
0
LINE
8
BLACK
6
CONTINUOUS
10
248.3887699999999938
20
-96.5922849999999897
11
248.293531999999999
21
-96.7827609999999936
0
LINE
8
BLACK
6
CONTINUOUS
10
248.293531999999999
20
-96.7827609999999936
11
248.1982939999999758
21
-96.8780000000000001
0
LINE
8
BLACK
6
CONTINUOUS
10
248.1982939999999758
20
-96.8780000000000001
11
248.0078179999999861
21
-96.9732379999999949
0
LINE
8
BLACK
6
CONTINUOUS
10
248.0078179999999861
20
-96.9732379999999949
11
247.817340999999999
21
-96.9732379999999949
0
LINE
8
BLACK
6
CONTINUOUS
10
247.817340999999999
20
-96.9732379999999949
11
247.6268649999999809
21
-96.8780000000000001
0
LINE
8
BLACK
6
CONTINUOUS
10
247.6268649999999809
20
-96.8780000000000001
11
247.5316269999999861
21
-96.7827609999999936
0
LINE
8
BLACK
6
CONTINUOUS
10
247.5316269999999861
20
-96.7827609999999936
11
247.4363889999999913
21
-96.5922849999999897
0
LINE
8
BLACK
6
CONTINUOUS
10
247.4363889999999913
20
-96.5922849999999897
11
247.3411509999999964
21
-96.2113329999999962
0
LINE
8
BLACK
6
CONTINUOUS
10
247.3411509999999964
20
-96.2113329999999962
11
247.3411509999999964
21
-95.7351419999999962
0
LINE
8
BLACK
6
CONTINUOUS
10
247.3411509999999964
20
-95.7351419999999962
11
247.4363889999999913
21
-95.3541900000000027
0
LINE
8
BLACK
6
CONTINUOUS
10
247.4363889999999913
20
-95.3541900000000027
11
247.5316269999999861
21
-95.1637139999999988
0
LINE
8
BLACK
6
CONTINUOUS
10
247.5316269999999861
20
-95.1637139999999988
11
247.6268649999999809
21
-95.0684759999999898
0
LINE
8
BLACK
6
CONTINUOUS
10
247.6268649999999809
20
-95.0684759999999898
11
247.817340999999999
21
-94.9732379999999949
0
LINE
8
BLACK
6
CONTINUOUS
10
249.3411509999999964
20
-96.7827609999999936
11
249.4363889999999913
21
-96.8780000000000001
0
LINE
8
BLACK
6
CONTINUOUS
10
249.4363889999999913
20
-96.8780000000000001
11
249.3411509999999964
21
-96.9732379999999949
0
LINE
8
BLACK
6
CONTINUOUS
10
249.3411509999999964
20
-96.9732379999999949
11
249.2459130000000016
21
-96.8780000000000001
0
LINE
8
BLACK
6
CONTINUOUS
10
249.2459130000000016
20
-96.8780000000000001
11
249.3411509999999964
21
-96.7827609999999936
0
LINE
8
BLACK
6
CONTINUOUS
10
249.3411509999999964
20
-96.7827609999999936
11
249.3411509999999964
21
-96.9732379999999949
0
LINE
8
BLACK
6
CONTINUOUS
10
250.6744839999999783
20
-94.9732379999999949
11
250.8649609999999939
21
-94.9732379999999949
0
LINE
8
BLACK
6
CONTINUOUS
10
250.8649609999999939
20
-94.9732379999999949
11
251.0554369999999835
21
-95.0684759999999898
0
LINE
8
BLACK
6
CONTINUOUS
10
251.0554369999999835
20
-95.0684759999999898
11
251.1506749999999784
21
-95.1637139999999988
0
LINE
8
BLACK
6
CONTINUOUS
10
251.1506749999999784
20
-95.1637139999999988
11
251.2459130000000016
21
-95.3541900000000027
0
LINE
8
BLACK
6
CONTINUOUS
10
251.2459130000000016
20
-95.3541900000000027
11
251.3411509999999964
21
-95.7351419999999962
0
LINE
8
BLACK
6
CONTINUOUS
10
251.3411509999999964
20
-95.7351419999999962
11
251.3411509999999964
21
-96.2113329999999962
0
LINE
8
BLACK
6
CONTINUOUS
10
251.3411509999999964
20
-96.2113329999999962
11
251.2459130000000016
21
-96.5922849999999897
0
LINE
8
BLACK
6
CONTINUOUS
10
251.2459130000000016
20
-96.5922849999999897
11
251.1506749999999784
21
-96.7827609999999936
0
LINE
8
BLACK
6
CONTINUOUS
10
251.1506749999999784
20
-96.7827609999999936
11
251.0554369999999835
21
-96.8780000000000001
0
LINE
8
BLACK
6
CONTINUOUS
10
251.0554369999999835
20
-96.8780000000000001
11
250.8649609999999939
21
-96.9732379999999949
0
LINE
8
BLACK
6
CONTINUOUS
10
250.8649609999999939
20
-96.9732379999999949
11
250.6744839999999783
21
-96.9732379999999949
0
LINE
8
BLACK
6
CONTINUOUS
10
250.6744839999999783
20
-96.9732379999999949
11
250.4840079999999887
21
-96.8780000000000001
0
LINE
8
BLACK
6
CONTINUOUS
10
250.4840079999999887
20
-96.8780000000000001
11
250.3887699999999938
21
-96.7827609999999936
0
LINE
8
BLACK
6
CONTINUOUS
10
250.3887699999999938
20
-96.7827609999999936
11
250.293531999999999
21
-96.5922849999999897
0
LINE
8
BLACK
6
CONTINUOUS
10
250.293531999999999
20
-96.5922849999999897
11
250.1982939999999758
21
-96.2113329999999962
0
LINE
8
BLACK
6
CONTINUOUS
10
250.1982939999999758
20
-96.2113329999999962
11
250.1982939999999758
21
-95.7351419999999962
0
LINE
8
BLACK
6
CONTINUOUS
10
250.1982939999999758
20
-95.7351419999999962
11
250.293531999999999
21
-95.3541900000000027
0
LINE
8
BLACK
6
CONTINUOUS
10
250.293531999999999
20
-95.3541900000000027
11
250.3887699999999938
21
-95.1637139999999988
0
LINE
8
BLACK
6
CONTINUOUS
10
250.3887699999999938
20
-95.1637139999999988
11
250.4840079999999887
21
-95.0684759999999898
0
LINE
8
BLACK
6
CONTINUOUS
10
250.4840079999999887
20
-95.0684759999999898
11
250.6744839999999783
21
-94.9732379999999949
0
LINE
8
BLACK
6
CONTINUOUS
10
252.0078179999999861
20
-94.9732379999999949
11
253.2459130000000016
21
-94.9732379999999949
0
LINE
8
BLACK
6
CONTINUOUS
10
253.2459130000000016
20
-94.9732379999999949
11
252.5792459999999835
21
-95.7351419999999962
0
LINE
8
BLACK
6
CONTINUOUS
10
252.5792459999999835
20
-95.7351419999999962
11
252.8649609999999939
21
-95.7351419999999962
0
LINE
8
BLACK
6
CONTINUOUS
10
252.8649609999999939
20
-95.7351419999999962
11
253.0554369999999835
21
-95.830379999999991
0
LINE
8
BLACK
6
CONTINUOUS
10
253.0554369999999835
20
-95.830379999999991
11
253.1506749999999784
21
-95.9256189999999975
0
LINE
8
BLACK
6
CONTINUOUS
10
253.1506749999999784
20
-95.9256189999999975
11
253.2459130000000016
21
-96.1160950000000014
0
LINE
8
BLACK
6
CONTINUOUS
10
253.2459130000000016
20
-96.1160950000000014
11
253.2459130000000016
21
-96.5922849999999897
0
LINE
8
BLACK
6
CONTINUOUS
10
253.2459130000000016
20
-96.5922849999999897
11
253.1506749999999784
21
-96.7827609999999936
0
LINE
8
BLACK
6
CONTINUOUS
10
253.1506749999999784
20
-96.7827609999999936
11
253.0554369999999835
21
-96.8780000000000001
0
LINE
8
BLACK
6
CONTINUOUS
10
253.0554369999999835
20
-96.8780000000000001
11
252.8649609999999939
21
-96.9732379999999949
0
LINE
8
BLACK
6
CONTINUOUS
10
252.8649609999999939
20
-96.9732379999999949
11
252.293531999999999
21
-96.9732379999999949
0
LINE
8
BLACK
6
CONTINUOUS
10
252.293531999999999
20
-96.9732379999999949
11
252.1030559999999809
21
-96.8780000000000001
0
LINE
8
BLACK
6
CONTINUOUS
10
252.1030559999999809
20
-96.8780000000000001
11
252.0078179999999861
21
-96.7827609999999936
0
LINE
8
BLACK
6
CONTINUOUS
10
254.1982939999999758
20
-96.9732379999999949
11
254.5792459999999835
21
-96.9732379999999949
0
LINE
8
BLACK
6
CONTINUOUS
10
254.5792459999999835
20
-96.9732379999999949
11
254.769722999999999
21
-96.8780000000000001
0
LINE
8
BLACK
6
CONTINUOUS
10
254.769722999999999
20
-96.8780000000000001
11
254.8649609999999939
21
-96.7827609999999936
0
LINE
8
BLACK
6
CONTINUOUS
10
254.8649609999999939
20
-96.7827609999999936
11
255.0554369999999835
21
-96.4970469999999949
0
LINE
8
BLACK
6
CONTINUOUS
10
255.0554369999999835
20
-96.4970469999999949
11
255.1506749999999784
21
-96.1160950000000014
0
LINE
8
BLACK
6
CONTINUOUS
10
255.1506749999999784
20
-96.1160950000000014
11
255.1506749999999784
21
-95.3541900000000027
0
LINE
8
BLACK
6
CONTINUOUS
10
255.1506749999999784
20
-95.3541900000000027
11
255.0554369999999835
21
-95.1637139999999988
0
LINE
8
BLACK
6
CONTINUOUS
10
255.0554369999999835
20
-95.1637139999999988
11
254.9601989999999887
21
-95.0684759999999898
0
LINE
8
BLACK
6
CONTINUOUS
10
254.9601989999999887
20
-95.0684759999999898
11
254.769722999999999
21
-94.9732379999999949
0
LINE
8
BLACK
6
CONTINUOUS
10
254.769722999999999
20
-94.9732379999999949
11
254.3887699999999938
21
-94.9732379999999949
0
LINE
8
BLACK
6
CONTINUOUS
10
254.3887699999999938
20
-94.9732379999999949
11
254.1982939999999758
21
-95.0684759999999898
0
LINE
8
BLACK
6
CONTINUOUS
10
254.1982939999999758
20
-95.0684759999999898
11
254.1030559999999809
21
-95.1637139999999988
0
LINE
8
BLACK
6
CONTINUOUS
10
254.1030559999999809
20
-95.1637139999999988
11
254.0078179999999861
21
-95.3541900000000027
0
LINE
8
BLACK
6
CONTINUOUS
10
254.0078179999999861
20
-95.3541900000000027
11
254.0078179999999861
21
-95.830379999999991
0
LINE
8
BLACK
6
CONTINUOUS
10
254.0078179999999861
20
-95.830379999999991
11
254.1030559999999809
21
-96.0208569999999924
0
LINE
8
BLACK
6
CONTINUOUS
10
254.1030559999999809
20
-96.0208569999999924
11
254.1982939999999758
21
-96.1160950000000014
0
LINE
8
BLACK
6
CONTINUOUS
10
254.1982939999999758
20
-96.1160950000000014
11
254.3887699999999938
21
-96.2113329999999962
0
LINE
8
BLACK
6
CONTINUOUS
10
254.3887699999999938
20
-96.2113329999999962
11
254.769722999999999
21
-96.2113329999999962
0
LINE
8
BLACK
6
CONTINUOUS
10
254.769722999999999
20
-96.2113329999999962
11
254.9601989999999887
21
-96.1160950000000014
0
LINE
8
BLACK
6
CONTINUOUS
10
254.9601989999999887
20
-96.1160950000000014
11
255.0554369999999835
21
-96.0208569999999924
0
LINE
8
BLACK
6
CONTINUOUS
10
255.0554369999999835
20
-96.0208569999999924
11
255.1506749999999784
21
-95.830379999999991
0
LINE
8
BLACK
6
CONTINUOUS
10
256.8649609999999939
20
-95.6399040000000014
11
256.8649609999999939
21
-96.9732379999999949
0
LINE
8
BLACK
6
CONTINUOUS
10
256.3887699999999654
20
-94.8780000000000001
11
255.9125799999999913
21
-96.306570999999991
0
LINE
8
BLACK
6
CONTINUOUS
10
255.9125799999999913
20
-96.306570999999991
11
257.1506749999999784
21
-96.306570999999991
0
LINE
8
BLACK
6
CONTINUOUS
10
257.8173419999999965
20
-94.9732379999999949
11
257.8173419999999965
21
-95.3541900000000027
0
LINE
8
BLACK
6
CONTINUOUS
10
258.5792470000000094
20
-94.9732379999999949
11
258.5792470000000094
21
-95.3541900000000027
0
LINE
8
BLACK
6
CONTINUOUS
10
261.5316290000000095
20
-97.7351419999999962
11
261.4363899999999603
21
-97.6399040000000014
0
LINE
8
BLACK
6
CONTINUOUS
10
261.4363899999999603
20
-97.6399040000000014
11
261.2459139999999707
21
-97.3541900000000027
0
LINE
8
BLACK
6
CONTINUOUS
10
261.2459139999999707
20
-97.3541900000000027
11
261.1506759999999758
21
-97.1637139999999988
0
LINE
8
BLACK
6
CONTINUOUS
10
261.1506759999999758
20
-97.1637139999999988
11
261.055437999999981
21
-96.8780000000000001
0
LINE
8
BLACK
6
CONTINUOUS
10
261.055437999999981
20
-96.8780000000000001
11
260.9601999999999862
21
-96.4018090000000001
0
LINE
8
BLACK
6
CONTINUOUS
10
260.9601999999999862
20
-96.4018090000000001
11
260.9601999999999862
21
-96.0208569999999924
0
LINE
8
BLACK
6
CONTINUOUS
10
260.9601999999999862
20
-96.0208569999999924
11
261.055437999999981
21
-95.5446659999999923
0
LINE
8
BLACK
6
CONTINUOUS
10
261.055437999999981
20
-95.5446659999999923
11
261.1506759999999758
21
-95.2589519999999936
0
LINE
8
BLACK
6
CONTINUOUS
10
261.1506759999999758
20
-95.2589519999999936
11
261.2459139999999707
21
-95.0684759999999898
0
LINE
8
BLACK
6
CONTINUOUS
10
261.2459139999999707
20
-95.0684759999999898
11
261.4363899999999603
21
-94.7827609999999936
0
LINE
8
BLACK
6
CONTINUOUS
10
261.4363899999999603
20
-94.7827609999999936
11
261.5316290000000095
21
-94.6875229999999988
0
LINE
8
BLACK
6
CONTINUOUS
10
262.5792470000000094
20
-95.830379999999991
11
262.3887709999999629
21
-95.7351419999999962
0
LINE
8
BLACK
6
CONTINUOUS
10
262.3887709999999629
20
-95.7351419999999962
11
262.2935329999999681
21
-95.6399040000000014
0
LINE
8
BLACK
6
CONTINUOUS
10
262.2935329999999681
20
-95.6399040000000014
11
262.1982949999999732
21
-95.4494279999999975
0
LINE
8
BLACK
6
CONTINUOUS
10
262.1982949999999732
20
-95.4494279999999975
11
262.1982949999999732
21
-95.3541900000000027
0
LINE
8
BLACK
6
CONTINUOUS
10
262.1982949999999732
20
-95.3541900000000027
11
262.2935329999999681
21
-95.1637139999999988
0
LINE
8
BLACK
6
CONTINUOUS
10
262.2935329999999681
20
-95.1637139999999988
11
262.3887709999999629
21
-95.0684759999999898
0
LINE
8
BLACK
6
CONTINUOUS
10
262.3887709999999629
20
-95.0684759999999898
11
262.5792470000000094
21
-94.9732379999999949
0
LINE
8
BLACK
6
CONTINUOUS
10
262.5792470000000094
20
-94.9732379999999949
11
262.9601999999999862
21
-94.9732379999999949
0
LINE
8
BLACK
6
CONTINUOUS
10
262.9601999999999862
20
-94.9732379999999949
11
263.1506759999999758
21
-95.0684759999999898
0
LINE
8
BLACK
6
CONTINUOUS
10
263.1506759999999758
20
-95.0684759999999898
11
263.2459139999999707
21
-95.1637139999999988
0
LINE
8
BLACK
6
CONTINUOUS
10
263.2459139999999707
20
-95.1637139999999988
11
263.3411519999999655
21
-95.3541900000000027
0
LINE
8
BLACK
6
CONTINUOUS
10
263.3411519999999655
20
-95.3541900000000027
11
263.3411519999999655
21
-95.4494279999999975
0
LINE
8
BLACK
6
CONTINUOUS
10
263.3411519999999655
20
-95.4494279999999975
11
263.2459139999999707
21
-95.6399040000000014
0
LINE
8
BLACK
6
CONTINUOUS
10
263.2459139999999707
20
-95.6399040000000014
11
263.1506759999999758
21
-95.7351419999999962
0
LINE
8
BLACK
6
CONTINUOUS
10
263.1506759999999758
20
-95.7351419999999962
11
262.9601999999999862
21
-95.830379999999991
0
LINE
8
BLACK
6
CONTINUOUS
10
262.9601999999999862
20
-95.830379999999991
11
262.5792470000000094
21
-95.830379999999991
0
LINE
8
BLACK
6
CONTINUOUS
10
262.5792470000000094
20
-95.830379999999991
11
262.3887709999999629
21
-95.9256189999999975
0
LINE
8
BLACK
6
CONTINUOUS
10
262.3887709999999629
20
-95.9256189999999975
11
262.2935329999999681
21
-96.0208569999999924
0
LINE
8
BLACK
6
CONTINUOUS
10
262.2935329999999681
20
-96.0208569999999924
11
262.1982949999999732
21
-96.2113329999999962
0
LINE
8
BLACK
6
CONTINUOUS
10
262.1982949999999732
20
-96.2113329999999962
11
262.1982949999999732
21
-96.5922849999999897
0
LINE
8
BLACK
6
CONTINUOUS
10
262.1982949999999732
20
-96.5922849999999897
11
262.2935329999999681
21
-96.7827609999999936
0
LINE
8
BLACK
6
CONTINUOUS
10
262.2935329999999681
20
-96.7827609999999936
11
262.3887709999999629
21
-96.8780000000000001
0
LINE
8
BLACK
6
CONTINUOUS
10
262.3887709999999629
20
-96.8780000000000001
11
262.5792470000000094
21
-96.9732379999999949
0
LINE
8
BLACK
6
CONTINUOUS
10
262.5792470000000094
20
-96.9732379999999949
11
262.9601999999999862
21
-96.9732379999999949
0
LINE
8
BLACK
6
CONTINUOUS
10
262.9601999999999862
20
-96.9732379999999949
11
263.1506759999999758
21
-96.8780000000000001
0
LINE
8
BLACK
6
CONTINUOUS
10
263.1506759999999758
20
-96.8780000000000001
11
263.2459139999999707
21
-96.7827609999999936
0
LINE
8
BLACK
6
CONTINUOUS
10
263.2459139999999707
20
-96.7827609999999936
11
263.3411519999999655
21
-96.5922849999999897
0
LINE
8
BLACK
6
CONTINUOUS
10
263.3411519999999655
20
-96.5922849999999897
11
263.3411519999999655
21
-96.2113329999999962
0
LINE
8
BLACK
6
CONTINUOUS
10
263.3411519999999655
20
-96.2113329999999962
11
263.2459139999999707
21
-96.0208569999999924
0
LINE
8
BLACK
6
CONTINUOUS
10
263.2459139999999707
20
-96.0208569999999924
11
263.1506759999999758
21
-95.9256189999999975
0
LINE
8
BLACK
6
CONTINUOUS
10
263.1506759999999758
20
-95.9256189999999975
11
262.9601999999999862
21
-95.830379999999991
0
LINE
8
BLACK
6
CONTINUOUS
10
264.1030569999999784
20
-95.1637139999999988
11
264.1982949999999732
21
-95.0684759999999898
0
LINE
8
BLACK
6
CONTINUOUS
10
264.1982949999999732
20
-95.0684759999999898
11
264.3887709999999629
21
-94.9732379999999949
0
LINE
8
BLACK
6
CONTINUOUS
10
264.3887709999999629
20
-94.9732379999999949
11
264.8649619999999913
21
-94.9732379999999949
0
LINE
8
BLACK
6
CONTINUOUS
10
264.8649619999999913
20
-94.9732379999999949
11
265.055437999999981
21
-95.0684759999999898
0
LINE
8
BLACK
6
CONTINUOUS
10
265.055437999999981
20
-95.0684759999999898
11
265.1506759999999758
21
-95.1637139999999988
0
LINE
8
BLACK
6
CONTINUOUS
10
265.1506759999999758
20
-95.1637139999999988
11
265.2459139999999707
21
-95.3541900000000027
0
LINE
8
BLACK
6
CONTINUOUS
10
265.2459139999999707
20
-95.3541900000000027
11
265.2459139999999707
21
-95.5446659999999923
0
LINE
8
BLACK
6
CONTINUOUS
10
265.2459139999999707
20
-95.5446659999999923
11
265.1506759999999758
21
-95.830379999999991
0
LINE
8
BLACK
6
CONTINUOUS
10
265.1506759999999758
20
-95.830379999999991
11
264.0078189999999836
21
-96.9732379999999949
0
LINE
8
BLACK
6
CONTINUOUS
10
264.0078189999999836
20
-96.9732379999999949
11
265.2459139999999707
21
-96.9732379999999949
0
LINE
8
BLACK
6
CONTINUOUS
10
267.6268670000000043
20
-96.9732379999999949
11
267.6268670000000043
21
-94.9732379999999949
0
LINE
8
BLACK
6
CONTINUOUS
10
268.484010000000012
20
-96.9732379999999949
11
268.484010000000012
21
-95.9256189999999975
0
LINE
8
BLACK
6
CONTINUOUS
10
268.484010000000012
20
-95.9256189999999975
11
268.3887719999999604
21
-95.7351419999999962
0
LINE
8
BLACK
6
CONTINUOUS
10
268.3887719999999604
20
-95.7351419999999962
11
268.1982959999999707
21
-95.6399040000000014
0
LINE
8
BLACK
6
CONTINUOUS
10
268.1982959999999707
20
-95.6399040000000014
11
267.9125809999999888
21
-95.6399040000000014
0
LINE
8
BLACK
6
CONTINUOUS
10
267.9125809999999888
20
-95.6399040000000014
11
267.7221049999999991
21
-95.7351419999999962
0
LINE
8
BLACK
6
CONTINUOUS
10
267.7221049999999991
20
-95.7351419999999962
11
267.6268670000000043
21
-95.830379999999991
0
LINE
8
BLACK
6
CONTINUOUS
10
269.7221049999999991
20
-96.9732379999999949
11
269.5316290000000095
21
-96.8780000000000001
0
LINE
8
BLACK
6
CONTINUOUS
10
269.5316290000000095
20
-96.8780000000000001
11
269.4363910000000146
21
-96.7827609999999936
0
LINE
8
BLACK
6
CONTINUOUS
10
269.4363910000000146
20
-96.7827609999999936
11
269.341152999999963
21
-96.5922849999999897
0
LINE
8
BLACK
6
CONTINUOUS
10
269.341152999999963
20
-96.5922849999999897
11
269.341152999999963
21
-96.0208569999999924
0
LINE
8
BLACK
6
CONTINUOUS
10
269.341152999999963
20
-96.0208569999999924
11
269.4363910000000146
21
-95.830379999999991
0
LINE
8
BLACK
6
CONTINUOUS
10
269.4363910000000146
20
-95.830379999999991
11
269.5316290000000095
21
-95.7351419999999962
0
LINE
8
BLACK
6
CONTINUOUS
10
269.5316290000000095
20
-95.7351419999999962
11
269.7221049999999991
21
-95.6399040000000014
0
LINE
8
BLACK
6
CONTINUOUS
10
269.7221049999999991
20
-95.6399040000000014
11
270.0078199999999811
21
-95.6399040000000014
0
LINE
8
BLACK
6
CONTINUOUS
10
270.0078199999999811
20
-95.6399040000000014
11
270.1982959999999707
21
-95.7351419999999962
0
LINE
8
BLACK
6
CONTINUOUS
10
270.1982959999999707
20
-95.7351419999999962
11
270.2935339999999655
21
-95.830379999999991
0
LINE
8
BLACK
6
CONTINUOUS
10
270.2935339999999655
20
-95.830379999999991
11
270.3887719999999604
21
-96.0208569999999924
0
LINE
8
BLACK
6
CONTINUOUS
10
270.3887719999999604
20
-96.0208569999999924
11
270.3887719999999604
21
-96.5922849999999897
0
LINE
8
BLACK
6
CONTINUOUS
10
270.3887719999999604
20
-96.5922849999999897
11
270.2935339999999655
21
-96.7827609999999936
0
LINE
8
BLACK
6
CONTINUOUS
10
270.2935339999999655
20
-96.7827609999999936
11
270.1982959999999707
21
-96.8780000000000001
0
LINE
8
BLACK
6
CONTINUOUS
10
270.1982959999999707
20
-96.8780000000000001
11
270.0078199999999811
21
-96.9732379999999949
0
LINE
8
BLACK
6
CONTINUOUS
10
270.0078199999999811
20
-96.9732379999999949
11
269.7221049999999991
21
-96.9732379999999949
0
LINE
8
BLACK
6
CONTINUOUS
10
271.5316290000000095
20
-96.9732379999999949
11
271.341152999999963
21
-96.8780000000000001
0
LINE
8
BLACK
6
CONTINUOUS
10
271.341152999999963
20
-96.8780000000000001
11
271.2459149999999681
21
-96.6875229999999988
0
LINE
8
BLACK
6
CONTINUOUS
10
271.2459149999999681
20
-96.6875229999999988
11
271.2459149999999681
21
-94.9732379999999949
0
LINE
8
BLACK
6
CONTINUOUS
10
273.0554389999999785
20
-96.8780000000000001
11
272.8649629999999888
21
-96.9732379999999949
0
LINE
8
BLACK
6
CONTINUOUS
10
272.8649629999999888
20
-96.9732379999999949
11
272.484010000000012
21
-96.9732379999999949
0
LINE
8
BLACK
6
CONTINUOUS
10
272.484010000000012
20
-96.9732379999999949
11
272.2935339999999655
21
-96.8780000000000001
0
LINE
8
BLACK
6
CONTINUOUS
10
272.2935339999999655
20
-96.8780000000000001
11
272.1982959999999707
21
-96.6875229999999988
0
LINE
8
BLACK
6
CONTINUOUS
10
272.1982959999999707
20
-96.6875229999999988
11
272.1982959999999707
21
-95.9256189999999975
0
LINE
8
BLACK
6
CONTINUOUS
10
272.1982959999999707
20
-95.9256189999999975
11
272.2935339999999655
21
-95.7351419999999962
0
LINE
8
BLACK
6
CONTINUOUS
10
272.2935339999999655
20
-95.7351419999999962
11
272.484010000000012
21
-95.6399040000000014
0
LINE
8
BLACK
6
CONTINUOUS
10
272.484010000000012
20
-95.6399040000000014
11
272.8649629999999888
21
-95.6399040000000014
0
LINE
8
BLACK
6
CONTINUOUS
10
272.8649629999999888
20
-95.6399040000000014
11
273.0554389999999785
21
-95.7351419999999962
0
LINE
8
BLACK
6
CONTINUOUS
10
273.0554389999999785
20
-95.7351419999999962
11
273.1506769999999733
21
-95.9256189999999975
0
LINE
8
BLACK
6
CONTINUOUS
10
273.1506769999999733
20
-95.9256189999999975
11
273.1506769999999733
21
-96.1160950000000014
0
LINE
8
BLACK
6
CONTINUOUS
10
273.1506769999999733
20
-96.1160950000000014
11
272.1982959999999707
21
-96.306570999999991
0
LINE
8
BLACK
6
CONTINUOUS
10
273.9125819999999862
20
-96.8780000000000001
11
274.1030579999999759
21
-96.9732379999999949
0
LINE
8
BLACK
6
CONTINUOUS
10
274.1030579999999759
20
-96.9732379999999949
11
274.484010000000012
21
-96.9732379999999949
0
LINE
8
BLACK
6
CONTINUOUS
10
274.484010000000012
20
-96.9732379999999949
11
274.6744869999999992
21
-96.8780000000000001
0
LINE
8
BLACK
6
CONTINUOUS
10
274.6744869999999992
20
-96.8780000000000001
11
274.769724999999994
21
-96.6875229999999988
0
LINE
8
BLACK
6
CONTINUOUS
10
274.769724999999994
20
-96.6875229999999988
11
274.769724999999994
21
-96.5922849999999897
0
LINE
8
BLACK
6
CONTINUOUS
10
274.769724999999994
20
-96.5922849999999897
11
274.6744869999999992
21
-96.4018090000000001
0
LINE
8
BLACK
6
CONTINUOUS
10
274.6744869999999992
20
-96.4018090000000001
11
274.484010000000012
21
-96.306570999999991
0
LINE
8
BLACK
6
CONTINUOUS
10
274.484010000000012
20
-96.306570999999991
11
274.1982959999999707
21
-96.306570999999991
0
LINE
8
BLACK
6
CONTINUOUS
10
274.1982959999999707
20
-96.306570999999991
11
274.0078199999999811
21
-96.2113329999999962
0
LINE
8
BLACK
6
CONTINUOUS
10
274.0078199999999811
20
-96.2113329999999962
11
273.9125819999999862
21
-96.0208569999999924
0
LINE
8
BLACK
6
CONTINUOUS
10
273.9125819999999862
20
-96.0208569999999924
11
273.9125819999999862
21
-95.9256189999999975
0
LINE
8
BLACK
6
CONTINUOUS
10
273.9125819999999862
20
-95.9256189999999975
11
274.0078199999999811
21
-95.7351419999999962
0
LINE
8
BLACK
6
CONTINUOUS
10
274.0078199999999811
20
-95.7351419999999962
11
274.1982959999999707
21
-95.6399040000000014
0
LINE
8
BLACK
6
CONTINUOUS
10
274.1982959999999707
20
-95.6399040000000014
11
274.484010000000012
21
-95.6399040000000014
0
LINE
8
BLACK
6
CONTINUOUS
10
274.484010000000012
20
-95.6399040000000014
11
274.6744869999999992
21
-95.7351419999999962
0
LINE
8
BLACK
6
CONTINUOUS
10
275.4363920000000121
20
-97.7351419999999962
11
275.5316300000000069
21
-97.6399040000000014
0
LINE
8
BLACK
6
CONTINUOUS
10
275.5316300000000069
20
-97.6399040000000014
11
275.7221059999999966
21
-97.3541900000000027
0
LINE
8
BLACK
6
CONTINUOUS
10
275.7221059999999966
20
-97.3541900000000027
11
275.8173439999999914
21
-97.1637139999999988
0
LINE
8
BLACK
6
CONTINUOUS
10
275.8173439999999914
20
-97.1637139999999988
11
275.9125819999999862
21
-96.8780000000000001
0
LINE
8
BLACK
6
CONTINUOUS
10
275.9125819999999862
20
-96.8780000000000001
11
276.0078199999999811
21
-96.4018090000000001
0
LINE
8
BLACK
6
CONTINUOUS
10
276.0078199999999811
20
-96.4018090000000001
11
276.0078199999999811
21
-96.0208569999999924
0
LINE
8
BLACK
6
CONTINUOUS
10
276.0078199999999811
20
-96.0208569999999924
11
275.9125819999999862
21
-95.5446659999999923
0
LINE
8
BLACK
6
CONTINUOUS
10
275.9125819999999862
20
-95.5446659999999923
11
275.8173439999999914
21
-95.2589519999999936
0
LINE
8
BLACK
6
CONTINUOUS
10
275.8173439999999914
20
-95.2589519999999936
11
275.7221059999999966
21
-95.0684759999999898
0
LINE
8
BLACK
6
CONTINUOUS
10
275.7221059999999966
20
-95.0684759999999898
11
275.5316300000000069
21
-94.7827609999999936
0
LINE
8
BLACK
6
CONTINUOUS
10
275.5316300000000069
20
-94.7827609999999936
11
275.4363920000000121
21
-94.6875229999999988
  0
ENDSEC
  0
EOF
