%TF.GenerationSoftware,KiCad,Pcbnew,7.0.10*%
%TF.CreationDate,2024-01-28T16:57:24+01:00*%
%TF.ProjectId,pcb,7063622e-6b69-4636-9164-5f7063625858,rev?*%
%TF.SameCoordinates,Original*%
%TF.FileFunction,Legend,Bot*%
%TF.FilePolarity,Positive*%
%FSLAX46Y46*%
G04 Gerber Fmt 4.6, Leading zero omitted, Abs format (unit mm)*
G04 Created by KiCad (PCBNEW 7.0.10) date 2024-01-28 16:57:24*
%MOMM*%
%LPD*%
G01*
G04 APERTURE LIST*
%ADD10C,0.150000*%
%ADD11C,0.120000*%
G04 APERTURE END LIST*
D10*
X265611266Y-62675219D02*
X266087456Y-62675219D01*
X266087456Y-62675219D02*
X266087456Y-61675219D01*
X264754123Y-62675219D02*
X265325551Y-62675219D01*
X265039837Y-62675219D02*
X265039837Y-61675219D01*
X265039837Y-61675219D02*
X265135075Y-61818076D01*
X265135075Y-61818076D02*
X265230313Y-61913314D01*
X265230313Y-61913314D02*
X265325551Y-61960933D01*
X235218266Y-41162619D02*
X235551599Y-40686428D01*
X235789694Y-41162619D02*
X235789694Y-40162619D01*
X235789694Y-40162619D02*
X235408742Y-40162619D01*
X235408742Y-40162619D02*
X235313504Y-40210238D01*
X235313504Y-40210238D02*
X235265885Y-40257857D01*
X235265885Y-40257857D02*
X235218266Y-40353095D01*
X235218266Y-40353095D02*
X235218266Y-40495952D01*
X235218266Y-40495952D02*
X235265885Y-40591190D01*
X235265885Y-40591190D02*
X235313504Y-40638809D01*
X235313504Y-40638809D02*
X235408742Y-40686428D01*
X235408742Y-40686428D02*
X235789694Y-40686428D01*
X234361123Y-40495952D02*
X234361123Y-41162619D01*
X234599218Y-40115000D02*
X234837313Y-40829285D01*
X234837313Y-40829285D02*
X234218266Y-40829285D01*
X275551219Y-25452266D02*
X275503600Y-25357028D01*
X275503600Y-25357028D02*
X275408361Y-25309409D01*
X275408361Y-25309409D02*
X274551219Y-25309409D01*
X275551219Y-26261790D02*
X275027409Y-26261790D01*
X275027409Y-26261790D02*
X274932171Y-26214171D01*
X274932171Y-26214171D02*
X274884552Y-26118933D01*
X274884552Y-26118933D02*
X274884552Y-25928457D01*
X274884552Y-25928457D02*
X274932171Y-25833219D01*
X275503600Y-26261790D02*
X275551219Y-26166552D01*
X275551219Y-26166552D02*
X275551219Y-25928457D01*
X275551219Y-25928457D02*
X275503600Y-25833219D01*
X275503600Y-25833219D02*
X275408361Y-25785600D01*
X275408361Y-25785600D02*
X275313123Y-25785600D01*
X275313123Y-25785600D02*
X275217885Y-25833219D01*
X275217885Y-25833219D02*
X275170266Y-25928457D01*
X275170266Y-25928457D02*
X275170266Y-26166552D01*
X275170266Y-26166552D02*
X275122647Y-26261790D01*
X275503600Y-26690362D02*
X275551219Y-26785600D01*
X275551219Y-26785600D02*
X275551219Y-26976076D01*
X275551219Y-26976076D02*
X275503600Y-27071314D01*
X275503600Y-27071314D02*
X275408361Y-27118933D01*
X275408361Y-27118933D02*
X275360742Y-27118933D01*
X275360742Y-27118933D02*
X275265504Y-27071314D01*
X275265504Y-27071314D02*
X275217885Y-26976076D01*
X275217885Y-26976076D02*
X275217885Y-26833219D01*
X275217885Y-26833219D02*
X275170266Y-26737981D01*
X275170266Y-26737981D02*
X275075028Y-26690362D01*
X275075028Y-26690362D02*
X275027409Y-26690362D01*
X275027409Y-26690362D02*
X274932171Y-26737981D01*
X274932171Y-26737981D02*
X274884552Y-26833219D01*
X274884552Y-26833219D02*
X274884552Y-26976076D01*
X274884552Y-26976076D02*
X274932171Y-27071314D01*
X275503600Y-27928457D02*
X275551219Y-27833219D01*
X275551219Y-27833219D02*
X275551219Y-27642743D01*
X275551219Y-27642743D02*
X275503600Y-27547505D01*
X275503600Y-27547505D02*
X275408361Y-27499886D01*
X275408361Y-27499886D02*
X275027409Y-27499886D01*
X275027409Y-27499886D02*
X274932171Y-27547505D01*
X274932171Y-27547505D02*
X274884552Y-27642743D01*
X274884552Y-27642743D02*
X274884552Y-27833219D01*
X274884552Y-27833219D02*
X274932171Y-27928457D01*
X274932171Y-27928457D02*
X275027409Y-27976076D01*
X275027409Y-27976076D02*
X275122647Y-27976076D01*
X275122647Y-27976076D02*
X275217885Y-27499886D01*
X275551219Y-28404648D02*
X274884552Y-28404648D01*
X275075028Y-28404648D02*
X274979790Y-28452267D01*
X274979790Y-28452267D02*
X274932171Y-28499886D01*
X274932171Y-28499886D02*
X274884552Y-28595124D01*
X274884552Y-28595124D02*
X274884552Y-28690362D01*
X275646457Y-28785601D02*
X275646457Y-29547505D01*
X275027409Y-30118934D02*
X275075028Y-30261791D01*
X275075028Y-30261791D02*
X275122647Y-30309410D01*
X275122647Y-30309410D02*
X275217885Y-30357029D01*
X275217885Y-30357029D02*
X275360742Y-30357029D01*
X275360742Y-30357029D02*
X275455980Y-30309410D01*
X275455980Y-30309410D02*
X275503600Y-30261791D01*
X275503600Y-30261791D02*
X275551219Y-30166553D01*
X275551219Y-30166553D02*
X275551219Y-29785601D01*
X275551219Y-29785601D02*
X274551219Y-29785601D01*
X274551219Y-29785601D02*
X274551219Y-30118934D01*
X274551219Y-30118934D02*
X274598838Y-30214172D01*
X274598838Y-30214172D02*
X274646457Y-30261791D01*
X274646457Y-30261791D02*
X274741695Y-30309410D01*
X274741695Y-30309410D02*
X274836933Y-30309410D01*
X274836933Y-30309410D02*
X274932171Y-30261791D01*
X274932171Y-30261791D02*
X274979790Y-30214172D01*
X274979790Y-30214172D02*
X275027409Y-30118934D01*
X275027409Y-30118934D02*
X275027409Y-29785601D01*
X275551219Y-31309410D02*
X275551219Y-30737982D01*
X275551219Y-31023696D02*
X274551219Y-31023696D01*
X274551219Y-31023696D02*
X274694076Y-30928458D01*
X274694076Y-30928458D02*
X274789314Y-30833220D01*
X274789314Y-30833220D02*
X274836933Y-30737982D01*
X245393666Y-51398819D02*
X245726999Y-50922628D01*
X245965094Y-51398819D02*
X245965094Y-50398819D01*
X245965094Y-50398819D02*
X245584142Y-50398819D01*
X245584142Y-50398819D02*
X245488904Y-50446438D01*
X245488904Y-50446438D02*
X245441285Y-50494057D01*
X245441285Y-50494057D02*
X245393666Y-50589295D01*
X245393666Y-50589295D02*
X245393666Y-50732152D01*
X245393666Y-50732152D02*
X245441285Y-50827390D01*
X245441285Y-50827390D02*
X245488904Y-50875009D01*
X245488904Y-50875009D02*
X245584142Y-50922628D01*
X245584142Y-50922628D02*
X245965094Y-50922628D01*
X244536523Y-50398819D02*
X244726999Y-50398819D01*
X244726999Y-50398819D02*
X244822237Y-50446438D01*
X244822237Y-50446438D02*
X244869856Y-50494057D01*
X244869856Y-50494057D02*
X244965094Y-50636914D01*
X244965094Y-50636914D02*
X245012713Y-50827390D01*
X245012713Y-50827390D02*
X245012713Y-51208342D01*
X245012713Y-51208342D02*
X244965094Y-51303580D01*
X244965094Y-51303580D02*
X244917475Y-51351200D01*
X244917475Y-51351200D02*
X244822237Y-51398819D01*
X244822237Y-51398819D02*
X244631761Y-51398819D01*
X244631761Y-51398819D02*
X244536523Y-51351200D01*
X244536523Y-51351200D02*
X244488904Y-51303580D01*
X244488904Y-51303580D02*
X244441285Y-51208342D01*
X244441285Y-51208342D02*
X244441285Y-50970247D01*
X244441285Y-50970247D02*
X244488904Y-50875009D01*
X244488904Y-50875009D02*
X244536523Y-50827390D01*
X244536523Y-50827390D02*
X244631761Y-50779771D01*
X244631761Y-50779771D02*
X244822237Y-50779771D01*
X244822237Y-50779771D02*
X244917475Y-50827390D01*
X244917475Y-50827390D02*
X244965094Y-50875009D01*
X244965094Y-50875009D02*
X245012713Y-50970247D01*
X279397885Y-76299266D02*
X278635981Y-76299266D01*
X279016933Y-76680219D02*
X279016933Y-75918314D01*
X277635981Y-76680219D02*
X278207409Y-76680219D01*
X277921695Y-76680219D02*
X277921695Y-75680219D01*
X277921695Y-75680219D02*
X278016933Y-75823076D01*
X278016933Y-75823076D02*
X278112171Y-75918314D01*
X278112171Y-75918314D02*
X278207409Y-75965933D01*
X276731219Y-75680219D02*
X277207409Y-75680219D01*
X277207409Y-75680219D02*
X277255028Y-76156409D01*
X277255028Y-76156409D02*
X277207409Y-76108790D01*
X277207409Y-76108790D02*
X277112171Y-76061171D01*
X277112171Y-76061171D02*
X276874076Y-76061171D01*
X276874076Y-76061171D02*
X276778838Y-76108790D01*
X276778838Y-76108790D02*
X276731219Y-76156409D01*
X276731219Y-76156409D02*
X276683600Y-76251647D01*
X276683600Y-76251647D02*
X276683600Y-76489742D01*
X276683600Y-76489742D02*
X276731219Y-76584980D01*
X276731219Y-76584980D02*
X276778838Y-76632600D01*
X276778838Y-76632600D02*
X276874076Y-76680219D01*
X276874076Y-76680219D02*
X277112171Y-76680219D01*
X277112171Y-76680219D02*
X277207409Y-76632600D01*
X277207409Y-76632600D02*
X277255028Y-76584980D01*
X276302647Y-76632600D02*
X276207409Y-76680219D01*
X276207409Y-76680219D02*
X276016933Y-76680219D01*
X276016933Y-76680219D02*
X275921695Y-76632600D01*
X275921695Y-76632600D02*
X275874076Y-76537361D01*
X275874076Y-76537361D02*
X275874076Y-76489742D01*
X275874076Y-76489742D02*
X275921695Y-76394504D01*
X275921695Y-76394504D02*
X276016933Y-76346885D01*
X276016933Y-76346885D02*
X276159790Y-76346885D01*
X276159790Y-76346885D02*
X276255028Y-76299266D01*
X276255028Y-76299266D02*
X276302647Y-76204028D01*
X276302647Y-76204028D02*
X276302647Y-76156409D01*
X276302647Y-76156409D02*
X276255028Y-76061171D01*
X276255028Y-76061171D02*
X276159790Y-76013552D01*
X276159790Y-76013552D02*
X276016933Y-76013552D01*
X276016933Y-76013552D02*
X275921695Y-76061171D01*
X275016933Y-76013552D02*
X275016933Y-76680219D01*
X275445504Y-76013552D02*
X275445504Y-76537361D01*
X275445504Y-76537361D02*
X275397885Y-76632600D01*
X275397885Y-76632600D02*
X275302647Y-76680219D01*
X275302647Y-76680219D02*
X275159790Y-76680219D01*
X275159790Y-76680219D02*
X275064552Y-76632600D01*
X275064552Y-76632600D02*
X275016933Y-76584980D01*
X274540742Y-76013552D02*
X274540742Y-77013552D01*
X274540742Y-76061171D02*
X274445504Y-76013552D01*
X274445504Y-76013552D02*
X274255028Y-76013552D01*
X274255028Y-76013552D02*
X274159790Y-76061171D01*
X274159790Y-76061171D02*
X274112171Y-76108790D01*
X274112171Y-76108790D02*
X274064552Y-76204028D01*
X274064552Y-76204028D02*
X274064552Y-76489742D01*
X274064552Y-76489742D02*
X274112171Y-76584980D01*
X274112171Y-76584980D02*
X274159790Y-76632600D01*
X274159790Y-76632600D02*
X274255028Y-76680219D01*
X274255028Y-76680219D02*
X274445504Y-76680219D01*
X274445504Y-76680219D02*
X274540742Y-76632600D01*
X273635980Y-76013552D02*
X273635980Y-77013552D01*
X273635980Y-76061171D02*
X273540742Y-76013552D01*
X273540742Y-76013552D02*
X273350266Y-76013552D01*
X273350266Y-76013552D02*
X273255028Y-76061171D01*
X273255028Y-76061171D02*
X273207409Y-76108790D01*
X273207409Y-76108790D02*
X273159790Y-76204028D01*
X273159790Y-76204028D02*
X273159790Y-76489742D01*
X273159790Y-76489742D02*
X273207409Y-76584980D01*
X273207409Y-76584980D02*
X273255028Y-76632600D01*
X273255028Y-76632600D02*
X273350266Y-76680219D01*
X273350266Y-76680219D02*
X273540742Y-76680219D01*
X273540742Y-76680219D02*
X273635980Y-76632600D01*
X272588361Y-76680219D02*
X272683599Y-76632600D01*
X272683599Y-76632600D02*
X272731218Y-76537361D01*
X272731218Y-76537361D02*
X272731218Y-75680219D01*
X272302646Y-76013552D02*
X272064551Y-76680219D01*
X271826456Y-76013552D02*
X272064551Y-76680219D01*
X272064551Y-76680219D02*
X272159789Y-76918314D01*
X272159789Y-76918314D02*
X272207408Y-76965933D01*
X272207408Y-76965933D02*
X272302646Y-77013552D01*
X270921694Y-76680219D02*
X271493122Y-76680219D01*
X271207408Y-76680219D02*
X271207408Y-75680219D01*
X271207408Y-75680219D02*
X271302646Y-75823076D01*
X271302646Y-75823076D02*
X271397884Y-75918314D01*
X271397884Y-75918314D02*
X271493122Y-75965933D01*
X256952419Y-49369742D02*
X256476228Y-49036409D01*
X256952419Y-48798314D02*
X255952419Y-48798314D01*
X255952419Y-48798314D02*
X255952419Y-49179266D01*
X255952419Y-49179266D02*
X256000038Y-49274504D01*
X256000038Y-49274504D02*
X256047657Y-49322123D01*
X256047657Y-49322123D02*
X256142895Y-49369742D01*
X256142895Y-49369742D02*
X256285752Y-49369742D01*
X256285752Y-49369742D02*
X256380990Y-49322123D01*
X256380990Y-49322123D02*
X256428609Y-49274504D01*
X256428609Y-49274504D02*
X256476228Y-49179266D01*
X256476228Y-49179266D02*
X256476228Y-48798314D01*
X256952419Y-50322123D02*
X256952419Y-49750695D01*
X256952419Y-50036409D02*
X255952419Y-50036409D01*
X255952419Y-50036409D02*
X256095276Y-49941171D01*
X256095276Y-49941171D02*
X256190514Y-49845933D01*
X256190514Y-49845933D02*
X256238133Y-49750695D01*
X255952419Y-51226885D02*
X255952419Y-50750695D01*
X255952419Y-50750695D02*
X256428609Y-50703076D01*
X256428609Y-50703076D02*
X256380990Y-50750695D01*
X256380990Y-50750695D02*
X256333371Y-50845933D01*
X256333371Y-50845933D02*
X256333371Y-51084028D01*
X256333371Y-51084028D02*
X256380990Y-51179266D01*
X256380990Y-51179266D02*
X256428609Y-51226885D01*
X256428609Y-51226885D02*
X256523847Y-51274504D01*
X256523847Y-51274504D02*
X256761942Y-51274504D01*
X256761942Y-51274504D02*
X256857180Y-51226885D01*
X256857180Y-51226885D02*
X256904800Y-51179266D01*
X256904800Y-51179266D02*
X256952419Y-51084028D01*
X256952419Y-51084028D02*
X256952419Y-50845933D01*
X256952419Y-50845933D02*
X256904800Y-50750695D01*
X256904800Y-50750695D02*
X256857180Y-50703076D01*
X245982857Y-63362219D02*
X246316190Y-62886028D01*
X246554285Y-63362219D02*
X246554285Y-62362219D01*
X246554285Y-62362219D02*
X246173333Y-62362219D01*
X246173333Y-62362219D02*
X246078095Y-62409838D01*
X246078095Y-62409838D02*
X246030476Y-62457457D01*
X246030476Y-62457457D02*
X245982857Y-62552695D01*
X245982857Y-62552695D02*
X245982857Y-62695552D01*
X245982857Y-62695552D02*
X246030476Y-62790790D01*
X246030476Y-62790790D02*
X246078095Y-62838409D01*
X246078095Y-62838409D02*
X246173333Y-62886028D01*
X246173333Y-62886028D02*
X246554285Y-62886028D01*
X245030476Y-63362219D02*
X245601904Y-63362219D01*
X245316190Y-63362219D02*
X245316190Y-62362219D01*
X245316190Y-62362219D02*
X245411428Y-62505076D01*
X245411428Y-62505076D02*
X245506666Y-62600314D01*
X245506666Y-62600314D02*
X245601904Y-62647933D01*
X244649523Y-62457457D02*
X244601904Y-62409838D01*
X244601904Y-62409838D02*
X244506666Y-62362219D01*
X244506666Y-62362219D02*
X244268571Y-62362219D01*
X244268571Y-62362219D02*
X244173333Y-62409838D01*
X244173333Y-62409838D02*
X244125714Y-62457457D01*
X244125714Y-62457457D02*
X244078095Y-62552695D01*
X244078095Y-62552695D02*
X244078095Y-62647933D01*
X244078095Y-62647933D02*
X244125714Y-62790790D01*
X244125714Y-62790790D02*
X244697142Y-63362219D01*
X244697142Y-63362219D02*
X244078095Y-63362219D01*
X245066219Y-24349237D02*
X244066219Y-24349237D01*
X244447171Y-24349237D02*
X244399552Y-24444475D01*
X244399552Y-24444475D02*
X244399552Y-24634951D01*
X244399552Y-24634951D02*
X244447171Y-24730189D01*
X244447171Y-24730189D02*
X244494790Y-24777808D01*
X244494790Y-24777808D02*
X244590028Y-24825427D01*
X244590028Y-24825427D02*
X244875742Y-24825427D01*
X244875742Y-24825427D02*
X244970980Y-24777808D01*
X244970980Y-24777808D02*
X245018600Y-24730189D01*
X245018600Y-24730189D02*
X245066219Y-24634951D01*
X245066219Y-24634951D02*
X245066219Y-24444475D01*
X245066219Y-24444475D02*
X245018600Y-24349237D01*
X245066219Y-25682570D02*
X244542409Y-25682570D01*
X244542409Y-25682570D02*
X244447171Y-25634951D01*
X244447171Y-25634951D02*
X244399552Y-25539713D01*
X244399552Y-25539713D02*
X244399552Y-25349237D01*
X244399552Y-25349237D02*
X244447171Y-25253999D01*
X245018600Y-25682570D02*
X245066219Y-25587332D01*
X245066219Y-25587332D02*
X245066219Y-25349237D01*
X245066219Y-25349237D02*
X245018600Y-25253999D01*
X245018600Y-25253999D02*
X244923361Y-25206380D01*
X244923361Y-25206380D02*
X244828123Y-25206380D01*
X244828123Y-25206380D02*
X244732885Y-25253999D01*
X244732885Y-25253999D02*
X244685266Y-25349237D01*
X244685266Y-25349237D02*
X244685266Y-25587332D01*
X244685266Y-25587332D02*
X244637647Y-25682570D01*
X244399552Y-26015904D02*
X244399552Y-26396856D01*
X244066219Y-26158761D02*
X244923361Y-26158761D01*
X244923361Y-26158761D02*
X245018600Y-26206380D01*
X245018600Y-26206380D02*
X245066219Y-26301618D01*
X245066219Y-26301618D02*
X245066219Y-26396856D01*
X245161457Y-26492095D02*
X245161457Y-27253999D01*
X244399552Y-27492095D02*
X245399552Y-27492095D01*
X244447171Y-27492095D02*
X244399552Y-27587333D01*
X244399552Y-27587333D02*
X244399552Y-27777809D01*
X244399552Y-27777809D02*
X244447171Y-27873047D01*
X244447171Y-27873047D02*
X244494790Y-27920666D01*
X244494790Y-27920666D02*
X244590028Y-27968285D01*
X244590028Y-27968285D02*
X244875742Y-27968285D01*
X244875742Y-27968285D02*
X244970980Y-27920666D01*
X244970980Y-27920666D02*
X245018600Y-27873047D01*
X245018600Y-27873047D02*
X245066219Y-27777809D01*
X245066219Y-27777809D02*
X245066219Y-27587333D01*
X245066219Y-27587333D02*
X245018600Y-27492095D01*
X245066219Y-28396857D02*
X244399552Y-28396857D01*
X244590028Y-28396857D02*
X244494790Y-28444476D01*
X244494790Y-28444476D02*
X244447171Y-28492095D01*
X244447171Y-28492095D02*
X244399552Y-28587333D01*
X244399552Y-28587333D02*
X244399552Y-28682571D01*
X245066219Y-29158762D02*
X245018600Y-29063524D01*
X245018600Y-29063524D02*
X244970980Y-29015905D01*
X244970980Y-29015905D02*
X244875742Y-28968286D01*
X244875742Y-28968286D02*
X244590028Y-28968286D01*
X244590028Y-28968286D02*
X244494790Y-29015905D01*
X244494790Y-29015905D02*
X244447171Y-29063524D01*
X244447171Y-29063524D02*
X244399552Y-29158762D01*
X244399552Y-29158762D02*
X244399552Y-29301619D01*
X244399552Y-29301619D02*
X244447171Y-29396857D01*
X244447171Y-29396857D02*
X244494790Y-29444476D01*
X244494790Y-29444476D02*
X244590028Y-29492095D01*
X244590028Y-29492095D02*
X244875742Y-29492095D01*
X244875742Y-29492095D02*
X244970980Y-29444476D01*
X244970980Y-29444476D02*
X245018600Y-29396857D01*
X245018600Y-29396857D02*
X245066219Y-29301619D01*
X245066219Y-29301619D02*
X245066219Y-29158762D01*
X245066219Y-29920667D02*
X244066219Y-29920667D01*
X244447171Y-29920667D02*
X244399552Y-30015905D01*
X244399552Y-30015905D02*
X244399552Y-30206381D01*
X244399552Y-30206381D02*
X244447171Y-30301619D01*
X244447171Y-30301619D02*
X244494790Y-30349238D01*
X244494790Y-30349238D02*
X244590028Y-30396857D01*
X244590028Y-30396857D02*
X244875742Y-30396857D01*
X244875742Y-30396857D02*
X244970980Y-30349238D01*
X244970980Y-30349238D02*
X245018600Y-30301619D01*
X245018600Y-30301619D02*
X245066219Y-30206381D01*
X245066219Y-30206381D02*
X245066219Y-30015905D01*
X245066219Y-30015905D02*
X245018600Y-29920667D01*
X245018600Y-31206381D02*
X245066219Y-31111143D01*
X245066219Y-31111143D02*
X245066219Y-30920667D01*
X245066219Y-30920667D02*
X245018600Y-30825429D01*
X245018600Y-30825429D02*
X244923361Y-30777810D01*
X244923361Y-30777810D02*
X244542409Y-30777810D01*
X244542409Y-30777810D02*
X244447171Y-30825429D01*
X244447171Y-30825429D02*
X244399552Y-30920667D01*
X244399552Y-30920667D02*
X244399552Y-31111143D01*
X244399552Y-31111143D02*
X244447171Y-31206381D01*
X244447171Y-31206381D02*
X244542409Y-31254000D01*
X244542409Y-31254000D02*
X244637647Y-31254000D01*
X244637647Y-31254000D02*
X244732885Y-30777810D01*
X245066219Y-32206381D02*
X245066219Y-31634953D01*
X245066219Y-31920667D02*
X244066219Y-31920667D01*
X244066219Y-31920667D02*
X244209076Y-31825429D01*
X244209076Y-31825429D02*
X244304314Y-31730191D01*
X244304314Y-31730191D02*
X244351933Y-31634953D01*
X264548857Y-60991419D02*
X264882190Y-60515228D01*
X265120285Y-60991419D02*
X265120285Y-59991419D01*
X265120285Y-59991419D02*
X264739333Y-59991419D01*
X264739333Y-59991419D02*
X264644095Y-60039038D01*
X264644095Y-60039038D02*
X264596476Y-60086657D01*
X264596476Y-60086657D02*
X264548857Y-60181895D01*
X264548857Y-60181895D02*
X264548857Y-60324752D01*
X264548857Y-60324752D02*
X264596476Y-60419990D01*
X264596476Y-60419990D02*
X264644095Y-60467609D01*
X264644095Y-60467609D02*
X264739333Y-60515228D01*
X264739333Y-60515228D02*
X265120285Y-60515228D01*
X263596476Y-60991419D02*
X264167904Y-60991419D01*
X263882190Y-60991419D02*
X263882190Y-59991419D01*
X263882190Y-59991419D02*
X263977428Y-60134276D01*
X263977428Y-60134276D02*
X264072666Y-60229514D01*
X264072666Y-60229514D02*
X264167904Y-60277133D01*
X262739333Y-60324752D02*
X262739333Y-60991419D01*
X262977428Y-59943800D02*
X263215523Y-60658085D01*
X263215523Y-60658085D02*
X262596476Y-60658085D01*
X278463333Y-22084819D02*
X278463333Y-22799104D01*
X278463333Y-22799104D02*
X278510952Y-22941961D01*
X278510952Y-22941961D02*
X278606190Y-23037200D01*
X278606190Y-23037200D02*
X278749047Y-23084819D01*
X278749047Y-23084819D02*
X278844285Y-23084819D01*
X277463333Y-23084819D02*
X278034761Y-23084819D01*
X277749047Y-23084819D02*
X277749047Y-22084819D01*
X277749047Y-22084819D02*
X277844285Y-22227676D01*
X277844285Y-22227676D02*
X277939523Y-22322914D01*
X277939523Y-22322914D02*
X278034761Y-22370533D01*
X267931219Y-25426866D02*
X267883600Y-25331628D01*
X267883600Y-25331628D02*
X267788361Y-25284009D01*
X267788361Y-25284009D02*
X266931219Y-25284009D01*
X267931219Y-26236390D02*
X267407409Y-26236390D01*
X267407409Y-26236390D02*
X267312171Y-26188771D01*
X267312171Y-26188771D02*
X267264552Y-26093533D01*
X267264552Y-26093533D02*
X267264552Y-25903057D01*
X267264552Y-25903057D02*
X267312171Y-25807819D01*
X267883600Y-26236390D02*
X267931219Y-26141152D01*
X267931219Y-26141152D02*
X267931219Y-25903057D01*
X267931219Y-25903057D02*
X267883600Y-25807819D01*
X267883600Y-25807819D02*
X267788361Y-25760200D01*
X267788361Y-25760200D02*
X267693123Y-25760200D01*
X267693123Y-25760200D02*
X267597885Y-25807819D01*
X267597885Y-25807819D02*
X267550266Y-25903057D01*
X267550266Y-25903057D02*
X267550266Y-26141152D01*
X267550266Y-26141152D02*
X267502647Y-26236390D01*
X267883600Y-26664962D02*
X267931219Y-26760200D01*
X267931219Y-26760200D02*
X267931219Y-26950676D01*
X267931219Y-26950676D02*
X267883600Y-27045914D01*
X267883600Y-27045914D02*
X267788361Y-27093533D01*
X267788361Y-27093533D02*
X267740742Y-27093533D01*
X267740742Y-27093533D02*
X267645504Y-27045914D01*
X267645504Y-27045914D02*
X267597885Y-26950676D01*
X267597885Y-26950676D02*
X267597885Y-26807819D01*
X267597885Y-26807819D02*
X267550266Y-26712581D01*
X267550266Y-26712581D02*
X267455028Y-26664962D01*
X267455028Y-26664962D02*
X267407409Y-26664962D01*
X267407409Y-26664962D02*
X267312171Y-26712581D01*
X267312171Y-26712581D02*
X267264552Y-26807819D01*
X267264552Y-26807819D02*
X267264552Y-26950676D01*
X267264552Y-26950676D02*
X267312171Y-27045914D01*
X267883600Y-27903057D02*
X267931219Y-27807819D01*
X267931219Y-27807819D02*
X267931219Y-27617343D01*
X267931219Y-27617343D02*
X267883600Y-27522105D01*
X267883600Y-27522105D02*
X267788361Y-27474486D01*
X267788361Y-27474486D02*
X267407409Y-27474486D01*
X267407409Y-27474486D02*
X267312171Y-27522105D01*
X267312171Y-27522105D02*
X267264552Y-27617343D01*
X267264552Y-27617343D02*
X267264552Y-27807819D01*
X267264552Y-27807819D02*
X267312171Y-27903057D01*
X267312171Y-27903057D02*
X267407409Y-27950676D01*
X267407409Y-27950676D02*
X267502647Y-27950676D01*
X267502647Y-27950676D02*
X267597885Y-27474486D01*
X267931219Y-28379248D02*
X267264552Y-28379248D01*
X267455028Y-28379248D02*
X267359790Y-28426867D01*
X267359790Y-28426867D02*
X267312171Y-28474486D01*
X267312171Y-28474486D02*
X267264552Y-28569724D01*
X267264552Y-28569724D02*
X267264552Y-28664962D01*
X268026457Y-28760201D02*
X268026457Y-29522105D01*
X266978838Y-30284010D02*
X266931219Y-30188772D01*
X266931219Y-30188772D02*
X266931219Y-30045915D01*
X266931219Y-30045915D02*
X266978838Y-29903058D01*
X266978838Y-29903058D02*
X267074076Y-29807820D01*
X267074076Y-29807820D02*
X267169314Y-29760201D01*
X267169314Y-29760201D02*
X267359790Y-29712582D01*
X267359790Y-29712582D02*
X267502647Y-29712582D01*
X267502647Y-29712582D02*
X267693123Y-29760201D01*
X267693123Y-29760201D02*
X267788361Y-29807820D01*
X267788361Y-29807820D02*
X267883600Y-29903058D01*
X267883600Y-29903058D02*
X267931219Y-30045915D01*
X267931219Y-30045915D02*
X267931219Y-30141153D01*
X267931219Y-30141153D02*
X267883600Y-30284010D01*
X267883600Y-30284010D02*
X267835980Y-30331629D01*
X267835980Y-30331629D02*
X267502647Y-30331629D01*
X267502647Y-30331629D02*
X267502647Y-30141153D01*
X267931219Y-31284010D02*
X267931219Y-30712582D01*
X267931219Y-30998296D02*
X266931219Y-30998296D01*
X266931219Y-30998296D02*
X267074076Y-30903058D01*
X267074076Y-30903058D02*
X267169314Y-30807820D01*
X267169314Y-30807820D02*
X267216933Y-30712582D01*
X234837266Y-67426219D02*
X235170599Y-66950028D01*
X235408694Y-67426219D02*
X235408694Y-66426219D01*
X235408694Y-66426219D02*
X235027742Y-66426219D01*
X235027742Y-66426219D02*
X234932504Y-66473838D01*
X234932504Y-66473838D02*
X234884885Y-66521457D01*
X234884885Y-66521457D02*
X234837266Y-66616695D01*
X234837266Y-66616695D02*
X234837266Y-66759552D01*
X234837266Y-66759552D02*
X234884885Y-66854790D01*
X234884885Y-66854790D02*
X234932504Y-66902409D01*
X234932504Y-66902409D02*
X235027742Y-66950028D01*
X235027742Y-66950028D02*
X235408694Y-66950028D01*
X234361075Y-67426219D02*
X234170599Y-67426219D01*
X234170599Y-67426219D02*
X234075361Y-67378600D01*
X234075361Y-67378600D02*
X234027742Y-67330980D01*
X234027742Y-67330980D02*
X233932504Y-67188123D01*
X233932504Y-67188123D02*
X233884885Y-66997647D01*
X233884885Y-66997647D02*
X233884885Y-66616695D01*
X233884885Y-66616695D02*
X233932504Y-66521457D01*
X233932504Y-66521457D02*
X233980123Y-66473838D01*
X233980123Y-66473838D02*
X234075361Y-66426219D01*
X234075361Y-66426219D02*
X234265837Y-66426219D01*
X234265837Y-66426219D02*
X234361075Y-66473838D01*
X234361075Y-66473838D02*
X234408694Y-66521457D01*
X234408694Y-66521457D02*
X234456313Y-66616695D01*
X234456313Y-66616695D02*
X234456313Y-66854790D01*
X234456313Y-66854790D02*
X234408694Y-66950028D01*
X234408694Y-66950028D02*
X234361075Y-66997647D01*
X234361075Y-66997647D02*
X234265837Y-67045266D01*
X234265837Y-67045266D02*
X234075361Y-67045266D01*
X234075361Y-67045266D02*
X233980123Y-66997647D01*
X233980123Y-66997647D02*
X233932504Y-66950028D01*
X233932504Y-66950028D02*
X233884885Y-66854790D01*
X235313457Y-62422419D02*
X235646790Y-61946228D01*
X235884885Y-62422419D02*
X235884885Y-61422419D01*
X235884885Y-61422419D02*
X235503933Y-61422419D01*
X235503933Y-61422419D02*
X235408695Y-61470038D01*
X235408695Y-61470038D02*
X235361076Y-61517657D01*
X235361076Y-61517657D02*
X235313457Y-61612895D01*
X235313457Y-61612895D02*
X235313457Y-61755752D01*
X235313457Y-61755752D02*
X235361076Y-61850990D01*
X235361076Y-61850990D02*
X235408695Y-61898609D01*
X235408695Y-61898609D02*
X235503933Y-61946228D01*
X235503933Y-61946228D02*
X235884885Y-61946228D01*
X234361076Y-62422419D02*
X234932504Y-62422419D01*
X234646790Y-62422419D02*
X234646790Y-61422419D01*
X234646790Y-61422419D02*
X234742028Y-61565276D01*
X234742028Y-61565276D02*
X234837266Y-61660514D01*
X234837266Y-61660514D02*
X234932504Y-61708133D01*
X233408695Y-62422419D02*
X233980123Y-62422419D01*
X233694409Y-62422419D02*
X233694409Y-61422419D01*
X233694409Y-61422419D02*
X233789647Y-61565276D01*
X233789647Y-61565276D02*
X233884885Y-61660514D01*
X233884885Y-61660514D02*
X233980123Y-61708133D01*
X262896019Y-42302133D02*
X262419828Y-41968800D01*
X262896019Y-41730705D02*
X261896019Y-41730705D01*
X261896019Y-41730705D02*
X261896019Y-42111657D01*
X261896019Y-42111657D02*
X261943638Y-42206895D01*
X261943638Y-42206895D02*
X261991257Y-42254514D01*
X261991257Y-42254514D02*
X262086495Y-42302133D01*
X262086495Y-42302133D02*
X262229352Y-42302133D01*
X262229352Y-42302133D02*
X262324590Y-42254514D01*
X262324590Y-42254514D02*
X262372209Y-42206895D01*
X262372209Y-42206895D02*
X262419828Y-42111657D01*
X262419828Y-42111657D02*
X262419828Y-41730705D01*
X262324590Y-42873562D02*
X262276971Y-42778324D01*
X262276971Y-42778324D02*
X262229352Y-42730705D01*
X262229352Y-42730705D02*
X262134114Y-42683086D01*
X262134114Y-42683086D02*
X262086495Y-42683086D01*
X262086495Y-42683086D02*
X261991257Y-42730705D01*
X261991257Y-42730705D02*
X261943638Y-42778324D01*
X261943638Y-42778324D02*
X261896019Y-42873562D01*
X261896019Y-42873562D02*
X261896019Y-43064038D01*
X261896019Y-43064038D02*
X261943638Y-43159276D01*
X261943638Y-43159276D02*
X261991257Y-43206895D01*
X261991257Y-43206895D02*
X262086495Y-43254514D01*
X262086495Y-43254514D02*
X262134114Y-43254514D01*
X262134114Y-43254514D02*
X262229352Y-43206895D01*
X262229352Y-43206895D02*
X262276971Y-43159276D01*
X262276971Y-43159276D02*
X262324590Y-43064038D01*
X262324590Y-43064038D02*
X262324590Y-42873562D01*
X262324590Y-42873562D02*
X262372209Y-42778324D01*
X262372209Y-42778324D02*
X262419828Y-42730705D01*
X262419828Y-42730705D02*
X262515066Y-42683086D01*
X262515066Y-42683086D02*
X262705542Y-42683086D01*
X262705542Y-42683086D02*
X262800780Y-42730705D01*
X262800780Y-42730705D02*
X262848400Y-42778324D01*
X262848400Y-42778324D02*
X262896019Y-42873562D01*
X262896019Y-42873562D02*
X262896019Y-43064038D01*
X262896019Y-43064038D02*
X262848400Y-43159276D01*
X262848400Y-43159276D02*
X262800780Y-43206895D01*
X262800780Y-43206895D02*
X262705542Y-43254514D01*
X262705542Y-43254514D02*
X262515066Y-43254514D01*
X262515066Y-43254514D02*
X262419828Y-43206895D01*
X262419828Y-43206895D02*
X262372209Y-43159276D01*
X262372209Y-43159276D02*
X262324590Y-43064038D01*
X235142066Y-47258619D02*
X235475399Y-46782428D01*
X235713494Y-47258619D02*
X235713494Y-46258619D01*
X235713494Y-46258619D02*
X235332542Y-46258619D01*
X235332542Y-46258619D02*
X235237304Y-46306238D01*
X235237304Y-46306238D02*
X235189685Y-46353857D01*
X235189685Y-46353857D02*
X235142066Y-46449095D01*
X235142066Y-46449095D02*
X235142066Y-46591952D01*
X235142066Y-46591952D02*
X235189685Y-46687190D01*
X235189685Y-46687190D02*
X235237304Y-46734809D01*
X235237304Y-46734809D02*
X235332542Y-46782428D01*
X235332542Y-46782428D02*
X235713494Y-46782428D01*
X234237304Y-46258619D02*
X234713494Y-46258619D01*
X234713494Y-46258619D02*
X234761113Y-46734809D01*
X234761113Y-46734809D02*
X234713494Y-46687190D01*
X234713494Y-46687190D02*
X234618256Y-46639571D01*
X234618256Y-46639571D02*
X234380161Y-46639571D01*
X234380161Y-46639571D02*
X234284923Y-46687190D01*
X234284923Y-46687190D02*
X234237304Y-46734809D01*
X234237304Y-46734809D02*
X234189685Y-46830047D01*
X234189685Y-46830047D02*
X234189685Y-47068142D01*
X234189685Y-47068142D02*
X234237304Y-47163380D01*
X234237304Y-47163380D02*
X234284923Y-47211000D01*
X234284923Y-47211000D02*
X234380161Y-47258619D01*
X234380161Y-47258619D02*
X234618256Y-47258619D01*
X234618256Y-47258619D02*
X234713494Y-47211000D01*
X234713494Y-47211000D02*
X234761113Y-47163380D01*
X229588000Y-75302075D02*
X229635619Y-75206837D01*
X229635619Y-75206837D02*
X229635619Y-75016361D01*
X229635619Y-75016361D02*
X229588000Y-74921123D01*
X229588000Y-74921123D02*
X229492761Y-74873504D01*
X229492761Y-74873504D02*
X229111809Y-74873504D01*
X229111809Y-74873504D02*
X229016571Y-74921123D01*
X229016571Y-74921123D02*
X228968952Y-75016361D01*
X228968952Y-75016361D02*
X228968952Y-75206837D01*
X228968952Y-75206837D02*
X229016571Y-75302075D01*
X229016571Y-75302075D02*
X229111809Y-75349694D01*
X229111809Y-75349694D02*
X229207047Y-75349694D01*
X229207047Y-75349694D02*
X229302285Y-74873504D01*
X228968952Y-75778266D02*
X229635619Y-75778266D01*
X229064190Y-75778266D02*
X229016571Y-75825885D01*
X229016571Y-75825885D02*
X228968952Y-75921123D01*
X228968952Y-75921123D02*
X228968952Y-76063980D01*
X228968952Y-76063980D02*
X229016571Y-76159218D01*
X229016571Y-76159218D02*
X229111809Y-76206837D01*
X229111809Y-76206837D02*
X229635619Y-76206837D01*
X229588000Y-77111599D02*
X229635619Y-77016361D01*
X229635619Y-77016361D02*
X229635619Y-76825885D01*
X229635619Y-76825885D02*
X229588000Y-76730647D01*
X229588000Y-76730647D02*
X229540380Y-76683028D01*
X229540380Y-76683028D02*
X229445142Y-76635409D01*
X229445142Y-76635409D02*
X229159428Y-76635409D01*
X229159428Y-76635409D02*
X229064190Y-76683028D01*
X229064190Y-76683028D02*
X229016571Y-76730647D01*
X229016571Y-76730647D02*
X228968952Y-76825885D01*
X228968952Y-76825885D02*
X228968952Y-77016361D01*
X228968952Y-77016361D02*
X229016571Y-77111599D01*
X229635619Y-77683028D02*
X229588000Y-77587790D01*
X229588000Y-77587790D02*
X229540380Y-77540171D01*
X229540380Y-77540171D02*
X229445142Y-77492552D01*
X229445142Y-77492552D02*
X229159428Y-77492552D01*
X229159428Y-77492552D02*
X229064190Y-77540171D01*
X229064190Y-77540171D02*
X229016571Y-77587790D01*
X229016571Y-77587790D02*
X228968952Y-77683028D01*
X228968952Y-77683028D02*
X228968952Y-77825885D01*
X228968952Y-77825885D02*
X229016571Y-77921123D01*
X229016571Y-77921123D02*
X229064190Y-77968742D01*
X229064190Y-77968742D02*
X229159428Y-78016361D01*
X229159428Y-78016361D02*
X229445142Y-78016361D01*
X229445142Y-78016361D02*
X229540380Y-77968742D01*
X229540380Y-77968742D02*
X229588000Y-77921123D01*
X229588000Y-77921123D02*
X229635619Y-77825885D01*
X229635619Y-77825885D02*
X229635619Y-77683028D01*
X229635619Y-78873504D02*
X228635619Y-78873504D01*
X229588000Y-78873504D02*
X229635619Y-78778266D01*
X229635619Y-78778266D02*
X229635619Y-78587790D01*
X229635619Y-78587790D02*
X229588000Y-78492552D01*
X229588000Y-78492552D02*
X229540380Y-78444933D01*
X229540380Y-78444933D02*
X229445142Y-78397314D01*
X229445142Y-78397314D02*
X229159428Y-78397314D01*
X229159428Y-78397314D02*
X229064190Y-78444933D01*
X229064190Y-78444933D02*
X229016571Y-78492552D01*
X229016571Y-78492552D02*
X228968952Y-78587790D01*
X228968952Y-78587790D02*
X228968952Y-78778266D01*
X228968952Y-78778266D02*
X229016571Y-78873504D01*
X229588000Y-79730647D02*
X229635619Y-79635409D01*
X229635619Y-79635409D02*
X229635619Y-79444933D01*
X229635619Y-79444933D02*
X229588000Y-79349695D01*
X229588000Y-79349695D02*
X229492761Y-79302076D01*
X229492761Y-79302076D02*
X229111809Y-79302076D01*
X229111809Y-79302076D02*
X229016571Y-79349695D01*
X229016571Y-79349695D02*
X228968952Y-79444933D01*
X228968952Y-79444933D02*
X228968952Y-79635409D01*
X228968952Y-79635409D02*
X229016571Y-79730647D01*
X229016571Y-79730647D02*
X229111809Y-79778266D01*
X229111809Y-79778266D02*
X229207047Y-79778266D01*
X229207047Y-79778266D02*
X229302285Y-79302076D01*
X229635619Y-80206838D02*
X228968952Y-80206838D01*
X229159428Y-80206838D02*
X229064190Y-80254457D01*
X229064190Y-80254457D02*
X229016571Y-80302076D01*
X229016571Y-80302076D02*
X228968952Y-80397314D01*
X228968952Y-80397314D02*
X228968952Y-80492552D01*
X229635619Y-81349695D02*
X229635619Y-80778267D01*
X229635619Y-81063981D02*
X228635619Y-81063981D01*
X228635619Y-81063981D02*
X228778476Y-80968743D01*
X228778476Y-80968743D02*
X228873714Y-80873505D01*
X228873714Y-80873505D02*
X228921333Y-80778267D01*
X260865352Y-75370380D02*
X261674876Y-75370380D01*
X261674876Y-75370380D02*
X261770114Y-75322761D01*
X261770114Y-75322761D02*
X261817733Y-75275142D01*
X261817733Y-75275142D02*
X261865352Y-75179904D01*
X261865352Y-75179904D02*
X261865352Y-75037047D01*
X261865352Y-75037047D02*
X261817733Y-74941809D01*
X261484400Y-75370380D02*
X261532019Y-75275142D01*
X261532019Y-75275142D02*
X261532019Y-75084666D01*
X261532019Y-75084666D02*
X261484400Y-74989428D01*
X261484400Y-74989428D02*
X261436780Y-74941809D01*
X261436780Y-74941809D02*
X261341542Y-74894190D01*
X261341542Y-74894190D02*
X261055828Y-74894190D01*
X261055828Y-74894190D02*
X260960590Y-74941809D01*
X260960590Y-74941809D02*
X260912971Y-74989428D01*
X260912971Y-74989428D02*
X260865352Y-75084666D01*
X260865352Y-75084666D02*
X260865352Y-75275142D01*
X260865352Y-75275142D02*
X260912971Y-75370380D01*
X261532019Y-76275142D02*
X261008209Y-76275142D01*
X261008209Y-76275142D02*
X260912971Y-76227523D01*
X260912971Y-76227523D02*
X260865352Y-76132285D01*
X260865352Y-76132285D02*
X260865352Y-75941809D01*
X260865352Y-75941809D02*
X260912971Y-75846571D01*
X261484400Y-76275142D02*
X261532019Y-76179904D01*
X261532019Y-76179904D02*
X261532019Y-75941809D01*
X261532019Y-75941809D02*
X261484400Y-75846571D01*
X261484400Y-75846571D02*
X261389161Y-75798952D01*
X261389161Y-75798952D02*
X261293923Y-75798952D01*
X261293923Y-75798952D02*
X261198685Y-75846571D01*
X261198685Y-75846571D02*
X261151066Y-75941809D01*
X261151066Y-75941809D02*
X261151066Y-76179904D01*
X261151066Y-76179904D02*
X261103447Y-76275142D01*
X261532019Y-76894190D02*
X261484400Y-76798952D01*
X261484400Y-76798952D02*
X261389161Y-76751333D01*
X261389161Y-76751333D02*
X260532019Y-76751333D01*
X261532019Y-77275143D02*
X260532019Y-77275143D01*
X260532019Y-77275143D02*
X260532019Y-77656095D01*
X260532019Y-77656095D02*
X260579638Y-77751333D01*
X260579638Y-77751333D02*
X260627257Y-77798952D01*
X260627257Y-77798952D02*
X260722495Y-77846571D01*
X260722495Y-77846571D02*
X260865352Y-77846571D01*
X260865352Y-77846571D02*
X260960590Y-77798952D01*
X260960590Y-77798952D02*
X261008209Y-77751333D01*
X261008209Y-77751333D02*
X261055828Y-77656095D01*
X261055828Y-77656095D02*
X261055828Y-77275143D01*
X260532019Y-78179905D02*
X261532019Y-78418000D01*
X261532019Y-78418000D02*
X260817733Y-78608476D01*
X260817733Y-78608476D02*
X261532019Y-78798952D01*
X261532019Y-78798952D02*
X260532019Y-79037048D01*
X261532019Y-79989428D02*
X261055828Y-79656095D01*
X261532019Y-79418000D02*
X260532019Y-79418000D01*
X260532019Y-79418000D02*
X260532019Y-79798952D01*
X260532019Y-79798952D02*
X260579638Y-79894190D01*
X260579638Y-79894190D02*
X260627257Y-79941809D01*
X260627257Y-79941809D02*
X260722495Y-79989428D01*
X260722495Y-79989428D02*
X260865352Y-79989428D01*
X260865352Y-79989428D02*
X260960590Y-79941809D01*
X260960590Y-79941809D02*
X261008209Y-79894190D01*
X261008209Y-79894190D02*
X261055828Y-79798952D01*
X261055828Y-79798952D02*
X261055828Y-79418000D01*
X261532019Y-80941809D02*
X261532019Y-80370381D01*
X261532019Y-80656095D02*
X260532019Y-80656095D01*
X260532019Y-80656095D02*
X260674876Y-80560857D01*
X260674876Y-80560857D02*
X260770114Y-80465619D01*
X260770114Y-80465619D02*
X260817733Y-80370381D01*
X267851352Y-37258209D02*
X268851352Y-37258209D01*
X267898971Y-37258209D02*
X267851352Y-37353447D01*
X267851352Y-37353447D02*
X267851352Y-37543923D01*
X267851352Y-37543923D02*
X267898971Y-37639161D01*
X267898971Y-37639161D02*
X267946590Y-37686780D01*
X267946590Y-37686780D02*
X268041828Y-37734399D01*
X268041828Y-37734399D02*
X268327542Y-37734399D01*
X268327542Y-37734399D02*
X268422780Y-37686780D01*
X268422780Y-37686780D02*
X268470400Y-37639161D01*
X268470400Y-37639161D02*
X268518019Y-37543923D01*
X268518019Y-37543923D02*
X268518019Y-37353447D01*
X268518019Y-37353447D02*
X268470400Y-37258209D01*
X267851352Y-38067733D02*
X268518019Y-38258209D01*
X268518019Y-38258209D02*
X268041828Y-38448685D01*
X268041828Y-38448685D02*
X268518019Y-38639161D01*
X268518019Y-38639161D02*
X267851352Y-38829637D01*
X268518019Y-39210590D02*
X267851352Y-39210590D01*
X268041828Y-39210590D02*
X267946590Y-39258209D01*
X267946590Y-39258209D02*
X267898971Y-39305828D01*
X267898971Y-39305828D02*
X267851352Y-39401066D01*
X267851352Y-39401066D02*
X267851352Y-39496304D01*
X268470400Y-39782019D02*
X268518019Y-39924876D01*
X268518019Y-39924876D02*
X268518019Y-40162971D01*
X268518019Y-40162971D02*
X268470400Y-40258209D01*
X268470400Y-40258209D02*
X268422780Y-40305828D01*
X268422780Y-40305828D02*
X268327542Y-40353447D01*
X268327542Y-40353447D02*
X268232304Y-40353447D01*
X268232304Y-40353447D02*
X268137066Y-40305828D01*
X268137066Y-40305828D02*
X268089447Y-40258209D01*
X268089447Y-40258209D02*
X268041828Y-40162971D01*
X268041828Y-40162971D02*
X267994209Y-39972495D01*
X267994209Y-39972495D02*
X267946590Y-39877257D01*
X267946590Y-39877257D02*
X267898971Y-39829638D01*
X267898971Y-39829638D02*
X267803733Y-39782019D01*
X267803733Y-39782019D02*
X267708495Y-39782019D01*
X267708495Y-39782019D02*
X267613257Y-39829638D01*
X267613257Y-39829638D02*
X267565638Y-39877257D01*
X267565638Y-39877257D02*
X267518019Y-39972495D01*
X267518019Y-39972495D02*
X267518019Y-40210590D01*
X267518019Y-40210590D02*
X267565638Y-40353447D01*
X267518019Y-40686781D02*
X268518019Y-40924876D01*
X268518019Y-40924876D02*
X267803733Y-41115352D01*
X267803733Y-41115352D02*
X268518019Y-41305828D01*
X268518019Y-41305828D02*
X267518019Y-41543924D01*
X268613257Y-41686781D02*
X268613257Y-42448685D01*
X268518019Y-42686781D02*
X267518019Y-42686781D01*
X267518019Y-42686781D02*
X267518019Y-43067733D01*
X267518019Y-43067733D02*
X267565638Y-43162971D01*
X267565638Y-43162971D02*
X267613257Y-43210590D01*
X267613257Y-43210590D02*
X267708495Y-43258209D01*
X267708495Y-43258209D02*
X267851352Y-43258209D01*
X267851352Y-43258209D02*
X267946590Y-43210590D01*
X267946590Y-43210590D02*
X267994209Y-43162971D01*
X267994209Y-43162971D02*
X268041828Y-43067733D01*
X268041828Y-43067733D02*
X268041828Y-42686781D01*
X267518019Y-43686781D02*
X268327542Y-43686781D01*
X268327542Y-43686781D02*
X268422780Y-43734400D01*
X268422780Y-43734400D02*
X268470400Y-43782019D01*
X268470400Y-43782019D02*
X268518019Y-43877257D01*
X268518019Y-43877257D02*
X268518019Y-44067733D01*
X268518019Y-44067733D02*
X268470400Y-44162971D01*
X268470400Y-44162971D02*
X268422780Y-44210590D01*
X268422780Y-44210590D02*
X268327542Y-44258209D01*
X268327542Y-44258209D02*
X267518019Y-44258209D01*
X268518019Y-45258209D02*
X268518019Y-44686781D01*
X268518019Y-44972495D02*
X267518019Y-44972495D01*
X267518019Y-44972495D02*
X267660876Y-44877257D01*
X267660876Y-44877257D02*
X267756114Y-44782019D01*
X267756114Y-44782019D02*
X267803733Y-44686781D01*
X235243666Y-35913219D02*
X235576999Y-35437028D01*
X235815094Y-35913219D02*
X235815094Y-34913219D01*
X235815094Y-34913219D02*
X235434142Y-34913219D01*
X235434142Y-34913219D02*
X235338904Y-34960838D01*
X235338904Y-34960838D02*
X235291285Y-35008457D01*
X235291285Y-35008457D02*
X235243666Y-35103695D01*
X235243666Y-35103695D02*
X235243666Y-35246552D01*
X235243666Y-35246552D02*
X235291285Y-35341790D01*
X235291285Y-35341790D02*
X235338904Y-35389409D01*
X235338904Y-35389409D02*
X235434142Y-35437028D01*
X235434142Y-35437028D02*
X235815094Y-35437028D01*
X234291285Y-35913219D02*
X234862713Y-35913219D01*
X234576999Y-35913219D02*
X234576999Y-34913219D01*
X234576999Y-34913219D02*
X234672237Y-35056076D01*
X234672237Y-35056076D02*
X234767475Y-35151314D01*
X234767475Y-35151314D02*
X234862713Y-35198933D01*
X234837266Y-56411019D02*
X235170599Y-55934828D01*
X235408694Y-56411019D02*
X235408694Y-55411019D01*
X235408694Y-55411019D02*
X235027742Y-55411019D01*
X235027742Y-55411019D02*
X234932504Y-55458638D01*
X234932504Y-55458638D02*
X234884885Y-55506257D01*
X234884885Y-55506257D02*
X234837266Y-55601495D01*
X234837266Y-55601495D02*
X234837266Y-55744352D01*
X234837266Y-55744352D02*
X234884885Y-55839590D01*
X234884885Y-55839590D02*
X234932504Y-55887209D01*
X234932504Y-55887209D02*
X235027742Y-55934828D01*
X235027742Y-55934828D02*
X235408694Y-55934828D01*
X234503932Y-55411019D02*
X233837266Y-55411019D01*
X233837266Y-55411019D02*
X234265837Y-56411019D01*
X253594352Y-25682571D02*
X254594352Y-25682571D01*
X253641971Y-25682571D02*
X253594352Y-25777809D01*
X253594352Y-25777809D02*
X253594352Y-25968285D01*
X253594352Y-25968285D02*
X253641971Y-26063523D01*
X253641971Y-26063523D02*
X253689590Y-26111142D01*
X253689590Y-26111142D02*
X253784828Y-26158761D01*
X253784828Y-26158761D02*
X254070542Y-26158761D01*
X254070542Y-26158761D02*
X254165780Y-26111142D01*
X254165780Y-26111142D02*
X254213400Y-26063523D01*
X254213400Y-26063523D02*
X254261019Y-25968285D01*
X254261019Y-25968285D02*
X254261019Y-25777809D01*
X254261019Y-25777809D02*
X254213400Y-25682571D01*
X253594352Y-26492095D02*
X254261019Y-26682571D01*
X254261019Y-26682571D02*
X253784828Y-26873047D01*
X253784828Y-26873047D02*
X254261019Y-27063523D01*
X254261019Y-27063523D02*
X253594352Y-27253999D01*
X254261019Y-27634952D02*
X253594352Y-27634952D01*
X253784828Y-27634952D02*
X253689590Y-27682571D01*
X253689590Y-27682571D02*
X253641971Y-27730190D01*
X253641971Y-27730190D02*
X253594352Y-27825428D01*
X253594352Y-27825428D02*
X253594352Y-27920666D01*
X254213400Y-28206381D02*
X254261019Y-28349238D01*
X254261019Y-28349238D02*
X254261019Y-28587333D01*
X254261019Y-28587333D02*
X254213400Y-28682571D01*
X254213400Y-28682571D02*
X254165780Y-28730190D01*
X254165780Y-28730190D02*
X254070542Y-28777809D01*
X254070542Y-28777809D02*
X253975304Y-28777809D01*
X253975304Y-28777809D02*
X253880066Y-28730190D01*
X253880066Y-28730190D02*
X253832447Y-28682571D01*
X253832447Y-28682571D02*
X253784828Y-28587333D01*
X253784828Y-28587333D02*
X253737209Y-28396857D01*
X253737209Y-28396857D02*
X253689590Y-28301619D01*
X253689590Y-28301619D02*
X253641971Y-28254000D01*
X253641971Y-28254000D02*
X253546733Y-28206381D01*
X253546733Y-28206381D02*
X253451495Y-28206381D01*
X253451495Y-28206381D02*
X253356257Y-28254000D01*
X253356257Y-28254000D02*
X253308638Y-28301619D01*
X253308638Y-28301619D02*
X253261019Y-28396857D01*
X253261019Y-28396857D02*
X253261019Y-28634952D01*
X253261019Y-28634952D02*
X253308638Y-28777809D01*
X253261019Y-29111143D02*
X254261019Y-29349238D01*
X254261019Y-29349238D02*
X253546733Y-29539714D01*
X253546733Y-29539714D02*
X254261019Y-29730190D01*
X254261019Y-29730190D02*
X253261019Y-29968286D01*
X254261019Y-30873047D02*
X254261019Y-30301619D01*
X254261019Y-30587333D02*
X253261019Y-30587333D01*
X253261019Y-30587333D02*
X253403876Y-30492095D01*
X253403876Y-30492095D02*
X253499114Y-30396857D01*
X253499114Y-30396857D02*
X253546733Y-30301619D01*
X255428419Y-40174942D02*
X254952228Y-39841609D01*
X255428419Y-39603514D02*
X254428419Y-39603514D01*
X254428419Y-39603514D02*
X254428419Y-39984466D01*
X254428419Y-39984466D02*
X254476038Y-40079704D01*
X254476038Y-40079704D02*
X254523657Y-40127323D01*
X254523657Y-40127323D02*
X254618895Y-40174942D01*
X254618895Y-40174942D02*
X254761752Y-40174942D01*
X254761752Y-40174942D02*
X254856990Y-40127323D01*
X254856990Y-40127323D02*
X254904609Y-40079704D01*
X254904609Y-40079704D02*
X254952228Y-39984466D01*
X254952228Y-39984466D02*
X254952228Y-39603514D01*
X255428419Y-41127323D02*
X255428419Y-40555895D01*
X255428419Y-40841609D02*
X254428419Y-40841609D01*
X254428419Y-40841609D02*
X254571276Y-40746371D01*
X254571276Y-40746371D02*
X254666514Y-40651133D01*
X254666514Y-40651133D02*
X254714133Y-40555895D01*
X254428419Y-41746371D02*
X254428419Y-41841609D01*
X254428419Y-41841609D02*
X254476038Y-41936847D01*
X254476038Y-41936847D02*
X254523657Y-41984466D01*
X254523657Y-41984466D02*
X254618895Y-42032085D01*
X254618895Y-42032085D02*
X254809371Y-42079704D01*
X254809371Y-42079704D02*
X255047466Y-42079704D01*
X255047466Y-42079704D02*
X255237942Y-42032085D01*
X255237942Y-42032085D02*
X255333180Y-41984466D01*
X255333180Y-41984466D02*
X255380800Y-41936847D01*
X255380800Y-41936847D02*
X255428419Y-41841609D01*
X255428419Y-41841609D02*
X255428419Y-41746371D01*
X255428419Y-41746371D02*
X255380800Y-41651133D01*
X255380800Y-41651133D02*
X255333180Y-41603514D01*
X255333180Y-41603514D02*
X255237942Y-41555895D01*
X255237942Y-41555895D02*
X255047466Y-41508276D01*
X255047466Y-41508276D02*
X254809371Y-41508276D01*
X254809371Y-41508276D02*
X254618895Y-41555895D01*
X254618895Y-41555895D02*
X254523657Y-41603514D01*
X254523657Y-41603514D02*
X254476038Y-41651133D01*
X254476038Y-41651133D02*
X254428419Y-41746371D01*
X260387419Y-25452266D02*
X260339800Y-25357028D01*
X260339800Y-25357028D02*
X260244561Y-25309409D01*
X260244561Y-25309409D02*
X259387419Y-25309409D01*
X260387419Y-26261790D02*
X259863609Y-26261790D01*
X259863609Y-26261790D02*
X259768371Y-26214171D01*
X259768371Y-26214171D02*
X259720752Y-26118933D01*
X259720752Y-26118933D02*
X259720752Y-25928457D01*
X259720752Y-25928457D02*
X259768371Y-25833219D01*
X260339800Y-26261790D02*
X260387419Y-26166552D01*
X260387419Y-26166552D02*
X260387419Y-25928457D01*
X260387419Y-25928457D02*
X260339800Y-25833219D01*
X260339800Y-25833219D02*
X260244561Y-25785600D01*
X260244561Y-25785600D02*
X260149323Y-25785600D01*
X260149323Y-25785600D02*
X260054085Y-25833219D01*
X260054085Y-25833219D02*
X260006466Y-25928457D01*
X260006466Y-25928457D02*
X260006466Y-26166552D01*
X260006466Y-26166552D02*
X259958847Y-26261790D01*
X260339800Y-26690362D02*
X260387419Y-26785600D01*
X260387419Y-26785600D02*
X260387419Y-26976076D01*
X260387419Y-26976076D02*
X260339800Y-27071314D01*
X260339800Y-27071314D02*
X260244561Y-27118933D01*
X260244561Y-27118933D02*
X260196942Y-27118933D01*
X260196942Y-27118933D02*
X260101704Y-27071314D01*
X260101704Y-27071314D02*
X260054085Y-26976076D01*
X260054085Y-26976076D02*
X260054085Y-26833219D01*
X260054085Y-26833219D02*
X260006466Y-26737981D01*
X260006466Y-26737981D02*
X259911228Y-26690362D01*
X259911228Y-26690362D02*
X259863609Y-26690362D01*
X259863609Y-26690362D02*
X259768371Y-26737981D01*
X259768371Y-26737981D02*
X259720752Y-26833219D01*
X259720752Y-26833219D02*
X259720752Y-26976076D01*
X259720752Y-26976076D02*
X259768371Y-27071314D01*
X260339800Y-27928457D02*
X260387419Y-27833219D01*
X260387419Y-27833219D02*
X260387419Y-27642743D01*
X260387419Y-27642743D02*
X260339800Y-27547505D01*
X260339800Y-27547505D02*
X260244561Y-27499886D01*
X260244561Y-27499886D02*
X259863609Y-27499886D01*
X259863609Y-27499886D02*
X259768371Y-27547505D01*
X259768371Y-27547505D02*
X259720752Y-27642743D01*
X259720752Y-27642743D02*
X259720752Y-27833219D01*
X259720752Y-27833219D02*
X259768371Y-27928457D01*
X259768371Y-27928457D02*
X259863609Y-27976076D01*
X259863609Y-27976076D02*
X259958847Y-27976076D01*
X259958847Y-27976076D02*
X260054085Y-27499886D01*
X260387419Y-28404648D02*
X259720752Y-28404648D01*
X259911228Y-28404648D02*
X259815990Y-28452267D01*
X259815990Y-28452267D02*
X259768371Y-28499886D01*
X259768371Y-28499886D02*
X259720752Y-28595124D01*
X259720752Y-28595124D02*
X259720752Y-28690362D01*
X260482657Y-28785601D02*
X260482657Y-29547505D01*
X260387419Y-30357029D02*
X259911228Y-30023696D01*
X260387419Y-29785601D02*
X259387419Y-29785601D01*
X259387419Y-29785601D02*
X259387419Y-30166553D01*
X259387419Y-30166553D02*
X259435038Y-30261791D01*
X259435038Y-30261791D02*
X259482657Y-30309410D01*
X259482657Y-30309410D02*
X259577895Y-30357029D01*
X259577895Y-30357029D02*
X259720752Y-30357029D01*
X259720752Y-30357029D02*
X259815990Y-30309410D01*
X259815990Y-30309410D02*
X259863609Y-30261791D01*
X259863609Y-30261791D02*
X259911228Y-30166553D01*
X259911228Y-30166553D02*
X259911228Y-29785601D01*
X260387419Y-31309410D02*
X260387419Y-30737982D01*
X260387419Y-31023696D02*
X259387419Y-31023696D01*
X259387419Y-31023696D02*
X259530276Y-30928458D01*
X259530276Y-30928458D02*
X259625514Y-30833220D01*
X259625514Y-30833220D02*
X259673133Y-30737982D01*
X241500152Y-76561018D02*
X242309676Y-76561018D01*
X242309676Y-76561018D02*
X242404914Y-76513399D01*
X242404914Y-76513399D02*
X242452533Y-76465780D01*
X242452533Y-76465780D02*
X242500152Y-76370542D01*
X242500152Y-76370542D02*
X242500152Y-76227685D01*
X242500152Y-76227685D02*
X242452533Y-76132447D01*
X242119200Y-76561018D02*
X242166819Y-76465780D01*
X242166819Y-76465780D02*
X242166819Y-76275304D01*
X242166819Y-76275304D02*
X242119200Y-76180066D01*
X242119200Y-76180066D02*
X242071580Y-76132447D01*
X242071580Y-76132447D02*
X241976342Y-76084828D01*
X241976342Y-76084828D02*
X241690628Y-76084828D01*
X241690628Y-76084828D02*
X241595390Y-76132447D01*
X241595390Y-76132447D02*
X241547771Y-76180066D01*
X241547771Y-76180066D02*
X241500152Y-76275304D01*
X241500152Y-76275304D02*
X241500152Y-76465780D01*
X241500152Y-76465780D02*
X241547771Y-76561018D01*
X242166819Y-77465780D02*
X241643009Y-77465780D01*
X241643009Y-77465780D02*
X241547771Y-77418161D01*
X241547771Y-77418161D02*
X241500152Y-77322923D01*
X241500152Y-77322923D02*
X241500152Y-77132447D01*
X241500152Y-77132447D02*
X241547771Y-77037209D01*
X242119200Y-77465780D02*
X242166819Y-77370542D01*
X242166819Y-77370542D02*
X242166819Y-77132447D01*
X242166819Y-77132447D02*
X242119200Y-77037209D01*
X242119200Y-77037209D02*
X242023961Y-76989590D01*
X242023961Y-76989590D02*
X241928723Y-76989590D01*
X241928723Y-76989590D02*
X241833485Y-77037209D01*
X241833485Y-77037209D02*
X241785866Y-77132447D01*
X241785866Y-77132447D02*
X241785866Y-77370542D01*
X241785866Y-77370542D02*
X241738247Y-77465780D01*
X242166819Y-78084828D02*
X242119200Y-77989590D01*
X242119200Y-77989590D02*
X242023961Y-77941971D01*
X242023961Y-77941971D02*
X241166819Y-77941971D01*
X241166819Y-78370543D02*
X242166819Y-79037209D01*
X241166819Y-79037209D02*
X242166819Y-78370543D01*
X242166819Y-79941971D02*
X242166819Y-79370543D01*
X242166819Y-79656257D02*
X241166819Y-79656257D01*
X241166819Y-79656257D02*
X241309676Y-79561019D01*
X241309676Y-79561019D02*
X241404914Y-79465781D01*
X241404914Y-79465781D02*
X241452533Y-79370543D01*
X250933952Y-76589437D02*
X251743476Y-76589437D01*
X251743476Y-76589437D02*
X251838714Y-76541818D01*
X251838714Y-76541818D02*
X251886333Y-76494199D01*
X251886333Y-76494199D02*
X251933952Y-76398961D01*
X251933952Y-76398961D02*
X251933952Y-76256104D01*
X251933952Y-76256104D02*
X251886333Y-76160866D01*
X251553000Y-76589437D02*
X251600619Y-76494199D01*
X251600619Y-76494199D02*
X251600619Y-76303723D01*
X251600619Y-76303723D02*
X251553000Y-76208485D01*
X251553000Y-76208485D02*
X251505380Y-76160866D01*
X251505380Y-76160866D02*
X251410142Y-76113247D01*
X251410142Y-76113247D02*
X251124428Y-76113247D01*
X251124428Y-76113247D02*
X251029190Y-76160866D01*
X251029190Y-76160866D02*
X250981571Y-76208485D01*
X250981571Y-76208485D02*
X250933952Y-76303723D01*
X250933952Y-76303723D02*
X250933952Y-76494199D01*
X250933952Y-76494199D02*
X250981571Y-76589437D01*
X251600619Y-77494199D02*
X251076809Y-77494199D01*
X251076809Y-77494199D02*
X250981571Y-77446580D01*
X250981571Y-77446580D02*
X250933952Y-77351342D01*
X250933952Y-77351342D02*
X250933952Y-77160866D01*
X250933952Y-77160866D02*
X250981571Y-77065628D01*
X251553000Y-77494199D02*
X251600619Y-77398961D01*
X251600619Y-77398961D02*
X251600619Y-77160866D01*
X251600619Y-77160866D02*
X251553000Y-77065628D01*
X251553000Y-77065628D02*
X251457761Y-77018009D01*
X251457761Y-77018009D02*
X251362523Y-77018009D01*
X251362523Y-77018009D02*
X251267285Y-77065628D01*
X251267285Y-77065628D02*
X251219666Y-77160866D01*
X251219666Y-77160866D02*
X251219666Y-77398961D01*
X251219666Y-77398961D02*
X251172047Y-77494199D01*
X251600619Y-78113247D02*
X251553000Y-78018009D01*
X251553000Y-78018009D02*
X251457761Y-77970390D01*
X251457761Y-77970390D02*
X250600619Y-77970390D01*
X251124428Y-78684676D02*
X251600619Y-78684676D01*
X250600619Y-78351343D02*
X251124428Y-78684676D01*
X251124428Y-78684676D02*
X250600619Y-79018009D01*
X251600619Y-79875152D02*
X251600619Y-79303724D01*
X251600619Y-79589438D02*
X250600619Y-79589438D01*
X250600619Y-79589438D02*
X250743476Y-79494200D01*
X250743476Y-79494200D02*
X250838714Y-79398962D01*
X250838714Y-79398962D02*
X250886333Y-79303724D01*
X268377894Y-56218419D02*
X268377894Y-55218419D01*
X268377894Y-55218419D02*
X268139799Y-55218419D01*
X268139799Y-55218419D02*
X267996942Y-55266038D01*
X267996942Y-55266038D02*
X267901704Y-55361276D01*
X267901704Y-55361276D02*
X267854085Y-55456514D01*
X267854085Y-55456514D02*
X267806466Y-55646990D01*
X267806466Y-55646990D02*
X267806466Y-55789847D01*
X267806466Y-55789847D02*
X267854085Y-55980323D01*
X267854085Y-55980323D02*
X267901704Y-56075561D01*
X267901704Y-56075561D02*
X267996942Y-56170800D01*
X267996942Y-56170800D02*
X268139799Y-56218419D01*
X268139799Y-56218419D02*
X268377894Y-56218419D01*
X267425513Y-55313657D02*
X267377894Y-55266038D01*
X267377894Y-55266038D02*
X267282656Y-55218419D01*
X267282656Y-55218419D02*
X267044561Y-55218419D01*
X267044561Y-55218419D02*
X266949323Y-55266038D01*
X266949323Y-55266038D02*
X266901704Y-55313657D01*
X266901704Y-55313657D02*
X266854085Y-55408895D01*
X266854085Y-55408895D02*
X266854085Y-55504133D01*
X266854085Y-55504133D02*
X266901704Y-55646990D01*
X266901704Y-55646990D02*
X267473132Y-56218419D01*
X267473132Y-56218419D02*
X266854085Y-56218419D01*
X241103819Y-27036533D02*
X241103819Y-26560343D01*
X241103819Y-26560343D02*
X240103819Y-26560343D01*
X241008580Y-27941295D02*
X241056200Y-27893676D01*
X241056200Y-27893676D02*
X241103819Y-27750819D01*
X241103819Y-27750819D02*
X241103819Y-27655581D01*
X241103819Y-27655581D02*
X241056200Y-27512724D01*
X241056200Y-27512724D02*
X240960961Y-27417486D01*
X240960961Y-27417486D02*
X240865723Y-27369867D01*
X240865723Y-27369867D02*
X240675247Y-27322248D01*
X240675247Y-27322248D02*
X240532390Y-27322248D01*
X240532390Y-27322248D02*
X240341914Y-27369867D01*
X240341914Y-27369867D02*
X240246676Y-27417486D01*
X240246676Y-27417486D02*
X240151438Y-27512724D01*
X240151438Y-27512724D02*
X240103819Y-27655581D01*
X240103819Y-27655581D02*
X240103819Y-27750819D01*
X240103819Y-27750819D02*
X240151438Y-27893676D01*
X240151438Y-27893676D02*
X240199057Y-27941295D01*
X241103819Y-28369867D02*
X240103819Y-28369867D01*
X240103819Y-28369867D02*
X240103819Y-28607962D01*
X240103819Y-28607962D02*
X240151438Y-28750819D01*
X240151438Y-28750819D02*
X240246676Y-28846057D01*
X240246676Y-28846057D02*
X240341914Y-28893676D01*
X240341914Y-28893676D02*
X240532390Y-28941295D01*
X240532390Y-28941295D02*
X240675247Y-28941295D01*
X240675247Y-28941295D02*
X240865723Y-28893676D01*
X240865723Y-28893676D02*
X240960961Y-28846057D01*
X240960961Y-28846057D02*
X241056200Y-28750819D01*
X241056200Y-28750819D02*
X241103819Y-28607962D01*
X241103819Y-28607962D02*
X241103819Y-28369867D01*
X241103819Y-29893676D02*
X241103819Y-29322248D01*
X241103819Y-29607962D02*
X240103819Y-29607962D01*
X240103819Y-29607962D02*
X240246676Y-29512724D01*
X240246676Y-29512724D02*
X240341914Y-29417486D01*
X240341914Y-29417486D02*
X240389533Y-29322248D01*
D11*
%TO.C,L1*%
X269704600Y-70420400D02*
X269704600Y-62980400D01*
X269704600Y-62980400D02*
X261184600Y-62980400D01*
X261184600Y-70420400D02*
X269704600Y-70420400D01*
X261184600Y-62980400D02*
X261184600Y-70420400D01*
%TO.C,R4*%
X236437852Y-45067800D02*
X233665348Y-45067800D01*
X236437852Y-41647800D02*
X233665348Y-41647800D01*
%TO.C,laser_B1*%
X272826400Y-33940600D02*
X274096400Y-33940600D01*
X274096400Y-33940600D02*
X274096400Y-32670600D01*
X269906400Y-31627671D02*
X269906400Y-31230600D01*
X270666400Y-31627671D02*
X270666400Y-31230600D01*
X272446400Y-31560600D02*
X272446400Y-31230600D01*
X273206400Y-31560600D02*
X273206400Y-31230600D01*
X268956400Y-31230600D02*
X268956400Y-28570600D01*
X271556400Y-31230600D02*
X271556400Y-28570600D01*
X274156400Y-31230600D02*
X268956400Y-31230600D01*
X268956400Y-28570600D02*
X274156400Y-28570600D01*
X270666400Y-28570600D02*
X270666400Y-22570600D01*
X272546400Y-28570600D02*
X272546400Y-22570600D01*
X272666400Y-28570600D02*
X272666400Y-22570600D01*
X272786400Y-28570600D02*
X272786400Y-22570600D01*
X272906400Y-28570600D02*
X272906400Y-22570600D01*
X273026400Y-28570600D02*
X273026400Y-22570600D01*
X273146400Y-28570600D02*
X273146400Y-22570600D01*
X273206400Y-28570600D02*
X273206400Y-22570600D01*
X274156400Y-28570600D02*
X274156400Y-31230600D01*
X269906400Y-22570600D02*
X269906400Y-28570600D01*
X270666400Y-22570600D02*
X269906400Y-22570600D01*
X272446400Y-22570600D02*
X272446400Y-28570600D01*
X273206400Y-22570600D02*
X272446400Y-22570600D01*
%TO.C,R6*%
X246613252Y-55304000D02*
X243840748Y-55304000D01*
X246613252Y-51884000D02*
X243840748Y-51884000D01*
%TO.C,+15supply1*%
X270103600Y-81381600D02*
X270103600Y-82651600D01*
X270103600Y-82651600D02*
X271373600Y-82651600D01*
X272416529Y-78461600D02*
X272813600Y-78461600D01*
X272416529Y-79221600D02*
X272813600Y-79221600D01*
X272483600Y-81001600D02*
X272813600Y-81001600D01*
X272483600Y-81761600D02*
X272813600Y-81761600D01*
X272813600Y-77511600D02*
X275473600Y-77511600D01*
X272813600Y-80111600D02*
X275473600Y-80111600D01*
X272813600Y-82711600D02*
X272813600Y-77511600D01*
X275473600Y-77511600D02*
X275473600Y-82711600D01*
X275473600Y-79221600D02*
X281473600Y-79221600D01*
X275473600Y-81101600D02*
X281473600Y-81101600D01*
X275473600Y-81221600D02*
X281473600Y-81221600D01*
X275473600Y-81341600D02*
X281473600Y-81341600D01*
X275473600Y-81461600D02*
X281473600Y-81461600D01*
X275473600Y-81581600D02*
X281473600Y-81581600D01*
X275473600Y-81701600D02*
X281473600Y-81701600D01*
X275473600Y-81761600D02*
X281473600Y-81761600D01*
X275473600Y-82711600D02*
X272813600Y-82711600D01*
X281473600Y-78461600D02*
X275473600Y-78461600D01*
X281473600Y-79221600D02*
X281473600Y-78461600D01*
X281473600Y-81001600D02*
X275473600Y-81001600D01*
X281473600Y-81761600D02*
X281473600Y-81001600D01*
%TO.C,R15*%
X252137600Y-51398852D02*
X252137600Y-48626348D01*
X255557600Y-51398852D02*
X255557600Y-48626348D01*
%TO.C,R12*%
X246726252Y-67267400D02*
X243953748Y-67267400D01*
X246726252Y-63847400D02*
X243953748Y-63847400D01*
%TO.C,bat_probe1*%
X242341400Y-33909000D02*
X243611400Y-33909000D01*
X243611400Y-33909000D02*
X243611400Y-32639000D01*
X241961400Y-31529000D02*
X241961400Y-31199000D01*
X242721400Y-31529000D02*
X242721400Y-31199000D01*
X241011400Y-31199000D02*
X241011400Y-28539000D01*
X243671400Y-31199000D02*
X241011400Y-31199000D01*
X241011400Y-28539000D02*
X243671400Y-28539000D01*
X242061400Y-28539000D02*
X242061400Y-22539000D01*
X242181400Y-28539000D02*
X242181400Y-22539000D01*
X242301400Y-28539000D02*
X242301400Y-22539000D01*
X242421400Y-28539000D02*
X242421400Y-22539000D01*
X242541400Y-28539000D02*
X242541400Y-22539000D01*
X242661400Y-28539000D02*
X242661400Y-22539000D01*
X242721400Y-28539000D02*
X242721400Y-22539000D01*
X243671400Y-28539000D02*
X243671400Y-31199000D01*
X241961400Y-22539000D02*
X241961400Y-28539000D01*
X242721400Y-22539000D02*
X241961400Y-22539000D01*
%TO.C,R14*%
X262519748Y-56176600D02*
X265292252Y-56176600D01*
X262519748Y-59596600D02*
X265292252Y-59596600D01*
%TO.C,J1*%
X280730000Y-74990000D02*
X275530000Y-74990000D01*
X280730000Y-24070000D02*
X280730000Y-74990000D01*
X280730000Y-24070000D02*
X278130000Y-24070000D01*
X278130000Y-26670000D02*
X275530000Y-26670000D01*
X278130000Y-24070000D02*
X278130000Y-26670000D01*
X276860000Y-24070000D02*
X275530000Y-24070000D01*
X275530000Y-26670000D02*
X275530000Y-74990000D01*
X275530000Y-24070000D02*
X275530000Y-25400000D01*
%TO.C,laser_G1*%
X265206400Y-33915200D02*
X266476400Y-33915200D01*
X266476400Y-33915200D02*
X266476400Y-32645200D01*
X262286400Y-31602271D02*
X262286400Y-31205200D01*
X263046400Y-31602271D02*
X263046400Y-31205200D01*
X264826400Y-31535200D02*
X264826400Y-31205200D01*
X265586400Y-31535200D02*
X265586400Y-31205200D01*
X261336400Y-31205200D02*
X261336400Y-28545200D01*
X263936400Y-31205200D02*
X263936400Y-28545200D01*
X266536400Y-31205200D02*
X261336400Y-31205200D01*
X261336400Y-28545200D02*
X266536400Y-28545200D01*
X263046400Y-28545200D02*
X263046400Y-22545200D01*
X264926400Y-28545200D02*
X264926400Y-22545200D01*
X265046400Y-28545200D02*
X265046400Y-22545200D01*
X265166400Y-28545200D02*
X265166400Y-22545200D01*
X265286400Y-28545200D02*
X265286400Y-22545200D01*
X265406400Y-28545200D02*
X265406400Y-22545200D01*
X265526400Y-28545200D02*
X265526400Y-22545200D01*
X265586400Y-28545200D02*
X265586400Y-22545200D01*
X266536400Y-28545200D02*
X266536400Y-31205200D01*
X262286400Y-22545200D02*
X262286400Y-28545200D01*
X263046400Y-22545200D02*
X262286400Y-22545200D01*
X264826400Y-22545200D02*
X264826400Y-28545200D01*
X265586400Y-22545200D02*
X264826400Y-22545200D01*
%TO.C,R9*%
X236056852Y-71331400D02*
X233284348Y-71331400D01*
X236056852Y-67911400D02*
X233284348Y-67911400D01*
%TO.C,R11*%
X236056852Y-66327600D02*
X233284348Y-66327600D01*
X236056852Y-62907600D02*
X233284348Y-62907600D01*
%TO.C,R8*%
X258081200Y-43855052D02*
X258081200Y-41082548D01*
X261501200Y-43855052D02*
X261501200Y-41082548D01*
%TO.C,R5*%
X236361652Y-51163800D02*
X233589148Y-51163800D01*
X236361652Y-47743800D02*
X233589148Y-47743800D01*
%TO.C,encoder1*%
X231450800Y-72456600D02*
X230180800Y-72456600D01*
X230180800Y-72456600D02*
X230180800Y-73726600D01*
X239450800Y-74769529D02*
X239450800Y-75166600D01*
X238690800Y-74769529D02*
X238690800Y-75166600D01*
X236910800Y-74769529D02*
X236910800Y-75166600D01*
X236150800Y-74769529D02*
X236150800Y-75166600D01*
X234370800Y-74769529D02*
X234370800Y-75166600D01*
X233610800Y-74769529D02*
X233610800Y-75166600D01*
X231830800Y-74836600D02*
X231830800Y-75166600D01*
X231070800Y-74836600D02*
X231070800Y-75166600D01*
X240400800Y-75166600D02*
X240400800Y-77826600D01*
X237800800Y-75166600D02*
X237800800Y-77826600D01*
X235260800Y-75166600D02*
X235260800Y-77826600D01*
X232720800Y-75166600D02*
X232720800Y-77826600D01*
X230120800Y-75166600D02*
X240400800Y-75166600D01*
X240400800Y-77826600D02*
X230120800Y-77826600D01*
X238690800Y-77826600D02*
X238690800Y-83826600D01*
X236150800Y-77826600D02*
X236150800Y-83826600D01*
X233610800Y-77826600D02*
X233610800Y-83826600D01*
X231730800Y-77826600D02*
X231730800Y-83826600D01*
X231610800Y-77826600D02*
X231610800Y-83826600D01*
X231490800Y-77826600D02*
X231490800Y-83826600D01*
X231370800Y-77826600D02*
X231370800Y-83826600D01*
X231250800Y-77826600D02*
X231250800Y-83826600D01*
X231130800Y-77826600D02*
X231130800Y-83826600D01*
X231070800Y-77826600D02*
X231070800Y-83826600D01*
X230120800Y-77826600D02*
X230120800Y-75166600D01*
X239450800Y-83826600D02*
X239450800Y-77826600D01*
X238690800Y-83826600D02*
X239450800Y-83826600D01*
X236910800Y-83826600D02*
X236910800Y-77826600D01*
X236150800Y-83826600D02*
X236910800Y-83826600D01*
X234370800Y-83826600D02*
X234370800Y-77826600D01*
X233610800Y-83826600D02*
X234370800Y-83826600D01*
X231830800Y-83826600D02*
X231830800Y-77826600D01*
X231070800Y-83826600D02*
X231830800Y-83826600D01*
%TO.C,galPWR1*%
X263347200Y-72263000D02*
X262077200Y-72263000D01*
X262077200Y-72263000D02*
X262077200Y-73533000D01*
X268807200Y-74575929D02*
X268807200Y-74973000D01*
X268047200Y-74575929D02*
X268047200Y-74973000D01*
X266267200Y-74575929D02*
X266267200Y-74973000D01*
X265507200Y-74575929D02*
X265507200Y-74973000D01*
X263727200Y-74643000D02*
X263727200Y-74973000D01*
X262967200Y-74643000D02*
X262967200Y-74973000D01*
X269757200Y-74973000D02*
X269757200Y-77633000D01*
X267157200Y-74973000D02*
X267157200Y-77633000D01*
X264617200Y-74973000D02*
X264617200Y-77633000D01*
X262017200Y-74973000D02*
X269757200Y-74973000D01*
X269757200Y-77633000D02*
X262017200Y-77633000D01*
X268047200Y-77633000D02*
X268047200Y-83633000D01*
X265507200Y-77633000D02*
X265507200Y-83633000D01*
X263627200Y-77633000D02*
X263627200Y-83633000D01*
X263507200Y-77633000D02*
X263507200Y-83633000D01*
X263387200Y-77633000D02*
X263387200Y-83633000D01*
X263267200Y-77633000D02*
X263267200Y-83633000D01*
X263147200Y-77633000D02*
X263147200Y-83633000D01*
X263027200Y-77633000D02*
X263027200Y-83633000D01*
X262967200Y-77633000D02*
X262967200Y-83633000D01*
X262017200Y-77633000D02*
X262017200Y-74973000D01*
X268807200Y-83633000D02*
X268807200Y-77633000D01*
X268047200Y-83633000D02*
X268807200Y-83633000D01*
X266267200Y-83633000D02*
X266267200Y-77633000D01*
X265507200Y-83633000D02*
X266267200Y-83633000D01*
X263727200Y-83633000D02*
X263727200Y-77633000D01*
X262967200Y-83633000D02*
X263727200Y-83633000D01*
%TO.C,pwrSW_PU1*%
X272423200Y-39848148D02*
X272423200Y-42620652D01*
X269003200Y-39848148D02*
X269003200Y-42620652D01*
%TO.C,R1*%
X233716148Y-36517000D02*
X236488652Y-36517000D01*
X233716148Y-39937000D02*
X236488652Y-39937000D01*
%TO.C,R7*%
X233360548Y-56811600D02*
X236133052Y-56811600D01*
X233360548Y-60231600D02*
X236133052Y-60231600D01*
%TO.C,pwrSW1*%
X251536200Y-33909000D02*
X252806200Y-33909000D01*
X252806200Y-33909000D02*
X252806200Y-32639000D01*
X246076200Y-31596071D02*
X246076200Y-31199000D01*
X246836200Y-31596071D02*
X246836200Y-31199000D01*
X248616200Y-31596071D02*
X248616200Y-31199000D01*
X249376200Y-31596071D02*
X249376200Y-31199000D01*
X251156200Y-31529000D02*
X251156200Y-31199000D01*
X251916200Y-31529000D02*
X251916200Y-31199000D01*
X245126200Y-31199000D02*
X245126200Y-28539000D01*
X247726200Y-31199000D02*
X247726200Y-28539000D01*
X250266200Y-31199000D02*
X250266200Y-28539000D01*
X252866200Y-31199000D02*
X245126200Y-31199000D01*
X245126200Y-28539000D02*
X252866200Y-28539000D01*
X246836200Y-28539000D02*
X246836200Y-22539000D01*
X249376200Y-28539000D02*
X249376200Y-22539000D01*
X251256200Y-28539000D02*
X251256200Y-22539000D01*
X251376200Y-28539000D02*
X251376200Y-22539000D01*
X251496200Y-28539000D02*
X251496200Y-22539000D01*
X251616200Y-28539000D02*
X251616200Y-22539000D01*
X251736200Y-28539000D02*
X251736200Y-22539000D01*
X251856200Y-28539000D02*
X251856200Y-22539000D01*
X251916200Y-28539000D02*
X251916200Y-22539000D01*
X252866200Y-28539000D02*
X252866200Y-31199000D01*
X246076200Y-22539000D02*
X246076200Y-28539000D01*
X246836200Y-22539000D02*
X246076200Y-22539000D01*
X248616200Y-22539000D02*
X248616200Y-28539000D01*
X249376200Y-22539000D02*
X248616200Y-22539000D01*
X251156200Y-22539000D02*
X251156200Y-28539000D01*
X251916200Y-22539000D02*
X251156200Y-22539000D01*
%TO.C,R10*%
X250613600Y-42204052D02*
X250613600Y-39431548D01*
X254033600Y-42204052D02*
X254033600Y-39431548D01*
%TO.C,laser_R1*%
X257662600Y-33940600D02*
X258932600Y-33940600D01*
X258932600Y-33940600D02*
X258932600Y-32670600D01*
X254742600Y-31627671D02*
X254742600Y-31230600D01*
X255502600Y-31627671D02*
X255502600Y-31230600D01*
X257282600Y-31560600D02*
X257282600Y-31230600D01*
X258042600Y-31560600D02*
X258042600Y-31230600D01*
X253792600Y-31230600D02*
X253792600Y-28570600D01*
X256392600Y-31230600D02*
X256392600Y-28570600D01*
X258992600Y-31230600D02*
X253792600Y-31230600D01*
X253792600Y-28570600D02*
X258992600Y-28570600D01*
X255502600Y-28570600D02*
X255502600Y-22570600D01*
X257382600Y-28570600D02*
X257382600Y-22570600D01*
X257502600Y-28570600D02*
X257502600Y-22570600D01*
X257622600Y-28570600D02*
X257622600Y-22570600D01*
X257742600Y-28570600D02*
X257742600Y-22570600D01*
X257862600Y-28570600D02*
X257862600Y-22570600D01*
X257982600Y-28570600D02*
X257982600Y-22570600D01*
X258042600Y-28570600D02*
X258042600Y-22570600D01*
X258992600Y-28570600D02*
X258992600Y-31230600D01*
X254742600Y-22570600D02*
X254742600Y-28570600D01*
X255502600Y-22570600D02*
X254742600Y-22570600D01*
X257282600Y-22570600D02*
X257282600Y-28570600D01*
X258042600Y-22570600D02*
X257282600Y-22570600D01*
%TO.C,galX1*%
X243982000Y-72358400D02*
X242712000Y-72358400D01*
X242712000Y-72358400D02*
X242712000Y-73628400D01*
X249442000Y-74671329D02*
X249442000Y-75068400D01*
X248682000Y-74671329D02*
X248682000Y-75068400D01*
X246902000Y-74671329D02*
X246902000Y-75068400D01*
X246142000Y-74671329D02*
X246142000Y-75068400D01*
X244362000Y-74738400D02*
X244362000Y-75068400D01*
X243602000Y-74738400D02*
X243602000Y-75068400D01*
X250392000Y-75068400D02*
X250392000Y-77728400D01*
X247792000Y-75068400D02*
X247792000Y-77728400D01*
X245252000Y-75068400D02*
X245252000Y-77728400D01*
X242652000Y-75068400D02*
X250392000Y-75068400D01*
X250392000Y-77728400D02*
X242652000Y-77728400D01*
X248682000Y-77728400D02*
X248682000Y-83728400D01*
X246142000Y-77728400D02*
X246142000Y-83728400D01*
X244262000Y-77728400D02*
X244262000Y-83728400D01*
X244142000Y-77728400D02*
X244142000Y-83728400D01*
X244022000Y-77728400D02*
X244022000Y-83728400D01*
X243902000Y-77728400D02*
X243902000Y-83728400D01*
X243782000Y-77728400D02*
X243782000Y-83728400D01*
X243662000Y-77728400D02*
X243662000Y-83728400D01*
X243602000Y-77728400D02*
X243602000Y-83728400D01*
X242652000Y-77728400D02*
X242652000Y-75068400D01*
X249442000Y-83728400D02*
X249442000Y-77728400D01*
X248682000Y-83728400D02*
X249442000Y-83728400D01*
X246902000Y-83728400D02*
X246902000Y-77728400D01*
X246142000Y-83728400D02*
X246902000Y-83728400D01*
X244362000Y-83728400D02*
X244362000Y-77728400D01*
X243602000Y-83728400D02*
X244362000Y-83728400D01*
%TO.C,galY1*%
X253415800Y-72339200D02*
X252145800Y-72339200D01*
X252145800Y-72339200D02*
X252145800Y-73609200D01*
X258875800Y-74652129D02*
X258875800Y-75049200D01*
X258115800Y-74652129D02*
X258115800Y-75049200D01*
X256335800Y-74652129D02*
X256335800Y-75049200D01*
X255575800Y-74652129D02*
X255575800Y-75049200D01*
X253795800Y-74719200D02*
X253795800Y-75049200D01*
X253035800Y-74719200D02*
X253035800Y-75049200D01*
X259825800Y-75049200D02*
X259825800Y-77709200D01*
X257225800Y-75049200D02*
X257225800Y-77709200D01*
X254685800Y-75049200D02*
X254685800Y-77709200D01*
X252085800Y-75049200D02*
X259825800Y-75049200D01*
X259825800Y-77709200D02*
X252085800Y-77709200D01*
X258115800Y-77709200D02*
X258115800Y-83709200D01*
X255575800Y-77709200D02*
X255575800Y-83709200D01*
X253695800Y-77709200D02*
X253695800Y-83709200D01*
X253575800Y-77709200D02*
X253575800Y-83709200D01*
X253455800Y-77709200D02*
X253455800Y-83709200D01*
X253335800Y-77709200D02*
X253335800Y-83709200D01*
X253215800Y-77709200D02*
X253215800Y-83709200D01*
X253095800Y-77709200D02*
X253095800Y-83709200D01*
X253035800Y-77709200D02*
X253035800Y-83709200D01*
X252085800Y-77709200D02*
X252085800Y-75049200D01*
X258875800Y-83709200D02*
X258875800Y-77709200D01*
X258115800Y-83709200D02*
X258875800Y-83709200D01*
X256335800Y-83709200D02*
X256335800Y-77709200D01*
X255575800Y-83709200D02*
X256335800Y-83709200D01*
X253795800Y-83709200D02*
X253795800Y-77709200D01*
X253035800Y-83709200D02*
X253795800Y-83709200D01*
%TO.C,D2*%
X260839800Y-48413600D02*
X260839800Y-54913600D01*
X260839800Y-48413600D02*
X272039800Y-48413600D01*
X260839800Y-54913600D02*
X272039800Y-54913600D01*
%TO.C,LCD1*%
X238379000Y-33858200D02*
X239649000Y-33858200D01*
X239649000Y-33858200D02*
X239649000Y-32588200D01*
X227839000Y-31545271D02*
X227839000Y-31148200D01*
X228599000Y-31545271D02*
X228599000Y-31148200D01*
X230379000Y-31545271D02*
X230379000Y-31148200D01*
X231139000Y-31545271D02*
X231139000Y-31148200D01*
X232919000Y-31545271D02*
X232919000Y-31148200D01*
X233679000Y-31545271D02*
X233679000Y-31148200D01*
X235459000Y-31545271D02*
X235459000Y-31148200D01*
X236219000Y-31545271D02*
X236219000Y-31148200D01*
X237999000Y-31478200D02*
X237999000Y-31148200D01*
X238759000Y-31478200D02*
X238759000Y-31148200D01*
X226889000Y-31148200D02*
X226889000Y-28488200D01*
X229489000Y-31148200D02*
X229489000Y-28488200D01*
X232029000Y-31148200D02*
X232029000Y-28488200D01*
X234569000Y-31148200D02*
X234569000Y-28488200D01*
X237109000Y-31148200D02*
X237109000Y-28488200D01*
X239709000Y-31148200D02*
X226889000Y-31148200D01*
X226889000Y-28488200D02*
X239709000Y-28488200D01*
X228599000Y-28488200D02*
X228599000Y-22488200D01*
X231139000Y-28488200D02*
X231139000Y-22488200D01*
X233679000Y-28488200D02*
X233679000Y-22488200D01*
X236219000Y-28488200D02*
X236219000Y-22488200D01*
X238099000Y-28488200D02*
X238099000Y-22488200D01*
X238219000Y-28488200D02*
X238219000Y-22488200D01*
X238339000Y-28488200D02*
X238339000Y-22488200D01*
X238459000Y-28488200D02*
X238459000Y-22488200D01*
X238579000Y-28488200D02*
X238579000Y-22488200D01*
X238699000Y-28488200D02*
X238699000Y-22488200D01*
X238759000Y-28488200D02*
X238759000Y-22488200D01*
X239709000Y-28488200D02*
X239709000Y-31148200D01*
X227839000Y-22488200D02*
X227839000Y-28488200D01*
X228599000Y-22488200D02*
X227839000Y-22488200D01*
X230379000Y-22488200D02*
X230379000Y-28488200D01*
X231139000Y-22488200D02*
X230379000Y-22488200D01*
X232919000Y-22488200D02*
X232919000Y-28488200D01*
X233679000Y-22488200D02*
X232919000Y-22488200D01*
X235459000Y-22488200D02*
X235459000Y-28488200D01*
X236219000Y-22488200D02*
X235459000Y-22488200D01*
X237999000Y-22488200D02*
X237999000Y-28488200D01*
X238759000Y-22488200D02*
X237999000Y-22488200D01*
%TD*%
M02*
