%TF.GenerationSoftware,KiCad,Pcbnew,7.0.10*%
%TF.CreationDate,2024-01-28T16:57:24+01:00*%
%TF.ProjectId,pcb,7063622e-6b69-4636-9164-5f7063625858,rev?*%
%TF.SameCoordinates,Original*%
%TF.FileFunction,Soldermask,Top*%
%TF.FilePolarity,Negative*%
%FSLAX46Y46*%
G04 Gerber Fmt 4.6, Leading zero omitted, Abs format (unit mm)*
G04 Created by KiCad (PCBNEW 7.0.10) date 2024-01-28 16:57:24*
%MOMM*%
%LPD*%
G01*
G04 APERTURE LIST*
G04 Aperture macros list*
%AMRoundRect*
0 Rectangle with rounded corners*
0 $1 Rounding radius*
0 $2 $3 $4 $5 $6 $7 $8 $9 X,Y pos of 4 corners*
0 Add a 4 corners polygon primitive as box body*
4,1,4,$2,$3,$4,$5,$6,$7,$8,$9,$2,$3,0*
0 Add four circle primitives for the rounded corners*
1,1,$1+$1,$2,$3*
1,1,$1+$1,$4,$5*
1,1,$1+$1,$6,$7*
1,1,$1+$1,$8,$9*
0 Add four rect primitives between the rounded corners*
20,1,$1+$1,$2,$3,$4,$5,0*
20,1,$1+$1,$4,$5,$6,$7,0*
20,1,$1+$1,$6,$7,$8,$9,0*
20,1,$1+$1,$8,$9,$2,$3,0*%
G04 Aperture macros list end*
%ADD10C,1.600000*%
%ADD11RoundRect,0.250000X0.400000X1.450000X-0.400000X1.450000X-0.400000X-1.450000X0.400000X-1.450000X0*%
%ADD12RoundRect,0.250000X1.450000X-0.400000X1.450000X0.400000X-1.450000X0.400000X-1.450000X-0.400000X0*%
%ADD13R,1.600000X1.600000*%
%ADD14O,1.600000X1.600000*%
%ADD15RoundRect,0.150000X-0.150000X0.512500X-0.150000X-0.512500X0.150000X-0.512500X0.150000X0.512500X0*%
%ADD16R,1.800000X1.800000*%
%ADD17C,1.800000*%
%ADD18RoundRect,0.999000X-0.501000X-1.751000X0.501000X-1.751000X0.501000X1.751000X-0.501000X1.751000X0*%
%ADD19R,4.500000X3.300000*%
%ADD20R,1.700000X1.700000*%
%ADD21O,1.700000X1.700000*%
G04 APERTURE END LIST*
D10*
%TO.C,C1*%
X258572000Y-54366800D03*
X258572000Y-49366800D03*
%TD*%
D11*
%TO.C,R13*%
X266156400Y-57861200D03*
X261706400Y-57861200D03*
%TD*%
D12*
%TO.C,R3*%
X252298200Y-43093600D03*
X252298200Y-38643600D03*
%TD*%
D13*
%TO.C,U3*%
X249103200Y-49641600D03*
D14*
X246563200Y-49641600D03*
X244023200Y-49641600D03*
X241483200Y-49641600D03*
X241483200Y-57261600D03*
X244023200Y-57261600D03*
X246563200Y-57261600D03*
X249103200Y-57261600D03*
%TD*%
D13*
%TO.C,C2*%
X254441888Y-67081400D03*
D10*
X256441888Y-67081400D03*
%TD*%
D15*
%TO.C,U6*%
X271000000Y-58222300D03*
X270050000Y-58222300D03*
X269100000Y-58222300D03*
X269100000Y-60497300D03*
X270050000Y-60497300D03*
X271000000Y-60497300D03*
%TD*%
D16*
%TO.C,Xgain1*%
X227450400Y-57206200D03*
D17*
X227450400Y-59706200D03*
X227450400Y-62206200D03*
%TD*%
D13*
%TO.C,U5*%
X266547600Y-37221000D03*
D14*
X266547600Y-39761000D03*
X266547600Y-42301000D03*
X266547600Y-44841000D03*
X274167600Y-44841000D03*
X274167600Y-42301000D03*
X274167600Y-39761000D03*
X274167600Y-37221000D03*
%TD*%
D16*
%TO.C,Ygain1*%
X227450400Y-36078000D03*
D17*
X227450400Y-38578000D03*
X227450400Y-41078000D03*
%TD*%
D13*
%TO.C,C3*%
X253756088Y-60071000D03*
D10*
X255756088Y-60071000D03*
%TD*%
D18*
%TO.C,L2*%
X265078200Y-66700400D03*
X270078200Y-66700400D03*
%TD*%
D16*
%TO.C,Yoffset1*%
X227525800Y-46512800D03*
D17*
X227525800Y-49012800D03*
X227525800Y-51512800D03*
%TD*%
D13*
%TO.C,U4*%
X256169000Y-37119400D03*
D14*
X256169000Y-39659400D03*
X256169000Y-42199400D03*
X256169000Y-44739400D03*
X263789000Y-44739400D03*
X263789000Y-42199400D03*
X263789000Y-39659400D03*
X263789000Y-37119400D03*
%TD*%
D16*
%TO.C,Xoffset1*%
X227496600Y-67816400D03*
D17*
X227496600Y-70316400D03*
X227496600Y-72816400D03*
%TD*%
D13*
%TO.C,U1*%
X248325800Y-44973400D03*
D14*
X248325800Y-42433400D03*
X248325800Y-39893400D03*
X248325800Y-37353400D03*
X240705800Y-37353400D03*
X240705800Y-39893400D03*
X240705800Y-42433400D03*
X240705800Y-44973400D03*
%TD*%
D12*
%TO.C,R2*%
X253949200Y-54726800D03*
X253949200Y-50276800D03*
%TD*%
D13*
%TO.C,U2*%
X249138600Y-61569600D03*
D14*
X246598600Y-61569600D03*
X244058600Y-61569600D03*
X241518600Y-61569600D03*
X241518600Y-69189600D03*
X244058600Y-69189600D03*
X246598600Y-69189600D03*
X249138600Y-69189600D03*
%TD*%
D19*
%TO.C,D1*%
X263239800Y-51663600D03*
X272039800Y-51663600D03*
%TD*%
D20*
%TO.C,laser_B1*%
X272826400Y-32670600D03*
D21*
X270286400Y-32670600D03*
%TD*%
D20*
%TO.C,+15supply1*%
X271373600Y-81381600D03*
D21*
X271373600Y-78841600D03*
%TD*%
D20*
%TO.C,bat_probe1*%
X242341400Y-32639000D03*
%TD*%
%TO.C,J1*%
X276860000Y-25400000D03*
D21*
X279400000Y-25400000D03*
X276860000Y-27940000D03*
X279400000Y-27940000D03*
X276860000Y-30480000D03*
X279400000Y-30480000D03*
X276860000Y-33020000D03*
X279400000Y-33020000D03*
X276860000Y-35560000D03*
X279400000Y-35560000D03*
X276860000Y-38100000D03*
X279400000Y-38100000D03*
X276860000Y-40640000D03*
X279400000Y-40640000D03*
X276860000Y-43180000D03*
X279400000Y-43180000D03*
X276860000Y-45720000D03*
X279400000Y-45720000D03*
X276860000Y-48260000D03*
X279400000Y-48260000D03*
X276860000Y-50800000D03*
X279400000Y-50800000D03*
X276860000Y-53340000D03*
X279400000Y-53340000D03*
X276860000Y-55880000D03*
X279400000Y-55880000D03*
X276860000Y-58420000D03*
X279400000Y-58420000D03*
X276860000Y-60960000D03*
X279400000Y-60960000D03*
X276860000Y-63500000D03*
X279400000Y-63500000D03*
X276860000Y-66040000D03*
X279400000Y-66040000D03*
X276860000Y-68580000D03*
X279400000Y-68580000D03*
X276860000Y-71120000D03*
X279400000Y-71120000D03*
X276860000Y-73660000D03*
X279400000Y-73660000D03*
%TD*%
D20*
%TO.C,laser_G1*%
X265206400Y-32645200D03*
D21*
X262666400Y-32645200D03*
%TD*%
D20*
%TO.C,encoder1*%
X231450800Y-73726600D03*
D21*
X233990800Y-73726600D03*
X236530800Y-73726600D03*
X239070800Y-73726600D03*
%TD*%
D20*
%TO.C,galPWR1*%
X263347200Y-73533000D03*
D21*
X265887200Y-73533000D03*
X268427200Y-73533000D03*
%TD*%
D20*
%TO.C,pwrSW1*%
X251536200Y-32639000D03*
D21*
X248996200Y-32639000D03*
X246456200Y-32639000D03*
%TD*%
D20*
%TO.C,laser_R1*%
X257662600Y-32670600D03*
D21*
X255122600Y-32670600D03*
%TD*%
D20*
%TO.C,galX1*%
X243982000Y-73628400D03*
D21*
X246522000Y-73628400D03*
X249062000Y-73628400D03*
%TD*%
D20*
%TO.C,galY1*%
X253415800Y-73609200D03*
D21*
X255955800Y-73609200D03*
X258495800Y-73609200D03*
%TD*%
D20*
%TO.C,LCD1*%
X238379000Y-32588200D03*
D21*
X235839000Y-32588200D03*
X233299000Y-32588200D03*
X230759000Y-32588200D03*
X228219000Y-32588200D03*
%TD*%
M02*
