M48
; DRILL file {KiCad 7.0.10} date Sun Jan 28 16:57:27 2024
; FORMAT={-:-/ absolute / metric / decimal}
; #@! TF.CreationDate,2024-01-28T16:57:27+01:00
; #@! TF.GenerationSoftware,Kicad,Pcbnew,7.0.10
; #@! TF.FileFunction,MixedPlating,1,2
FMAT,2
METRIC
; #@! TA.AperFunction,Plated,PTH,ViaDrill
T1C0.400
; #@! TA.AperFunction,Plated,PTH,ComponentDrill
T2C0.800
; #@! TA.AperFunction,Plated,PTH,ComponentDrill
T3C1.000
%
G90
G05
T1
X231.358Y-43.358
X237.007Y-58.699
X239.5Y-70.764
X240.233Y-54.534
X245.897Y-37.338
X247.701Y-59.893
X258.9Y-43.0
X259.461Y-37.186
X260.299Y-68.326
X260.7Y-43.0
X260.707Y-61.505
X260.782Y-47.803
X261.671Y-48.666
X261.671Y-57.836
X261.696Y-63.094
X264.5Y-57.0
X264.5Y-59.0
X265.176Y-43.561
X268.8Y-51.664
X270.053Y-55.85
X270.713Y-42.113
X272.15Y-60.5
X272.212Y-37.236
T2
X240.706Y-37.353
X240.706Y-39.893
X240.706Y-42.433
X240.706Y-44.973
X241.483Y-49.642
X241.483Y-57.262
X241.519Y-61.57
X241.519Y-69.19
X244.023Y-49.642
X244.023Y-57.262
X244.059Y-61.57
X244.059Y-69.19
X246.563Y-49.642
X246.563Y-57.262
X246.599Y-61.57
X246.599Y-69.19
X248.326Y-37.353
X248.326Y-39.893
X248.326Y-42.433
X248.326Y-44.973
X249.103Y-49.642
X249.103Y-57.262
X249.139Y-61.57
X249.139Y-69.19
X253.756Y-60.071
X254.442Y-67.081
X255.756Y-60.071
X256.169Y-37.119
X256.169Y-39.659
X256.169Y-42.199
X256.169Y-44.739
X256.442Y-67.081
X258.572Y-49.367
X258.572Y-54.367
X263.789Y-37.119
X263.789Y-39.659
X263.789Y-42.199
X263.789Y-44.739
X266.548Y-37.221
X266.548Y-39.761
X266.548Y-42.301
X266.548Y-44.841
X274.168Y-37.221
X274.168Y-39.761
X274.168Y-42.301
X274.168Y-44.841
T3
X227.45Y-36.078
X227.45Y-38.578
X227.45Y-41.078
X227.45Y-57.206
X227.45Y-59.706
X227.45Y-62.206
X227.497Y-67.816
X227.497Y-70.316
X227.497Y-72.816
X227.526Y-46.513
X227.526Y-49.013
X227.526Y-51.513
X228.219Y-32.588
X230.759Y-32.588
X231.451Y-73.727
X233.299Y-32.588
X233.991Y-73.727
X235.839Y-32.588
X236.531Y-73.727
X238.379Y-32.588
X239.071Y-73.727
X242.341Y-32.639
X243.982Y-73.628
X246.456Y-32.639
X246.522Y-73.628
X248.996Y-32.639
X249.062Y-73.628
X251.536Y-32.639
X253.416Y-73.609
X255.123Y-32.671
X255.956Y-73.609
X257.663Y-32.671
X258.496Y-73.609
X262.666Y-32.645
X263.347Y-73.533
X265.206Y-32.645
X265.887Y-73.533
X268.427Y-73.533
X270.286Y-32.671
X271.374Y-78.842
X271.374Y-81.382
X272.826Y-32.671
X276.86Y-25.4
X276.86Y-27.94
X276.86Y-30.48
X276.86Y-33.02
X276.86Y-35.56
X276.86Y-38.1
X276.86Y-40.64
X276.86Y-43.18
X276.86Y-45.72
X276.86Y-48.26
X276.86Y-50.8
X276.86Y-53.34
X276.86Y-55.88
X276.86Y-58.42
X276.86Y-60.96
X276.86Y-63.5
X276.86Y-66.04
X276.86Y-68.58
X276.86Y-71.12
X276.86Y-73.66
X279.4Y-25.4
X279.4Y-27.94
X279.4Y-30.48
X279.4Y-33.02
X279.4Y-35.56
X279.4Y-38.1
X279.4Y-40.64
X279.4Y-43.18
X279.4Y-45.72
X279.4Y-48.26
X279.4Y-50.8
X279.4Y-53.34
X279.4Y-55.88
X279.4Y-58.42
X279.4Y-60.96
X279.4Y-63.5
X279.4Y-66.04
X279.4Y-68.58
X279.4Y-71.12
X279.4Y-73.66
M30
