<?xml version='1.0' encoding='ascii'?>
<svg xmlns="http://www.w3.org/2000/svg" version="1.1" width="1080" height="1080">
    <g id="ViewLayer_LineSet" xmlns:inkscape="http://www.inkscape.org/namespaces/inkscape" inkscape:groupmode="lineset" inkscape:label="ViewLayer_LineSet">
        <g xmlns:inkscape="http://www.inkscape.org/namespaces/inkscape" inkscape:groupmode="layer" id="strokes" inkscape:label="strokes">
            <path fill="none" stroke-width="3.0" stroke-linecap="butt" stroke-opacity="1.0" stroke="rgb(0, 0, 0)" stroke-linejoin="round" d=" M 136.463, 306.005 137.695, 315.929 138.927, 325.853 140.159, 335.777 141.391, 345.701 142.623, 355.624 143.855, 365.548 145.087, 375.472 146.319, 385.396 147.551, 395.320 148.784, 405.244 150.016, 415.167 151.248, 425.091 152.480, 435.015 153.712, 444.939 154.944, 454.863 156.176, 464.786 157.408, 474.710 158.640, 484.634 159.872, 494.558 161.104, 504.482 162.336, 514.405 163.568, 524.329 164.800, 534.253 166.032, 544.177 167.264, 554.101 167.822, 558.590 176.270, 563.941 184.717, 569.292 193.165, 574.643 201.613, 579.995 210.061, 585.346 218.508, 590.697 226.956, 596.048 235.404, 601.399 243.852, 606.751 252.299, 612.102 260.747, 617.453 269.195, 622.804 277.643, 628.155 286.090, 633.507 294.538, 638.858 302.986, 644.209 311.434, 649.560 319.882, 654.911 322.672, 656.679 331.851, 652.710 341.029, 648.740 350.207, 644.771 359.386, 640.801 368.564, 636.832 377.743, 632.862 386.921, 628.893 396.099, 624.923 405.278, 620.953 414.456, 616.984 423.635, 613.014 432.813, 609.045 441.991, 605.075 451.170, 601.106 460.348, 597.136 469.527, 593.167 478.705, 589.197 487.883, 585.228 497.062, 581.258 506.240, 577.289 515.419, 573.319 524.597, 569.350 533.775, 565.380 537.865, 563.611 537.858, 553.611 537.851, 543.611 537.844, 533.611 537.837, 523.611 537.830, 513.611 537.823, 503.611 537.816, 493.611 537.808, 483.611 537.801, 473.611 537.794, 463.611 537.787, 453.611 537.780, 443.611 537.773, 433.611 537.766, 423.611 537.758, 413.611 537.751, 403.611 537.744, 393.611 537.737, 383.611 537.730, 373.611 537.723, 363.611 537.716, 353.611 537.709, 343.611 537.701, 333.611 537.694, 323.611 537.687, 313.611 537.684, 309.653 528.180, 306.545 518.675, 303.437 509.170, 300.329 499.665, 297.221 490.160, 294.113 480.656, 291.005 471.151, 287.898 461.646, 284.790 452.141, 281.682 442.637, 278.574 433.132, 275.466 423.627, 272.358 414.122, 269.250 404.617, 266.142 395.113, 263.034 385.608, 259.926 376.103, 256.818 366.598, 253.710 363.518, 252.703 353.783, 254.989 344.048, 257.274 334.312, 259.560 324.577, 261.845 314.842, 264.130 305.106, 266.416 295.371, 268.701 285.636, 270.987 275.900, 273.272 266.165, 275.557 256.430, 277.843 246.694, 280.128 236.959, 282.414 227.223, 284.699 217.488, 286.984 207.753, 289.270 198.017, 291.555 188.282, 293.841 178.547, 296.126 168.811, 298.411 159.076, 300.697 149.341, 302.982 139.605, 305.268 136.463, 306.005 " />
            <path fill="none" stroke-width="3.0" stroke-linecap="butt" stroke-opacity="1.0" stroke="rgb(0, 0, 0)" stroke-linejoin="round" d=" M 537.684, 309.653 528.079, 312.436 518.474, 315.219 508.869, 318.002 499.264, 320.784 489.659, 323.567 480.054, 326.350 470.449, 329.133 460.845, 331.916 451.240, 334.699 441.635, 337.482 432.030, 340.265 422.425, 343.047 412.820, 345.830 403.215, 348.613 393.610, 351.396 384.005, 354.179 374.400, 356.962 364.795, 359.745 355.190, 362.528 345.585, 365.310 335.980, 368.093 326.375, 370.876 316.770, 373.659 307.165, 376.442 301.786, 378.000 " />
            <path fill="none" stroke-width="3.0" stroke-linecap="butt" stroke-opacity="1.0" stroke="rgb(0, 0, 0)" stroke-linejoin="round" d=" M 136.463, 306.005 145.631, 309.998 154.800, 313.991 163.968, 317.983 173.136, 321.976 182.305, 325.969 191.473, 329.961 200.641, 333.954 209.810, 337.947 218.978, 341.939 228.146, 345.932 237.315, 349.925 246.483, 353.917 255.652, 357.910 264.820, 361.903 273.988, 365.895 283.157, 369.888 292.325, 373.881 301.786, 378.000 302.533, 387.973 303.280, 397.945 304.028, 407.917 304.775, 417.889 305.523, 427.861 306.270, 437.833 307.017, 447.805 307.765, 457.777 308.512, 467.749 309.260, 477.721 310.007, 487.693 310.754, 497.665 311.502, 507.637 312.249, 517.609 312.997, 527.581 313.744, 537.553 314.491, 547.525 315.239, 557.497 315.986, 567.469 316.733, 577.441 317.481, 587.413 318.228, 597.385 318.976, 607.357 319.723, 617.329 320.470, 627.301 321.218, 637.273 321.965, 647.245 322.672, 656.679 " />
        </g>
    </g>
</svg>
