<?xml version='1.0' encoding='ascii'?>
<svg xmlns="http://www.w3.org/2000/svg" version="1.1" width="1080" height="1080">
    <g id="ViewLayer_LineSet" xmlns:inkscape="http://www.inkscape.org/namespaces/inkscape" inkscape:groupmode="lineset" inkscape:label="ViewLayer_LineSet">
        <g xmlns:inkscape="http://www.inkscape.org/namespaces/inkscape" inkscape:groupmode="layer" id="strokes" inkscape:label="strokes">
            <path fill="none" stroke-width="3.0" stroke-linecap="butt" stroke-opacity="1.0" stroke="rgb(0, 0, 0)" stroke-linejoin="round" d=" M 80.693, 281.719 82.082, 291.622 83.471, 301.525 84.860, 311.428 86.249, 321.331 87.638, 331.234 89.027, 341.137 90.416, 351.040 91.805, 360.943 93.194, 370.846 94.583, 380.749 95.972, 390.652 97.361, 400.555 98.750, 410.458 100.139, 420.361 101.528, 430.265 102.917, 440.168 104.306, 450.071 105.696, 459.974 107.085, 469.877 108.474, 479.780 109.863, 489.683 111.252, 499.586 112.641, 509.489 114.030, 519.392 114.818, 525.015 123.266, 530.366 131.714, 535.717 140.162, 541.068 148.609, 546.420 157.057, 551.771 165.505, 557.122 173.953, 562.473 182.400, 567.825 190.848, 573.176 199.296, 578.527 207.744, 583.878 216.191, 589.229 224.639, 594.581 233.087, 599.932 241.535, 605.283 249.982, 610.634 255.574, 614.176 264.865, 610.480 274.157, 606.783 283.449, 603.087 292.741, 599.391 302.033, 595.695 311.324, 591.998 320.616, 588.302 329.908, 584.606 339.200, 580.910 348.492, 577.213 357.784, 573.517 367.075, 569.821 376.367, 566.125 385.659, 562.428 394.951, 558.732 404.243, 555.036 413.534, 551.340 422.826, 547.644 432.118, 543.947 441.410, 540.251 450.702, 536.555 459.994, 532.859 468.176, 529.604 467.939, 519.606 467.702, 509.609 467.465, 499.612 467.227, 489.615 466.990, 479.618 466.753, 469.620 466.516, 459.623 466.279, 449.626 466.041, 439.629 465.804, 429.632 465.567, 419.634 465.330, 409.637 465.092, 399.640 464.855, 389.643 464.618, 379.646 464.381, 369.649 464.144, 359.651 463.906, 349.654 463.669, 339.657 463.432, 329.660 463.195, 319.663 462.957, 309.665 462.720, 299.668 462.483, 289.671 462.373, 285.027 452.868, 281.919 443.363, 278.811 433.858, 275.703 424.354, 272.596 414.849, 269.488 405.344, 266.380 395.839, 263.272 386.334, 260.164 376.830, 257.056 367.325, 253.948 357.820, 250.840 348.315, 247.732 338.811, 244.624 329.306, 241.516 319.801, 238.408 310.296, 235.300 303.609, 233.114 293.839, 235.244 284.068, 237.375 274.298, 239.505 264.527, 241.635 254.757, 243.766 244.986, 245.896 235.216, 248.026 225.445, 250.157 215.675, 252.287 205.905, 254.417 196.134, 256.548 186.364, 258.678 176.593, 260.808 166.823, 262.939 157.052, 265.069 147.282, 267.200 137.511, 269.330 127.741, 271.460 117.971, 273.591 108.200, 275.721 98.430, 277.851 88.659, 279.982 80.693, 281.719 " />
            <path fill="none" stroke-width="3.0" stroke-linecap="butt" stroke-opacity="1.0" stroke="rgb(0, 0, 0)" stroke-linejoin="round" d=" M 462.373, 285.027 452.706, 287.586 443.039, 290.145 433.371, 292.704 423.704, 295.262 414.037, 297.821 404.370, 300.380 394.703, 302.939 385.036, 305.498 375.369, 308.056 365.702, 310.615 356.035, 313.174 346.368, 315.733 336.701, 318.292 327.034, 320.850 317.366, 323.409 307.699, 325.968 298.032, 328.527 288.365, 331.086 278.698, 333.644 269.031, 336.203 259.364, 338.762 249.697, 341.321 240.030, 343.880 229.708, 346.612 " />
            <path fill="none" stroke-width="3.0" stroke-linecap="butt" stroke-opacity="1.0" stroke="rgb(0, 0, 0)" stroke-linejoin="round" d=" M 80.693, 281.719 89.861, 285.711 99.030, 289.704 108.198, 293.697 117.366, 297.689 126.535, 301.682 135.703, 305.674 144.872, 309.667 154.040, 313.660 163.208, 317.652 172.377, 321.645 181.545, 325.638 190.713, 329.630 199.882, 333.623 209.050, 337.616 218.218, 341.608 227.387, 345.601 229.708, 346.612 230.670, 356.565 231.632, 366.519 232.594, 376.473 233.556, 386.426 234.519, 396.380 235.481, 406.333 236.443, 416.287 237.405, 426.241 238.368, 436.194 239.330, 446.148 240.292, 456.101 241.254, 466.055 242.217, 476.008 243.179, 485.962 244.141, 495.916 245.103, 505.869 246.066, 515.823 247.028, 525.776 247.990, 535.730 248.952, 545.684 249.915, 555.637 250.877, 565.591 251.839, 575.544 252.801, 585.498 253.763, 595.452 254.726, 605.405 255.574, 614.176 " />
        </g>
    </g>
</svg>
