<?xml version='1.0' encoding='ascii'?>
<svg xmlns="http://www.w3.org/2000/svg" version="1.1" width="1080" height="1080">
    <g id="ViewLayer_LineSet" xmlns:inkscape="http://www.inkscape.org/namespaces/inkscape" inkscape:groupmode="lineset" inkscape:label="ViewLayer_LineSet">
        <g xmlns:inkscape="http://www.inkscape.org/namespaces/inkscape" inkscape:groupmode="layer" id="strokes" inkscape:label="strokes">
            <path fill="none" stroke-width="3.0" stroke-linecap="butt" stroke-opacity="1.0" stroke="rgb(0, 0, 0)" stroke-linejoin="round" d=" M -105.035, 385.750 -95.321, 383.377 -85.606, 381.004 -75.892, 378.631 -66.178, 376.258 -56.463, 373.885 -46.749, 371.512 -37.035, 369.139 -27.320, 366.766 -17.606, 364.393 -7.891, 362.020 1.823, 359.647 11.537, 357.274 21.252, 354.901 30.966, 352.529 40.681, 350.156 50.395, 347.783 60.109, 345.410 69.824, 343.037 80.510, 340.426 79.096, 330.527 77.681, 320.628 76.267, 310.728 74.852, 300.829 73.438, 290.929 72.023, 281.030 70.609, 271.130 69.194, 261.231 67.780, 251.331 66.366, 241.432 64.951, 231.532 63.537, 221.633 62.122, 211.733 60.708, 201.834 59.293, 191.935 57.879, 182.035 56.465, 172.136 55.050, 162.236 53.492, 151.329 43.987, 148.221 34.482, 145.113 24.977, 142.005 15.473, 138.897 5.968, 135.789 -3.537, 132.682 -13.042, 129.574 -22.546, 126.466 -32.051, 123.358 -33.069, 123.025 " />
            <path fill="none" stroke-width="3.0" stroke-linecap="butt" stroke-opacity="1.0" stroke="rgb(0, 0, 0)" stroke-linejoin="round" d=" M 53.492, 151.329 43.614, 152.888 33.736, 154.447 23.859, 156.006 13.981, 157.565 4.103, 159.124 -5.775, 160.683 -15.652, 162.242 -25.530, 163.800 -35.408, 165.359 -45.286, 166.918 -55.163, 168.477 -65.041, 170.036 -74.919, 171.595 -84.797, 173.154 -94.674, 174.713 -104.552, 176.272 -114.430, 177.831 -124.308, 179.390 -134.185, 180.948 -144.063, 182.507 -146.311, 182.862 " />
        </g>
    </g>
</svg>
