<?xml version='1.0' encoding='ascii'?>
<svg xmlns="http://www.w3.org/2000/svg" version="1.1" width="1080" height="1080">
    <g id="ViewLayer_LineSet" xmlns:inkscape="http://www.inkscape.org/namespaces/inkscape" inkscape:groupmode="lineset" inkscape:label="ViewLayer_LineSet">
        <g xmlns:inkscape="http://www.inkscape.org/namespaces/inkscape" inkscape:groupmode="layer" id="strokes" inkscape:label="strokes">
            <path fill="none" stroke-width="3.0" stroke-linecap="butt" stroke-opacity="1.0" stroke="rgb(0, 0, 0)" stroke-linejoin="round" d=" M -37.734, 428.381 -29.286, 433.732 -20.838, 439.084 -12.391, 444.435 -3.943, 449.786 4.505, 455.137 12.953, 460.488 21.400, 465.840 29.848, 471.191 38.296, 476.542 46.744, 481.893 55.191, 487.244 63.639, 492.596 66.583, 494.460 76.131, 491.489 85.679, 488.517 95.228, 485.546 104.776, 482.574 114.324, 479.603 123.873, 476.632 133.421, 473.660 142.969, 470.689 152.518, 467.717 162.066, 464.746 171.614, 461.774 181.163, 458.803 190.711, 455.832 200.259, 452.860 209.808, 449.889 219.356, 446.917 228.904, 443.946 238.453, 440.974 248.001, 438.003 257.549, 435.032 267.824, 431.834 266.957, 421.872 266.089, 411.909 265.221, 401.947 264.353, 391.985 263.485, 382.023 262.618, 372.060 261.750, 362.098 260.882, 352.136 260.014, 342.173 259.146, 332.211 258.279, 322.249 257.411, 312.287 256.543, 302.324 255.675, 292.362 254.807, 282.400 253.940, 272.438 253.072, 262.475 252.204, 252.513 251.336, 242.551 250.468, 232.588 249.600, 222.626 248.957, 215.243 239.453, 212.136 229.948, 209.028 220.443, 205.920 210.938, 202.812 201.433, 199.704 191.929, 196.596 182.424, 193.488 172.919, 190.380 163.414, 187.272 153.910, 184.164 144.405, 181.056 134.900, 177.948 130.336, 176.456 120.485, 178.178 110.635, 179.901 100.784, 181.623 90.933, 183.346 81.083, 185.068 71.232, 186.791 61.382, 188.513 51.531, 190.235 41.681, 191.958 31.830, 193.680 21.980, 195.403 12.129, 197.125 2.279, 198.848 -7.572, 200.570 -17.423, 202.292 -27.273, 204.015 -37.124, 205.737 -46.974, 207.460 -56.825, 209.182 -66.675, 210.905 -77.551, 212.806 " />
            <path fill="none" stroke-width="3.0" stroke-linecap="butt" stroke-opacity="1.0" stroke="rgb(0, 0, 0)" stroke-linejoin="round" d=" M 248.957, 215.243 239.158, 217.239 229.360, 219.234 219.561, 221.230 209.762, 223.225 199.963, 225.221 190.164, 227.216 180.365, 229.212 170.566, 231.207 160.767, 233.202 150.968, 235.198 141.170, 237.193 131.371, 239.189 121.572, 241.184 111.773, 243.180 101.974, 245.175 92.175, 247.170 82.376, 249.166 72.577, 251.161 62.778, 253.157 52.980, 255.152 43.181, 257.148 33.382, 259.143 30.296, 259.771 " />
            <path fill="none" stroke-width="3.0" stroke-linecap="butt" stroke-opacity="1.0" stroke="rgb(0, 0, 0)" stroke-linejoin="round" d=" M -77.551, 212.806 -68.382, 216.799 -59.214, 220.792 -50.046, 224.784 -40.877, 228.777 -31.709, 232.770 -22.540, 236.762 -13.372, 240.755 -4.204, 244.747 4.965, 248.740 14.133, 252.733 23.301, 256.725 30.296, 259.771 31.824, 269.654 33.352, 279.537 34.880, 289.419 36.408, 299.302 37.936, 309.184 39.464, 319.067 40.992, 328.950 42.520, 338.832 44.048, 348.715 45.576, 358.597 47.104, 368.480 48.632, 378.362 50.160, 388.245 51.688, 398.128 53.216, 408.010 54.744, 417.893 56.272, 427.775 57.800, 437.658 59.328, 447.540 60.856, 457.423 62.384, 467.305 63.912, 477.188 65.440, 487.071 66.583, 494.460 " />
        </g>
    </g>
</svg>
