<?xml version='1.0' encoding='ascii'?>
<svg xmlns="http://www.w3.org/2000/svg" version="1.1" width="1080" height="1080">
    <g id="ViewLayer_LineSet" xmlns:inkscape="http://www.inkscape.org/namespaces/inkscape" inkscape:groupmode="lineset" inkscape:label="ViewLayer_LineSet">
        <g xmlns:inkscape="http://www.inkscape.org/namespaces/inkscape" inkscape:groupmode="layer" id="strokes" inkscape:label="strokes">
            <path fill="none" stroke-width="3.0" stroke-linecap="butt" stroke-opacity="1.0" stroke="rgb(0, 0, 0)" stroke-linejoin="round" d=" M -25.374, 436.211 -16.926, 441.562 -8.478, 446.913 -0.030, 452.264 8.417, 457.616 16.865, 462.967 25.313, 468.318 33.761, 473.669 42.208, 479.020 50.656, 484.372 59.104, 489.723 67.552, 495.074 75.999, 500.425 81.672, 504.018 91.202, 500.991 100.733, 497.965 110.264, 494.938 119.795, 491.911 129.326, 488.884 138.857, 485.857 148.388, 482.831 157.919, 479.804 167.450, 476.777 176.981, 473.750 186.512, 470.724 196.043, 467.697 205.574, 464.670 215.105, 461.643 224.635, 458.616 234.166, 455.590 243.697, 452.563 253.228, 449.536 262.759, 446.509 272.290, 443.483 281.821, 440.456 284.045, 439.749 283.227, 429.783 282.408, 419.817 281.590, 409.850 280.771, 399.884 279.953, 389.917 279.134, 379.951 278.316, 369.984 277.497, 360.018 276.679, 350.051 275.860, 340.085 275.042, 330.119 274.223, 320.152 273.405, 310.186 272.586, 300.219 271.768, 290.253 270.949, 280.286 270.131, 270.320 269.312, 260.353 268.494, 250.387 267.675, 240.421 266.857, 230.454 266.067, 220.838 256.562, 217.730 247.057, 214.622 237.552, 211.514 228.048, 208.406 218.543, 205.298 209.038, 202.190 199.533, 199.083 190.029, 195.975 180.524, 192.867 171.019, 189.759 161.514, 186.651 152.009, 183.543 144.422, 181.062 134.577, 182.815 124.732, 184.569 114.886, 186.322 105.041, 188.076 95.196, 189.829 85.351, 191.583 75.506, 193.336 65.661, 195.090 55.816, 196.843 45.971, 198.597 36.126, 200.350 26.281, 202.104 16.436, 203.857 6.591, 205.611 -3.254, 207.364 -13.099, 209.118 -22.944, 210.871 -32.789, 212.625 -42.635, 214.378 -52.480, 216.132 -62.325, 217.885 -64.853, 218.336 " />
            <path fill="none" stroke-width="3.0" stroke-linecap="butt" stroke-opacity="1.0" stroke="rgb(0, 0, 0)" stroke-linejoin="round" d=" M 266.067, 220.838 256.276, 222.875 246.486, 224.912 236.696, 226.949 226.905, 228.986 217.115, 231.023 207.325, 233.060 197.535, 235.097 187.744, 237.134 177.954, 239.171 168.164, 241.208 158.373, 243.245 148.583, 245.282 138.793, 247.319 129.002, 249.356 119.212, 251.393 109.422, 253.430 99.631, 255.467 89.841, 257.505 80.051, 259.542 70.260, 261.579 60.470, 263.616 50.680, 265.653 46.025, 266.621 " />
            <path fill="none" stroke-width="3.0" stroke-linecap="butt" stroke-opacity="1.0" stroke="rgb(0, 0, 0)" stroke-linejoin="round" d=" M -64.853, 218.336 -55.685, 222.328 -46.516, 226.321 -37.348, 230.314 -28.180, 234.306 -19.011, 238.299 -9.843, 242.292 -0.675, 246.284 8.494, 250.277 17.662, 254.270 26.830, 258.262 35.999, 262.255 46.025, 266.621 47.510, 276.510 48.995, 286.399 50.480, 296.289 51.964, 306.178 53.449, 316.067 54.934, 325.956 56.419, 335.845 57.904, 345.734 59.389, 355.623 60.874, 365.512 62.359, 375.402 63.844, 385.291 65.329, 395.180 66.814, 405.069 68.299, 414.958 69.783, 424.847 71.268, 434.736 72.753, 444.626 74.238, 454.515 75.723, 464.404 77.208, 474.293 78.693, 484.182 80.178, 494.071 81.672, 504.018 " />
        </g>
    </g>
</svg>
