<?xml version='1.0' encoding='ascii'?>
<svg xmlns="http://www.w3.org/2000/svg" version="1.1" width="1080" height="1080">
    <g id="ViewLayer_LineSet" xmlns:inkscape="http://www.inkscape.org/namespaces/inkscape" inkscape:groupmode="lineset" inkscape:label="ViewLayer_LineSet">
        <g xmlns:inkscape="http://www.inkscape.org/namespaces/inkscape" inkscape:groupmode="layer" id="strokes" inkscape:label="strokes">
            <path fill="none" stroke-width="3.0" stroke-linecap="butt" stroke-opacity="1.0" stroke="rgb(0, 0, 0)" stroke-linejoin="round" d=" M 115.136, 296.718 116.428, 306.634 117.721, 316.550 119.013, 326.466 120.306, 336.382 121.598, 346.298 122.891, 356.215 124.183, 366.131 125.476, 376.047 126.768, 385.963 128.061, 395.879 129.353, 405.795 130.646, 415.711 131.938, 425.627 133.230, 435.544 134.523, 445.460 135.815, 455.376 137.108, 465.292 138.400, 475.208 139.693, 485.124 140.985, 495.040 142.278, 504.956 143.570, 514.872 144.863, 524.789 146.155, 534.705 147.599, 545.780 156.047, 551.131 164.494, 556.482 172.942, 561.833 181.390, 567.184 189.838, 572.536 198.285, 577.887 206.733, 583.238 215.181, 588.589 223.629, 593.940 232.076, 599.292 240.524, 604.643 248.972, 609.994 257.420, 615.345 265.867, 620.696 274.315, 626.048 282.763, 631.399 291.211, 636.750 296.982, 640.406 306.206, 636.542 315.429, 632.678 324.652, 628.814 333.876, 624.950 343.099, 621.086 352.322, 617.222 361.546, 613.358 370.769, 609.494 379.992, 605.630 389.216, 601.766 398.439, 597.902 407.662, 594.039 416.886, 590.175 426.109, 586.311 435.332, 582.447 444.556, 578.583 453.779, 574.719 463.002, 570.855 472.226, 566.991 481.449, 563.127 490.672, 559.263 499.896, 555.399 509.119, 551.535 511.271, 550.633 511.176, 540.634 511.080, 530.634 510.985, 520.635 510.889, 510.635 510.794, 500.636 510.698, 490.636 510.602, 480.637 510.507, 470.637 510.411, 460.638 510.316, 450.638 510.220, 440.638 510.125, 430.639 510.029, 420.639 509.933, 410.640 509.838, 400.640 509.742, 390.641 509.647, 380.641 509.551, 370.642 509.456, 360.642 509.360, 350.643 509.264, 340.643 509.169, 330.643 509.073, 320.644 508.978, 310.644 508.878, 300.234 499.373, 297.126 489.869, 294.018 480.364, 290.910 470.859, 287.802 461.354, 284.694 451.849, 281.586 442.345, 278.478 432.840, 275.370 423.335, 272.263 413.830, 269.155 404.326, 266.047 394.821, 262.939 385.316, 259.831 375.811, 256.723 366.306, 253.615 356.802, 250.507 347.297, 247.399 340.678, 245.235 330.929, 247.460 321.180, 249.686 311.430, 251.911 301.681, 254.136 291.932, 256.362 282.183, 258.587 272.433, 260.813 262.684, 263.038 252.935, 265.263 243.186, 267.489 233.437, 269.714 223.687, 271.940 213.938, 274.165 204.189, 276.390 194.440, 278.616 184.690, 280.841 174.941, 283.066 165.192, 285.292 155.443, 287.517 145.693, 289.743 135.944, 291.968 126.195, 294.193 115.136, 296.718 " />
            <path fill="none" stroke-width="3.0" stroke-linecap="butt" stroke-opacity="1.0" stroke="rgb(0, 0, 0)" stroke-linejoin="round" d=" M 508.878, 300.234 499.248, 302.929 489.618, 305.625 479.988, 308.320 470.359, 311.016 460.729, 313.711 451.099, 316.407 441.469, 319.102 431.839, 321.798 422.209, 324.493 412.579, 327.189 402.950, 329.884 393.320, 332.580 383.690, 335.275 374.060, 337.970 364.430, 340.666 354.800, 343.361 345.170, 346.057 335.540, 348.752 325.911, 351.448 316.281, 354.143 306.651, 356.839 297.021, 359.534 287.391, 362.230 277.761, 364.925 274.109, 365.948 " />
            <path fill="none" stroke-width="3.0" stroke-linecap="butt" stroke-opacity="1.0" stroke="rgb(0, 0, 0)" stroke-linejoin="round" d=" M 115.136, 296.718 124.304, 300.710 133.472, 304.703 142.641, 308.696 151.809, 312.688 160.978, 316.681 170.146, 320.674 179.314, 324.666 188.483, 328.659 197.651, 332.652 206.819, 336.644 215.988, 340.637 225.156, 344.630 234.324, 348.622 243.493, 352.615 252.661, 356.608 261.829, 360.600 270.998, 364.593 274.109, 365.948 274.939, 375.913 275.770, 385.879 276.600, 395.844 277.431, 405.809 278.261, 415.775 279.092, 425.740 279.922, 435.706 280.753, 445.671 281.583, 455.637 282.414, 465.602 283.245, 475.568 284.075, 485.533 284.906, 495.498 285.736, 505.464 286.567, 515.429 287.397, 525.395 288.228, 535.360 289.058, 545.326 289.889, 555.291 290.719, 565.257 291.550, 575.222 292.380, 585.188 293.211, 595.153 294.041, 605.118 294.872, 615.084 295.702, 625.049 296.533, 635.015 296.982, 640.406 " />
        </g>
    </g>
</svg>
