<?xml version='1.0' encoding='ascii'?>
<svg xmlns="http://www.w3.org/2000/svg" version="1.1" width="1080" height="1080">
    <g id="ViewLayer_LineSet" xmlns:inkscape="http://www.inkscape.org/namespaces/inkscape" inkscape:groupmode="lineset" inkscape:label="ViewLayer_LineSet">
        <g xmlns:inkscape="http://www.inkscape.org/namespaces/inkscape" inkscape:groupmode="layer" id="strokes" inkscape:label="strokes">
            <path fill="none" stroke-width="3.0" stroke-linecap="butt" stroke-opacity="1.0" stroke="rgb(0, 0, 0)" stroke-linejoin="round" d=" M -25.781, 235.351 -24.102, 245.209 -22.422, 255.067 -20.743, 264.925 -19.064, 274.783 -17.384, 284.641 -15.705, 294.499 -14.025, 304.357 -12.346, 314.215 -10.666, 324.073 -8.987, 333.930 -7.307, 343.788 -5.628, 353.646 -3.949, 363.504 -2.269, 373.362 -0.590, 383.220 1.090, 393.078 2.769, 402.936 4.449, 412.794 6.128, 422.652 7.808, 432.510 9.487, 442.368 11.167, 452.226 12.528, 460.220 20.976, 465.571 29.424, 470.922 37.872, 476.273 46.319, 481.625 54.767, 486.976 63.215, 492.327 71.663, 497.678 80.110, 503.029 88.558, 508.381 97.006, 513.732 105.454, 519.083 113.902, 524.434 122.349, 529.785 128.185, 533.482 137.659, 530.282 147.133, 527.081 156.607, 523.881 166.081, 520.681 175.555, 517.481 185.029, 514.281 194.503, 511.080 203.977, 507.880 213.452, 504.680 222.926, 501.480 232.400, 498.280 241.874, 495.079 251.348, 491.879 260.822, 488.679 270.296, 485.479 279.770, 482.279 289.244, 479.079 298.719, 475.878 308.193, 472.678 317.667, 469.478 327.141, 466.278 333.799, 464.029 333.134, 454.051 332.468, 444.073 331.803, 434.095 331.138, 424.117 330.472, 414.140 329.807, 404.162 329.142, 394.184 328.476, 384.206 327.811, 374.228 327.146, 364.250 326.480, 354.273 325.815, 344.295 325.150, 334.317 324.484, 324.339 323.819, 314.361 323.154, 304.383 322.488, 294.406 321.823, 284.428 321.158, 274.450 320.492, 264.472 319.827, 254.494 319.162, 244.516 318.731, 238.058 309.226, 234.951 299.721, 231.843 290.217, 228.735 280.712, 225.627 271.207, 222.519 261.702, 219.411 252.197, 216.303 242.693, 213.195 233.188, 210.087 223.683, 206.979 214.178, 203.871 204.674, 200.763 195.169, 197.655 187.564, 195.169 177.737, 197.020 167.910, 198.871 158.083, 200.721 148.255, 202.572 138.428, 204.423 128.601, 206.274 118.774, 208.125 108.946, 209.976 99.119, 211.827 89.292, 213.678 79.465, 215.529 69.638, 217.379 59.810, 219.230 49.983, 221.081 40.156, 222.932 30.329, 224.783 20.501, 226.634 10.674, 228.485 0.847, 230.336 -8.980, 232.186 -18.807, 234.037 -25.781, 235.351 " />
            <path fill="none" stroke-width="3.0" stroke-linecap="butt" stroke-opacity="1.0" stroke="rgb(0, 0, 0)" stroke-linejoin="round" d=" M 318.731, 238.058 308.969, 240.227 299.207, 242.396 289.445, 244.565 279.683, 246.734 269.921, 248.902 260.159, 251.071 250.397, 253.240 240.635, 255.409 230.873, 257.577 221.111, 259.746 211.349, 261.915 201.587, 264.084 191.825, 266.253 182.063, 268.421 172.301, 270.590 162.539, 272.759 152.777, 274.928 143.015, 277.096 133.253, 279.265 123.491, 281.434 113.729, 283.603 103.967, 285.771 94.718, 287.826 " />
            <path fill="none" stroke-width="3.0" stroke-linecap="butt" stroke-opacity="1.0" stroke="rgb(0, 0, 0)" stroke-linejoin="round" d=" M -25.781, 235.351 -16.613, 239.344 -7.445, 243.336 1.724, 247.329 10.892, 251.321 20.060, 255.314 29.229, 259.307 38.397, 263.299 47.565, 267.292 56.734, 271.285 65.902, 275.277 75.071, 279.270 84.239, 283.263 93.407, 287.255 94.718, 287.826 96.068, 297.735 97.418, 307.643 98.768, 317.552 100.118, 327.460 101.467, 337.369 102.817, 347.277 104.167, 357.186 105.517, 367.094 106.867, 377.003 108.217, 386.911 109.567, 396.819 110.916, 406.728 112.266, 416.636 113.616, 426.545 114.966, 436.453 116.316, 446.362 117.666, 456.270 119.016, 466.179 120.366, 476.087 121.715, 485.996 123.065, 495.904 124.415, 505.813 125.765, 515.721 127.115, 525.630 128.185, 533.482 " />
        </g>
    </g>
</svg>
