<?xml version='1.0' encoding='ascii'?>
<svg xmlns="http://www.w3.org/2000/svg" version="1.1" width="1080" height="1080">
    <g id="ViewLayer_LineSet" xmlns:inkscape="http://www.inkscape.org/namespaces/inkscape" inkscape:groupmode="lineset" inkscape:label="ViewLayer_LineSet">
        <g xmlns:inkscape="http://www.inkscape.org/namespaces/inkscape" inkscape:groupmode="layer" id="strokes" inkscape:label="strokes">
            <path fill="none" stroke-width="3.0" stroke-linecap="butt" stroke-opacity="1.0" stroke="rgb(0, 0, 0)" stroke-linejoin="round" d=" M 48.012, 267.487 49.492, 277.377 50.971, 287.267 52.451, 297.156 53.930, 307.046 55.409, 316.936 56.889, 326.826 58.368, 336.716 59.848, 346.606 61.327, 356.496 62.807, 366.386 64.286, 376.276 65.766, 386.166 67.245, 396.056 68.725, 405.946 70.204, 415.836 71.683, 425.726 73.163, 435.616 74.642, 445.506 76.122, 455.396 77.601, 465.286 79.081, 475.176 80.560, 485.066 82.040, 494.956 83.576, 505.224 92.024, 510.576 100.471, 515.927 108.919, 521.278 117.367, 526.629 125.815, 531.980 134.262, 537.332 142.710, 542.683 151.158, 548.034 159.606, 553.385 168.053, 558.736 176.501, 564.088 184.949, 569.439 193.397, 574.790 201.844, 580.141 210.292, 585.492 216.374, 589.345 225.726, 585.804 235.078, 582.264 244.431, 578.724 253.783, 575.183 263.135, 571.643 272.488, 568.103 281.840, 564.562 291.192, 561.022 300.545, 557.482 309.897, 553.941 319.249, 550.401 328.602, 546.861 337.954, 543.320 347.306, 539.780 356.659, 536.240 366.011, 532.699 375.363, 529.159 384.716, 525.619 394.068, 522.078 403.420, 518.538 412.773, 514.998 422.125, 511.457 427.118, 509.567 426.747, 499.574 426.377, 489.581 426.007, 479.588 425.637, 469.595 425.266, 459.602 424.896, 449.608 424.526, 439.615 424.156, 429.622 423.785, 419.629 423.415, 409.636 423.045, 399.643 422.675, 389.649 422.304, 379.656 421.934, 369.663 421.564, 359.670 421.194, 349.677 420.823, 339.684 420.453, 329.691 420.083, 319.698 419.713, 309.704 419.342, 299.711 418.972, 289.718 418.602, 279.725 418.264, 270.604 408.759, 267.496 399.254, 264.388 389.750, 261.281 380.245, 258.173 370.740, 255.065 361.235, 251.957 351.731, 248.849 342.226, 245.741 332.721, 242.633 323.216, 239.525 313.711, 236.417 304.207, 233.309 294.702, 230.201 285.197, 227.093 275.692, 223.985 268.225, 221.544 258.436, 223.586 248.647, 225.628 238.857, 227.671 229.068, 229.713 219.279, 231.755 209.490, 233.798 199.701, 235.840 189.911, 237.882 180.122, 239.925 170.333, 241.967 160.544, 244.009 150.754, 246.052 140.965, 248.094 131.176, 250.136 121.387, 252.179 111.598, 254.221 101.808, 256.263 92.019, 258.305 82.230, 260.348 72.441, 262.390 62.651, 264.432 52.862, 266.475 48.012, 267.487 " />
            <path fill="none" stroke-width="3.0" stroke-linecap="butt" stroke-opacity="1.0" stroke="rgb(0, 0, 0)" stroke-linejoin="round" d=" M 418.264, 270.604 408.565, 273.038 398.866, 275.472 389.166, 277.906 379.467, 280.340 369.768, 282.774 360.068, 285.208 350.369, 287.642 340.670, 290.076 330.971, 292.510 321.271, 294.944 311.572, 297.378 301.873, 299.812 292.174, 302.246 282.474, 304.680 272.775, 307.115 263.076, 309.549 253.377, 311.983 243.677, 314.417 233.978, 316.851 224.279, 319.285 214.580, 321.719 204.880, 324.153 195.181, 326.587 187.912, 328.411 " />
            <path fill="none" stroke-width="3.0" stroke-linecap="butt" stroke-opacity="1.0" stroke="rgb(0, 0, 0)" stroke-linejoin="round" d=" M 48.012, 267.487 57.181, 271.479 66.349, 275.472 75.517, 279.465 84.686, 283.457 93.854, 287.450 103.022, 291.443 112.191, 295.435 121.359, 299.428 130.527, 303.421 139.696, 307.413 148.864, 311.406 158.032, 315.398 167.201, 319.391 176.369, 323.384 185.537, 327.376 187.912, 328.411 188.997, 338.352 190.081, 348.293 191.165, 358.234 192.250, 368.175 193.334, 378.116 194.418, 388.057 195.503, 397.998 196.587, 407.939 197.671, 417.880 198.756, 427.821 199.840, 437.762 200.924, 447.703 202.009, 457.644 203.093, 467.585 204.177, 477.526 205.261, 487.467 206.346, 497.408 207.430, 507.349 208.514, 517.290 209.599, 527.231 210.683, 537.172 211.767, 547.114 212.852, 557.055 213.936, 566.996 215.020, 576.937 216.374, 589.345 " />
        </g>
    </g>
</svg>
