<?xml version='1.0' encoding='ascii'?>
<svg xmlns="http://www.w3.org/2000/svg" version="1.1" width="1080" height="1080">
    <g id="ViewLayer_LineSet" xmlns:inkscape="http://www.inkscape.org/namespaces/inkscape" inkscape:groupmode="lineset" inkscape:label="ViewLayer_LineSet">
        <g xmlns:inkscape="http://www.inkscape.org/namespaces/inkscape" inkscape:groupmode="layer" id="strokes" inkscape:label="strokes">
            <path fill="none" stroke-width="3.0" stroke-linecap="butt" stroke-opacity="1.0" stroke="rgb(0, 0, 0)" stroke-linejoin="round" d=" M -145.265, 360.266 -135.519, 358.025 -125.774, 355.784 -116.028, 353.544 -106.282, 351.303 -96.537, 349.062 -86.791, 346.821 -77.045, 344.580 -67.300, 342.339 -57.554, 340.099 -47.808, 337.858 -38.062, 335.617 -28.317, 333.376 -18.571, 331.135 -8.825, 328.894 0.920, 326.654 10.666, 324.413 20.412, 322.172 30.157, 319.931 35.835, 318.626 34.296, 308.745 32.758, 298.864 31.219, 288.983 29.681, 279.102 28.142, 269.221 26.603, 259.340 25.065, 249.459 23.526, 239.578 21.988, 229.697 20.449, 219.816 18.910, 209.935 17.372, 200.054 15.833, 190.174 14.294, 180.293 12.756, 170.412 11.217, 160.531 9.679, 150.650 8.140, 140.769 7.440, 136.271 -2.065, 133.163 -11.570, 130.055 -21.075, 126.947 -30.580, 123.839 -40.084, 120.731 -49.589, 117.623 -59.094, 114.515 -68.599, 111.407 -72.244, 110.215 " />
            <path fill="none" stroke-width="3.0" stroke-linecap="butt" stroke-opacity="1.0" stroke="rgb(0, 0, 0)" stroke-linejoin="round" d=" M 7.440, 136.271 -2.452, 137.736 -12.345, 139.202 -22.237, 140.667 -32.129, 142.133 -42.021, 143.598 -51.913, 145.064 -61.805, 146.530 -71.697, 147.995 -81.589, 149.461 -91.481, 150.926 -101.373, 152.392 -111.265, 153.857 -121.157, 155.323 -131.049, 156.788 -140.941, 158.254 -150.833, 159.720 -160.725, 161.185 -170.617, 162.651 -180.509, 164.116 -187.111, 165.094 " />
        </g>
    </g>
</svg>
