<?xml version='1.0' encoding='ascii'?>
<svg xmlns="http://www.w3.org/2000/svg" version="1.1" width="1080" height="1080">
    <g id="ViewLayer_LineSet" xmlns:inkscape="http://www.inkscape.org/namespaces/inkscape" inkscape:groupmode="lineset" inkscape:label="ViewLayer_LineSet">
        <g xmlns:inkscape="http://www.inkscape.org/namespaces/inkscape" inkscape:groupmode="layer" id="strokes" inkscape:label="strokes">
            <path fill="none" stroke-width="3.0" stroke-linecap="butt" stroke-opacity="1.0" stroke="rgb(0, 0, 0)" stroke-linejoin="round" d=" M 36.617, 262.524 38.128, 272.410 39.639, 282.295 41.150, 292.180 42.660, 302.065 44.171, 311.951 45.682, 321.836 47.192, 331.721 48.703, 341.606 50.214, 351.491 51.725, 361.377 53.235, 371.262 54.746, 381.147 56.257, 391.032 57.768, 400.918 59.278, 410.803 60.789, 420.688 62.300, 430.573 63.810, 440.458 65.321, 450.344 66.832, 460.229 68.343, 470.114 69.853, 479.999 71.364, 489.885 72.651, 498.304 81.098, 503.655 89.546, 509.006 97.994, 514.358 106.442, 519.709 114.890, 525.060 123.337, 530.411 131.785, 535.762 140.233, 541.114 148.681, 546.465 157.128, 551.816 165.576, 557.167 174.024, 562.518 182.472, 567.870 190.919, 573.221 199.367, 578.572 202.727, 580.700 212.099, 577.214 221.472, 573.727 230.844, 570.240 240.217, 566.753 249.589, 563.267 258.962, 559.780 268.334, 556.293 277.706, 552.806 287.079, 549.320 296.451, 545.833 305.824, 542.346 315.196, 538.859 324.569, 535.373 333.941, 531.886 343.314, 528.399 352.686, 524.912 362.058, 521.426 371.431, 517.939 380.803, 514.452 390.176, 510.965 399.548, 507.479 408.921, 503.992 412.763, 502.562 412.347, 492.571 411.930, 482.580 411.514, 472.588 411.098, 462.597 410.682, 452.606 410.265, 442.614 409.849, 432.623 409.433, 422.632 409.016, 412.640 408.600, 402.649 408.184, 392.658 407.768, 382.666 407.351, 372.675 406.935, 362.684 406.519, 352.692 406.102, 342.701 405.686, 332.710 405.270, 322.718 404.854, 312.727 404.437, 302.736 404.021, 292.744 403.605, 282.753 403.188, 272.762 402.889, 265.577 393.384, 262.469 383.879, 259.361 374.375, 256.253 364.870, 253.145 355.365, 250.037 345.860, 246.929 336.356, 243.821 326.851, 240.714 317.346, 237.606 307.841, 234.498 298.336, 231.390 288.832, 228.282 279.327, 225.174 269.822, 222.066 260.317, 218.958 255.839, 217.494 246.044, 219.506 236.249, 221.518 226.453, 223.530 216.658, 225.542 206.862, 227.554 197.067, 229.566 187.271, 231.579 177.476, 233.591 167.680, 235.603 157.885, 237.615 148.089, 239.627 138.294, 241.639 128.498, 243.651 118.703, 245.663 108.907, 247.675 99.112, 249.687 89.316, 251.700 79.521, 253.712 69.725, 255.724 59.930, 257.736 50.134, 259.748 40.339, 261.760 36.617, 262.524 " />
            <path fill="none" stroke-width="3.0" stroke-linecap="butt" stroke-opacity="1.0" stroke="rgb(0, 0, 0)" stroke-linejoin="round" d=" M 402.889, 265.577 393.179, 267.969 383.469, 270.360 373.760, 272.752 364.050, 275.143 354.340, 277.535 344.630, 279.926 334.920, 282.318 325.211, 284.710 315.501, 287.101 305.791, 289.493 296.081, 291.884 286.371, 294.276 276.662, 296.668 266.952, 299.059 257.242, 301.451 247.532, 303.842 237.822, 306.234 228.113, 308.625 218.403, 311.017 208.693, 313.409 198.983, 315.800 189.273, 318.192 179.563, 320.583 173.416, 322.098 " />
            <path fill="none" stroke-width="3.0" stroke-linecap="butt" stroke-opacity="1.0" stroke="rgb(0, 0, 0)" stroke-linejoin="round" d=" M 36.617, 262.524 45.786, 266.517 54.954, 270.510 64.122, 274.502 73.291, 278.495 82.459, 282.488 91.628, 286.480 100.796, 290.473 109.964, 294.466 119.133, 298.458 128.301, 302.451 137.469, 306.444 146.638, 310.436 155.806, 314.429 164.974, 318.422 173.416, 322.098 174.542, 332.034 175.668, 341.970 176.794, 351.907 177.921, 361.843 179.047, 371.780 180.173, 381.716 181.299, 391.652 182.426, 401.589 183.552, 411.525 184.678, 421.461 185.804, 431.398 186.931, 441.334 188.057, 451.271 189.183, 461.207 190.309, 471.143 191.436, 481.080 192.562, 491.016 193.688, 500.952 194.814, 510.889 195.940, 520.825 197.067, 530.762 198.193, 540.698 199.319, 550.634 200.445, 560.571 201.572, 570.507 202.727, 580.700 " />
        </g>
    </g>
</svg>
