<?xml version='1.0' encoding='ascii'?>
<svg xmlns="http://www.w3.org/2000/svg" version="1.1" width="1080" height="1080">
    <g id="ViewLayer_LineSet" xmlns:inkscape="http://www.inkscape.org/namespaces/inkscape" inkscape:groupmode="lineset" inkscape:label="ViewLayer_LineSet">
        <g xmlns:inkscape="http://www.inkscape.org/namespaces/inkscape" inkscape:groupmode="layer" id="strokes" inkscape:label="strokes">
            <path fill="none" stroke-width="3.0" stroke-linecap="butt" stroke-opacity="1.0" stroke="rgb(0, 0, 0)" stroke-linejoin="round" d=" M -38.589, 229.773 -36.875, 239.626 -35.162, 249.478 -33.448, 259.330 -31.734, 269.182 -30.021, 279.034 -28.307, 288.886 -26.594, 298.738 -24.880, 308.590 -23.167, 318.442 -21.453, 328.294 -19.739, 338.146 -18.026, 347.999 -16.312, 357.851 -14.599, 367.703 -12.885, 377.555 -11.172, 387.407 -9.458, 397.259 -7.745, 407.111 -6.031, 416.963 -4.317, 426.815 -2.604, 436.667 -0.890, 446.519 0.126, 452.364 8.574, 457.715 17.022, 463.066 25.470, 468.417 33.917, 473.768 42.365, 479.120 50.813, 484.471 59.261, 489.822 67.708, 495.173 76.156, 500.524 84.604, 505.876 93.052, 511.227 101.499, 516.578 109.947, 521.929 112.924, 523.815 122.418, 520.672 131.911, 517.529 141.404, 514.387 150.897, 511.244 160.391, 508.101 169.884, 504.958 179.377, 501.815 188.871, 498.672 198.364, 495.530 207.857, 492.387 217.350, 489.244 226.844, 486.101 236.337, 482.958 245.830, 479.815 255.324, 476.673 264.817, 473.530 274.310, 470.387 283.803, 467.244 293.297, 464.101 302.790, 460.958 312.283, 457.816 317.517, 456.083 316.801, 446.109 316.085, 436.134 315.369, 426.160 314.653, 416.186 313.938, 406.211 313.222, 396.237 312.506, 386.263 311.790, 376.288 311.074, 366.314 310.359, 356.340 309.643, 346.365 308.927, 336.391 308.211, 326.417 307.496, 316.442 306.780, 306.468 306.064, 296.494 305.348, 286.519 304.632, 276.545 303.917, 266.570 303.201, 256.596 302.485, 246.622 301.769, 236.647 301.465, 232.413 291.961, 229.305 282.456, 226.197 272.951, 223.089 263.446, 219.981 253.941, 216.873 244.437, 213.765 234.932, 210.657 225.427, 207.549 215.922, 204.442 206.418, 201.334 196.913, 198.226 187.408, 195.118 177.903, 192.010 173.456, 190.556 163.623, 192.374 153.789, 194.193 143.956, 196.012 134.123, 197.830 124.290, 199.649 114.456, 201.468 104.623, 203.286 94.790, 205.105 84.957, 206.924 75.124, 208.742 65.290, 210.561 55.457, 212.380 45.624, 214.198 35.791, 216.017 25.957, 217.836 16.124, 219.654 6.291, 221.473 -3.542, 223.292 -13.376, 225.110 -23.209, 226.929 -33.042, 228.748 -38.589, 229.773 " />
            <path fill="none" stroke-width="3.0" stroke-linecap="butt" stroke-opacity="1.0" stroke="rgb(0, 0, 0)" stroke-linejoin="round" d=" M 301.465, 232.413 291.694, 234.538 281.922, 236.663 272.150, 238.788 262.379, 240.913 252.607, 243.038 242.836, 245.163 233.064, 247.287 223.292, 249.412 213.521, 251.537 203.749, 253.662 193.978, 255.787 184.206, 257.912 174.434, 260.037 164.663, 262.162 154.891, 264.287 145.119, 266.412 135.348, 268.537 125.576, 270.662 115.805, 272.787 106.033, 274.912 96.261, 277.037 86.490, 279.162 78.708, 280.854 " />
            <path fill="none" stroke-width="3.0" stroke-linecap="butt" stroke-opacity="1.0" stroke="rgb(0, 0, 0)" stroke-linejoin="round" d=" M -38.589, 229.773 -29.420, 233.766 -20.252, 237.759 -11.084, 241.751 -1.915, 245.744 7.253, 249.737 16.421, 253.729 25.590, 257.722 34.758, 261.715 43.926, 265.707 53.095, 269.700 62.263, 273.693 71.432, 277.685 78.708, 280.854 80.102, 290.756 81.497, 300.659 82.891, 310.561 84.286, 320.463 85.680, 330.365 87.075, 340.268 88.470, 350.170 89.864, 360.072 91.259, 369.975 92.653, 379.877 94.048, 389.779 95.442, 399.681 96.837, 409.584 98.231, 419.486 99.626, 429.388 101.021, 439.290 102.415, 449.193 103.810, 459.095 105.204, 468.997 106.599, 478.900 107.993, 488.802 109.388, 498.704 110.782, 508.607 112.177, 518.509 112.924, 523.815 " />
        </g>
    </g>
</svg>
