<?xml version='1.0' encoding='ascii'?>
<svg xmlns="http://www.w3.org/2000/svg" version="1.1" width="1080" height="1080">
    <g id="ViewLayer_LineSet" xmlns:inkscape="http://www.inkscape.org/namespaces/inkscape" inkscape:groupmode="lineset" inkscape:label="ViewLayer_LineSet">
        <g xmlns:inkscape="http://www.inkscape.org/namespaces/inkscape" inkscape:groupmode="layer" id="strokes" inkscape:label="strokes">
            <path fill="none" stroke-width="3.0" stroke-linecap="butt" stroke-opacity="1.0" stroke="rgb(0, 0, 0)" stroke-linejoin="round" d=" M -0.332, 246.434 1.279, 256.303 2.890, 266.172 4.501, 276.042 6.113, 285.911 7.724, 295.780 9.335, 305.650 10.946, 315.519 12.557, 325.388 14.168, 335.258 15.779, 345.127 17.391, 354.997 19.002, 364.866 20.613, 374.735 22.224, 384.605 23.835, 394.474 25.446, 404.343 27.057, 414.213 28.668, 424.082 30.280, 433.951 31.891, 443.821 33.502, 453.690 35.113, 463.560 36.724, 473.429 37.110, 475.791 45.557, 481.142 54.005, 486.493 62.453, 491.844 70.901, 497.195 79.349, 502.547 87.796, 507.898 96.244, 513.249 104.692, 518.600 113.140, 523.952 121.587, 529.303 130.035, 534.654 138.483, 540.005 146.931, 545.356 155.378, 550.708 158.548, 552.715 167.982, 549.400 177.417, 546.084 186.851, 542.768 196.285, 539.453 205.720, 536.137 215.154, 532.822 224.588, 529.506 234.023, 526.190 243.457, 522.875 252.891, 519.559 262.326, 516.243 271.760, 512.928 281.194, 509.612 290.629, 506.297 300.063, 502.981 309.497, 499.665 318.932, 496.350 328.366, 493.034 337.800, 489.718 347.235, 486.403 356.669, 483.087 366.078, 479.780 365.513, 469.796 364.949, 459.812 364.384, 449.828 363.820, 439.844 363.256, 429.860 362.691, 419.876 362.127, 409.892 361.562, 399.908 360.998, 389.924 360.434, 379.940 359.869, 369.956 359.305, 359.972 358.740, 349.988 358.176, 340.004 357.612, 330.020 357.047, 320.035 356.483, 310.051 355.918, 300.067 355.354, 290.083 354.789, 280.099 354.225, 270.115 353.661, 260.131 353.047, 249.279 343.542, 246.171 334.038, 243.064 324.533, 239.956 315.028, 236.848 305.523, 233.740 296.018, 230.632 286.514, 227.524 277.009, 224.416 267.504, 221.308 257.999, 218.200 248.495, 215.092 238.990, 211.984 229.485, 208.876 219.980, 205.768 215.503, 204.304 205.688, 206.220 195.873, 208.136 186.058, 210.052 176.243, 211.967 166.429, 213.883 156.614, 215.799 146.799, 217.715 136.984, 219.630 127.170, 221.546 117.355, 223.462 107.540, 225.378 97.725, 227.294 87.910, 229.209 78.096, 231.125 68.281, 233.041 58.466, 234.957 48.651, 236.872 38.837, 238.788 29.022, 240.704 19.207, 242.620 9.392, 244.536 -0.332, 246.434 " />
            <path fill="none" stroke-width="3.0" stroke-linecap="butt" stroke-opacity="1.0" stroke="rgb(0, 0, 0)" stroke-linejoin="round" d=" M 353.047, 249.279 343.305, 251.537 333.564, 253.795 323.822, 256.053 314.080, 258.310 304.338, 260.568 294.596, 262.826 284.855, 265.084 275.113, 267.341 265.371, 269.599 255.629, 271.857 245.887, 274.115 236.146, 276.372 226.404, 278.630 216.662, 280.888 206.920, 283.146 197.178, 285.403 187.437, 287.661 177.695, 289.919 167.953, 292.177 158.211, 294.434 148.469, 296.692 138.728, 298.950 128.986, 301.208 126.675, 301.743 " />
            <path fill="none" stroke-width="3.0" stroke-linecap="butt" stroke-opacity="1.0" stroke="rgb(0, 0, 0)" stroke-linejoin="round" d=" M -0.332, 246.434 8.836, 250.426 18.005, 254.419 27.173, 258.412 36.341, 262.404 45.510, 266.397 54.678, 270.390 63.846, 274.382 73.015, 278.375 82.183, 282.367 91.352, 286.360 100.520, 290.353 109.688, 294.345 118.857, 298.338 126.675, 301.743 127.935, 311.663 129.195, 321.584 130.455, 331.504 131.715, 341.424 132.975, 351.345 134.234, 361.265 135.494, 371.185 136.754, 381.106 138.014, 391.026 139.274, 400.946 140.534, 410.867 141.794, 420.787 143.053, 430.707 144.313, 440.628 145.573, 450.548 146.833, 460.468 148.093, 470.389 149.353, 480.309 150.613, 490.229 151.872, 500.149 153.132, 510.070 154.392, 519.990 155.652, 529.910 156.912, 539.831 158.172, 549.751 158.548, 552.715 " />
        </g>
    </g>
</svg>
