<?xml version='1.0' encoding='ascii'?>
<svg xmlns="http://www.w3.org/2000/svg" version="1.1" width="1080" height="1080">
    <g id="ViewLayer_LineSet" xmlns:inkscape="http://www.inkscape.org/namespaces/inkscape" inkscape:groupmode="lineset" inkscape:label="ViewLayer_LineSet">
        <g xmlns:inkscape="http://www.inkscape.org/namespaces/inkscape" inkscape:groupmode="layer" id="strokes" inkscape:label="strokes">
            <path fill="none" stroke-width="3.0" stroke-linecap="butt" stroke-opacity="1.0" stroke="rgb(0, 0, 0)" stroke-linejoin="round" d=" M 24.543, 257.266 26.087, 267.146 27.630, 277.026 29.174, 286.907 30.718, 296.787 32.261, 306.667 33.805, 316.547 35.349, 326.427 36.892, 336.307 38.436, 346.187 39.980, 356.067 41.524, 365.948 43.067, 375.828 44.611, 385.708 46.155, 395.588 47.698, 405.468 49.242, 415.348 50.786, 425.228 52.329, 435.109 53.873, 444.989 55.417, 454.869 56.961, 464.749 58.504, 474.629 60.048, 484.509 61.056, 490.959 69.503, 496.310 77.951, 501.662 86.399, 507.013 94.847, 512.364 103.294, 517.715 111.742, 523.066 120.190, 528.418 128.638, 533.769 137.086, 539.120 145.533, 544.471 153.981, 549.822 162.429, 555.174 170.877, 560.525 179.324, 565.876 188.278, 571.547 197.671, 568.117 207.064, 564.687 216.457, 561.256 225.850, 557.826 235.244, 554.396 244.637, 550.965 254.030, 547.535 263.423, 544.104 272.817, 540.674 282.210, 537.244 291.603, 533.813 300.996, 530.383 310.389, 526.953 319.783, 523.522 329.176, 520.092 338.569, 516.661 347.962, 513.231 357.355, 509.801 366.749, 506.370 376.142, 502.940 385.535, 499.510 394.928, 496.079 397.530, 495.129 397.065, 485.140 396.600, 475.151 396.136, 465.161 395.671, 455.172 395.206, 445.183 394.741, 435.194 394.276, 425.205 393.811, 415.215 393.346, 405.226 392.881, 395.237 392.416, 385.248 391.951, 375.259 391.487, 365.270 391.022, 355.280 390.557, 345.291 390.092, 335.302 389.627, 325.313 389.162, 315.324 388.697, 305.334 388.232, 295.345 387.767, 285.356 387.302, 275.367 386.838, 265.378 386.599, 260.250 377.094, 257.142 367.589, 254.034 358.085, 250.927 348.580, 247.819 339.075, 244.711 329.570, 241.603 320.065, 238.495 310.561, 235.387 301.056, 232.279 291.551, 229.171 282.046, 226.063 272.542, 222.955 263.037, 219.847 253.532, 216.739 242.687, 213.193 232.885, 215.174 223.083, 217.154 213.281, 219.134 203.479, 221.115 193.678, 223.095 183.876, 225.075 174.074, 227.056 164.272, 229.036 154.470, 231.016 144.668, 232.997 134.866, 234.977 125.064, 236.957 115.262, 238.938 105.460, 240.918 95.658, 242.898 85.856, 244.879 76.054, 246.859 66.252, 248.839 56.450, 250.820 46.648, 252.800 36.846, 254.780 27.044, 256.761 24.543, 257.266 " />
            <path fill="none" stroke-width="3.0" stroke-linecap="butt" stroke-opacity="1.0" stroke="rgb(0, 0, 0)" stroke-linejoin="round" d=" M 386.599, 260.250 376.878, 262.597 367.158, 264.945 357.437, 267.292 347.716, 269.639 337.996, 271.986 328.275, 274.334 318.555, 276.681 308.834, 279.028 299.113, 281.375 289.393, 283.723 279.672, 286.070 269.951, 288.417 260.231, 290.764 250.510, 293.112 240.790, 295.459 231.069, 297.806 221.348, 300.153 211.628, 302.500 201.907, 304.848 192.186, 307.195 182.466, 309.542 172.745, 311.889 163.025, 314.237 158.097, 315.427 " />
            <path fill="none" stroke-width="3.0" stroke-linecap="butt" stroke-opacity="1.0" stroke="rgb(0, 0, 0)" stroke-linejoin="round" d=" M 24.543, 257.266 33.711, 261.259 42.880, 265.251 52.048, 269.244 61.216, 273.237 70.385, 277.229 79.553, 281.222 88.721, 285.215 97.890, 289.207 107.058, 293.200 116.226, 297.193 125.395, 301.185 134.563, 305.178 143.731, 309.171 152.900, 313.163 158.097, 315.427 159.267, 325.358 160.437, 335.289 161.608, 345.220 162.778, 355.152 163.948, 365.083 165.119, 375.014 166.289, 384.946 167.459, 394.877 168.629, 404.808 169.800, 414.739 170.970, 424.671 172.140, 434.602 173.311, 444.533 174.481, 454.465 175.651, 464.396 176.821, 474.327 177.992, 484.258 179.162, 494.190 180.332, 504.121 181.502, 514.052 182.673, 523.984 183.843, 533.915 185.013, 543.846 186.184, 553.777 187.354, 563.709 188.278, 571.547 " />
        </g>
    </g>
</svg>
