<?xml version='1.0' encoding='ascii'?>
<svg xmlns="http://www.w3.org/2000/svg" version="1.1" width="1080" height="1080">
    <g id="ViewLayer_LineSet" xmlns:inkscape="http://www.inkscape.org/namespaces/inkscape" inkscape:groupmode="lineset" inkscape:label="ViewLayer_LineSet">
        <g xmlns:inkscape="http://www.inkscape.org/namespaces/inkscape" inkscape:groupmode="layer" id="strokes" inkscape:label="strokes">
            <path fill="none" stroke-width="3.0" stroke-linecap="butt" stroke-opacity="1.0" stroke="rgb(0, 0, 0)" stroke-linejoin="round" d=" M 36.224, 262.353 37.736, 272.238 39.247, 282.123 40.759, 292.008 42.271, 301.893 43.783, 311.778 45.295, 321.663 46.806, 331.548 48.318, 341.434 49.830, 351.319 51.342, 361.204 52.854, 371.089 54.365, 380.974 55.877, 390.859 57.389, 400.744 58.901, 410.629 60.413, 420.514 61.924, 430.399 63.436, 440.284 64.948, 450.169 66.460, 460.054 67.972, 469.939 69.483, 479.824 70.995, 489.709 72.273, 498.065 80.721, 503.416 89.169, 508.767 97.616, 514.118 106.064, 519.470 114.512, 524.821 122.960, 530.172 131.407, 535.523 139.855, 540.874 148.303, 546.226 156.751, 551.577 165.198, 556.928 173.646, 562.279 182.094, 567.630 190.542, 572.982 198.989, 578.333 202.256, 580.402 211.629, 576.917 221.002, 573.432 230.375, 569.947 239.748, 566.462 249.121, 562.977 258.495, 559.492 267.868, 556.008 277.241, 552.523 286.614, 549.038 295.987, 545.553 305.360, 542.068 314.733, 538.583 324.106, 535.098 333.480, 531.613 342.853, 528.128 352.226, 524.643 361.599, 521.159 370.972, 517.674 380.345, 514.189 389.718, 510.704 399.091, 507.219 408.465, 503.734 412.267, 502.320 411.849, 492.329 411.431, 482.338 411.013, 472.346 410.595, 462.355 410.178, 452.364 409.760, 442.373 409.342, 432.381 408.924, 422.390 408.506, 412.399 408.088, 402.408 407.670, 392.416 407.252, 382.425 406.835, 372.434 406.417, 362.443 405.999, 352.451 405.581, 342.460 405.163, 332.469 404.745, 322.478 404.327, 312.486 403.909, 302.495 403.491, 292.504 403.074, 282.512 402.656, 272.521 402.358, 265.403 392.853, 262.295 383.348, 259.187 373.844, 256.080 364.339, 252.972 354.834, 249.864 345.329, 246.756 335.825, 243.648 326.320, 240.540 316.815, 237.432 307.310, 234.324 297.805, 231.216 288.301, 228.108 278.796, 225.000 269.291, 221.892 259.786, 218.784 255.411, 217.354 245.616, 219.365 235.820, 221.376 226.024, 223.387 216.229, 225.398 206.433, 227.409 196.637, 229.420 186.841, 231.431 177.046, 233.442 167.250, 235.453 157.454, 237.464 147.659, 239.476 137.863, 241.487 128.067, 243.498 118.272, 245.509 108.476, 247.520 98.680, 249.531 88.884, 251.542 79.089, 253.553 69.293, 255.564 59.497, 257.575 49.702, 259.586 39.906, 261.597 36.224, 262.353 " />
            <path fill="none" stroke-width="3.0" stroke-linecap="butt" stroke-opacity="1.0" stroke="rgb(0, 0, 0)" stroke-linejoin="round" d=" M 402.358, 265.403 392.648, 267.793 382.938, 270.184 373.228, 272.574 363.517, 274.964 353.807, 277.354 344.097, 279.744 334.387, 282.134 324.677, 284.524 314.967, 286.914 305.256, 289.305 295.546, 291.695 285.836, 294.085 276.126, 296.475 266.416, 298.865 256.706, 301.255 246.995, 303.645 237.285, 306.036 227.575, 308.426 217.865, 310.816 208.155, 313.206 198.445, 315.596 188.734, 317.986 179.024, 320.376 172.916, 321.880 " />
            <path fill="none" stroke-width="3.0" stroke-linecap="butt" stroke-opacity="1.0" stroke="rgb(0, 0, 0)" stroke-linejoin="round" d=" M 36.224, 262.353 45.392, 266.346 54.561, 270.338 63.729, 274.331 72.897, 278.324 82.066, 282.316 91.234, 286.309 100.402, 290.302 109.571, 294.294 118.739, 298.287 127.907, 302.280 137.076, 306.272 146.244, 310.265 155.412, 314.258 164.581, 318.250 172.916, 321.880 174.043, 331.816 175.171, 341.752 176.299, 351.689 177.427, 361.625 178.554, 371.561 179.682, 381.497 180.810, 391.433 181.937, 401.370 183.065, 411.306 184.193, 421.242 185.320, 431.178 186.448, 441.115 187.576, 451.051 188.703, 460.987 189.831, 470.923 190.959, 480.859 192.086, 490.796 193.214, 500.732 194.342, 510.668 195.469, 520.604 196.597, 530.540 197.725, 540.477 198.852, 550.413 199.980, 560.349 201.108, 570.285 202.256, 580.402 " />
        </g>
    </g>
</svg>
