<?xml version='1.0' encoding='ascii'?>
<svg xmlns="http://www.w3.org/2000/svg" version="1.1" width="1080" height="1080">
    <g id="ViewLayer_LineSet" xmlns:inkscape="http://www.inkscape.org/namespaces/inkscape" inkscape:groupmode="lineset" inkscape:label="ViewLayer_LineSet">
        <g xmlns:inkscape="http://www.inkscape.org/namespaces/inkscape" inkscape:groupmode="layer" id="strokes" inkscape:label="strokes">
            <path fill="none" stroke-width="3.0" stroke-linecap="butt" stroke-opacity="1.0" stroke="rgb(0, 0, 0)" stroke-linejoin="round" d=" M -45.733, 423.314 -36.070, 420.741 -26.407, 418.168 -16.744, 415.594 -7.080, 413.021 2.583, 410.448 12.246, 407.874 21.909, 405.301 31.573, 402.728 41.236, 400.154 50.899, 397.581 60.562, 395.008 70.226, 392.435 79.889, 389.861 89.552, 387.288 99.215, 384.715 108.878, 382.141 118.542, 379.568 128.205, 376.995 137.868, 374.421 145.829, 372.301 144.601, 362.377 143.372, 352.453 142.143, 342.529 140.915, 332.604 139.686, 322.680 138.458, 312.756 137.229, 302.832 136.000, 292.908 134.772, 282.983 133.543, 273.059 132.315, 263.135 131.086, 253.211 129.858, 243.286 128.629, 233.362 127.400, 223.438 126.172, 213.514 124.943, 203.589 123.715, 193.665 122.486, 183.741 121.215, 173.474 111.710, 170.366 102.206, 167.258 92.701, 164.150 83.196, 161.042 73.691, 157.934 64.186, 154.826 54.682, 151.718 45.177, 148.610 35.672, 145.502 26.167, 142.394 24.068, 141.708 14.181, 143.207 4.294, 144.706 -5.593, 146.204 -15.480, 147.703 -25.367, 149.202 -35.254, 150.701 -45.141, 152.200 -55.029, 153.699 -64.916, 155.198 -74.803, 156.697 -84.690, 158.196 -94.577, 159.694 -104.464, 161.193 -114.351, 162.692 -124.238, 164.191 -134.125, 165.690 -144.012, 167.189 -153.899, 168.688 -163.786, 170.187 -172.414, 171.495 " />
            <path fill="none" stroke-width="3.0" stroke-linecap="butt" stroke-opacity="1.0" stroke="rgb(0, 0, 0)" stroke-linejoin="round" d=" M 121.215, 173.474 111.361, 175.176 101.507, 176.879 91.653, 178.581 81.799, 180.284 71.945, 181.986 62.091, 183.689 52.237, 185.391 42.383, 187.094 32.529, 188.796 22.675, 190.499 12.821, 192.201 2.967, 193.904 -6.887, 195.606 -16.741, 197.309 -26.595, 199.011 -36.449, 200.714 -46.303, 202.416 -56.157, 204.119 -66.011, 205.821 -75.865, 207.524 -85.757, 209.233 " />
        </g>
    </g>
</svg>
