<?xml version='1.0' encoding='ascii'?>
<svg xmlns="http://www.w3.org/2000/svg" version="1.1" width="1080" height="1080">
    <g id="ViewLayer_LineSet" xmlns:inkscape="http://www.inkscape.org/namespaces/inkscape" inkscape:groupmode="lineset" inkscape:label="ViewLayer_LineSet">
        <g xmlns:inkscape="http://www.inkscape.org/namespaces/inkscape" inkscape:groupmode="layer" id="strokes" inkscape:label="strokes">
            <path fill="none" stroke-width="3.0" stroke-linecap="butt" stroke-opacity="1.0" stroke="rgb(0, 0, 0)" stroke-linejoin="round" d=" M 12.206, 251.894 13.783, 261.768 15.360, 271.643 16.937, 281.518 18.515, 291.393 20.092, 301.268 21.669, 311.143 23.246, 321.017 24.824, 330.892 26.401, 340.767 27.978, 350.642 29.555, 360.517 31.133, 370.392 32.710, 380.266 34.287, 390.141 35.864, 400.016 37.441, 409.891 39.019, 419.766 40.596, 429.641 42.173, 439.515 43.750, 449.390 45.328, 459.265 46.905, 469.140 48.482, 479.015 49.189, 483.442 57.637, 488.794 66.085, 494.145 74.533, 499.496 82.980, 504.847 91.428, 510.198 99.876, 515.550 108.324, 520.901 116.771, 526.252 125.219, 531.603 133.667, 536.954 142.115, 542.306 150.562, 547.657 159.010, 553.008 167.458, 558.359 173.526, 562.203 182.940, 558.830 192.354, 555.457 201.768, 552.084 211.182, 548.710 220.596, 545.337 230.010, 541.964 239.424, 538.591 248.837, 535.217 258.251, 531.844 267.665, 528.471 277.079, 525.098 286.493, 521.724 295.907, 518.351 305.321, 514.978 314.735, 511.605 324.149, 508.232 333.562, 504.858 342.976, 501.485 352.390, 498.112 361.804, 494.739 371.218, 491.365 381.943, 487.522 381.428, 477.536 380.914, 467.549 380.400, 457.562 379.885, 447.575 379.371, 437.589 378.857, 427.602 378.342, 417.615 377.828, 407.628 377.314, 397.642 376.799, 387.655 376.285, 377.668 375.771, 367.681 375.256, 357.695 374.742, 347.708 374.227, 337.721 373.713, 327.734 373.199, 317.747 372.684, 307.761 372.170, 297.774 371.656, 287.787 371.141, 277.800 370.627, 267.814 370.113, 257.827 369.957, 254.809 360.452, 251.701 350.948, 248.593 341.443, 245.485 331.938, 242.377 322.433, 239.269 312.928, 236.161 303.424, 233.053 293.919, 229.945 284.414, 226.837 274.909, 223.729 265.405, 220.621 255.900, 217.514 246.395, 214.406 236.890, 211.298 229.220, 208.790 219.411, 210.738 209.603, 212.686 199.794, 214.634 189.986, 216.582 180.178, 218.530 170.369, 220.479 160.561, 222.427 150.753, 224.375 140.944, 226.323 131.136, 228.271 121.327, 230.219 111.519, 232.168 101.711, 234.116 91.902, 236.064 82.094, 238.012 72.285, 239.960 62.477, 241.909 52.669, 243.857 42.860, 245.805 33.052, 247.753 23.243, 249.701 12.206, 251.894 " />
            <path fill="none" stroke-width="3.0" stroke-linecap="butt" stroke-opacity="1.0" stroke="rgb(0, 0, 0)" stroke-linejoin="round" d=" M 369.957, 254.809 360.226, 257.111 350.494, 259.414 340.763, 261.716 331.032, 264.019 321.301, 266.321 311.569, 268.624 301.838, 270.926 292.107, 273.229 282.375, 275.531 272.644, 277.834 262.913, 280.137 253.181, 282.439 243.450, 284.742 233.719, 287.044 223.988, 289.347 214.256, 291.649 204.525, 293.952 194.794, 296.254 185.062, 298.557 175.331, 300.859 165.600, 303.162 155.868, 305.464 146.137, 307.767 142.490, 308.630 " />
            <path fill="none" stroke-width="3.0" stroke-linecap="butt" stroke-opacity="1.0" stroke="rgb(0, 0, 0)" stroke-linejoin="round" d=" M 12.206, 251.894 21.374, 255.886 30.542, 259.879 39.711, 263.872 48.879, 267.864 58.048, 271.857 67.216, 275.849 76.384, 279.842 85.553, 283.835 94.721, 287.827 103.889, 291.820 113.058, 295.813 122.226, 299.805 131.394, 303.798 140.563, 307.791 142.490, 308.630 143.705, 318.556 144.920, 328.482 146.135, 338.408 147.349, 348.334 148.564, 358.260 149.779, 368.185 150.994, 378.111 152.209, 388.037 153.424, 397.963 154.639, 407.889 155.854, 417.815 157.069, 427.741 158.284, 437.667 159.498, 447.593 160.713, 457.519 161.928, 467.445 163.143, 477.371 164.358, 487.297 165.573, 497.223 166.788, 507.148 168.003, 517.074 169.218, 527.000 170.433, 536.926 171.647, 546.852 172.862, 556.778 173.526, 562.203 " />
        </g>
    </g>
</svg>
