<?xml version='1.0' encoding='ascii'?>
<svg xmlns="http://www.w3.org/2000/svg" version="1.1" width="1080" height="1080">
    <g id="ViewLayer_LineSet" xmlns:inkscape="http://www.inkscape.org/namespaces/inkscape" inkscape:groupmode="lineset" inkscape:label="ViewLayer_LineSet">
        <g xmlns:inkscape="http://www.inkscape.org/namespaces/inkscape" inkscape:groupmode="layer" id="strokes" inkscape:label="strokes">
            <path fill="none" stroke-width="3.0" stroke-linecap="butt" stroke-opacity="1.0" stroke="rgb(0, 0, 0)" stroke-linejoin="round" d=" M -81.259, 400.811 -71.564, 398.358 -61.869, 395.906 -52.175, 393.453 -42.480, 391.001 -32.785, 388.548 -23.091, 386.096 -13.396, 383.644 -3.702, 381.191 5.993, 378.739 15.688, 376.286 25.382, 373.834 35.077, 371.381 44.771, 368.929 54.466, 366.476 64.161, 364.024 73.855, 361.571 83.550, 359.119 93.244, 356.667 102.939, 354.214 106.775, 353.244 105.435, 343.334 104.095, 333.424 102.754, 323.514 101.414, 313.605 100.074, 303.695 98.733, 293.785 97.393, 283.875 96.053, 273.965 94.712, 264.056 93.372, 254.146 92.032, 244.236 90.692, 234.326 89.351, 224.417 88.011, 214.507 86.671, 204.597 85.330, 194.687 83.990, 184.778 82.650, 174.868 81.309, 164.958 80.668, 160.215 71.163, 157.107 61.658, 153.999 52.154, 150.892 42.649, 147.784 33.144, 144.676 23.639, 141.568 14.134, 138.460 4.630, 135.352 -4.875, 132.244 -10.074, 130.544 " />
            <path fill="none" stroke-width="3.0" stroke-linecap="butt" stroke-opacity="1.0" stroke="rgb(0, 0, 0)" stroke-linejoin="round" d=" M 80.668, 160.215 70.799, 161.831 60.931, 163.447 51.062, 165.062 41.193, 166.678 31.325, 168.293 21.456, 169.909 11.588, 171.525 1.719, 173.140 -8.150, 174.756 -18.018, 176.371 -27.887, 177.987 -37.756, 179.603 -47.624, 181.218 -57.493, 182.834 -67.361, 184.450 -77.230, 186.065 -87.099, 187.681 -96.967, 189.296 -106.836, 190.912 -116.705, 192.528 -122.091, 193.409 " />
        </g>
    </g>
</svg>
