<?xml version='1.0' encoding='ascii'?>
<svg xmlns="http://www.w3.org/2000/svg" version="1.1" width="1080" height="1080">
    <g id="ViewLayer_LineSet" xmlns:inkscape="http://www.inkscape.org/namespaces/inkscape" inkscape:groupmode="lineset" inkscape:label="ViewLayer_LineSet">
        <g xmlns:inkscape="http://www.inkscape.org/namespaces/inkscape" inkscape:groupmode="layer" id="strokes" inkscape:label="strokes">
            <path fill="none" stroke-width="3.0" stroke-linecap="butt" stroke-opacity="1.0" stroke="rgb(0, 0, 0)" stroke-linejoin="round" d=" M -37.004, 428.843 -28.557, 434.195 -20.109, 439.546 -11.661, 444.897 -3.213, 450.248 5.234, 455.599 13.682, 460.951 22.130, 466.302 30.578, 471.653 39.026, 477.004 47.473, 482.355 55.921, 487.707 64.369, 493.058 67.472, 495.024 77.020, 492.049 86.567, 489.074 96.114, 486.100 105.662, 483.125 115.209, 480.150 124.756, 477.176 134.304, 474.201 143.851, 471.226 153.398, 468.252 162.945, 465.277 172.493, 462.302 182.040, 459.328 191.587, 456.353 201.135, 453.378 210.682, 450.404 220.229, 447.429 229.777, 444.454 239.324, 441.479 248.871, 438.505 258.419, 435.530 268.782, 432.301 267.917, 422.339 267.052, 412.376 266.187, 402.414 265.322, 392.451 264.457, 382.489 263.593, 372.526 262.728, 362.563 261.863, 352.601 260.998, 342.638 260.133, 332.676 259.268, 322.713 258.403, 312.751 257.538, 302.788 256.673, 292.826 255.808, 282.863 254.943, 272.901 254.079, 262.938 253.214, 252.976 252.349, 243.013 251.484, 233.051 250.619, 223.088 249.967, 215.573 240.462, 212.466 230.957, 209.358 221.452, 206.250 211.947, 203.142 202.443, 200.034 192.938, 196.926 183.433, 193.818 173.928, 190.710 164.424, 187.602 154.919, 184.494 145.414, 181.386 135.909, 178.278 131.167, 176.728 121.317, 178.452 111.467, 180.176 101.617, 181.901 91.767, 183.625 81.916, 185.349 72.066, 187.073 62.216, 188.798 52.366, 190.522 42.515, 192.246 32.665, 193.971 22.815, 195.695 12.965, 197.419 3.115, 199.143 -6.736, 200.868 -16.586, 202.592 -26.436, 204.316 -36.286, 206.040 -46.137, 207.765 -55.987, 209.489 -65.837, 211.213 -76.802, 213.132 " />
            <path fill="none" stroke-width="3.0" stroke-linecap="butt" stroke-opacity="1.0" stroke="rgb(0, 0, 0)" stroke-linejoin="round" d=" M 249.967, 215.573 240.168, 217.571 230.370, 219.569 220.571, 221.567 210.773, 223.565 200.975, 225.563 191.176, 227.561 181.378, 229.559 171.579, 231.556 161.781, 233.554 151.983, 235.552 142.184, 237.550 132.386, 239.548 122.587, 241.546 112.789, 243.544 102.991, 245.542 93.192, 247.539 83.394, 249.537 73.595, 251.535 63.797, 253.533 53.999, 255.531 44.200, 257.529 34.402, 259.527 31.222, 260.175 " />
            <path fill="none" stroke-width="3.0" stroke-linecap="butt" stroke-opacity="1.0" stroke="rgb(0, 0, 0)" stroke-linejoin="round" d=" M -76.802, 213.132 -67.633, 217.125 -58.465, 221.118 -49.297, 225.110 -40.128, 229.103 -30.960, 233.096 -21.791, 237.088 -12.623, 241.081 -3.455, 245.074 5.714, 249.066 14.882, 253.059 24.050, 257.052 31.222, 260.175 32.748, 270.058 34.273, 279.941 35.799, 289.824 37.324, 299.707 38.850, 309.590 40.375, 319.473 41.901, 329.356 43.426, 339.239 44.952, 349.122 46.477, 359.005 48.003, 368.888 49.528, 378.771 51.054, 388.653 52.579, 398.536 54.105, 408.419 55.630, 418.302 57.156, 428.185 58.681, 438.068 60.206, 447.951 61.732, 457.834 63.257, 467.717 64.783, 477.600 66.308, 487.483 67.472, 495.024 " />
        </g>
    </g>
</svg>
