<?xml version='1.0' encoding='ascii'?>
<svg xmlns="http://www.w3.org/2000/svg" version="1.1" width="1080" height="1080">
    <g id="ViewLayer_LineSet" xmlns:inkscape="http://www.inkscape.org/namespaces/inkscape" inkscape:groupmode="lineset" inkscape:label="ViewLayer_LineSet">
        <g xmlns:inkscape="http://www.inkscape.org/namespaces/inkscape" inkscape:groupmode="layer" id="strokes" inkscape:label="strokes">
            <path fill="none" stroke-width="3.0" stroke-linecap="butt" stroke-opacity="1.0" stroke="rgb(0, 0, 0)" stroke-linejoin="round" d=" M 115.228, 296.758 116.520, 306.674 117.812, 316.590 119.104, 326.506 120.397, 336.422 121.689, 346.339 122.981, 356.255 124.273, 366.171 125.565, 376.087 126.858, 386.003 128.150, 395.919 129.442, 405.836 130.734, 415.752 132.027, 425.668 133.319, 435.584 134.611, 445.500 135.903, 455.416 137.195, 465.333 138.488, 475.249 139.780, 485.165 141.072, 495.081 142.364, 504.997 143.657, 514.913 144.949, 524.829 146.241, 534.746 147.686, 545.835 156.134, 551.186 164.582, 556.537 173.029, 561.888 181.477, 567.240 189.925, 572.591 198.373, 577.942 206.820, 583.293 215.268, 588.644 223.716, 593.996 232.164, 599.347 240.611, 604.698 249.059, 610.049 257.507, 615.400 265.955, 620.752 274.402, 626.103 282.850, 631.454 291.298, 636.805 297.093, 640.476 306.316, 636.612 315.539, 632.747 324.762, 628.883 333.986, 625.018 343.209, 621.154 352.432, 617.290 361.655, 613.425 370.878, 609.561 380.101, 605.696 389.324, 601.832 398.548, 597.968 407.771, 594.103 416.994, 590.239 426.217, 586.374 435.440, 582.510 444.663, 578.646 453.886, 574.781 463.110, 570.917 472.333, 567.052 481.556, 563.188 490.779, 559.324 500.002, 555.459 509.225, 551.595 511.386, 550.689 511.291, 540.690 511.196, 530.690 511.101, 520.691 511.005, 510.691 510.910, 500.692 510.815, 490.692 510.720, 480.693 510.625, 470.693 510.529, 460.694 510.434, 450.694 510.339, 440.694 510.244, 430.695 510.149, 420.695 510.053, 410.696 509.958, 400.696 509.863, 390.697 509.768, 380.697 509.673, 370.698 509.578, 360.698 509.482, 350.699 509.387, 340.699 509.292, 330.699 509.197, 320.700 509.102, 310.700 509.002, 300.274 499.497, 297.167 489.993, 294.059 480.488, 290.951 470.983, 287.843 461.478, 284.735 451.974, 281.627 442.469, 278.519 432.964, 275.411 423.459, 272.303 413.954, 269.195 404.450, 266.087 394.945, 262.979 385.440, 259.871 375.935, 256.763 366.431, 253.656 356.926, 250.548 347.421, 247.440 340.777, 245.267 331.028, 247.493 321.278, 249.718 311.529, 251.944 301.780, 254.170 292.031, 256.395 282.282, 258.621 272.533, 260.847 262.783, 263.072 253.034, 265.298 243.285, 267.524 233.536, 269.749 223.787, 271.975 214.037, 274.201 204.288, 276.426 194.539, 278.652 184.790, 280.877 175.041, 283.103 165.292, 285.329 155.542, 287.554 145.793, 289.780 136.044, 292.006 126.295, 294.231 115.228, 296.758 " />
            <path fill="none" stroke-width="3.0" stroke-linecap="butt" stroke-opacity="1.0" stroke="rgb(0, 0, 0)" stroke-linejoin="round" d=" M 509.002, 300.274 499.373, 302.970 489.743, 305.666 480.113, 308.362 470.483, 311.058 460.853, 313.754 451.224, 316.450 441.594, 319.145 431.964, 321.841 422.334, 324.537 412.705, 327.233 403.075, 329.929 393.445, 332.625 383.815, 335.320 374.186, 338.016 364.556, 340.712 354.926, 343.408 345.296, 346.104 335.667, 348.800 326.037, 351.496 316.407, 354.191 306.777, 356.887 297.147, 359.583 287.518, 362.279 277.888, 364.975 274.228, 366.000 " />
            <path fill="none" stroke-width="3.0" stroke-linecap="butt" stroke-opacity="1.0" stroke="rgb(0, 0, 0)" stroke-linejoin="round" d=" M 115.228, 296.758 124.396, 300.750 133.564, 304.743 142.733, 308.736 151.901, 312.728 161.069, 316.721 170.238, 320.714 179.406, 324.706 188.575, 328.699 197.743, 332.692 206.911, 336.684 216.080, 340.677 225.248, 344.670 234.416, 348.662 243.585, 352.655 252.753, 356.648 261.921, 360.640 271.090, 364.633 274.228, 366.000 275.058, 375.965 275.888, 385.930 276.718, 395.896 277.548, 405.861 278.379, 415.827 279.209, 425.792 280.039, 435.758 280.869, 445.723 281.699, 455.689 282.529, 465.654 283.360, 475.620 284.190, 485.585 285.020, 495.551 285.850, 505.516 286.680, 515.482 287.510, 525.447 288.341, 535.413 289.171, 545.378 290.001, 555.344 290.831, 565.309 291.661, 575.275 292.492, 585.240 293.322, 595.206 294.152, 605.171 294.982, 615.137 295.812, 625.102 296.642, 635.067 297.093, 640.476 " />
        </g>
    </g>
</svg>
