<?xml version='1.0' encoding='ascii'?>
<svg xmlns="http://www.w3.org/2000/svg" version="1.1" width="1080" height="1080">
    <g id="ViewLayer_LineSet" xmlns:inkscape="http://www.inkscape.org/namespaces/inkscape" inkscape:groupmode="lineset" inkscape:label="ViewLayer_LineSet">
        <g xmlns:inkscape="http://www.inkscape.org/namespaces/inkscape" inkscape:groupmode="layer" id="strokes" inkscape:label="strokes">
            <path fill="none" stroke-width="3.0" stroke-linecap="butt" stroke-opacity="1.0" stroke="rgb(0, 0, 0)" stroke-linejoin="round" d=" M -135.830, 366.242 -126.092, 363.971 -116.353, 361.699 -106.615, 359.428 -96.876, 357.156 -87.138, 354.885 -77.399, 352.613 -67.660, 350.342 -57.922, 348.070 -48.183, 345.799 -38.445, 343.527 -28.706, 341.255 -18.967, 338.984 -9.229, 336.712 0.510, 334.441 10.248, 332.169 19.987, 329.898 29.726, 327.626 39.464, 325.355 46.339, 323.751 44.829, 313.866 43.319, 303.980 41.810, 294.095 40.300, 284.210 38.790, 274.324 37.281, 264.439 35.771, 254.553 34.262, 244.668 32.752, 234.783 31.242, 224.897 29.733, 215.012 28.223, 205.126 26.713, 195.241 25.204, 185.356 23.694, 175.470 22.185, 165.585 20.675, 155.700 19.165, 145.814 18.248, 139.805 8.743, 136.697 -0.762, 133.589 -10.267, 130.481 -19.772, 127.373 -29.276, 124.265 -38.781, 121.157 -48.286, 118.049 -57.791, 114.941 -63.027, 113.229 " />
            <path fill="none" stroke-width="3.0" stroke-linecap="butt" stroke-opacity="1.0" stroke="rgb(0, 0, 0)" stroke-linejoin="round" d=" M 18.248, 139.805 8.359, 141.292 -1.530, 142.779 -11.419, 144.266 -21.308, 145.753 -31.196, 147.241 -41.085, 148.728 -50.974, 150.215 -60.863, 151.702 -70.752, 153.189 -80.640, 154.676 -90.529, 156.164 -100.418, 157.651 -110.307, 159.138 -120.196, 160.625 -130.084, 162.112 -139.973, 163.599 -149.862, 165.087 -159.751, 166.574 -169.640, 168.061 -177.563, 169.253 " />
        </g>
    </g>
</svg>
