<?xml version='1.0' encoding='ascii'?>
<svg xmlns="http://www.w3.org/2000/svg" version="1.1" width="1080" height="1080">
    <g id="ViewLayer_LineSet" xmlns:inkscape="http://www.inkscape.org/namespaces/inkscape" inkscape:groupmode="lineset" inkscape:label="ViewLayer_LineSet">
        <g xmlns:inkscape="http://www.inkscape.org/namespaces/inkscape" inkscape:groupmode="layer" id="strokes" inkscape:label="strokes">
            <path fill="none" stroke-width="3.0" stroke-linecap="butt" stroke-opacity="1.0" stroke="rgb(0, 0, 0)" stroke-linejoin="round" d=" M 24.107, 257.076 25.652, 266.956 27.197, 276.836 28.742, 286.716 30.287, 296.596 31.832, 306.476 33.376, 316.356 34.921, 326.236 36.466, 336.116 38.011, 345.996 39.556, 355.876 41.101, 365.756 42.646, 375.636 44.191, 385.516 45.735, 395.396 47.280, 405.276 48.825, 415.156 50.370, 425.035 51.915, 434.915 53.460, 444.795 55.005, 454.675 56.550, 464.555 58.095, 474.435 59.639, 484.315 60.637, 490.694 69.085, 496.045 77.532, 501.396 85.980, 506.747 94.428, 512.099 102.876, 517.450 111.323, 522.801 119.771, 528.152 128.219, 533.503 136.667, 538.855 145.114, 544.206 153.562, 549.557 162.010, 554.908 170.458, 560.259 178.905, 565.611 187.756, 571.217 197.150, 567.789 206.544, 564.360 215.938, 560.932 225.332, 557.504 234.726, 554.075 244.120, 550.647 253.514, 547.219 262.908, 543.790 272.302, 540.362 281.696, 536.934 291.090, 533.505 300.484, 530.077 309.878, 526.649 319.272, 523.220 328.666, 519.792 338.060, 516.364 347.454, 512.935 356.848, 509.507 366.241, 506.079 375.635, 502.650 385.029, 499.222 394.423, 495.794 396.980, 494.860 396.513, 484.871 396.047, 474.882 395.580, 464.893 395.113, 454.904 394.647, 444.915 394.180, 434.926 393.713, 424.937 393.247, 414.948 392.780, 404.958 392.314, 394.969 391.847, 384.980 391.380, 374.991 390.914, 365.002 390.447, 355.013 389.980, 345.024 389.514, 335.035 389.047, 325.046 388.580, 315.057 388.114, 305.067 387.647, 295.078 387.180, 285.089 386.714, 275.100 386.247, 265.111 386.011, 260.058 376.506, 256.950 367.001, 253.842 357.497, 250.734 347.992, 247.626 338.487, 244.518 328.982, 241.411 319.478, 238.303 309.973, 235.195 300.468, 232.087 290.963, 228.979 281.458, 225.871 271.954, 222.763 262.449, 219.655 252.944, 216.547 242.212, 213.038 232.410, 215.017 222.608, 216.996 212.806, 218.976 203.003, 220.955 193.201, 222.934 183.399, 224.913 173.597, 226.892 163.795, 228.872 153.992, 230.851 144.190, 232.830 134.388, 234.809 124.586, 236.788 114.784, 238.768 104.982, 240.747 95.179, 242.726 85.377, 244.705 75.575, 246.684 65.773, 248.664 55.971, 250.643 46.168, 252.622 36.366, 254.601 26.564, 256.580 24.107, 257.076 " />
            <path fill="none" stroke-width="3.0" stroke-linecap="butt" stroke-opacity="1.0" stroke="rgb(0, 0, 0)" stroke-linejoin="round" d=" M 386.011, 260.058 376.290, 262.404 366.569, 264.749 356.848, 267.095 347.127, 269.441 337.406, 271.786 327.685, 274.132 317.964, 276.478 308.243, 278.823 298.522, 281.169 288.801, 283.514 279.080, 285.860 269.359, 288.206 259.638, 290.551 249.917, 292.897 240.196, 295.243 230.475, 297.588 220.754, 299.934 211.033, 302.280 201.312, 304.625 191.591, 306.971 181.870, 309.317 172.149, 311.662 162.428, 314.008 157.545, 315.186 " />
            <path fill="none" stroke-width="3.0" stroke-linecap="butt" stroke-opacity="1.0" stroke="rgb(0, 0, 0)" stroke-linejoin="round" d=" M 24.107, 257.076 33.275, 261.069 42.444, 265.062 51.612, 269.054 60.781, 273.047 69.949, 277.040 79.117, 281.032 88.286, 285.025 97.454, 289.018 106.622, 293.010 115.791, 297.003 124.959, 300.996 134.127, 304.988 143.296, 308.981 152.464, 312.974 157.545, 315.186 158.717, 325.117 159.888, 335.048 161.060, 344.979 162.232, 354.911 163.404, 364.842 164.576, 374.773 165.748, 384.704 166.920, 394.635 168.092, 404.566 169.263, 414.497 170.435, 424.428 171.607, 434.359 172.779, 444.290 173.951, 454.221 175.123, 464.153 176.295, 474.084 177.466, 484.015 178.638, 493.946 179.810, 503.877 180.982, 513.808 182.154, 523.739 183.326, 533.670 184.498, 543.601 185.669, 553.532 186.841, 563.464 187.756, 571.217 " />
        </g>
    </g>
</svg>
