<?xml version='1.0' encoding='ascii'?>
<svg xmlns="http://www.w3.org/2000/svg" version="1.1" width="1080" height="1080">
    <g id="ViewLayer_LineSet" xmlns:inkscape="http://www.inkscape.org/namespaces/inkscape" inkscape:groupmode="lineset" inkscape:label="ViewLayer_LineSet">
        <g xmlns:inkscape="http://www.inkscape.org/namespaces/inkscape" inkscape:groupmode="layer" id="strokes" inkscape:label="strokes">
            <path fill="none" stroke-width="3.0" stroke-linecap="butt" stroke-opacity="1.0" stroke="rgb(0, 0, 0)" stroke-linejoin="round" d=" M 121.651, 299.555 122.925, 309.474 124.199, 319.392 125.473, 329.311 126.747, 339.229 128.021, 349.148 129.296, 359.066 130.570, 368.985 131.844, 378.903 133.118, 388.822 134.392, 398.740 135.666, 408.659 136.940, 418.577 138.214, 428.496 139.488, 438.414 140.762, 448.333 142.036, 458.251 143.310, 468.170 144.584, 478.088 145.858, 488.007 147.133, 497.925 148.407, 507.844 149.681, 517.762 150.955, 527.681 152.229, 537.599 153.783, 549.697 162.231, 555.048 170.678, 560.399 179.126, 565.750 187.574, 571.102 196.022, 576.453 204.469, 581.804 212.917, 587.155 221.365, 592.506 229.813, 597.858 238.260, 603.209 246.708, 608.560 255.156, 613.911 263.604, 619.262 272.051, 624.614 280.499, 629.965 288.947, 635.316 297.395, 640.667 304.826, 645.375 314.036, 641.479 323.246, 637.583 332.456, 633.687 341.666, 629.791 350.875, 625.894 360.085, 621.998 369.295, 618.102 378.505, 614.206 387.715, 610.310 396.925, 606.414 406.134, 602.518 415.344, 598.622 424.554, 594.726 433.764, 590.830 442.974, 586.934 452.183, 583.038 461.393, 579.142 470.603, 575.246 479.813, 571.350 489.023, 567.453 498.233, 563.557 507.442, 559.661 516.652, 555.765 519.403, 554.602 519.334, 544.602 519.266, 534.602 519.197, 524.602 519.129, 514.603 519.060, 504.603 518.991, 494.603 518.923, 484.603 518.854, 474.603 518.786, 464.604 518.717, 454.604 518.648, 444.604 518.580, 434.604 518.511, 424.605 518.442, 414.605 518.374, 404.605 518.305, 394.605 518.237, 384.606 518.168, 374.606 518.099, 364.606 518.031, 354.606 517.962, 344.607 517.894, 334.607 517.825, 324.607 517.756, 314.607 517.677, 303.111 508.173, 300.003 498.668, 296.895 489.163, 293.787 479.658, 290.679 470.154, 287.571 460.649, 284.464 451.144, 281.356 441.639, 278.248 432.134, 275.140 422.630, 272.032 413.125, 268.924 403.620, 265.816 394.115, 262.708 384.611, 259.600 375.106, 256.492 365.601, 253.384 356.096, 250.276 347.665, 247.519 337.920, 249.763 328.175, 252.007 318.430, 254.250 308.685, 256.494 298.940, 258.738 289.194, 260.981 279.449, 263.225 269.704, 265.468 259.959, 267.712 250.214, 269.956 240.469, 272.199 230.724, 274.443 220.979, 276.687 211.234, 278.930 201.489, 281.174 191.744, 283.417 181.999, 285.661 172.254, 287.905 162.509, 290.148 152.764, 292.392 143.019, 294.636 133.274, 296.879 121.651, 299.555 " />
            <path fill="none" stroke-width="3.0" stroke-linecap="butt" stroke-opacity="1.0" stroke="rgb(0, 0, 0)" stroke-linejoin="round" d=" M 517.677, 303.111 508.055, 305.833 498.433, 308.555 488.810, 311.277 479.188, 313.999 469.565, 316.721 459.943, 319.443 450.320, 322.165 440.698, 324.887 431.076, 327.609 421.453, 330.331 411.831, 333.052 402.208, 335.774 392.586, 338.496 382.964, 341.218 373.341, 343.940 363.719, 346.662 354.096, 349.384 344.474, 352.106 334.851, 354.828 325.229, 357.550 315.607, 360.272 305.984, 362.994 296.362, 365.716 286.739, 368.438 282.549, 369.623 " />
            <path fill="none" stroke-width="3.0" stroke-linecap="butt" stroke-opacity="1.0" stroke="rgb(0, 0, 0)" stroke-linejoin="round" d=" M 121.651, 299.555 130.819, 303.548 139.988, 307.540 149.156, 311.533 158.325, 315.526 167.493, 319.518 176.661, 323.511 185.830, 327.504 194.998, 331.496 204.166, 335.489 213.335, 339.482 222.503, 343.474 231.671, 347.467 240.840, 351.460 250.008, 355.452 259.176, 359.445 268.345, 363.438 277.513, 367.430 282.549, 369.623 283.354, 379.591 284.159, 389.558 284.965, 399.526 285.770, 409.493 286.575, 419.461 287.380, 429.428 288.186, 439.396 288.991, 449.363 289.796, 459.331 290.601, 469.298 291.407, 479.266 292.212, 489.234 293.017, 499.201 293.823, 509.169 294.628, 519.136 295.433, 529.104 296.238, 539.071 297.044, 549.039 297.849, 559.006 298.654, 568.974 299.459, 578.941 300.265, 588.909 301.070, 598.876 301.875, 608.844 302.680, 618.811 303.486, 628.779 304.291, 638.746 304.826, 645.375 " />
        </g>
    </g>
</svg>
