<?xml version='1.0' encoding='ascii'?>
<svg xmlns="http://www.w3.org/2000/svg" version="1.1" width="1080" height="1080">
    <g id="ViewLayer_LineSet" xmlns:inkscape="http://www.inkscape.org/namespaces/inkscape" inkscape:groupmode="lineset" inkscape:label="ViewLayer_LineSet">
        <g xmlns:inkscape="http://www.inkscape.org/namespaces/inkscape" inkscape:groupmode="layer" id="strokes" inkscape:label="strokes">
            <path fill="none" stroke-width="3.0" stroke-linecap="butt" stroke-opacity="1.0" stroke="rgb(0, 0, 0)" stroke-linejoin="round" d=" M -57.182, 416.062 -47.508, 413.528 -37.835, 410.994 -28.161, 408.460 -18.487, 405.926 -8.814, 403.392 0.860, 400.858 10.533, 398.323 20.207, 395.789 29.881, 393.255 39.554, 390.721 49.228, 388.187 58.901, 385.653 68.575, 383.119 78.249, 380.585 87.922, 378.051 97.596, 375.517 107.269, 372.983 116.943, 370.448 126.617, 367.914 133.268, 366.172 132.004, 356.252 130.739, 346.333 129.474, 336.413 128.209, 326.493 126.945, 316.573 125.680, 306.654 124.415, 296.734 123.151, 286.814 121.886, 276.895 120.621, 266.975 119.356, 257.055 118.092, 247.135 116.827, 237.216 115.562, 227.296 114.298, 217.376 113.033, 207.457 111.768, 197.537 110.503, 187.617 109.239, 177.698 108.156, 169.203 98.651, 166.095 89.146, 162.988 79.641, 159.880 70.137, 156.772 60.632, 153.664 51.127, 150.556 41.622, 147.448 32.118, 144.340 22.613, 141.232 13.093, 138.119 3.203, 139.596 -6.687, 141.073 -16.578, 142.550 -26.468, 144.027 -36.358, 145.504 -46.249, 146.980 -56.139, 148.457 -66.030, 149.934 -75.920, 151.411 -85.810, 152.888 -95.701, 154.365 -105.591, 155.841 -115.481, 157.318 -125.372, 158.795 -135.262, 160.272 -145.152, 161.749 -155.043, 163.226 -164.933, 164.702 -174.823, 166.179 -182.119, 167.269 " />
            <path fill="none" stroke-width="3.0" stroke-linecap="butt" stroke-opacity="1.0" stroke="rgb(0, 0, 0)" stroke-linejoin="round" d=" M 108.156, 169.203 98.297, 170.878 88.438, 172.552 78.579, 174.226 68.720, 175.900 58.861, 177.574 49.003, 179.249 39.144, 180.923 29.285, 182.597 19.426, 184.271 9.567, 185.945 -0.292, 187.620 -10.150, 189.294 -20.009, 190.968 -29.868, 192.642 -39.727, 194.317 -49.586, 195.991 -59.445, 197.665 -69.304, 199.339 -79.162, 201.013 -89.021, 202.688 -97.485, 204.125 " />
        </g>
    </g>
</svg>
