<?xml version='1.0' encoding='ascii'?>
<svg xmlns="http://www.w3.org/2000/svg" version="1.1" width="1080" height="1080">
    <g id="ViewLayer_LineSet" xmlns:inkscape="http://www.inkscape.org/namespaces/inkscape" inkscape:groupmode="lineset" inkscape:label="ViewLayer_LineSet">
        <g xmlns:inkscape="http://www.inkscape.org/namespaces/inkscape" inkscape:groupmode="layer" id="strokes" inkscape:label="strokes">
            <path fill="none" stroke-width="3.0" stroke-linecap="butt" stroke-opacity="1.0" stroke="rgb(0, 0, 0)" stroke-linejoin="round" d=" M -12.290, 444.499 -3.842, 449.850 4.605, 455.201 13.053, 460.552 21.501, 465.903 29.949, 471.255 38.396, 476.606 46.844, 481.957 55.292, 487.308 63.740, 492.659 72.187, 498.010 80.635, 503.362 89.083, 508.713 97.686, 514.162 107.198, 511.076 116.710, 507.990 126.222, 504.904 135.734, 501.818 145.246, 498.732 154.758, 495.646 164.269, 492.560 173.781, 489.474 183.293, 486.388 192.805, 483.302 202.317, 480.216 211.829, 477.130 221.341, 474.044 230.853, 470.958 240.365, 467.872 249.877, 464.786 259.389, 461.700 268.901, 458.614 278.412, 455.528 287.924, 452.442 297.436, 449.356 301.218, 448.129 300.452, 438.159 299.686, 428.188 298.920, 418.218 298.154, 408.247 297.388, 398.276 296.622, 388.306 295.856, 378.335 295.090, 368.364 294.324, 358.394 293.558, 348.423 292.792, 338.453 292.026, 328.482 291.260, 318.511 290.494, 308.541 289.728, 298.570 288.962, 288.599 288.196, 278.629 287.430, 268.658 286.664, 258.688 285.898, 248.717 285.132, 238.746 284.212, 226.771 274.707, 223.663 265.203, 220.555 255.698, 217.448 246.193, 214.340 236.688, 211.232 227.184, 208.124 217.679, 205.016 208.174, 201.908 198.669, 198.800 189.164, 195.692 179.660, 192.584 170.155, 189.476 160.650, 186.368 159.323, 185.934 149.484, 187.721 139.645, 189.508 129.806, 191.295 119.967, 193.081 110.128, 194.868 100.289, 196.655 90.449, 198.442 80.610, 200.228 70.771, 202.015 60.932, 203.802 51.093, 205.589 41.254, 207.375 31.415, 209.162 21.576, 210.949 11.737, 212.736 1.898, 214.523 -7.941, 216.309 -17.780, 218.096 -27.619, 219.883 -37.459, 221.670 -47.298, 223.456 -51.389, 224.199 " />
            <path fill="none" stroke-width="3.0" stroke-linecap="butt" stroke-opacity="1.0" stroke="rgb(0, 0, 0)" stroke-linejoin="round" d=" M 284.212, 226.771 274.431, 228.853 264.650, 230.935 254.870, 233.017 245.089, 235.098 235.308, 237.180 225.527, 239.262 215.746, 241.344 205.965, 243.426 196.184, 245.507 186.403, 247.589 176.622, 249.671 166.841, 251.753 157.060, 253.834 147.280, 255.916 137.499, 257.998 127.718, 260.080 117.937, 262.161 108.156, 264.243 98.375, 266.325 88.594, 268.407 78.813, 270.489 69.032, 272.570 62.754, 273.907 " />
            <path fill="none" stroke-width="3.0" stroke-linecap="butt" stroke-opacity="1.0" stroke="rgb(0, 0, 0)" stroke-linejoin="round" d=" M -51.389, 224.199 -42.220, 228.192 -33.052, 232.185 -23.884, 236.177 -14.715, 240.170 -5.547, 244.163 3.621, 248.155 12.790, 252.148 21.958, 256.141 31.126, 260.133 40.295, 264.126 49.463, 268.118 58.631, 272.111 62.754, 273.907 64.193, 283.803 65.632, 293.698 67.071, 303.594 68.510, 313.490 69.948, 323.386 71.387, 333.282 72.826, 343.178 74.265, 353.074 75.704, 362.970 77.142, 372.866 78.581, 382.762 80.020, 392.658 81.459, 402.554 82.898, 412.450 84.337, 422.346 85.775, 432.242 87.214, 442.138 88.653, 452.034 90.092, 461.930 91.531, 471.826 92.969, 481.721 94.408, 491.617 95.847, 501.513 97.286, 511.409 97.686, 514.162 " />
        </g>
    </g>
</svg>
