<?xml version='1.0' encoding='ascii'?>
<svg xmlns="http://www.w3.org/2000/svg" version="1.1" width="1080" height="1080">
    <g id="ViewLayer_LineSet" xmlns:inkscape="http://www.inkscape.org/namespaces/inkscape" inkscape:groupmode="lineset" inkscape:label="ViewLayer_LineSet">
        <g xmlns:inkscape="http://www.inkscape.org/namespaces/inkscape" inkscape:groupmode="layer" id="strokes" inkscape:label="strokes">
            <path fill="none" stroke-width="3.0" stroke-linecap="butt" stroke-opacity="1.0" stroke="rgb(0, 0, 0)" stroke-linejoin="round" d=" M -85.877, 397.885 -77.429, 403.236 -68.982, 408.588 -60.534, 413.939 -52.086, 419.290 -43.638, 424.641 -35.191, 429.992 -26.743, 435.344 -18.295, 440.695 -9.847, 446.046 -1.400, 451.397 7.048, 456.748 8.179, 457.465 17.790, 454.703 27.401, 451.942 37.013, 449.181 46.624, 446.419 56.235, 443.658 65.846, 440.897 75.457, 438.135 85.069, 435.374 94.680, 432.613 104.291, 429.851 113.902, 427.090 123.513, 424.328 133.125, 421.567 142.736, 418.806 152.347, 416.044 161.958, 413.283 171.569, 410.522 181.180, 407.760 190.792, 404.999 200.403, 402.238 204.666, 401.013 203.609, 391.069 202.552, 381.125 201.495, 371.181 200.438, 361.237 199.382, 351.293 198.325, 341.349 197.268, 331.405 196.211, 321.461 195.154, 311.517 194.098, 301.573 193.041, 291.629 191.984, 281.685 190.927, 271.741 189.870, 261.797 188.814, 251.853 187.757, 241.909 186.700, 231.965 185.643, 222.021 184.586, 212.077 183.529, 202.133 182.617, 193.551 173.113, 190.443 163.608, 187.336 154.103, 184.228 144.598, 181.120 135.094, 178.012 125.589, 174.904 116.084, 171.796 106.579, 168.688 97.074, 165.580 87.570, 162.472 78.065, 159.364 75.391, 158.490 65.521, 160.094 55.650, 161.699 45.780, 163.304 35.910, 164.908 26.039, 166.513 16.169, 168.117 6.298, 169.722 -3.572, 171.326 -13.443, 172.931 -23.313, 174.535 -33.183, 176.140 -43.054, 177.744 -52.924, 179.349 -62.795, 180.953 -72.665, 182.558 -82.536, 184.162 -92.406, 185.767 -102.277, 187.371 -112.147, 188.976 -122.017, 190.580 -126.802, 191.358 " />
            <path fill="none" stroke-width="3.0" stroke-linecap="butt" stroke-opacity="1.0" stroke="rgb(0, 0, 0)" stroke-linejoin="round" d=" M 182.617, 193.551 172.788, 195.391 162.959, 197.230 153.129, 199.070 143.300, 200.909 133.471, 202.749 123.641, 204.589 113.812, 206.428 103.983, 208.268 94.153, 210.107 84.324, 211.947 74.495, 213.786 64.665, 215.626 54.836, 217.465 45.007, 219.305 35.177, 221.144 25.348, 222.984 15.519, 224.824 5.689, 226.663 -4.140, 228.503 -13.969, 230.342 -23.799, 232.182 -30.275, 233.394 -28.584, 243.250 -26.892, 253.106 -25.201, 262.962 -23.510, 272.817 -21.818, 282.673 -20.127, 292.529 -18.435, 302.385 -16.744, 312.241 -15.052, 322.097 -13.361, 331.953 -11.669, 341.809 -9.978, 351.665 -8.287, 361.521 -6.595, 371.377 -4.904, 381.232 -3.212, 391.088 -1.521, 400.944 0.171, 410.800 1.862, 420.656 3.554, 430.512 5.245, 440.368 6.936, 450.224 8.179, 457.465 " />
        </g>
    </g>
</svg>
