<?xml version='1.0' encoding='ascii'?>
<svg xmlns="http://www.w3.org/2000/svg" version="1.1" width="1080" height="1080">
    <g id="ViewLayer_LineSet" xmlns:inkscape="http://www.inkscape.org/namespaces/inkscape" inkscape:groupmode="lineset" inkscape:label="ViewLayer_LineSet">
        <g xmlns:inkscape="http://www.inkscape.org/namespaces/inkscape" inkscape:groupmode="layer" id="strokes" inkscape:label="strokes">
            <path fill="none" stroke-width="3.0" stroke-linecap="butt" stroke-opacity="1.0" stroke="rgb(0, 0, 0)" stroke-linejoin="round" d=" M -143.952, 361.098 -134.207, 358.853 -124.462, 356.608 -114.718, 354.363 -104.973, 352.118 -95.228, 349.872 -85.484, 347.627 -75.739, 345.382 -65.994, 343.137 -56.249, 340.892 -46.505, 338.647 -36.760, 336.402 -27.015, 334.157 -17.271, 331.912 -7.526, 329.667 2.219, 327.421 11.964, 325.176 21.708, 322.931 31.453, 320.686 37.298, 319.339 35.763, 309.458 34.229, 299.576 32.694, 289.695 31.160, 279.813 29.625, 269.932 28.091, 260.050 26.556, 250.169 25.021, 240.287 23.487, 230.406 21.952, 220.524 20.418, 210.642 18.883, 200.761 17.348, 190.879 15.814, 180.998 14.279, 171.116 12.745, 161.235 11.210, 151.353 9.675, 141.472 8.944, 136.763 -0.561, 133.655 -10.065, 130.547 -19.570, 127.439 -29.075, 124.331 -38.580, 121.223 -48.084, 118.115 -57.589, 115.007 -67.094, 111.899 -70.960, 110.635 " />
            <path fill="none" stroke-width="3.0" stroke-linecap="butt" stroke-opacity="1.0" stroke="rgb(0, 0, 0)" stroke-linejoin="round" d=" M 8.944, 136.763 -0.947, 138.231 -10.839, 139.700 -20.731, 141.168 -30.622, 142.637 -40.514, 144.105 -50.405, 145.574 -60.297, 147.043 -70.188, 148.511 -80.080, 149.980 -89.972, 151.448 -99.863, 152.917 -109.755, 154.385 -119.646, 155.854 -129.538, 157.322 -139.430, 158.791 -149.321, 160.260 -159.213, 161.728 -169.104, 163.197 -178.996, 164.665 -185.783, 165.673 " />
        </g>
    </g>
</svg>
