<?xml version='1.0' encoding='ascii'?>
<svg xmlns="http://www.w3.org/2000/svg" version="1.1" width="1080" height="1080">
    <g id="ViewLayer_LineSet" xmlns:inkscape="http://www.inkscape.org/namespaces/inkscape" inkscape:groupmode="lineset" inkscape:label="ViewLayer_LineSet">
        <g xmlns:inkscape="http://www.inkscape.org/namespaces/inkscape" inkscape:groupmode="layer" id="strokes" inkscape:label="strokes">
            <path fill="none" stroke-width="3.0" stroke-linecap="butt" stroke-opacity="1.0" stroke="rgb(0, 0, 0)" stroke-linejoin="round" d=" M 131.374, 303.789 132.620, 313.711 133.867, 323.633 135.113, 333.555 136.360, 343.477 137.606, 353.399 138.853, 363.321 140.099, 373.243 141.346, 383.165 142.592, 393.087 143.839, 403.009 145.085, 412.931 146.332, 422.853 147.578, 432.775 148.825, 442.697 150.072, 452.619 151.318, 462.541 152.565, 472.463 153.811, 482.385 155.058, 492.307 156.304, 502.229 157.551, 512.151 158.797, 522.073 160.044, 531.995 161.290, 541.917 162.537, 551.839 163.001, 555.536 171.449, 560.887 179.897, 566.239 188.344, 571.590 196.792, 576.941 205.240, 582.292 213.688, 587.643 222.136, 592.995 230.583, 598.346 239.031, 603.697 247.479, 609.048 255.927, 614.399 264.374, 619.751 272.822, 625.102 281.270, 630.453 289.718, 635.804 298.165, 641.155 306.613, 646.507 316.539, 652.794 325.728, 648.850 334.917, 644.905 344.106, 640.961 353.296, 637.017 362.485, 633.073 371.674, 629.128 380.864, 625.184 390.053, 621.240 399.242, 617.296 408.431, 613.352 417.621, 609.407 426.810, 605.463 435.999, 601.519 445.189, 597.575 454.378, 593.630 463.567, 589.686 472.757, 585.742 481.946, 581.798 491.135, 577.854 500.324, 573.909 509.514, 569.965 518.703, 566.021 527.892, 562.077 531.526, 560.517 531.497, 550.517 531.469, 540.517 531.441, 530.517 531.413, 520.517 531.384, 510.517 531.356, 500.518 531.328, 490.518 531.299, 480.518 531.271, 470.518 531.243, 460.518 531.215, 450.518 531.186, 440.518 531.158, 430.518 531.130, 420.518 531.101, 410.518 531.073, 400.518 531.045, 390.518 531.016, 380.518 530.988, 370.518 530.960, 360.518 530.932, 350.518 530.903, 340.518 530.875, 330.518 530.847, 320.518 530.818, 310.518 530.810, 307.405 521.305, 304.297 511.800, 301.189 502.295, 298.081 492.791, 294.973 483.286, 291.865 473.781, 288.758 464.276, 285.650 454.771, 282.542 445.267, 279.434 435.762, 276.326 426.257, 273.218 416.752, 270.110 407.248, 267.002 397.743, 263.894 388.238, 260.786 378.733, 257.678 369.228, 254.570 358.076, 250.924 348.337, 253.195 338.598, 255.466 328.860, 257.737 319.121, 260.008 309.382, 262.279 299.644, 264.550 289.905, 266.821 280.166, 269.092 270.427, 271.363 260.689, 273.634 250.950, 275.905 241.211, 278.176 231.473, 280.447 221.734, 282.718 211.995, 284.989 202.256, 287.260 192.518, 289.531 182.779, 291.802 173.040, 294.073 163.302, 296.344 153.563, 298.615 143.824, 300.886 134.085, 303.157 131.374, 303.789 " />
            <path fill="none" stroke-width="3.0" stroke-linecap="butt" stroke-opacity="1.0" stroke="rgb(0, 0, 0)" stroke-linejoin="round" d=" M 530.810, 307.405 521.199, 310.167 511.588, 312.929 501.977, 315.691 492.365, 318.452 482.754, 321.214 473.143, 323.976 463.532, 326.738 453.921, 329.500 444.310, 332.261 434.699, 335.023 425.088, 337.785 415.477, 340.547 405.866, 343.309 396.255, 346.071 386.644, 348.832 377.033, 351.594 367.422, 354.356 357.811, 357.118 348.200, 359.880 338.589, 362.642 328.978, 365.403 319.367, 368.165 309.755, 370.927 300.144, 373.689 295.168, 375.119 " />
            <path fill="none" stroke-width="3.0" stroke-linecap="butt" stroke-opacity="1.0" stroke="rgb(0, 0, 0)" stroke-linejoin="round" d=" M 131.374, 303.789 140.542, 307.782 149.710, 311.774 158.879, 315.767 168.047, 319.760 177.215, 323.752 186.384, 327.745 195.552, 331.738 204.720, 335.730 213.889, 339.723 223.057, 343.716 232.226, 347.708 241.394, 351.701 250.562, 355.694 259.731, 359.686 268.899, 363.679 278.067, 367.672 287.236, 371.664 295.168, 375.119 295.936, 385.089 296.703, 395.060 297.470, 405.030 298.238, 415.001 299.005, 424.971 299.772, 434.942 300.540, 444.912 301.307, 454.883 302.074, 464.853 302.842, 474.824 303.609, 484.794 304.376, 494.765 305.144, 504.735 305.911, 514.706 306.678, 524.676 307.446, 534.647 308.213, 544.617 308.980, 554.588 309.748, 564.559 310.515, 574.529 311.283, 584.500 312.050, 594.470 312.817, 604.441 313.585, 614.411 314.352, 624.382 315.119, 634.352 315.887, 644.323 316.539, 652.794 " />
        </g>
    </g>
</svg>
