<?xml version='1.0' encoding='ascii'?>
<svg xmlns="http://www.w3.org/2000/svg" version="1.1" width="1080" height="1080">
    <g id="ViewLayer_LineSet" xmlns:inkscape="http://www.inkscape.org/namespaces/inkscape" inkscape:groupmode="lineset" inkscape:label="ViewLayer_LineSet">
        <g xmlns:inkscape="http://www.inkscape.org/namespaces/inkscape" inkscape:groupmode="layer" id="strokes" inkscape:label="strokes">
            <path fill="none" stroke-width="3.0" stroke-linecap="butt" stroke-opacity="1.0" stroke="rgb(0, 0, 0)" stroke-linejoin="round" d=" M -69.410, 408.316 -59.726, 405.824 -50.041, 403.331 -40.357, 400.839 -30.673, 398.346 -20.988, 395.854 -11.304, 393.361 -1.619, 390.869 8.065, 388.376 17.749, 385.884 27.434, 383.391 37.118, 380.899 46.803, 378.406 56.487, 375.914 66.171, 373.421 75.856, 370.929 85.540, 368.436 95.225, 365.944 104.909, 363.451 114.593, 360.959 119.826, 359.612 118.523, 349.697 117.219, 339.783 115.916, 329.868 114.613, 319.953 113.310, 310.039 112.007, 300.124 110.704, 290.209 109.400, 280.294 108.097, 270.380 106.794, 260.465 105.491, 250.550 104.188, 240.635 102.884, 230.721 101.581, 220.806 100.278, 210.891 98.975, 200.977 97.672, 191.062 96.369, 181.147 95.065, 171.232 94.199, 164.640 84.694, 161.532 75.189, 158.424 65.685, 155.316 56.180, 152.208 46.675, 149.100 37.170, 145.992 27.665, 142.884 18.161, 139.776 8.656, 136.668 1.342, 134.277 -8.552, 135.730 -18.446, 137.184 -28.340, 138.637 -38.234, 140.091 -48.127, 141.544 -58.021, 142.997 -67.915, 144.451 -77.809, 145.904 -87.703, 147.358 -97.596, 148.811 -107.490, 150.265 -117.384, 151.718 -127.278, 153.172 -137.172, 154.625 -147.066, 156.078 -156.959, 157.532 -166.853, 158.985 -176.747, 160.439 -186.641, 161.892 -192.491, 162.752 " />
            <path fill="none" stroke-width="3.0" stroke-linecap="butt" stroke-opacity="1.0" stroke="rgb(0, 0, 0)" stroke-linejoin="round" d=" M 94.199, 164.640 84.335, 166.284 74.471, 167.928 64.607, 169.573 54.743, 171.217 44.879, 172.861 35.016, 174.505 25.152, 176.150 15.288, 177.794 5.424, 179.438 -4.440, 181.083 -14.304, 182.727 -24.168, 184.371 -34.032, 186.016 -43.896, 187.660 -53.759, 189.304 -63.623, 190.948 -73.487, 192.593 -83.351, 194.237 -93.215, 195.881 -103.079, 197.526 -109.993, 198.678 " />
        </g>
    </g>
</svg>
