<?xml version='1.0' encoding='ascii'?>
<svg xmlns="http://www.w3.org/2000/svg" version="1.1" width="1080" height="1080">
    <g id="ViewLayer_LineSet" xmlns:inkscape="http://www.inkscape.org/namespaces/inkscape" inkscape:groupmode="lineset" inkscape:label="ViewLayer_LineSet">
        <g xmlns:inkscape="http://www.inkscape.org/namespaces/inkscape" inkscape:groupmode="layer" id="strokes" inkscape:label="strokes">
            <path fill="none" stroke-width="3.0" stroke-linecap="butt" stroke-opacity="1.0" stroke="rgb(0, 0, 0)" stroke-linejoin="round" d=" M -13.012, 240.911 -11.367, 250.775 -9.722, 260.639 -8.077, 270.503 -6.431, 280.366 -4.786, 290.230 -3.141, 300.094 -1.496, 309.958 0.150, 319.821 1.795, 329.685 3.440, 339.549 5.085, 349.413 6.731, 359.276 8.376, 369.140 10.021, 379.004 11.667, 388.867 13.312, 398.731 14.957, 408.595 16.602, 418.459 18.248, 428.322 19.893, 438.186 21.538, 448.050 23.183, 457.914 24.872, 468.039 33.320, 473.390 41.768, 478.741 50.216, 484.093 58.663, 489.444 67.111, 494.795 75.559, 500.146 84.007, 505.497 92.454, 510.849 100.902, 516.200 109.350, 521.551 117.798, 526.902 126.245, 532.253 134.693, 537.605 143.413, 543.128 152.867, 539.870 162.321, 536.612 171.776, 533.354 181.230, 530.096 190.685, 526.838 200.139, 523.581 209.594, 520.323 219.048, 517.065 228.502, 513.807 237.957, 510.549 247.411, 507.291 256.866, 504.033 266.320, 500.776 275.775, 497.518 285.229, 494.260 294.683, 491.002 304.138, 487.744 313.592, 484.486 323.047, 481.228 332.501, 477.970 341.956, 474.713 350.007, 471.938 349.392, 461.957 348.778, 451.976 348.163, 441.995 347.548, 432.014 346.933, 422.033 346.318, 412.052 345.703, 402.071 345.089, 392.090 344.474, 382.108 343.859, 372.127 343.244, 362.146 342.629, 352.165 342.015, 342.184 341.400, 332.203 340.785, 322.222 340.170, 312.241 339.555, 302.260 338.941, 292.279 338.326, 282.298 337.711, 272.317 337.096, 262.335 336.481, 252.354 335.947, 243.688 326.443, 240.580 316.938, 237.472 307.433, 234.364 297.928, 231.256 288.424, 228.148 278.919, 225.040 269.414, 221.932 259.909, 218.825 250.404, 215.717 240.900, 212.609 231.395, 209.501 221.890, 206.393 212.385, 203.285 201.598, 199.758 191.777, 201.641 181.956, 203.524 172.135, 205.408 162.314, 207.291 152.493, 209.174 142.672, 211.057 132.851, 212.941 123.029, 214.824 113.208, 216.707 103.387, 218.591 93.566, 220.474 83.745, 222.357 73.924, 224.240 64.103, 226.124 54.282, 228.007 44.461, 229.890 34.640, 231.774 24.819, 233.657 14.998, 235.540 5.177, 237.424 -4.644, 239.307 -13.012, 240.911 " />
            <path fill="none" stroke-width="3.0" stroke-linecap="butt" stroke-opacity="1.0" stroke="rgb(0, 0, 0)" stroke-linejoin="round" d=" M 335.947, 243.688 326.195, 245.901 316.443, 248.114 306.691, 250.327 296.939, 252.540 287.187, 254.753 277.435, 256.967 267.683, 259.180 257.931, 261.393 248.179, 263.606 238.427, 265.819 228.675, 268.032 218.923, 270.245 209.171, 272.458 199.419, 274.671 189.667, 276.884 179.915, 279.097 170.163, 281.311 160.411, 283.524 150.659, 285.737 140.907, 287.950 131.155, 290.163 121.403, 292.376 110.728, 294.798 " />
            <path fill="none" stroke-width="3.0" stroke-linecap="butt" stroke-opacity="1.0" stroke="rgb(0, 0, 0)" stroke-linejoin="round" d=" M -13.012, 240.911 -3.844, 244.904 5.324, 248.897 14.493, 252.889 23.661, 256.882 32.829, 260.875 41.998, 264.867 51.166, 268.860 60.334, 272.853 69.503, 276.845 78.671, 280.838 87.840, 284.831 97.008, 288.823 106.176, 292.816 110.728, 294.798 112.033, 304.713 113.338, 314.627 114.643, 324.542 115.948, 334.456 117.253, 344.371 118.558, 354.285 119.863, 364.200 121.168, 374.114 122.473, 384.029 123.777, 393.943 125.082, 403.858 126.387, 413.772 127.692, 423.687 128.997, 433.601 130.302, 443.516 131.607, 453.430 132.912, 463.345 134.217, 473.259 135.522, 483.174 136.827, 493.088 138.131, 503.003 139.436, 512.917 140.741, 522.832 142.046, 532.746 143.413, 543.128 " />
        </g>
    </g>
</svg>
