<?xml version='1.0' encoding='ascii'?>
<svg xmlns="http://www.w3.org/2000/svg" version="1.1" width="1080" height="1080">
    <g id="ViewLayer_LineSet" xmlns:inkscape="http://www.inkscape.org/namespaces/inkscape" inkscape:groupmode="lineset" inkscape:label="ViewLayer_LineSet">
        <g xmlns:inkscape="http://www.inkscape.org/namespaces/inkscape" inkscape:groupmode="layer" id="strokes" inkscape:label="strokes">
            <path fill="none" stroke-width="3.0" stroke-linecap="butt" stroke-opacity="1.0" stroke="rgb(0, 0, 0)" stroke-linejoin="round" d=" M 134.531, 305.164 135.768, 315.087 137.006, 325.010 138.244, 334.933 139.481, 344.857 140.719, 354.780 141.956, 364.703 143.194, 374.626 144.431, 384.549 145.669, 394.472 146.906, 404.395 148.144, 414.318 149.382, 424.242 150.619, 434.165 151.857, 444.088 153.094, 454.011 154.332, 463.934 155.569, 473.857 156.807, 483.780 158.044, 493.703 159.282, 503.627 160.520, 513.550 161.757, 523.473 162.995, 533.396 164.232, 543.319 165.470, 553.242 165.992, 557.431 174.440, 562.782 182.888, 568.133 191.335, 573.484 199.783, 578.836 208.231, 584.187 216.679, 589.538 225.126, 594.889 233.574, 600.240 242.022, 605.592 250.470, 610.943 258.917, 616.294 267.365, 621.645 275.813, 626.996 284.261, 632.348 292.709, 637.699 301.156, 643.050 309.604, 648.401 318.052, 653.752 320.343, 655.204 329.526, 651.244 338.709, 647.284 347.891, 643.324 357.074, 639.364 366.256, 635.404 375.439, 631.444 384.621, 627.485 393.804, 623.525 402.986, 619.565 412.169, 615.605 421.351, 611.645 430.534, 607.685 439.716, 603.725 448.899, 599.765 458.082, 595.805 467.264, 591.845 476.447, 587.885 485.629, 583.926 494.812, 579.966 503.994, 576.006 513.177, 572.046 522.359, 568.086 531.542, 564.126 535.459, 562.437 535.444, 552.437 535.429, 542.437 535.414, 532.437 535.398, 522.437 535.383, 512.437 535.368, 502.437 535.353, 492.437 535.338, 482.437 535.323, 472.437 535.307, 462.437 535.292, 452.437 535.277, 442.437 535.262, 432.437 535.247, 422.437 535.232, 412.437 535.216, 402.437 535.201, 392.437 535.186, 382.437 535.171, 372.437 535.156, 362.437 535.141, 352.437 535.125, 342.437 535.110, 332.437 535.095, 322.437 535.080, 312.437 535.074, 308.800 525.570, 305.692 516.065, 302.584 506.560, 299.476 497.055, 296.368 487.551, 293.260 478.046, 290.152 468.541, 287.044 459.036, 283.936 449.531, 280.828 440.027, 277.720 430.522, 274.612 421.017, 271.505 411.512, 268.397 402.008, 265.289 392.503, 262.181 382.998, 259.073 373.493, 255.965 363.988, 252.857 361.453, 252.028 351.716, 254.308 341.979, 256.588 332.243, 258.868 322.506, 261.148 312.770, 263.427 303.033, 265.707 293.296, 267.987 283.560, 270.267 273.823, 272.547 264.086, 274.827 254.350, 277.107 244.613, 279.387 234.877, 281.667 225.140, 283.947 215.403, 286.227 205.667, 288.507 195.930, 290.787 186.193, 293.067 176.457, 295.347 166.720, 297.627 156.984, 299.906 147.247, 302.186 137.510, 304.466 134.531, 305.164 " />
            <path fill="none" stroke-width="3.0" stroke-linecap="butt" stroke-opacity="1.0" stroke="rgb(0, 0, 0)" stroke-linejoin="round" d=" M 535.074, 308.800 525.467, 311.574 515.860, 314.349 506.253, 317.124 496.645, 319.899 487.038, 322.674 477.431, 325.449 467.823, 328.224 458.216, 330.999 448.609, 333.773 439.001, 336.548 429.394, 339.323 419.787, 342.098 410.180, 344.873 400.572, 347.648 390.965, 350.423 381.358, 353.197 371.750, 355.972 362.143, 358.747 352.536, 361.522 342.928, 364.297 333.321, 367.072 323.714, 369.847 314.107, 372.621 304.499, 375.396 299.272, 376.906 " />
            <path fill="none" stroke-width="3.0" stroke-linecap="butt" stroke-opacity="1.0" stroke="rgb(0, 0, 0)" stroke-linejoin="round" d=" M 134.531, 305.164 143.699, 309.157 152.868, 313.149 162.036, 317.142 171.204, 321.135 180.373, 325.127 189.541, 329.120 198.709, 333.113 207.878, 337.105 217.046, 341.098 226.214, 345.091 235.383, 349.083 244.551, 353.076 253.719, 357.068 262.888, 361.061 272.056, 365.054 281.225, 369.046 290.393, 373.039 299.272, 376.906 300.027, 386.878 300.782, 396.849 301.537, 406.820 302.292, 416.792 303.047, 426.763 303.802, 436.735 304.557, 446.706 305.312, 456.678 306.067, 466.649 306.822, 476.621 307.577, 486.592 308.332, 496.564 309.087, 506.535 309.842, 516.506 310.597, 526.478 311.352, 536.449 312.107, 546.421 312.862, 556.392 313.617, 566.364 314.372, 576.335 315.127, 586.307 315.882, 596.278 316.637, 606.250 317.392, 616.221 318.147, 626.193 318.902, 636.164 319.657, 646.135 320.343, 655.204 " />
        </g>
    </g>
</svg>
