<?xml version='1.0' encoding='ascii'?>
<svg xmlns="http://www.w3.org/2000/svg" version="1.1" width="1080" height="1080">
    <g id="ViewLayer_LineSet" xmlns:inkscape="http://www.inkscape.org/namespaces/inkscape" inkscape:groupmode="lineset" inkscape:label="ViewLayer_LineSet">
        <g xmlns:inkscape="http://www.inkscape.org/namespaces/inkscape" inkscape:groupmode="layer" id="strokes" inkscape:label="strokes">
            <path fill="none" stroke-width="3.0" stroke-linecap="butt" stroke-opacity="1.0" stroke="rgb(0, 0, 0)" stroke-linejoin="round" d=" M 107.864, 293.551 109.177, 303.465 110.490, 313.378 111.803, 323.291 113.116, 333.205 114.429, 343.118 115.742, 353.032 117.055, 362.945 118.368, 372.859 119.681, 382.772 120.994, 392.685 122.307, 402.599 123.620, 412.512 124.933, 422.426 126.246, 432.339 127.559, 442.253 128.872, 452.166 130.185, 462.079 131.498, 471.993 132.811, 481.906 134.124, 491.820 135.437, 501.733 136.749, 511.647 138.062, 521.560 139.375, 531.474 140.691, 541.404 149.138, 546.755 157.586, 552.106 166.034, 557.457 174.482, 562.808 182.929, 568.160 191.377, 573.511 199.825, 578.862 208.273, 584.213 216.720, 589.564 225.168, 594.916 233.616, 600.267 242.064, 605.618 250.511, 610.969 258.959, 616.320 267.407, 621.672 275.855, 627.023 284.303, 632.374 288.232, 634.863 297.470, 631.035 306.708, 627.207 315.947, 623.378 325.185, 619.550 334.423, 615.722 343.661, 611.894 352.899, 608.065 362.138, 604.237 371.376, 600.409 380.614, 596.581 389.852, 592.752 399.090, 588.924 408.329, 585.096 417.567, 581.268 426.805, 577.439 436.043, 573.611 445.281, 569.783 454.520, 565.955 463.758, 562.126 472.996, 558.298 482.234, 554.470 491.472, 550.642 502.188, 546.201 502.063, 536.202 501.937, 526.203 501.811, 516.203 501.686, 506.204 501.560, 496.205 501.435, 486.206 501.309, 476.206 501.183, 466.207 501.058, 456.208 500.932, 446.209 500.807, 436.210 500.681, 426.210 500.555, 416.211 500.430, 406.212 500.304, 396.213 500.179, 386.214 500.053, 376.214 499.927, 366.215 499.802, 356.216 499.676, 346.217 499.551, 336.218 499.425, 326.218 499.299, 316.219 499.174, 306.220 499.058, 297.023 489.553, 293.915 480.049, 290.807 470.544, 287.699 461.039, 284.591 451.534, 281.483 442.030, 278.375 432.525, 275.267 423.020, 272.159 413.515, 269.052 404.010, 265.944 394.506, 262.836 385.001, 259.728 375.496, 256.620 365.991, 253.512 356.487, 250.404 346.982, 247.296 337.477, 244.188 332.871, 242.682 323.117, 244.887 313.363, 247.092 303.609, 249.297 293.856, 251.503 284.102, 253.708 274.348, 255.913 264.594, 258.118 254.840, 260.323 245.086, 262.528 235.333, 264.733 225.579, 266.938 215.825, 269.144 206.071, 271.349 196.317, 273.554 186.563, 275.759 176.810, 277.964 167.056, 280.169 157.302, 282.374 147.548, 284.580 137.794, 286.785 128.040, 288.990 118.286, 291.195 107.864, 293.551 " />
            <path fill="none" stroke-width="3.0" stroke-linecap="butt" stroke-opacity="1.0" stroke="rgb(0, 0, 0)" stroke-linejoin="round" d=" M 499.058, 297.023 489.420, 299.689 479.782, 302.355 470.144, 305.021 460.506, 307.688 450.868, 310.354 441.230, 313.020 431.592, 315.686 421.954, 318.352 412.316, 321.018 402.678, 323.685 393.040, 326.351 383.402, 329.017 373.764, 331.683 364.126, 334.349 354.488, 337.015 344.850, 339.682 335.212, 342.348 325.574, 345.014 315.936, 347.680 306.298, 350.346 296.660, 353.012 287.022, 355.679 277.384, 358.345 267.746, 361.011 264.704, 361.852 " />
            <path fill="none" stroke-width="3.0" stroke-linecap="butt" stroke-opacity="1.0" stroke="rgb(0, 0, 0)" stroke-linejoin="round" d=" M 107.864, 293.551 117.033, 297.544 126.201, 301.536 135.369, 305.529 144.538, 309.522 153.706, 313.514 162.874, 317.507 172.043, 321.500 181.211, 325.492 190.379, 329.485 199.548, 333.478 208.716, 337.470 217.884, 341.463 227.053, 345.456 236.221, 349.448 245.390, 353.441 254.558, 357.434 264.704, 361.852 265.563, 371.815 266.422, 381.778 267.280, 391.741 268.139, 401.705 268.997, 411.668 269.856, 421.631 270.715, 431.594 271.573, 441.557 272.432, 451.520 273.290, 461.483 274.149, 471.446 275.008, 481.409 275.866, 491.372 276.725, 501.335 277.583, 511.298 278.442, 521.261 279.301, 531.224 280.159, 541.188 281.018, 551.151 281.876, 561.114 282.735, 571.077 283.594, 581.040 284.452, 591.003 285.311, 600.966 286.169, 610.929 287.028, 620.892 287.887, 630.855 288.232, 634.863 " />
        </g>
    </g>
</svg>
