<?xml version='1.0' encoding='ascii'?>
<svg xmlns="http://www.w3.org/2000/svg" version="1.1" width="1080" height="1080">
    <g id="ViewLayer_LineSet" xmlns:inkscape="http://www.inkscape.org/namespaces/inkscape" inkscape:groupmode="lineset" inkscape:label="ViewLayer_LineSet">
        <g xmlns:inkscape="http://www.inkscape.org/namespaces/inkscape" inkscape:groupmode="layer" id="strokes" inkscape:label="strokes">
            <path fill="none" stroke-width="3.0" stroke-linecap="butt" stroke-opacity="1.0" stroke="rgb(0, 0, 0)" stroke-linejoin="round" d=" M -74.093, 405.350 -65.645, 410.701 -57.197, 416.052 -48.749, 421.404 -40.301, 426.755 -31.854, 432.106 -23.406, 437.457 -14.958, 442.808 -6.510, 448.160 1.937, 453.511 10.385, 458.862 18.833, 464.213 22.421, 466.486 32.018, 463.674 41.614, 460.862 51.211, 458.051 60.807, 455.239 70.404, 452.427 80.000, 449.615 89.597, 446.803 99.193, 443.991 108.790, 441.179 118.386, 438.367 127.983, 435.555 137.579, 432.743 147.176, 429.931 156.772, 427.119 166.369, 424.307 175.965, 421.495 185.562, 418.683 195.158, 415.871 204.755, 413.059 214.351, 410.247 220.123, 408.556 219.112, 398.607 218.101, 388.658 217.090, 378.710 216.079, 368.761 215.068, 358.812 214.057, 348.863 213.046, 338.915 212.035, 328.966 211.024, 319.017 210.013, 309.068 209.002, 299.120 207.991, 289.171 206.980, 279.222 205.969, 269.273 204.958, 259.325 203.947, 249.376 202.936, 239.427 201.925, 229.478 200.914, 219.529 199.903, 209.581 198.812, 198.847 189.307, 195.739 179.803, 192.631 170.298, 189.523 160.793, 186.415 151.288, 183.307 141.784, 180.199 132.279, 177.091 122.774, 173.983 113.269, 170.875 103.764, 167.768 94.260, 164.660 88.852, 162.892 78.987, 164.524 69.121, 166.157 59.255, 167.790 49.389, 169.423 39.524, 171.056 29.658, 172.689 19.792, 174.322 9.926, 175.955 0.060, 177.588 -9.805, 179.221 -19.671, 180.854 -29.537, 182.487 -39.403, 184.120 -49.268, 185.753 -59.134, 187.385 -69.000, 189.018 -78.866, 190.651 -88.731, 192.284 -98.597, 193.917 -108.463, 195.550 -114.776, 196.595 " />
            <path fill="none" stroke-width="3.0" stroke-linecap="butt" stroke-opacity="1.0" stroke="rgb(0, 0, 0)" stroke-linejoin="round" d=" M 198.812, 198.847 188.990, 200.724 179.168, 202.600 169.345, 204.477 159.523, 206.354 149.701, 208.231 139.878, 210.108 130.056, 211.985 120.234, 213.861 110.412, 215.738 100.589, 217.615 90.767, 219.492 80.945, 221.369 71.122, 223.246 61.300, 225.122 51.478, 226.999 41.655, 228.876 31.833, 230.753 22.011, 232.630 12.189, 234.507 2.366, 236.383 -7.456, 238.260 -15.549, 239.807 -13.897, 249.669 -12.245, 259.532 -10.593, 269.394 -8.941, 279.257 -7.289, 289.120 -5.637, 298.982 -3.985, 308.845 -2.333, 318.707 -0.681, 328.570 0.971, 338.433 2.623, 348.295 4.275, 358.158 5.927, 368.020 7.580, 377.883 9.232, 387.745 10.884, 397.608 12.536, 407.471 14.188, 417.333 15.840, 427.196 17.492, 437.058 19.144, 446.921 20.796, 456.784 22.421, 466.486 " />
        </g>
    </g>
</svg>
