<?xml version='1.0' encoding='ascii'?>
<svg xmlns="http://www.w3.org/2000/svg" version="1.1" width="1080" height="1080">
    <g id="ViewLayer_LineSet" xmlns:inkscape="http://www.inkscape.org/namespaces/inkscape" inkscape:groupmode="lineset" inkscape:label="ViewLayer_LineSet">
        <g xmlns:inkscape="http://www.inkscape.org/namespaces/inkscape" inkscape:groupmode="layer" id="strokes" inkscape:label="strokes">
            <path fill="none" stroke-width="3.0" stroke-linecap="butt" stroke-opacity="1.0" stroke="rgb(0, 0, 0)" stroke-linejoin="round" d=" M -12.948, 444.082 -4.500, 449.433 3.948, 454.784 12.395, 460.135 20.843, 465.487 29.291, 470.838 37.739, 476.189 46.186, 481.540 54.634, 486.892 63.082, 492.243 71.530, 497.594 79.977, 502.945 88.425, 508.296 96.880, 513.652 106.393, 510.569 115.906, 507.486 125.419, 504.403 134.931, 501.320 144.444, 498.237 153.957, 495.154 163.470, 492.071 172.983, 488.988 182.496, 485.905 192.009, 482.822 201.522, 479.739 211.035, 476.656 220.547, 473.573 230.060, 470.490 239.573, 467.407 249.086, 464.324 258.599, 461.241 268.112, 458.158 277.625, 455.075 287.138, 451.992 296.651, 448.909 300.354, 447.708 299.586, 437.738 298.817, 427.767 298.048, 417.797 297.280, 407.826 296.511, 397.856 295.743, 387.886 294.974, 377.915 294.205, 367.945 293.437, 357.974 292.668, 348.004 291.899, 338.034 291.131, 328.063 290.362, 318.093 289.594, 308.122 288.825, 298.152 288.056, 288.181 287.288, 278.211 286.519, 268.241 285.750, 258.270 284.982, 248.300 284.213, 238.329 283.299, 226.473 273.794, 223.365 264.290, 220.257 254.785, 217.149 245.280, 214.041 235.775, 210.933 226.271, 207.825 216.766, 204.717 207.261, 201.609 197.756, 198.501 188.251, 195.394 178.747, 192.286 169.242, 189.178 158.574, 185.690 148.735, 187.475 138.895, 189.260 129.056, 191.045 119.217, 192.830 109.377, 194.615 99.538, 196.400 89.698, 198.185 79.859, 199.970 70.020, 201.755 60.180, 203.540 50.341, 205.325 40.502, 207.110 30.662, 208.896 20.823, 210.681 10.983, 212.466 1.144, 214.251 -8.695, 216.036 -18.535, 217.821 -28.374, 219.606 -38.214, 221.391 -48.053, 223.176 -52.066, 223.904 " />
            <path fill="none" stroke-width="3.0" stroke-linecap="butt" stroke-opacity="1.0" stroke="rgb(0, 0, 0)" stroke-linejoin="round" d=" M 283.299, 226.473 273.518, 228.552 263.736, 230.632 253.955, 232.711 244.174, 234.791 234.392, 236.870 224.611, 238.950 214.829, 241.029 205.048, 243.109 195.267, 245.188 185.485, 247.268 175.704, 249.347 165.923, 251.427 156.141, 253.506 146.360, 255.586 136.578, 257.665 126.797, 259.745 117.016, 261.824 107.234, 263.904 97.453, 265.983 87.671, 268.063 77.890, 270.142 68.109, 272.222 61.911, 273.539 " />
            <path fill="none" stroke-width="3.0" stroke-linecap="butt" stroke-opacity="1.0" stroke="rgb(0, 0, 0)" stroke-linejoin="round" d=" M -52.066, 223.904 -42.898, 227.897 -33.730, 231.890 -24.561, 235.882 -15.393, 239.875 -6.224, 243.868 2.944, 247.860 12.112, 251.853 21.281, 255.846 30.449, 259.838 39.617, 263.831 48.786, 267.823 57.954, 271.816 61.911, 273.539 63.353, 283.435 64.794, 293.331 66.235, 303.226 67.676, 313.122 69.117, 323.018 70.558, 332.913 71.999, 342.809 73.440, 352.704 74.882, 362.600 76.323, 372.496 77.764, 382.391 79.205, 392.287 80.646, 402.182 82.087, 412.078 83.528, 421.974 84.970, 431.869 86.411, 441.765 87.852, 451.660 89.293, 461.556 90.734, 471.452 92.175, 481.347 93.616, 491.243 95.058, 501.139 96.499, 511.034 96.880, 513.652 " />
        </g>
    </g>
</svg>
