<?xml version='1.0' encoding='ascii'?>
<svg xmlns="http://www.w3.org/2000/svg" version="1.1" width="1080" height="1080">
    <g id="ViewLayer_LineSet" xmlns:inkscape="http://www.inkscape.org/namespaces/inkscape" inkscape:groupmode="lineset" inkscape:label="ViewLayer_LineSet">
        <g xmlns:inkscape="http://www.inkscape.org/namespaces/inkscape" inkscape:groupmode="layer" id="strokes" inkscape:label="strokes">
            <path fill="none" stroke-width="3.0" stroke-linecap="butt" stroke-opacity="1.0" stroke="rgb(0, 0, 0)" stroke-linejoin="round" d=" M 59.712, 272.582 61.159, 282.476 62.606, 292.371 64.053, 302.266 65.501, 312.161 66.948, 322.055 68.395, 331.950 69.842, 341.845 71.290, 351.739 72.737, 361.634 74.184, 371.529 75.631, 381.424 77.078, 391.318 78.526, 401.213 79.973, 411.108 81.420, 421.003 82.867, 430.897 84.314, 440.792 85.762, 450.687 87.209, 460.581 88.656, 470.476 90.103, 480.371 91.551, 490.266 92.998, 500.160 94.776, 512.319 103.224, 517.671 111.672, 523.022 120.119, 528.373 128.567, 533.724 137.015, 539.075 145.463, 544.427 153.911, 549.778 162.358, 555.129 170.806, 560.480 179.254, 565.831 187.702, 571.182 196.149, 576.534 204.597, 581.885 213.045, 587.236 221.493, 592.587 230.397, 598.228 239.728, 594.632 249.059, 591.036 258.391, 587.440 267.722, 583.845 277.053, 580.249 286.384, 576.653 295.715, 573.057 305.046, 569.462 314.377, 565.866 323.709, 562.270 333.040, 558.674 342.371, 555.078 351.702, 551.483 361.033, 547.887 370.364, 544.291 379.695, 540.695 389.027, 537.099 398.358, 533.504 407.689, 529.908 417.020, 526.312 426.351, 522.716 435.682, 519.121 441.835, 516.749 441.513, 506.755 441.190, 496.760 440.867, 486.765 440.544, 476.770 440.222, 466.775 439.899, 456.781 439.576, 446.786 439.253, 436.791 438.930, 426.796 438.608, 416.802 438.285, 406.807 437.962, 396.812 437.639, 386.817 437.316, 376.822 436.994, 366.828 436.671, 356.833 436.348, 346.838 436.025, 336.843 435.703, 326.848 435.380, 316.854 435.057, 306.859 434.734, 296.864 434.411, 286.869 434.053, 275.767 424.548, 272.659 415.043, 269.551 405.539, 266.443 396.034, 263.335 386.529, 260.227 377.024, 257.120 367.519, 254.012 358.015, 250.904 348.510, 247.796 339.005, 244.688 329.500, 241.580 319.996, 238.472 310.491, 235.364 300.986, 232.256 291.481, 229.148 280.916, 225.694 271.134, 227.767 261.351, 229.841 251.568, 231.914 241.786, 233.988 232.003, 236.062 222.220, 238.135 212.438, 240.209 202.655, 242.282 192.872, 244.356 183.090, 246.430 173.307, 248.503 163.524, 250.577 153.742, 252.650 143.959, 254.724 134.177, 256.798 124.394, 258.871 114.611, 260.945 104.829, 263.018 95.046, 265.092 85.263, 267.166 75.481, 269.239 65.698, 271.313 59.712, 272.582 " />
            <path fill="none" stroke-width="3.0" stroke-linecap="butt" stroke-opacity="1.0" stroke="rgb(0, 0, 0)" stroke-linejoin="round" d=" M 434.053, 275.767 424.365, 278.245 414.677, 280.723 404.989, 283.201 395.301, 285.680 385.612, 288.158 375.924, 290.636 366.236, 293.114 356.548, 295.592 346.860, 298.070 337.172, 300.549 327.484, 303.027 317.796, 305.505 308.108, 307.983 298.420, 310.461 288.732, 312.939 279.044, 315.417 269.356, 317.896 259.668, 320.374 249.979, 322.852 240.291, 325.330 230.603, 327.808 220.915, 330.286 211.227, 332.765 202.838, 334.910 " />
            <path fill="none" stroke-width="3.0" stroke-linecap="butt" stroke-opacity="1.0" stroke="rgb(0, 0, 0)" stroke-linejoin="round" d=" M 59.712, 272.582 68.880, 276.574 78.049, 280.567 87.217, 284.560 96.385, 288.552 105.554, 292.545 114.722, 296.538 123.890, 300.530 133.059, 304.523 142.227, 308.516 151.395, 312.508 160.564, 316.501 169.732, 320.494 178.900, 324.486 188.069, 328.479 197.237, 332.471 202.838, 334.910 203.879, 344.856 204.920, 354.802 205.961, 364.747 207.002, 374.693 208.042, 384.639 209.083, 394.585 210.124, 404.530 211.165, 414.476 212.206, 424.422 213.247, 434.367 214.288, 444.313 215.329, 454.259 216.370, 464.204 217.411, 474.150 218.452, 484.096 219.493, 494.041 220.534, 503.987 221.575, 513.933 222.616, 523.878 223.656, 533.824 224.697, 543.770 225.738, 553.715 226.779, 563.661 227.820, 573.607 228.861, 583.552 229.902, 593.498 230.397, 598.228 " />
        </g>
    </g>
</svg>
