<?xml version='1.0' encoding='ascii'?>
<svg xmlns="http://www.w3.org/2000/svg" version="1.1" width="1080" height="1080">
    <g id="ViewLayer_LineSet" xmlns:inkscape="http://www.inkscape.org/namespaces/inkscape" inkscape:groupmode="lineset" inkscape:label="ViewLayer_LineSet">
        <g xmlns:inkscape="http://www.inkscape.org/namespaces/inkscape" inkscape:groupmode="layer" id="strokes" inkscape:label="strokes">
            <path fill="none" stroke-width="3.0" stroke-linecap="butt" stroke-opacity="1.0" stroke="rgb(0, 0, 0)" stroke-linejoin="round" d=" M -62.123, 412.932 -53.675, 418.283 -45.227, 423.635 -36.780, 428.986 -28.332, 434.337 -19.884, 439.688 -11.436, 445.039 -2.989, 450.391 5.459, 455.742 13.907, 461.093 22.355, 466.444 30.802, 471.795 36.923, 475.672 46.504, 472.808 56.085, 469.944 65.666, 467.081 75.247, 464.217 84.828, 461.353 94.410, 458.489 103.991, 455.625 113.572, 452.761 123.153, 449.897 132.734, 447.033 142.315, 444.169 151.896, 441.305 161.477, 438.441 171.059, 435.578 180.640, 432.714 190.221, 429.850 199.802, 426.986 209.383, 424.122 218.964, 421.258 228.545, 418.394 235.824, 416.218 234.860, 406.265 233.896, 396.311 232.932, 386.358 231.968, 376.405 231.004, 366.451 230.039, 356.498 229.075, 346.544 228.111, 336.591 227.147, 326.638 226.183, 316.684 225.219, 306.731 224.255, 296.777 223.290, 286.824 222.326, 276.870 221.362, 266.917 220.398, 256.964 219.434, 247.010 218.470, 237.057 217.505, 227.103 216.541, 217.150 215.577, 207.197 215.290, 204.235 205.785, 201.127 196.281, 198.019 186.776, 194.911 177.271, 191.803 167.766, 188.695 158.262, 185.587 148.757, 182.479 139.252, 179.371 129.747, 176.263 120.242, 173.156 110.738, 170.048 102.517, 167.360 92.656, 169.022 82.795, 170.684 72.934, 172.346 63.073, 174.008 53.212, 175.670 43.352, 177.332 33.491, 178.994 23.630, 180.656 13.769, 182.318 3.908, 183.981 -5.953, 185.643 -15.814, 187.305 -25.675, 188.967 -35.536, 190.629 -45.397, 192.291 -55.258, 193.953 -65.118, 195.615 -74.979, 197.277 -84.840, 198.939 -94.701, 200.601 -102.542, 201.923 " />
            <path fill="none" stroke-width="3.0" stroke-linecap="butt" stroke-opacity="1.0" stroke="rgb(0, 0, 0)" stroke-linejoin="round" d=" M 215.290, 204.235 205.475, 206.150 195.660, 208.065 185.846, 209.981 176.031, 211.896 166.216, 213.811 156.401, 215.726 146.586, 217.642 136.771, 219.557 126.956, 221.472 117.141, 223.388 107.327, 225.303 97.512, 227.218 87.697, 229.133 77.882, 231.049 68.067, 232.964 58.252, 234.879 48.437, 236.794 38.622, 238.710 28.808, 240.625 18.993, 242.540 9.178, 244.456 -0.526, 246.349 1.086, 256.218 2.697, 266.088 4.309, 275.957 5.921, 285.826 7.532, 295.695 9.144, 305.565 10.756, 315.434 12.367, 325.303 13.979, 335.173 15.591, 345.042 17.202, 354.911 18.814, 364.780 20.426, 374.650 22.037, 384.519 23.649, 394.388 25.261, 404.258 26.872, 414.127 28.484, 423.996 30.096, 433.865 31.707, 443.735 33.319, 453.604 34.931, 463.473 36.542, 473.342 36.923, 475.672 " />
        </g>
    </g>
</svg>
