<?xml version='1.0' encoding='ascii'?>
<svg xmlns="http://www.w3.org/2000/svg" version="1.1" width="1080" height="1080">
    <g id="ViewLayer_LineSet" xmlns:inkscape="http://www.inkscape.org/namespaces/inkscape" inkscape:groupmode="lineset" inkscape:label="ViewLayer_LineSet">
        <g xmlns:inkscape="http://www.inkscape.org/namespaces/inkscape" inkscape:groupmode="layer" id="strokes" inkscape:label="strokes">
            <path fill="none" stroke-width="3.0" stroke-linecap="butt" stroke-opacity="1.0" stroke="rgb(0, 0, 0)" stroke-linejoin="round" d=" M 11.728, 251.685 13.306, 261.560 14.885, 271.435 16.463, 281.309 18.042, 291.184 19.620, 301.059 21.199, 310.933 22.777, 320.808 24.356, 330.682 25.935, 340.557 27.513, 350.432 29.092, 360.306 30.670, 370.181 32.249, 380.056 33.827, 389.930 35.406, 399.805 36.984, 409.679 38.563, 419.554 40.141, 429.429 41.720, 439.303 43.298, 449.178 44.877, 459.053 46.455, 468.927 48.034, 478.802 48.729, 483.151 57.177, 488.502 65.625, 493.853 74.072, 499.205 82.520, 504.556 90.968, 509.907 99.416, 515.258 107.863, 520.609 116.311, 525.961 124.759, 531.312 133.207, 536.663 141.654, 542.014 150.102, 547.365 158.550, 552.716 166.998, 558.068 172.955, 561.841 182.370, 558.470 191.784, 555.099 201.199, 551.728 210.614, 548.357 220.028, 544.986 229.443, 541.615 238.858, 538.244 248.273, 534.873 257.687, 531.502 267.102, 528.131 276.517, 524.760 285.931, 521.389 295.346, 518.018 304.761, 514.647 314.175, 511.276 323.590, 507.905 333.005, 504.534 342.419, 501.163 351.834, 497.792 361.249, 494.421 370.663, 491.050 381.338, 487.227 380.822, 477.241 380.306, 467.254 379.790, 457.268 379.273, 447.281 378.757, 437.294 378.241, 427.307 377.725, 417.321 377.208, 407.334 376.692, 397.348 376.176, 387.361 375.659, 377.374 375.143, 367.388 374.627, 357.401 374.111, 347.414 373.594, 337.428 373.078, 327.441 372.562, 317.454 372.046, 307.468 371.529, 297.481 371.013, 287.494 370.497, 277.508 369.980, 267.521 369.464, 257.534 369.312, 254.598 359.808, 251.490 350.303, 248.382 340.798, 245.274 331.293, 242.166 321.788, 239.058 312.284, 235.950 302.779, 232.842 293.274, 229.734 283.769, 226.627 274.265, 223.519 264.760, 220.411 255.255, 217.303 245.750, 214.195 236.245, 211.087 228.697, 208.619 218.889, 210.566 209.080, 212.513 199.271, 214.460 189.463, 216.406 179.654, 218.353 169.845, 220.300 160.037, 222.247 150.228, 224.194 140.420, 226.141 130.611, 228.088 120.802, 230.035 110.994, 231.982 101.185, 233.929 91.376, 235.876 81.568, 237.823 71.759, 239.770 61.950, 241.717 52.142, 243.664 42.333, 245.611 32.524, 247.557 22.716, 249.504 11.728, 251.685 " />
            <path fill="none" stroke-width="3.0" stroke-linecap="butt" stroke-opacity="1.0" stroke="rgb(0, 0, 0)" stroke-linejoin="round" d=" M 369.312, 254.598 359.581, 256.899 349.849, 259.199 340.117, 261.500 330.385, 263.801 320.654, 266.102 310.922, 268.403 301.190, 270.704 291.459, 273.004 281.727, 275.305 271.995, 277.606 262.264, 279.907 252.532, 282.208 242.800, 284.508 233.068, 286.809 223.337, 289.110 213.605, 291.411 203.873, 293.712 194.142, 296.013 184.410, 298.313 174.678, 300.614 164.946, 302.915 155.215, 305.216 145.483, 307.517 141.886, 308.367 " />
            <path fill="none" stroke-width="3.0" stroke-linecap="butt" stroke-opacity="1.0" stroke="rgb(0, 0, 0)" stroke-linejoin="round" d=" M 11.728, 251.685 20.896, 255.678 30.065, 259.671 39.233, 263.663 48.401, 267.656 57.570, 271.649 66.738, 275.641 75.906, 279.634 85.075, 283.627 94.243, 287.619 103.411, 291.612 112.580, 295.605 121.748, 299.597 130.916, 303.590 140.085, 307.583 141.886, 308.367 143.103, 318.293 144.319, 328.218 145.536, 338.144 146.753, 348.070 147.969, 357.996 149.186, 367.921 150.402, 377.847 151.619, 387.773 152.836, 397.698 154.052, 407.624 155.269, 417.550 156.485, 427.476 157.702, 437.401 158.919, 447.327 160.135, 457.253 161.352, 467.178 162.569, 477.104 163.785, 487.030 165.002, 496.956 166.218, 506.881 167.435, 516.807 168.652, 526.733 169.868, 536.658 171.085, 546.584 172.302, 556.510 172.955, 561.841 " />
        </g>
    </g>
</svg>
