<?xml version='1.0' encoding='ascii'?>
<svg xmlns="http://www.w3.org/2000/svg" version="1.1" width="1080" height="1080">
    <g id="ViewLayer_LineSet" xmlns:inkscape="http://www.inkscape.org/namespaces/inkscape" inkscape:groupmode="lineset" inkscape:label="ViewLayer_LineSet">
        <g xmlns:inkscape="http://www.inkscape.org/namespaces/inkscape" inkscape:groupmode="layer" id="strokes" inkscape:label="strokes">
            <path fill="none" stroke-width="3.0" stroke-linecap="butt" stroke-opacity="1.0" stroke="rgb(0, 0, 0)" stroke-linejoin="round" d=" M 127.057, 301.909 128.316, 311.830 129.575, 321.750 130.834, 331.671 132.092, 341.591 133.351, 351.512 134.610, 361.432 135.869, 371.353 137.128, 381.273 138.386, 391.194 139.645, 401.114 140.904, 411.034 142.163, 420.955 143.421, 430.875 144.680, 440.796 145.939, 450.716 147.198, 460.637 148.456, 470.557 149.715, 480.478 150.974, 490.398 152.233, 500.319 153.491, 510.239 154.750, 520.159 156.009, 530.080 157.268, 540.000 158.527, 549.921 158.910, 552.945 167.358, 558.296 175.806, 563.647 184.254, 568.998 192.701, 574.350 201.149, 579.701 209.597, 585.052 218.045, 590.403 226.492, 595.754 234.940, 601.106 243.388, 606.457 251.836, 611.808 260.283, 617.159 268.731, 622.510 277.179, 627.862 285.627, 633.213 294.074, 638.564 302.522, 643.915 311.338, 649.500 320.536, 645.577 329.735, 641.654 338.933, 637.731 348.132, 633.808 357.330, 629.885 366.529, 625.963 375.727, 622.040 384.926, 618.117 394.124, 614.194 403.323, 610.271 412.521, 606.349 421.720, 602.426 430.918, 598.503 440.116, 594.580 449.315, 590.657 458.513, 586.735 467.712, 582.812 476.910, 578.889 486.109, 574.966 495.307, 571.043 504.506, 567.121 513.704, 563.198 522.903, 559.275 526.146, 557.892 526.099, 547.892 526.053, 537.892 526.007, 527.892 525.961, 517.892 525.915, 507.892 525.868, 497.893 525.822, 487.893 525.776, 477.893 525.730, 467.893 525.684, 457.893 525.637, 447.893 525.591, 437.893 525.545, 427.893 525.499, 417.893 525.453, 407.893 525.406, 397.894 525.360, 387.894 525.314, 377.894 525.268, 367.894 525.222, 357.894 525.175, 347.894 525.129, 337.894 525.083, 327.894 525.037, 317.894 524.980, 305.499 515.475, 302.391 505.970, 299.283 496.465, 296.175 486.960, 293.067 477.456, 289.959 467.951, 286.851 458.446, 283.743 448.941, 280.635 439.437, 277.527 429.932, 274.419 420.427, 271.312 410.922, 268.204 401.417, 265.096 391.913, 261.988 382.408, 258.880 372.903, 255.772 363.398, 252.664 353.456, 249.413 343.715, 251.672 333.973, 253.931 324.232, 256.190 314.490, 258.448 304.748, 260.707 295.007, 262.966 285.265, 265.225 275.524, 267.484 265.782, 269.742 256.041, 272.001 246.299, 274.260 236.558, 276.519 226.816, 278.778 217.075, 281.037 207.333, 283.295 197.591, 285.554 187.850, 287.813 178.108, 290.072 168.367, 292.331 158.625, 294.590 148.884, 296.848 139.142, 299.107 129.401, 301.366 127.057, 301.909 " />
            <path fill="none" stroke-width="3.0" stroke-linecap="butt" stroke-opacity="1.0" stroke="rgb(0, 0, 0)" stroke-linejoin="round" d=" M 524.980, 305.499 515.363, 308.243 505.747, 310.987 496.131, 313.731 486.515, 316.475 476.899, 319.219 467.283, 321.963 457.667, 324.707 448.050, 327.451 438.434, 330.195 428.818, 332.939 419.202, 335.683 409.586, 338.427 399.970, 341.172 390.354, 343.916 380.737, 346.660 371.121, 349.404 361.505, 352.148 351.889, 354.892 342.273, 357.636 332.657, 360.380 323.041, 363.124 313.424, 365.868 303.808, 368.612 294.192, 371.356 289.562, 372.677 " />
            <path fill="none" stroke-width="3.0" stroke-linecap="butt" stroke-opacity="1.0" stroke="rgb(0, 0, 0)" stroke-linejoin="round" d=" M 127.057, 301.909 136.226, 305.902 145.394, 309.895 154.562, 313.887 163.731, 317.880 172.899, 321.873 182.067, 325.865 191.236, 329.858 200.404, 333.851 209.573, 337.843 218.741, 341.836 227.909, 345.829 237.078, 349.821 246.246, 353.814 255.414, 357.807 264.583, 361.799 273.751, 365.792 282.919, 369.785 289.562, 372.677 290.347, 382.647 291.131, 392.616 291.915, 402.585 292.699, 412.554 293.483, 422.523 294.268, 432.493 295.052, 442.462 295.836, 452.431 296.620, 462.400 297.404, 472.370 298.189, 482.339 298.973, 492.308 299.757, 502.277 300.541, 512.246 301.325, 522.216 302.110, 532.185 302.894, 542.154 303.678, 552.123 304.462, 562.092 305.247, 572.062 306.031, 582.031 306.815, 592.000 307.599, 601.969 308.383, 611.938 309.168, 621.908 309.952, 631.877 310.736, 641.846 311.338, 649.500 " />
        </g>
    </g>
</svg>
