<?xml version='1.0' encoding='ascii'?>
<svg xmlns="http://www.w3.org/2000/svg" version="1.1" width="1080" height="1080">
    <g id="ViewLayer_LineSet" xmlns:inkscape="http://www.inkscape.org/namespaces/inkscape" inkscape:groupmode="lineset" inkscape:label="ViewLayer_LineSet">
        <g xmlns:inkscape="http://www.inkscape.org/namespaces/inkscape" inkscape:groupmode="layer" id="strokes" inkscape:label="strokes">
            <path fill="none" stroke-width="3.0" stroke-linecap="butt" stroke-opacity="1.0" stroke="rgb(0, 0, 0)" stroke-linejoin="round" d=" M -125.978, 372.483 -116.247, 370.180 -106.516, 367.876 -96.785, 365.572 -87.054, 363.268 -77.323, 360.964 -67.592, 358.661 -57.861, 356.357 -48.130, 354.053 -38.399, 351.749 -28.668, 349.446 -18.937, 347.142 -9.206, 344.838 0.525, 342.534 10.256, 340.230 19.987, 337.927 29.718, 335.623 39.449, 333.319 49.180, 331.015 57.290, 329.095 55.811, 319.205 54.331, 309.315 52.852, 299.425 51.373, 289.535 49.894, 279.645 48.414, 269.755 46.935, 259.865 45.456, 249.975 43.977, 240.086 42.497, 230.195 41.018, 220.306 39.539, 210.416 38.059, 200.526 36.580, 190.636 35.101, 180.746 33.622, 170.856 32.142, 160.966 30.663, 151.076 29.529, 143.494 20.024, 140.386 10.519, 137.278 1.015, 134.170 -8.490, 131.062 -17.995, 127.954 -27.500, 124.846 -37.004, 121.738 -46.509, 118.630 -53.421, 116.370 " />
            <path fill="none" stroke-width="3.0" stroke-linecap="butt" stroke-opacity="1.0" stroke="rgb(0, 0, 0)" stroke-linejoin="round" d=" M 29.529, 143.494 19.644, 145.003 9.758, 146.513 -0.127, 148.023 -10.012, 149.533 -19.898, 151.043 -29.783, 152.553 -39.668, 154.063 -49.554, 155.573 -59.439, 157.083 -69.325, 158.593 -79.210, 160.103 -89.095, 161.613 -98.981, 163.123 -108.866, 164.632 -118.751, 166.142 -128.637, 167.652 -138.522, 169.162 -148.407, 170.672 -158.293, 172.182 -167.579, 173.600 " />
        </g>
    </g>
</svg>
