<?xml version='1.0' encoding='ascii'?>
<svg xmlns="http://www.w3.org/2000/svg" version="1.1" width="1080" height="1080">
    <g id="ViewLayer_LineSet" xmlns:inkscape="http://www.inkscape.org/namespaces/inkscape" inkscape:groupmode="lineset" inkscape:label="ViewLayer_LineSet">
        <g xmlns:inkscape="http://www.inkscape.org/namespaces/inkscape" inkscape:groupmode="layer" id="strokes" inkscape:label="strokes">
            <path fill="none" stroke-width="3.0" stroke-linecap="butt" stroke-opacity="1.0" stroke="rgb(0, 0, 0)" stroke-linejoin="round" d=" M -115.711, 378.987 -105.989, 376.649 -96.266, 374.312 -86.543, 371.974 -76.820, 369.636 -67.097, 367.299 -57.374, 364.961 -47.651, 362.624 -37.928, 360.286 -28.205, 357.949 -18.482, 355.611 -8.759, 353.273 0.964, 350.936 10.687, 348.598 20.410, 346.261 30.133, 343.923 39.856, 341.586 49.579, 339.248 59.302, 336.910 68.683, 334.655 67.235, 324.760 65.788, 314.866 64.340, 304.971 62.893, 295.076 61.445, 285.182 59.998, 275.287 58.550, 265.392 57.102, 255.497 55.655, 245.603 54.207, 235.708 52.760, 225.813 51.312, 215.919 49.865, 206.024 48.417, 196.129 46.970, 186.235 45.522, 176.340 44.075, 166.445 42.627, 156.551 41.279, 147.336 31.774, 144.228 22.269, 141.120 12.765, 138.012 3.260, 134.904 -6.245, 131.796 -15.750, 128.688 -25.254, 125.580 -34.759, 122.472 -43.433, 119.636 " />
            <path fill="none" stroke-width="3.0" stroke-linecap="butt" stroke-opacity="1.0" stroke="rgb(0, 0, 0)" stroke-linejoin="round" d=" M 41.279, 147.336 31.397, 148.870 21.516, 150.403 11.634, 151.937 1.752, 153.471 -8.129, 155.005 -18.011, 156.539 -27.893, 158.072 -37.774, 159.606 -47.656, 161.140 -57.538, 162.674 -67.419, 164.208 -77.301, 165.742 -87.183, 167.275 -97.064, 168.809 -106.946, 170.343 -116.828, 171.877 -126.709, 173.411 -136.591, 174.945 -146.473, 176.478 -157.161, 178.137 " />
        </g>
    </g>
</svg>
