<?xml version='1.0' encoding='ascii'?>
<svg xmlns="http://www.w3.org/2000/svg" version="1.1" width="1080" height="1080">
    <g id="ViewLayer_LineSet" xmlns:inkscape="http://www.inkscape.org/namespaces/inkscape" inkscape:groupmode="lineset" inkscape:label="ViewLayer_LineSet">
        <g xmlns:inkscape="http://www.inkscape.org/namespaces/inkscape" inkscape:groupmode="layer" id="strokes" inkscape:label="strokes">
            <path fill="none" stroke-width="3.0" stroke-linecap="butt" stroke-opacity="1.0" stroke="rgb(0, 0, 0)" stroke-linejoin="round" d=" M 99.639, 289.969 100.975, 299.880 102.311, 309.790 103.647, 319.700 104.983, 329.611 106.319, 339.521 107.655, 349.431 108.991, 359.342 110.327, 369.252 111.664, 379.162 113.000, 389.073 114.336, 398.983 115.672, 408.893 117.008, 418.804 118.344, 428.714 119.680, 438.624 121.016, 448.535 122.352, 458.445 123.688, 468.355 125.024, 478.266 126.360, 488.176 127.696, 498.086 129.033, 507.997 130.369, 517.907 131.705, 527.817 132.868, 536.449 141.316, 541.800 149.764, 547.151 158.212, 552.502 166.659, 557.853 175.107, 563.205 183.555, 568.556 192.003, 573.907 200.450, 579.258 208.898, 584.609 217.346, 589.961 225.794, 595.312 234.241, 600.663 242.689, 606.014 251.137, 611.365 259.585, 616.717 268.032, 622.068 276.480, 627.419 278.339, 628.596 287.594, 624.808 296.849, 621.020 306.103, 617.232 315.358, 613.444 324.613, 609.656 333.868, 605.868 343.122, 602.080 352.377, 598.292 361.632, 594.504 370.887, 590.716 380.141, 586.928 389.396, 583.140 398.651, 579.352 407.906, 575.564 417.160, 571.776 426.415, 567.987 435.670, 564.199 444.925, 560.411 454.179, 556.623 463.434, 552.835 472.689, 549.047 481.944, 545.259 491.904, 541.182 491.745, 531.184 491.585, 521.185 491.426, 511.186 491.266, 501.187 491.107, 491.189 490.947, 481.190 490.788, 471.191 490.628, 461.193 490.469, 451.194 490.309, 441.195 490.150, 431.196 489.990, 421.198 489.831, 411.199 489.671, 401.200 489.512, 391.201 489.352, 381.203 489.193, 371.204 489.033, 361.205 488.874, 351.206 488.714, 341.208 488.555, 331.209 488.395, 321.210 488.236, 311.212 488.076, 301.213 487.951, 293.391 478.447, 290.283 468.942, 287.175 459.437, 284.067 449.932, 280.959 440.428, 277.851 430.923, 274.744 421.418, 271.636 411.913, 268.528 402.408, 265.420 392.904, 262.312 383.399, 259.204 373.894, 256.096 364.389, 252.988 354.885, 249.880 345.380, 246.772 335.875, 243.664 326.370, 240.556 324.028, 239.790 314.269, 241.973 304.510, 244.155 294.751, 246.337 284.992, 248.520 275.233, 250.702 265.474, 252.884 255.715, 255.067 245.956, 257.249 236.197, 259.431 226.438, 261.614 216.679, 263.796 206.920, 265.978 197.161, 268.161 187.402, 270.343 177.643, 272.526 167.884, 274.708 158.125, 276.890 148.366, 279.073 138.607, 281.255 128.848, 283.437 119.089, 285.620 109.330, 287.802 99.639, 289.969 " />
            <path fill="none" stroke-width="3.0" stroke-linecap="butt" stroke-opacity="1.0" stroke="rgb(0, 0, 0)" stroke-linejoin="round" d=" M 487.951, 293.391 478.304, 296.024 468.657, 298.658 459.010, 301.291 449.363, 303.924 439.716, 306.558 430.069, 309.191 420.422, 311.824 410.775, 314.458 401.128, 317.091 391.481, 319.724 381.834, 322.357 372.187, 324.991 362.540, 327.624 352.893, 330.257 343.246, 332.891 333.599, 335.524 323.951, 338.157 314.304, 340.791 304.657, 343.424 295.010, 346.057 285.363, 348.691 275.716, 351.324 266.069, 353.957 254.086, 357.228 " />
            <path fill="none" stroke-width="3.0" stroke-linecap="butt" stroke-opacity="1.0" stroke="rgb(0, 0, 0)" stroke-linejoin="round" d=" M 99.639, 289.969 108.807, 293.962 117.976, 297.954 127.144, 301.947 136.312, 305.940 145.481, 309.932 154.649, 313.925 163.817, 317.918 172.986, 321.910 182.154, 325.903 191.322, 329.896 200.491, 333.888 209.659, 337.881 218.827, 341.874 227.996, 345.866 237.164, 349.859 246.333, 353.852 254.086, 357.228 254.976, 367.188 255.866, 377.149 256.757, 387.109 257.647, 397.069 258.537, 407.030 259.427, 416.990 260.317, 426.950 261.208, 436.911 262.098, 446.871 262.988, 456.831 263.878, 466.791 264.768, 476.752 265.658, 486.712 266.549, 496.672 267.439, 506.633 268.329, 516.593 269.219, 526.553 270.109, 536.514 270.999, 546.474 271.890, 556.434 272.780, 566.394 273.670, 576.355 274.560, 586.315 275.450, 596.275 276.341, 606.236 277.231, 616.196 278.339, 628.596 " />
        </g>
    </g>
</svg>
