<?xml version='1.0' encoding='ascii'?>
<svg xmlns="http://www.w3.org/2000/svg" version="1.1" width="1080" height="1080">
    <g id="ViewLayer_LineSet" xmlns:inkscape="http://www.inkscape.org/namespaces/inkscape" inkscape:groupmode="lineset" inkscape:label="ViewLayer_LineSet">
        <g xmlns:inkscape="http://www.inkscape.org/namespaces/inkscape" inkscape:groupmode="layer" id="strokes" inkscape:label="strokes">
            <path fill="none" stroke-width="3.0" stroke-linecap="butt" stroke-opacity="1.0" stroke="rgb(0, 0, 0)" stroke-linejoin="round" d=" M -5.779, 448.623 3.847, 445.911 13.472, 443.199 23.097, 440.487 32.722, 437.775 42.347, 435.063 51.972, 432.350 61.598, 429.638 71.223, 426.926 80.848, 424.214 90.473, 421.502 100.098, 418.790 109.724, 416.078 119.349, 413.366 128.974, 410.654 138.599, 407.941 148.224, 405.229 157.850, 402.517 167.475, 399.805 177.100, 397.093 186.725, 394.381 189.482, 393.604 188.381, 383.665 187.279, 373.726 186.178, 363.786 185.076, 353.847 183.975, 343.908 182.873, 333.969 181.772, 324.030 180.670, 314.091 179.569, 304.152 178.467, 294.212 177.366, 284.273 176.264, 274.334 175.163, 264.395 174.061, 254.456 172.960, 244.517 171.858, 234.578 170.757, 224.638 169.655, 214.699 168.553, 204.760 167.452, 194.821 166.736, 188.358 157.231, 185.250 147.726, 182.142 138.221, 179.034 128.717, 175.927 119.212, 172.819 109.707, 169.711 100.202, 166.603 90.697, 163.495 81.193, 160.387 71.688, 157.279 62.160, 154.163 52.285, 155.740 42.410, 157.317 32.535, 158.894 22.660, 160.471 12.786, 162.048 2.911, 163.625 -6.964, 165.202 -16.839, 166.778 -26.714, 168.355 -36.589, 169.932 -46.464, 171.509 -56.339, 173.086 -66.214, 174.663 -76.089, 176.240 -85.963, 177.817 -95.838, 179.393 -105.713, 180.970 -115.588, 182.547 -125.463, 184.124 -135.338, 185.701 -138.597, 186.221 " />
            <path fill="none" stroke-width="3.0" stroke-linecap="butt" stroke-opacity="1.0" stroke="rgb(0, 0, 0)" stroke-linejoin="round" d=" M 166.736, 188.358 156.900, 190.162 147.064, 191.965 137.228, 193.769 127.392, 195.572 117.556, 197.375 107.720, 199.179 97.883, 200.982 88.047, 202.786 78.211, 204.589 68.375, 206.393 58.539, 208.196 48.703, 210.000 38.867, 211.803 29.031, 213.606 19.195, 215.410 9.359, 217.213 -0.477, 219.017 -10.313, 220.820 -20.149, 222.624 -29.985, 224.427 -39.821, 226.231 -44.679, 227.121 " />
        </g>
    </g>
</svg>
