<?xml version='1.0' encoding='ascii'?>
<svg xmlns="http://www.w3.org/2000/svg" version="1.1" width="1080" height="1080">
    <g id="ViewLayer_LineSet" xmlns:inkscape="http://www.inkscape.org/namespaces/inkscape" inkscape:groupmode="lineset" inkscape:label="ViewLayer_LineSet">
        <g xmlns:inkscape="http://www.inkscape.org/namespaces/inkscape" inkscape:groupmode="layer" id="strokes" inkscape:label="strokes">
            <path fill="none" stroke-width="3.0" stroke-linecap="butt" stroke-opacity="1.0" stroke="rgb(0, 0, 0)" stroke-linejoin="round" d=" M 90.632, 286.047 91.993, 295.954 93.354, 305.860 94.716, 315.767 96.077, 325.674 97.438, 335.581 98.799, 345.488 100.161, 355.395 101.522, 365.302 102.883, 375.209 104.245, 385.116 105.606, 395.023 106.967, 404.930 108.329, 414.836 109.690, 424.743 111.051, 434.650 112.412, 444.557 113.774, 454.464 115.135, 464.371 116.496, 474.278 117.858, 484.185 119.219, 494.092 120.580, 503.999 121.942, 513.906 123.303, 523.812 124.293, 531.016 132.740, 536.368 141.188, 541.719 149.636, 547.070 158.084, 552.421 166.532, 557.772 174.979, 563.124 183.427, 568.475 191.875, 573.826 200.323, 579.177 208.770, 584.528 217.218, 589.880 225.666, 595.231 234.114, 600.582 242.561, 605.933 251.009, 611.284 259.457, 616.636 267.512, 621.738 276.785, 617.994 286.057, 614.250 295.330, 610.505 304.603, 606.761 313.875, 603.017 323.148, 599.273 332.420, 595.528 341.693, 591.784 350.965, 588.040 360.238, 584.296 369.510, 580.551 378.783, 576.807 388.056, 573.063 397.328, 569.318 406.601, 565.574 415.873, 561.830 425.146, 558.086 434.418, 554.341 443.691, 550.597 452.964, 546.853 462.236, 543.109 471.509, 539.364 480.630, 535.681 480.434, 525.683 480.237, 515.685 480.041, 505.687 479.844, 495.689 479.648, 485.691 479.451, 475.693 479.255, 465.694 479.058, 455.696 478.862, 445.698 478.665, 435.700 478.469, 425.702 478.272, 415.704 478.076, 405.706 477.879, 395.708 477.683, 385.710 477.486, 375.712 477.290, 365.714 477.093, 355.716 476.897, 345.718 476.700, 335.720 476.504, 325.721 476.307, 315.723 476.111, 305.725 475.914, 295.727 475.790, 289.414 466.285, 286.307 456.781, 283.199 447.276, 280.091 437.771, 276.983 428.266, 273.875 418.761, 270.767 409.257, 267.659 399.752, 264.551 390.247, 261.443 380.742, 258.335 371.238, 255.227 361.733, 252.119 352.228, 249.011 342.723, 245.904 333.218, 242.796 323.714, 239.688 314.329, 236.619 304.564, 238.777 294.800, 240.934 285.035, 243.092 275.271, 245.249 265.506, 247.407 255.742, 249.564 245.977, 251.722 236.213, 253.879 226.449, 256.037 216.684, 258.194 206.920, 260.352 197.155, 262.509 187.391, 264.667 177.626, 266.825 167.862, 268.982 158.097, 271.140 148.333, 273.297 138.568, 275.455 128.804, 277.612 119.039, 279.770 109.275, 281.927 99.510, 284.085 90.632, 286.047 " />
            <path fill="none" stroke-width="3.0" stroke-linecap="butt" stroke-opacity="1.0" stroke="rgb(0, 0, 0)" stroke-linejoin="round" d=" M 475.790, 289.414 466.133, 292.012 456.477, 294.610 446.820, 297.208 437.163, 299.805 427.507, 302.403 417.850, 305.001 408.193, 307.598 398.536, 310.196 388.880, 312.794 379.223, 315.391 369.566, 317.989 359.910, 320.587 350.253, 323.184 340.596, 325.782 330.940, 328.380 321.283, 330.977 311.626, 333.575 301.969, 336.173 292.313, 338.771 282.656, 341.368 272.999, 343.966 263.343, 346.564 253.686, 349.161 242.482, 352.175 " />
            <path fill="none" stroke-width="3.0" stroke-linecap="butt" stroke-opacity="1.0" stroke="rgb(0, 0, 0)" stroke-linejoin="round" d=" M 90.632, 286.047 99.800, 290.039 108.968, 294.032 118.137, 298.025 127.305, 302.017 136.473, 306.010 145.642, 310.003 154.810, 313.995 163.979, 317.988 173.147, 321.981 182.315, 325.973 191.484, 329.966 200.652, 333.959 209.820, 337.951 218.989, 341.944 228.157, 345.937 237.325, 349.929 242.482, 352.175 243.407, 362.132 244.332, 372.089 245.256, 382.047 246.181, 392.004 247.105, 401.961 248.030, 411.918 248.954, 421.875 249.879, 431.832 250.803, 441.789 251.728, 451.747 252.653, 461.704 253.577, 471.661 254.502, 481.618 255.426, 491.575 256.351, 501.533 257.275, 511.490 258.200, 521.447 259.124, 531.404 260.049, 541.361 260.974, 551.318 261.898, 561.276 262.823, 571.233 263.747, 581.190 264.672, 591.147 265.596, 601.104 266.521, 611.061 267.512, 621.738 " />
        </g>
    </g>
</svg>
