<?xml version='1.0' encoding='ascii'?>
<svg xmlns="http://www.w3.org/2000/svg" version="1.1" width="1080" height="1080">
    <g id="ViewLayer_LineSet" xmlns:inkscape="http://www.inkscape.org/namespaces/inkscape" inkscape:groupmode="lineset" inkscape:label="ViewLayer_LineSet">
        <g xmlns:inkscape="http://www.inkscape.org/namespaces/inkscape" inkscape:groupmode="layer" id="strokes" inkscape:label="strokes">
            <path fill="none" stroke-width="3.0" stroke-linecap="butt" stroke-opacity="1.0" stroke="rgb(0, 0, 0)" stroke-linejoin="round" d=" M 70.590, 277.319 72.007, 287.218 73.424, 297.117 74.841, 307.016 76.258, 316.915 77.675, 326.814 79.092, 336.713 80.509, 346.612 81.927, 356.511 83.344, 366.411 84.761, 376.310 86.178, 386.209 87.595, 396.108 89.012, 406.007 90.429, 415.906 91.846, 425.805 93.263, 435.704 94.681, 445.603 96.098, 455.502 97.515, 465.401 98.932, 475.300 100.349, 485.199 101.766, 495.099 103.183, 504.998 104.600, 514.897 105.174, 518.906 113.622, 524.257 122.070, 529.608 130.517, 534.959 138.965, 540.311 147.413, 545.662 155.861, 551.013 164.309, 556.364 172.756, 561.715 181.204, 567.067 189.652, 572.418 198.100, 577.769 206.547, 583.120 214.995, 588.471 223.443, 593.823 231.891, 599.174 240.338, 604.525 243.445, 606.493 252.756, 602.846 262.067, 599.198 271.378, 595.550 280.689, 591.902 290.000, 588.255 299.311, 584.607 308.622, 580.959 317.933, 577.312 327.244, 573.664 336.555, 570.016 345.866, 566.369 355.177, 562.721 364.488, 559.073 373.799, 555.425 383.110, 551.778 392.421, 548.130 401.732, 544.482 411.043, 540.835 420.354, 537.187 429.665, 533.539 438.976, 529.892 448.287, 526.244 455.501, 523.418 455.222, 513.422 454.944, 503.426 454.665, 493.430 454.387, 483.433 454.108, 473.437 453.830, 463.441 453.551, 453.445 453.273, 443.449 452.994, 433.453 452.716, 423.457 452.437, 413.461 452.159, 403.464 451.880, 393.468 451.602, 383.472 451.323, 373.476 451.045, 363.480 450.766, 353.484 450.488, 343.488 450.209, 333.492 449.931, 323.495 449.652, 313.499 449.374, 303.503 449.095, 293.507 448.817, 283.511 448.735, 280.568 439.230, 277.460 429.725, 274.352 420.220, 271.244 410.715, 268.136 401.211, 265.028 391.706, 261.920 382.201, 258.812 372.696, 255.704 363.192, 252.596 353.687, 249.489 344.182, 246.381 334.677, 243.273 325.172, 240.165 315.668, 237.057 306.163, 233.949 296.658, 230.841 292.692, 229.544 282.916, 231.647 273.139, 233.750 263.363, 235.853 253.586, 237.956 243.810, 240.059 234.034, 242.162 224.257, 244.265 214.481, 246.367 204.705, 248.470 194.928, 250.573 185.152, 252.676 175.375, 254.779 165.599, 256.882 155.823, 258.985 146.046, 261.088 136.270, 263.191 126.493, 265.294 116.717, 267.397 106.941, 269.500 97.164, 271.603 87.388, 273.705 77.612, 275.808 70.590, 277.319 " />
            <path fill="none" stroke-width="3.0" stroke-linecap="butt" stroke-opacity="1.0" stroke="rgb(0, 0, 0)" stroke-linejoin="round" d=" M 448.735, 280.568 439.057, 283.087 429.380, 285.607 419.703, 288.127 410.025, 290.647 400.348, 293.166 390.671, 295.686 380.993, 298.206 371.316, 300.726 361.638, 303.245 351.961, 305.765 342.284, 308.285 332.606, 310.804 322.929, 313.324 313.252, 315.844 303.574, 318.364 293.897, 320.883 284.220, 323.403 274.542, 325.923 264.865, 328.442 255.188, 330.962 245.510, 333.482 235.833, 336.002 226.156, 338.521 216.752, 340.970 " />
            <path fill="none" stroke-width="3.0" stroke-linecap="butt" stroke-opacity="1.0" stroke="rgb(0, 0, 0)" stroke-linejoin="round" d=" M 70.590, 277.319 79.758, 281.311 88.926, 285.304 98.095, 289.297 107.263, 293.289 116.431, 297.282 125.600, 301.275 134.768, 305.267 143.937, 309.260 153.105, 313.253 162.273, 317.245 171.442, 321.238 180.610, 325.231 189.778, 329.223 198.947, 333.216 208.115, 337.209 216.752, 340.970 217.752, 350.920 218.752, 360.870 219.753, 370.819 220.753, 380.769 221.753, 390.719 222.754, 400.669 223.754, 410.619 224.754, 420.569 225.754, 430.518 226.755, 440.468 227.755, 450.418 228.755, 460.368 229.756, 470.318 230.756, 480.268 231.756, 490.218 232.756, 500.167 233.757, 510.117 234.757, 520.067 235.757, 530.017 236.757, 539.967 237.758, 549.917 238.758, 559.866 239.758, 569.816 240.759, 579.766 241.759, 589.716 242.759, 599.666 243.445, 606.493 " />
        </g>
    </g>
</svg>
