<?xml version='1.0' encoding='ascii'?>
<svg xmlns="http://www.w3.org/2000/svg" version="1.1" width="1080" height="1080">
    <g id="ViewLayer_LineSet" xmlns:inkscape="http://www.inkscape.org/namespaces/inkscape" inkscape:groupmode="lineset" inkscape:label="ViewLayer_LineSet">
        <g xmlns:inkscape="http://www.inkscape.org/namespaces/inkscape" inkscape:groupmode="layer" id="strokes" inkscape:label="strokes">
            <path fill="none" stroke-width="3.0" stroke-linecap="butt" stroke-opacity="1.0" stroke="rgb(0, 0, 0)" stroke-linejoin="round" d=" M -13.573, 240.667 -11.926, 250.531 -10.279, 260.394 -8.633, 270.258 -6.986, 280.121 -5.339, 289.985 -3.692, 299.848 -2.046, 309.712 -0.399, 319.575 1.248, 329.439 2.895, 339.302 4.541, 349.166 6.188, 359.029 7.835, 368.893 9.482, 378.756 11.128, 388.620 12.775, 398.483 14.422, 408.346 16.069, 418.210 17.716, 428.073 19.362, 437.937 21.009, 447.800 22.656, 457.664 24.331, 467.696 32.779, 473.047 41.226, 478.398 49.674, 483.750 58.122, 489.101 66.570, 494.452 75.017, 499.803 83.465, 505.154 91.913, 510.506 100.361, 515.857 108.808, 521.208 117.256, 526.559 125.704, 531.910 134.152, 537.262 142.744, 542.704 152.199, 539.449 161.654, 536.193 171.110, 532.938 180.565, 529.683 190.020, 526.427 199.476, 523.172 208.931, 519.917 218.386, 516.662 227.841, 513.406 237.297, 510.151 246.752, 506.896 256.207, 503.640 265.663, 500.385 275.118, 497.130 284.573, 493.874 294.029, 490.619 303.484, 487.364 312.939, 484.108 322.395, 480.853 331.850, 477.598 341.305, 474.342 349.296, 471.591 348.679, 461.610 348.062, 451.629 347.445, 441.648 346.828, 431.667 346.211, 421.686 345.594, 411.706 344.977, 401.725 344.360, 391.744 343.743, 381.763 343.126, 371.782 342.509, 361.801 341.892, 351.820 341.275, 341.839 340.658, 331.858 340.041, 321.877 339.423, 311.896 338.806, 301.915 338.189, 291.934 337.572, 281.953 336.955, 271.972 336.338, 261.991 335.721, 252.010 335.191, 243.441 325.687, 240.333 316.182, 237.225 306.677, 234.117 297.172, 231.009 287.668, 227.901 278.163, 224.793 268.658, 221.685 259.153, 218.577 249.648, 215.469 240.144, 212.362 230.639, 209.254 221.134, 206.146 211.629, 203.038 200.982, 199.556 191.161, 201.438 181.340, 203.320 171.518, 205.202 161.697, 207.084 151.876, 208.966 142.054, 210.848 132.233, 212.729 122.412, 214.611 112.590, 216.493 102.769, 218.375 92.948, 220.257 83.126, 222.139 73.305, 224.021 63.484, 225.903 53.662, 227.784 43.841, 229.666 34.020, 231.548 24.198, 233.430 14.377, 235.312 4.556, 237.194 -5.266, 239.076 -13.573, 240.667 " />
            <path fill="none" stroke-width="3.0" stroke-linecap="butt" stroke-opacity="1.0" stroke="rgb(0, 0, 0)" stroke-linejoin="round" d=" M 335.191, 243.441 325.439, 245.652 315.687, 247.863 305.934, 250.074 296.182, 252.285 286.429, 254.496 276.677, 256.708 266.924, 258.919 257.172, 261.130 247.419, 263.341 237.667, 265.552 227.914, 267.763 218.162, 269.974 208.409, 272.186 198.657, 274.397 188.904, 276.608 179.152, 278.819 169.399, 281.030 159.647, 283.241 149.894, 285.452 140.142, 287.664 130.389, 289.875 120.637, 292.086 110.025, 294.492 " />
            <path fill="none" stroke-width="3.0" stroke-linecap="butt" stroke-opacity="1.0" stroke="rgb(0, 0, 0)" stroke-linejoin="round" d=" M -13.573, 240.667 -4.405, 244.660 4.764, 248.653 13.932, 252.645 23.100, 256.638 32.269, 260.631 41.437, 264.623 50.605, 268.616 59.774, 272.609 68.942, 276.601 78.110, 280.594 87.279, 284.587 96.447, 288.579 105.616, 292.572 110.025, 294.492 111.331, 304.406 112.638, 314.320 113.945, 324.235 115.252, 334.149 116.559, 344.063 117.866, 353.977 119.173, 363.892 120.480, 373.806 121.787, 383.720 123.093, 393.634 124.400, 403.549 125.707, 413.463 127.014, 423.377 128.321, 433.291 129.628, 443.205 130.935, 453.120 132.242, 463.034 133.548, 472.948 134.855, 482.862 136.162, 492.777 137.469, 502.691 138.776, 512.605 140.083, 522.519 141.390, 532.434 142.744, 542.704 " />
        </g>
    </g>
</svg>
