<?xml version='1.0' encoding='ascii'?>
<svg xmlns="http://www.w3.org/2000/svg" version="1.1" width="1080" height="1080">
    <g id="ViewLayer_LineSet" xmlns:inkscape="http://www.inkscape.org/namespaces/inkscape" inkscape:groupmode="lineset" inkscape:label="ViewLayer_LineSet">
        <g xmlns:inkscape="http://www.inkscape.org/namespaces/inkscape" inkscape:groupmode="layer" id="strokes" inkscape:label="strokes">
            <path fill="none" stroke-width="3.0" stroke-linecap="butt" stroke-opacity="1.0" stroke="rgb(0, 0, 0)" stroke-linejoin="round" d=" M -49.231, 421.099 -40.783, 426.450 -32.335, 431.801 -23.887, 437.152 -15.439, 442.504 -6.992, 447.855 1.456, 453.206 9.904, 458.557 18.352, 463.908 26.799, 469.260 35.247, 474.611 43.695, 479.962 52.583, 485.592 62.147, 482.672 71.711, 479.751 81.275, 476.831 90.839, 473.910 100.403, 470.990 109.967, 468.069 119.531, 465.149 129.095, 462.228 138.659, 459.308 148.223, 456.387 157.787, 453.467 167.351, 450.546 176.915, 447.626 186.479, 444.706 196.043, 441.785 205.607, 438.865 215.171, 435.944 224.735, 433.024 234.300, 430.103 243.864, 427.183 252.739, 424.472 251.826, 414.514 250.912, 404.556 249.999, 394.598 249.086, 384.640 248.172, 374.681 247.259, 364.723 246.346, 354.765 245.432, 344.807 244.519, 334.849 243.605, 324.890 242.692, 314.932 241.779, 304.974 240.865, 295.016 239.952, 285.058 239.038, 275.099 238.125, 265.141 237.212, 255.183 236.298, 245.225 235.385, 235.267 234.472, 225.308 233.558, 215.350 233.072, 210.049 223.567, 206.941 214.062, 203.833 204.558, 200.725 195.053, 197.617 185.548, 194.510 176.043, 191.402 166.538, 188.294 157.034, 185.186 147.529, 182.078 138.024, 178.970 128.519, 175.862 119.015, 172.754 117.226, 172.169 107.371, 173.863 97.515, 175.557 87.660, 177.251 77.804, 178.945 67.949, 180.639 58.093, 182.332 48.238, 184.026 38.382, 185.720 28.527, 187.414 18.671, 189.108 8.816, 190.802 -1.040, 192.495 -10.895, 194.189 -20.751, 195.883 -30.606, 197.577 -40.462, 199.271 -50.317, 200.965 -60.173, 202.658 -70.028, 204.352 -79.884, 206.046 -89.341, 207.672 " />
            <path fill="none" stroke-width="3.0" stroke-linecap="butt" stroke-opacity="1.0" stroke="rgb(0, 0, 0)" stroke-linejoin="round" d=" M 233.072, 210.049 223.265, 212.007 213.459, 213.964 203.652, 215.921 193.846, 217.879 184.039, 219.836 174.232, 221.793 164.426, 223.751 154.619, 225.708 144.813, 227.665 135.006, 229.623 125.200, 231.580 115.393, 233.537 105.586, 235.495 95.780, 237.452 85.973, 239.409 76.167, 241.367 66.360, 243.324 56.554, 245.281 46.747, 247.239 36.941, 249.196 27.134, 251.153 15.732, 253.429 " />
            <path fill="none" stroke-width="3.0" stroke-linecap="butt" stroke-opacity="1.0" stroke="rgb(0, 0, 0)" stroke-linejoin="round" d=" M -89.341, 207.672 -80.173, 211.664 -71.005, 215.657 -61.836, 219.649 -52.668, 223.642 -43.500, 227.635 -34.331, 231.627 -25.163, 235.620 -15.995, 239.613 -6.826, 243.605 2.342, 247.598 11.510, 251.591 15.732, 253.429 17.299, 263.305 18.867, 273.182 20.435, 283.058 22.002, 292.935 23.570, 302.811 25.138, 312.687 26.705, 322.564 28.273, 332.440 29.841, 342.316 31.408, 352.193 32.976, 362.069 34.544, 371.945 36.111, 381.822 37.679, 391.698 39.247, 401.574 40.814, 411.451 42.382, 421.327 43.950, 431.203 45.517, 441.080 47.085, 450.956 48.653, 460.833 50.220, 470.709 51.788, 480.585 52.583, 485.592 " />
        </g>
    </g>
</svg>
