<?xml version='1.0' encoding='ascii'?>
<svg xmlns="http://www.w3.org/2000/svg" version="1.1" width="1080" height="1080">
    <g id="ViewLayer_LineSet" xmlns:inkscape="http://www.inkscape.org/namespaces/inkscape" inkscape:groupmode="lineset" inkscape:label="ViewLayer_LineSet">
        <g xmlns:inkscape="http://www.inkscape.org/namespaces/inkscape" inkscape:groupmode="layer" id="strokes" inkscape:label="strokes">
            <path fill="none" stroke-width="3.0" stroke-linecap="butt" stroke-opacity="1.0" stroke="rgb(0, 0, 0)" stroke-linejoin="round" d=" M -44.584, 424.042 -34.922, 421.465 -25.260, 418.888 -15.598, 416.310 -5.935, 413.733 3.727, 411.156 13.389, 408.579 23.051, 406.001 32.713, 403.424 42.376, 400.847 52.038, 398.270 61.700, 395.692 71.362, 393.115 81.024, 390.538 90.686, 387.961 100.349, 385.383 110.011, 382.806 119.673, 380.229 129.335, 377.652 138.997, 375.074 147.089, 372.916 145.864, 362.991 144.639, 353.067 143.414, 343.142 142.189, 333.217 140.964, 323.293 139.739, 313.368 138.514, 303.443 137.289, 293.519 136.064, 283.594 134.839, 273.669 133.614, 263.744 132.389, 253.820 131.164, 243.895 129.939, 233.970 128.714, 224.046 127.489, 214.121 126.265, 204.196 125.040, 194.272 123.815, 184.347 122.525, 173.902 113.021, 170.794 103.516, 167.686 94.011, 164.578 84.506, 161.470 75.002, 158.362 65.497, 155.255 55.992, 152.147 46.487, 149.039 36.982, 145.931 27.478, 142.823 25.168, 142.068 15.281, 143.569 5.394, 145.070 -4.492, 146.571 -14.379, 148.072 -24.266, 149.573 -34.152, 151.074 -44.039, 152.575 -53.926, 154.076 -63.812, 155.577 -73.699, 157.079 -83.586, 158.580 -93.473, 160.081 -103.359, 161.582 -113.246, 163.083 -123.133, 164.584 -133.019, 166.085 -142.906, 167.586 -152.793, 169.087 -162.679, 170.588 -171.441, 171.919 " />
            <path fill="none" stroke-width="3.0" stroke-linecap="butt" stroke-opacity="1.0" stroke="rgb(0, 0, 0)" stroke-linejoin="round" d=" M 122.525, 173.902 112.672, 175.607 102.818, 177.313 92.965, 179.018 83.111, 180.724 73.258, 182.429 63.404, 184.134 53.551, 185.840 43.697, 187.545 33.844, 189.250 23.990, 190.956 14.137, 192.661 4.283, 194.366 -5.570, 196.072 -15.424, 197.777 -25.277, 199.482 -35.131, 201.188 -44.984, 202.893 -54.838, 204.599 -64.691, 206.304 -74.545, 208.009 -84.578, 209.746 " />
        </g>
    </g>
</svg>
