<?xml version='1.0' encoding='ascii'?>
<svg xmlns="http://www.w3.org/2000/svg" version="1.1" width="1080" height="1080">
    <g id="ViewLayer_LineSet" xmlns:inkscape="http://www.inkscape.org/namespaces/inkscape" inkscape:groupmode="lineset" inkscape:label="ViewLayer_LineSet">
        <g xmlns:inkscape="http://www.inkscape.org/namespaces/inkscape" inkscape:groupmode="layer" id="strokes" inkscape:label="strokes">
            <path fill="none" stroke-width="3.0" stroke-linecap="butt" stroke-opacity="1.0" stroke="rgb(0, 0, 0)" stroke-linejoin="round" d=" M 48.363, 267.640 49.842, 277.530 51.320, 287.420 52.799, 297.310 54.277, 307.200 55.756, 317.090 57.234, 326.980 58.713, 336.870 60.191, 346.760 61.670, 356.651 63.148, 366.541 64.627, 376.431 66.105, 386.321 67.584, 396.211 69.062, 406.101 70.541, 415.991 72.019, 425.881 73.498, 435.771 74.976, 445.661 76.455, 455.552 77.933, 465.442 79.412, 475.332 80.890, 485.222 82.369, 495.112 83.912, 505.438 92.360, 510.789 100.808, 516.140 109.256, 521.491 117.703, 526.842 126.151, 532.194 134.599, 537.545 143.047, 542.896 151.495, 548.247 159.942, 553.598 168.390, 558.950 176.838, 564.301 185.286, 569.652 193.733, 575.003 202.181, 580.354 210.629, 585.706 216.795, 589.611 226.146, 586.069 235.498, 582.527 244.850, 578.985 254.202, 575.443 263.553, 571.901 272.905, 568.359 282.257, 564.817 291.608, 561.275 300.960, 557.733 310.312, 554.191 319.663, 550.649 329.015, 547.107 338.367, 543.565 347.719, 540.023 357.070, 536.481 366.422, 532.939 375.774, 529.397 385.125, 525.855 394.477, 522.313 403.829, 518.771 413.180, 515.229 422.532, 511.687 427.560, 509.783 427.191, 499.790 426.822, 489.797 426.453, 479.803 426.085, 469.810 425.716, 459.817 425.347, 449.824 424.978, 439.831 424.609, 429.837 424.240, 419.844 423.872, 409.851 423.503, 399.858 423.134, 389.865 422.765, 379.872 422.396, 369.878 422.028, 359.885 421.659, 349.892 421.290, 339.899 420.921, 329.906 420.552, 319.912 420.183, 309.919 419.815, 299.926 419.446, 289.933 419.077, 279.940 418.738, 270.759 409.233, 267.651 399.729, 264.543 390.224, 261.436 380.719, 258.328 371.214, 255.220 361.710, 252.112 352.205, 249.004 342.700, 245.896 333.195, 242.788 323.690, 239.680 314.186, 236.572 304.681, 233.464 295.176, 230.356 285.671, 227.248 276.167, 224.141 268.607, 221.669 258.818, 223.712 249.029, 225.755 239.240, 227.798 229.451, 229.842 219.662, 231.885 209.873, 233.928 200.083, 235.971 190.294, 238.015 180.505, 240.058 170.716, 242.101 160.927, 244.144 151.138, 246.188 141.349, 248.231 131.560, 250.274 121.771, 252.317 111.982, 254.361 102.193, 256.404 92.404, 258.447 82.615, 260.490 72.826, 262.534 63.037, 264.577 53.248, 266.620 48.363, 267.640 " />
            <path fill="none" stroke-width="3.0" stroke-linecap="butt" stroke-opacity="1.0" stroke="rgb(0, 0, 0)" stroke-linejoin="round" d=" M 418.738, 270.759 409.039, 273.195 399.340, 275.630 389.641, 278.065 379.942, 280.501 370.244, 282.936 360.545, 285.371 350.846, 287.807 341.147, 290.242 331.448, 292.677 321.749, 295.113 312.050, 297.548 302.351, 299.983 292.652, 302.419 282.953, 304.854 273.254, 307.289 263.555, 309.725 253.856, 312.160 244.158, 314.595 234.459, 317.031 224.760, 319.466 215.061, 321.901 205.362, 324.337 195.663, 326.772 188.360, 328.606 " />
            <path fill="none" stroke-width="3.0" stroke-linecap="butt" stroke-opacity="1.0" stroke="rgb(0, 0, 0)" stroke-linejoin="round" d=" M 48.363, 267.640 57.532, 271.632 66.700, 275.625 75.869, 279.618 85.037, 283.610 94.205, 287.603 103.374, 291.596 112.542, 295.588 121.710, 299.581 130.879, 303.573 140.047, 307.566 149.215, 311.559 158.384, 315.551 167.552, 319.544 176.720, 323.537 185.889, 327.529 188.360, 328.606 189.443, 338.547 190.526, 348.488 191.609, 358.429 192.692, 368.370 193.775, 378.312 194.858, 388.253 195.941, 398.194 197.024, 408.135 198.107, 418.076 199.190, 428.017 200.273, 437.959 201.356, 447.900 202.439, 457.841 203.522, 467.782 204.605, 477.723 205.688, 487.664 206.771, 497.606 207.854, 507.547 208.937, 517.488 210.020, 527.429 211.103, 537.370 212.187, 547.312 213.270, 557.253 214.353, 567.194 215.436, 577.135 216.795, 589.611 " />
        </g>
    </g>
</svg>
