<?xml version='1.0' encoding='ascii'?>
<svg xmlns="http://www.w3.org/2000/svg" version="1.1" width="1080" height="1080">
    <g id="ViewLayer_LineSet" xmlns:inkscape="http://www.inkscape.org/namespaces/inkscape" inkscape:groupmode="lineset" inkscape:label="ViewLayer_LineSet">
        <g xmlns:inkscape="http://www.inkscape.org/namespaces/inkscape" inkscape:groupmode="layer" id="strokes" inkscape:label="strokes">
            <path fill="none" stroke-width="3.0" stroke-linecap="butt" stroke-opacity="1.0" stroke="rgb(0, 0, 0)" stroke-linejoin="round" d=" M -49.994, 420.615 -41.546, 425.966 -33.099, 431.318 -24.651, 436.669 -16.203, 442.020 -7.755, 447.371 0.692, 452.722 9.140, 458.073 17.588, 463.425 26.036, 468.776 34.483, 474.127 42.931, 479.478 51.654, 485.004 61.219, 482.087 70.784, 479.170 80.349, 476.252 89.914, 473.335 99.479, 470.418 109.045, 467.501 118.610, 464.584 128.175, 461.667 137.740, 458.750 147.305, 455.833 156.870, 452.916 166.435, 449.999 176.000, 447.081 185.565, 444.164 195.130, 441.247 204.695, 438.330 214.260, 435.413 223.825, 432.496 233.390, 429.579 242.955, 426.662 251.737, 423.984 250.821, 414.026 249.904, 404.068 248.988, 394.110 248.072, 384.152 247.155, 374.194 246.239, 364.236 245.322, 354.278 244.406, 344.320 243.490, 334.362 242.573, 324.404 241.657, 314.446 240.740, 304.488 239.824, 294.531 238.908, 284.573 237.991, 274.615 237.075, 264.657 236.158, 254.699 235.242, 244.741 234.326, 234.783 233.409, 224.825 232.493, 214.867 232.018, 209.704 222.513, 206.597 213.008, 203.489 203.503, 200.381 193.999, 197.273 184.494, 194.165 174.989, 191.057 165.484, 187.949 155.980, 184.841 146.475, 181.733 136.970, 178.625 127.465, 175.517 117.960, 172.409 116.355, 171.885 106.500, 173.577 96.644, 175.268 86.788, 176.960 76.932, 178.652 67.076, 180.344 57.221, 182.036 47.365, 183.728 37.509, 185.420 27.653, 187.112 17.797, 188.804 7.941, 190.496 -1.914, 192.188 -11.770, 193.880 -21.626, 195.572 -31.482, 197.264 -41.338, 198.956 -51.194, 200.648 -61.049, 202.340 -70.905, 204.031 -80.761, 205.723 -90.124, 207.331 " />
            <path fill="none" stroke-width="3.0" stroke-linecap="butt" stroke-opacity="1.0" stroke="rgb(0, 0, 0)" stroke-linejoin="round" d=" M 232.018, 209.704 222.211, 211.659 212.404, 213.614 202.597, 215.569 192.789, 217.524 182.982, 219.479 173.175, 221.433 163.368, 223.388 153.561, 225.343 143.754, 227.298 133.947, 229.253 124.140, 231.208 114.333, 233.162 104.526, 235.117 94.719, 237.072 84.912, 239.027 75.105, 240.982 65.298, 242.937 55.490, 244.891 45.683, 246.846 35.876, 248.801 26.069, 250.756 14.767, 253.009 " />
            <path fill="none" stroke-width="3.0" stroke-linecap="butt" stroke-opacity="1.0" stroke="rgb(0, 0, 0)" stroke-linejoin="round" d=" M -90.124, 207.331 -80.956, 211.323 -71.787, 215.316 -62.619, 219.309 -53.451, 223.301 -44.282, 227.294 -35.114, 231.287 -25.946, 235.279 -16.777, 239.272 -7.609, 243.265 1.560, 247.257 10.728, 251.250 14.767, 253.009 16.337, 262.885 17.907, 272.761 19.478, 282.637 21.048, 292.513 22.618, 302.388 24.188, 312.264 25.759, 322.140 27.329, 332.016 28.899, 341.892 30.470, 351.768 32.040, 361.644 33.610, 371.520 35.180, 381.396 36.751, 391.272 38.321, 401.148 39.891, 411.024 41.462, 420.900 43.032, 430.776 44.602, 440.652 46.172, 450.528 47.743, 460.404 49.313, 470.279 50.883, 480.155 51.654, 485.004 " />
        </g>
    </g>
</svg>
