<?xml version='1.0' encoding='ascii'?>
<svg xmlns="http://www.w3.org/2000/svg" version="1.1" width="1080" height="1080">
    <g id="ViewLayer_LineSet" xmlns:inkscape="http://www.inkscape.org/namespaces/inkscape" inkscape:groupmode="lineset" inkscape:label="ViewLayer_LineSet">
        <g xmlns:inkscape="http://www.inkscape.org/namespaces/inkscape" inkscape:groupmode="layer" id="strokes" inkscape:label="strokes">
            <path fill="none" stroke-width="3.0" stroke-linecap="butt" stroke-opacity="1.0" stroke="rgb(0, 0, 0)" stroke-linejoin="round" d=" M -32.753, 431.536 -23.102, 428.918 -13.451, 426.300 -3.799, 423.682 5.852, 421.064 15.503, 418.446 25.154, 415.828 34.805, 413.210 44.457, 410.592 54.108, 407.974 63.759, 405.356 73.410, 402.738 83.061, 400.120 92.713, 397.502 102.364, 394.884 112.015, 392.265 121.666, 389.647 131.317, 387.029 140.969, 384.411 150.620, 381.793 160.042, 379.237 158.855, 369.308 157.667, 359.379 156.480, 349.450 155.292, 339.520 154.105, 329.591 152.917, 319.662 151.730, 309.733 150.542, 299.803 149.355, 289.874 148.167, 279.945 146.980, 270.016 145.793, 260.086 144.605, 250.157 143.418, 240.228 142.230, 230.299 141.043, 220.369 139.855, 210.440 138.668, 200.511 137.480, 190.582 136.293, 180.652 136.013, 178.312 126.508, 175.204 117.003, 172.096 107.499, 168.989 97.994, 165.881 88.489, 162.773 78.984, 159.665 69.480, 156.557 59.975, 153.449 50.470, 150.341 40.965, 147.233 36.478, 145.766 26.595, 147.290 16.712, 148.814 6.829, 150.338 -3.054, 151.862 -12.938, 153.386 -22.821, 154.910 -32.704, 156.434 -42.587, 157.958 -52.470, 159.482 -62.354, 161.006 -72.237, 162.530 -82.120, 164.054 -92.003, 165.578 -101.886, 167.102 -111.770, 168.626 -121.653, 170.151 -131.536, 171.675 -141.419, 173.199 -151.302, 174.723 -161.420, 176.283 " />
            <path fill="none" stroke-width="3.0" stroke-linecap="butt" stroke-opacity="1.0" stroke="rgb(0, 0, 0)" stroke-linejoin="round" d=" M 136.013, 178.312 126.165, 180.047 116.316, 181.782 106.468, 183.517 96.620, 185.252 86.771, 186.987 76.923, 188.722 67.075, 190.457 57.226, 192.192 47.378, 193.927 37.529, 195.661 27.681, 197.396 17.833, 199.131 7.984, 200.866 -1.864, 202.601 -11.712, 204.336 -21.561, 206.071 -31.409, 207.806 -41.257, 209.541 -51.106, 211.276 -60.954, 213.011 -72.436, 215.033 " />
        </g>
    </g>
</svg>
