<?xml version='1.0' encoding='ascii'?>
<svg xmlns="http://www.w3.org/2000/svg" version="1.1" width="1080" height="1080">
    <g id="ViewLayer_LineSet" xmlns:inkscape="http://www.inkscape.org/namespaces/inkscape" inkscape:groupmode="lineset" inkscape:label="ViewLayer_LineSet">
        <g xmlns:inkscape="http://www.inkscape.org/namespaces/inkscape" inkscape:groupmode="layer" id="strokes" inkscape:label="strokes">
            <path fill="none" stroke-width="3.0" stroke-linecap="butt" stroke-opacity="1.0" stroke="rgb(0, 0, 0)" stroke-linejoin="round" d=" M 131.349, 303.778 132.596, 313.700 133.842, 323.622 135.089, 333.544 136.336, 343.466 137.582, 353.388 138.829, 363.310 140.075, 373.232 141.322, 383.154 142.568, 393.076 143.815, 402.998 145.062, 412.920 146.308, 422.842 147.555, 432.764 148.801, 442.686 150.048, 452.608 151.295, 462.530 152.541, 472.452 153.788, 482.374 155.034, 492.296 156.281, 502.218 157.528, 512.140 158.774, 522.062 160.021, 531.984 161.267, 541.906 162.514, 551.828 162.978, 555.521 171.426, 560.873 179.874, 566.224 188.321, 571.575 196.769, 576.926 205.217, 582.277 213.665, 587.629 222.112, 592.980 230.560, 598.331 239.008, 603.682 247.456, 609.033 255.903, 614.385 264.351, 619.736 272.799, 625.087 281.247, 630.438 289.694, 635.789 298.142, 641.141 306.590, 646.492 316.509, 652.775 325.698, 648.831 334.888, 644.887 344.077, 640.943 353.266, 636.999 362.456, 633.055 371.645, 629.110 380.834, 625.166 390.024, 621.222 399.213, 617.278 408.402, 613.334 417.592, 609.390 426.781, 605.446 435.970, 601.502 445.160, 597.558 454.349, 593.614 463.539, 589.669 472.728, 585.725 481.917, 581.781 491.107, 577.837 500.296, 573.893 509.485, 569.949 518.675, 566.005 527.864, 562.061 531.495, 560.502 531.467, 550.502 531.438, 540.502 531.410, 530.503 531.382, 520.503 531.353, 510.503 531.325, 500.503 531.296, 490.503 531.268, 480.503 531.240, 470.503 531.211, 460.503 531.183, 450.503 531.154, 440.503 531.126, 430.503 531.098, 420.503 531.069, 410.503 531.041, 400.503 531.013, 390.503 530.984, 380.503 530.956, 370.503 530.927, 360.503 530.899, 350.503 530.871, 340.503 530.842, 330.503 530.814, 320.503 530.785, 310.503 530.777, 307.394 521.272, 304.286 511.767, 301.178 502.262, 298.070 492.757, 294.963 483.253, 291.855 473.748, 288.747 464.243, 285.639 454.738, 282.531 445.234, 279.423 435.729, 276.315 426.224, 273.207 416.719, 270.099 407.214, 266.991 397.710, 263.883 388.205, 260.775 378.700, 257.667 369.195, 254.560 358.050, 250.915 348.311, 253.186 338.572, 255.457 328.833, 257.728 319.095, 259.999 309.356, 262.270 299.617, 264.541 289.878, 266.812 280.140, 269.083 270.401, 271.354 260.662, 273.624 250.924, 275.895 241.185, 278.166 231.446, 280.437 221.707, 282.708 211.969, 284.979 202.230, 287.250 192.491, 289.521 182.752, 291.792 173.014, 294.063 163.275, 296.334 153.536, 298.605 143.798, 300.876 134.059, 303.147 131.349, 303.778 " />
            <path fill="none" stroke-width="3.0" stroke-linecap="butt" stroke-opacity="1.0" stroke="rgb(0, 0, 0)" stroke-linejoin="round" d=" M 530.777, 307.394 521.165, 310.156 511.554, 312.918 501.943, 315.679 492.332, 318.441 482.721, 321.203 473.110, 323.965 463.499, 326.726 453.888, 329.488 444.277, 332.250 434.666, 335.011 425.055, 337.773 415.444, 340.535 405.832, 343.297 396.221, 346.058 386.610, 348.820 376.999, 351.582 367.388, 354.344 357.777, 357.105 348.166, 359.867 338.555, 362.629 328.944, 365.390 319.333, 368.152 309.722, 370.914 300.111, 373.676 295.136, 375.105 " />
            <path fill="none" stroke-width="3.0" stroke-linecap="butt" stroke-opacity="1.0" stroke="rgb(0, 0, 0)" stroke-linejoin="round" d=" M 131.349, 303.778 140.518, 307.771 149.686, 311.764 158.854, 315.756 168.023, 319.749 177.191, 323.742 186.359, 327.734 195.528, 331.727 204.696, 335.720 213.864, 339.712 223.033, 343.705 232.201, 347.698 241.369, 351.690 250.538, 355.683 259.706, 359.676 268.874, 363.668 278.043, 367.661 287.211, 371.654 295.136, 375.105 295.904, 385.075 296.671, 395.046 297.439, 405.016 298.206, 414.987 298.974, 424.957 299.741, 434.928 300.508, 444.898 301.276, 454.869 302.043, 464.839 302.811, 474.810 303.578, 484.780 304.346, 494.751 305.113, 504.721 305.881, 514.692 306.648, 524.662 307.415, 534.633 308.183, 544.604 308.950, 554.574 309.718, 564.544 310.485, 574.515 311.253, 584.486 312.020, 594.456 312.788, 604.427 313.555, 614.397 314.322, 624.368 315.090, 634.338 315.857, 644.309 316.509, 652.775 " />
        </g>
    </g>
</svg>
