<?xml version='1.0' encoding='ascii'?>
<svg xmlns="http://www.w3.org/2000/svg" version="1.1" width="1080" height="1080">
    <g id="ViewLayer_LineSet" xmlns:inkscape="http://www.inkscape.org/namespaces/inkscape" inkscape:groupmode="lineset" inkscape:label="ViewLayer_LineSet">
        <g xmlns:inkscape="http://www.inkscape.org/namespaces/inkscape" inkscape:groupmode="layer" id="strokes" inkscape:label="strokes">
            <path fill="none" stroke-width="3.0" stroke-linecap="butt" stroke-opacity="1.0" stroke="rgb(0, 0, 0)" stroke-linejoin="round" d=" M -19.429, 439.976 -9.791, 437.312 -0.152, 434.648 9.486, 431.983 19.125, 429.319 28.763, 426.655 38.402, 423.990 48.040, 421.326 57.679, 418.662 67.318, 415.997 76.956, 413.333 86.595, 410.669 96.233, 408.004 105.872, 405.340 115.510, 402.675 125.149, 400.011 134.787, 397.347 144.426, 394.682 154.064, 392.018 163.703, 389.354 174.600, 386.341 173.455, 376.407 172.310, 366.473 171.165, 356.539 170.020, 346.605 168.875, 336.670 167.730, 326.736 166.584, 316.802 165.439, 306.868 164.294, 296.933 163.149, 286.999 162.004, 277.065 160.859, 267.131 159.714, 257.197 158.569, 247.262 157.424, 237.328 156.279, 227.394 155.134, 217.460 153.988, 207.525 152.843, 197.591 151.698, 187.657 151.193, 183.276 141.688, 180.168 132.184, 177.060 122.679, 173.952 113.174, 170.844 103.669, 167.736 94.165, 164.628 84.660, 161.521 75.155, 158.413 65.650, 155.305 56.145, 152.197 49.182, 149.920 39.303, 151.470 29.424, 153.020 19.544, 154.570 9.665, 156.120 -0.214, 157.670 -10.093, 159.220 -19.972, 160.770 -29.851, 162.320 -39.730, 163.870 -49.609, 165.420 -59.489, 166.970 -69.368, 168.520 -79.247, 170.070 -89.126, 171.620 -99.005, 173.170 -108.884, 174.720 -118.763, 176.270 -128.643, 177.820 -138.522, 179.371 -150.142, 181.194 " />
            <path fill="none" stroke-width="3.0" stroke-linecap="butt" stroke-opacity="1.0" stroke="rgb(0, 0, 0)" stroke-linejoin="round" d=" M 151.193, 183.276 141.351, 185.045 131.509, 186.813 121.666, 188.582 111.824, 190.350 101.981, 192.119 92.139, 193.887 82.297, 195.656 72.454, 197.425 62.612, 199.193 52.770, 200.962 42.927, 202.730 33.085, 204.499 23.242, 206.267 13.400, 208.036 3.558, 209.805 -6.285, 211.573 -16.127, 213.342 -25.969, 215.110 -35.812, 216.879 -45.654, 218.647 -55.496, 220.416 -58.739, 220.999 " />
        </g>
    </g>
</svg>
