<?xml version='1.0' encoding='ascii'?>
<svg xmlns="http://www.w3.org/2000/svg" version="1.1" width="1080" height="1080">
    <g id="ViewLayer_LineSet" xmlns:inkscape="http://www.inkscape.org/namespaces/inkscape" inkscape:groupmode="lineset" inkscape:label="ViewLayer_LineSet">
        <g xmlns:inkscape="http://www.inkscape.org/namespaces/inkscape" inkscape:groupmode="layer" id="strokes" inkscape:label="strokes">
            <path fill="none" stroke-width="3.0" stroke-linecap="butt" stroke-opacity="1.0" stroke="rgb(0, 0, 0)" stroke-linejoin="round" d=" M -18.334, 440.670 -8.696, 438.002 0.941, 435.334 10.579, 432.666 20.216, 429.998 29.854, 427.329 39.491, 424.661 49.128, 421.993 58.766, 419.325 68.403, 416.657 78.041, 413.989 87.678, 411.320 97.316, 408.652 106.953, 405.984 116.591, 403.316 126.228, 400.648 135.866, 397.980 145.503, 395.311 155.141, 392.643 164.778, 389.975 175.796, 386.925 174.654, 376.990 173.512, 367.056 172.371, 357.121 171.229, 347.186 170.088, 337.252 168.946, 327.317 167.804, 317.382 166.663, 307.448 165.521, 297.513 164.380, 287.579 163.238, 277.644 162.096, 267.709 160.955, 257.775 159.813, 247.840 158.672, 237.905 157.530, 227.971 156.388, 218.036 155.247, 208.102 154.105, 198.167 152.964, 188.232 152.441, 183.684 142.936, 180.576 133.431, 177.468 123.927, 174.360 114.422, 171.252 104.917, 168.144 95.412, 165.036 85.907, 161.929 76.403, 158.821 66.898, 155.713 57.393, 152.605 50.225, 150.261 40.346, 151.813 30.467, 153.365 20.588, 154.917 10.710, 156.470 0.831, 158.022 -9.048, 159.574 -18.927, 161.126 -28.806, 162.678 -38.684, 164.230 -48.563, 165.783 -58.442, 167.335 -68.321, 168.887 -78.200, 170.439 -88.078, 171.991 -97.957, 173.544 -107.836, 175.096 -117.715, 176.648 -127.594, 178.200 -137.473, 179.752 -149.215, 181.597 " />
            <path fill="none" stroke-width="3.0" stroke-linecap="butt" stroke-opacity="1.0" stroke="rgb(0, 0, 0)" stroke-linejoin="round" d=" M 152.441, 183.684 142.599, 185.455 132.757, 187.227 122.915, 188.998 113.073, 190.769 103.232, 192.541 93.390, 194.312 83.548, 196.083 73.706, 197.855 63.864, 199.626 54.022, 201.398 44.180, 203.169 34.338, 204.940 24.497, 206.712 14.655, 208.483 4.813, 210.254 -5.029, 212.026 -14.871, 213.797 -24.713, 215.568 -34.555, 217.340 -44.396, 219.111 -54.238, 220.882 -57.611, 221.489 " />
        </g>
    </g>
</svg>
