<?xml version='1.0' encoding='ascii'?>
<svg xmlns="http://www.w3.org/2000/svg" version="1.1" width="1080" height="1080">
    <g id="ViewLayer_LineSet" xmlns:inkscape="http://www.inkscape.org/namespaces/inkscape" inkscape:groupmode="lineset" inkscape:label="ViewLayer_LineSet">
        <g xmlns:inkscape="http://www.inkscape.org/namespaces/inkscape" inkscape:groupmode="layer" id="strokes" inkscape:label="strokes">
            <path fill="none" stroke-width="3.0" stroke-linecap="butt" stroke-opacity="1.0" stroke="rgb(0, 0, 0)" stroke-linejoin="round" d=" M 107.742, 293.498 109.055, 303.411 110.369, 313.325 111.682, 323.238 112.995, 333.151 114.309, 343.065 115.622, 352.978 116.935, 362.892 118.248, 372.805 119.562, 382.718 120.875, 392.632 122.188, 402.545 123.502, 412.459 124.815, 422.372 126.128, 432.285 127.442, 442.199 128.755, 452.112 130.068, 462.025 131.382, 471.939 132.695, 481.852 134.008, 491.766 135.322, 501.679 136.635, 511.592 137.948, 521.506 139.261, 531.419 140.574, 541.330 149.022, 546.681 157.470, 552.032 165.918, 557.384 174.365, 562.735 182.813, 568.086 191.261, 573.437 199.709, 578.788 208.157, 584.140 216.604, 589.491 225.052, 594.842 233.500, 600.193 241.948, 605.544 250.395, 610.896 258.843, 616.247 267.291, 621.598 275.739, 626.949 284.186, 632.300 288.085, 634.770 297.323, 630.942 306.562, 627.115 315.800, 623.287 325.039, 619.459 334.277, 615.632 343.516, 611.804 352.754, 607.976 361.992, 604.149 371.231, 600.321 380.469, 596.493 389.708, 592.666 398.946, 588.838 408.185, 585.010 417.423, 581.183 426.662, 577.355 435.900, 573.527 445.139, 569.700 454.377, 565.872 463.616, 562.044 472.854, 558.217 482.092, 554.389 491.331, 550.562 502.036, 546.126 501.909, 536.127 501.783, 526.128 501.657, 516.129 501.531, 506.130 501.405, 496.130 501.279, 486.131 501.153, 476.132 501.027, 466.133 500.901, 456.134 500.774, 446.134 500.648, 436.135 500.522, 426.136 500.396, 416.137 500.270, 406.138 500.144, 396.138 500.018, 386.139 499.892, 376.140 499.766, 366.141 499.639, 356.142 499.513, 346.142 499.387, 336.143 499.261, 326.144 499.135, 316.145 499.009, 306.146 498.893, 296.969 489.388, 293.861 479.884, 290.753 470.379, 287.645 460.874, 284.537 451.369, 281.429 441.865, 278.321 432.360, 275.213 422.855, 272.105 413.350, 268.998 403.845, 265.890 394.341, 262.782 384.836, 259.674 375.331, 256.566 365.826, 253.458 356.322, 250.350 346.817, 247.242 337.312, 244.134 332.740, 242.639 322.986, 244.844 313.232, 247.049 303.478, 249.253 293.724, 251.458 283.970, 253.663 274.216, 255.868 264.462, 258.073 254.708, 260.277 244.954, 262.482 235.200, 264.687 225.447, 266.892 215.693, 269.097 205.939, 271.301 196.185, 273.506 186.431, 275.711 176.677, 277.916 166.923, 280.121 157.169, 282.325 147.415, 284.530 137.661, 286.735 127.907, 288.940 118.153, 291.144 107.742, 293.498 " />
            <path fill="none" stroke-width="3.0" stroke-linecap="butt" stroke-opacity="1.0" stroke="rgb(0, 0, 0)" stroke-linejoin="round" d=" M 498.893, 296.969 489.255, 299.635 479.617, 302.300 469.979, 304.966 460.341, 307.632 450.702, 310.297 441.064, 312.963 431.426, 315.629 421.788, 318.294 412.150, 320.960 402.512, 323.626 392.873, 326.291 383.235, 328.957 373.597, 331.623 363.959, 334.288 354.321, 336.954 344.683, 339.620 335.044, 342.285 325.406, 344.951 315.768, 347.617 306.130, 350.282 296.492, 352.948 286.854, 355.614 277.216, 358.279 267.577, 360.945 264.546, 361.783 " />
            <path fill="none" stroke-width="3.0" stroke-linecap="butt" stroke-opacity="1.0" stroke="rgb(0, 0, 0)" stroke-linejoin="round" d=" M 107.742, 293.498 116.910, 297.491 126.079, 301.483 135.247, 305.476 144.415, 309.469 153.584, 313.461 162.752, 317.454 171.920, 321.446 181.089, 325.439 190.257, 329.432 199.425, 333.424 208.594, 337.417 217.762, 341.410 226.931, 345.402 236.099, 349.395 245.267, 353.388 254.436, 357.380 264.546, 361.783 265.405, 371.746 266.265, 381.710 267.124, 391.673 267.983, 401.636 268.842, 411.599 269.701, 421.562 270.560, 431.525 271.419, 441.488 272.278, 451.451 273.137, 461.414 273.996, 471.377 274.855, 481.340 275.714, 491.303 276.573, 501.266 277.432, 511.229 278.291, 521.192 279.151, 531.155 280.010, 541.118 280.869, 551.081 281.728, 561.044 282.587, 571.007 283.446, 580.970 284.305, 590.933 285.164, 600.896 286.023, 610.859 286.882, 620.822 287.741, 630.785 288.085, 634.770 " />
        </g>
    </g>
</svg>
