<?xml version='1.0' encoding='ascii'?>
<svg xmlns="http://www.w3.org/2000/svg" version="1.1" width="1080" height="1080">
    <g id="ViewLayer_LineSet" xmlns:inkscape="http://www.inkscape.org/namespaces/inkscape" inkscape:groupmode="lineset" inkscape:label="ViewLayer_LineSet">
        <g xmlns:inkscape="http://www.inkscape.org/namespaces/inkscape" inkscape:groupmode="layer" id="strokes" inkscape:label="strokes">
            <path fill="none" stroke-width="3.0" stroke-linecap="butt" stroke-opacity="1.0" stroke="rgb(0, 0, 0)" stroke-linejoin="round" d=" M -114.441, 379.792 -104.719, 377.450 -94.997, 375.108 -85.275, 372.766 -75.553, 370.425 -65.831, 368.083 -56.109, 365.741 -46.387, 363.399 -36.665, 361.058 -26.943, 358.716 -17.221, 356.374 -7.499, 354.032 2.223, 351.690 11.945, 349.349 21.667, 347.007 31.389, 344.665 41.110, 342.323 50.832, 339.982 60.554, 337.640 70.092, 335.343 68.648, 325.447 67.205, 315.552 65.761, 305.657 64.317, 295.761 62.874, 285.866 61.430, 275.971 59.987, 266.076 58.543, 256.180 57.099, 246.285 55.656, 236.390 54.212, 226.495 52.769, 216.599 51.325, 206.704 49.881, 196.809 48.438, 186.914 46.994, 177.018 45.551, 167.123 44.107, 157.228 42.733, 147.811 33.228, 144.703 23.724, 141.595 14.219, 138.487 4.714, 135.379 -4.791, 132.272 -14.296, 129.164 -23.800, 126.056 -33.305, 122.948 -42.198, 120.040 " />
            <path fill="none" stroke-width="3.0" stroke-linecap="butt" stroke-opacity="1.0" stroke="rgb(0, 0, 0)" stroke-linejoin="round" d=" M 42.733, 147.811 32.852, 149.348 22.971, 150.885 13.089, 152.422 3.208, 153.958 -6.673, 155.495 -16.554, 157.032 -26.435, 158.569 -36.317, 160.106 -46.198, 161.642 -56.079, 163.179 -65.960, 164.716 -75.841, 166.253 -85.723, 167.790 -95.604, 169.326 -105.485, 170.863 -115.366, 172.400 -125.247, 173.937 -135.129, 175.474 -145.010, 177.010 -155.870, 178.700 " />
        </g>
    </g>
</svg>
