<?xml version='1.0' encoding='ascii'?>
<svg xmlns="http://www.w3.org/2000/svg" version="1.1" width="1080" height="1080">
    <g id="ViewLayer_LineSet" xmlns:inkscape="http://www.inkscape.org/namespaces/inkscape" inkscape:groupmode="lineset" inkscape:label="ViewLayer_LineSet">
        <g xmlns:inkscape="http://www.inkscape.org/namespaces/inkscape" inkscape:groupmode="layer" id="strokes" inkscape:label="strokes">
            <path fill="none" stroke-width="3.0" stroke-linecap="butt" stroke-opacity="1.0" stroke="rgb(0, 0, 0)" stroke-linejoin="round" d=" M 90.440, 285.963 91.802, 295.870 93.164, 305.777 94.526, 315.684 95.888, 325.591 97.250, 335.498 98.611, 345.404 99.973, 355.311 101.335, 365.218 102.697, 375.125 104.059, 385.032 105.421, 394.939 106.782, 404.845 108.144, 414.752 109.506, 424.659 110.868, 434.566 112.230, 444.473 113.592, 454.380 114.953, 464.286 116.315, 474.193 117.677, 484.100 119.039, 494.007 120.401, 503.914 121.763, 513.821 123.124, 523.727 124.110, 530.901 132.558, 536.252 141.006, 541.603 149.454, 546.955 157.902, 552.306 166.349, 557.657 174.797, 563.008 183.245, 568.359 191.693, 573.711 200.140, 579.062 208.588, 584.413 217.036, 589.764 225.484, 595.115 233.931, 600.467 242.379, 605.818 250.827, 611.169 259.275, 616.520 267.282, 621.593 276.555, 617.849 285.828, 614.106 295.101, 610.363 304.374, 606.619 313.647, 602.876 322.920, 599.133 332.193, 595.389 341.466, 591.646 350.739, 587.903 360.012, 584.159 369.285, 580.416 378.558, 576.673 387.831, 572.929 397.103, 569.186 406.376, 565.443 415.649, 561.699 424.922, 557.956 434.195, 554.212 443.468, 550.469 452.741, 546.726 462.014, 542.982 471.287, 539.239 480.391, 535.564 480.193, 525.566 479.996, 515.568 479.799, 505.570 479.602, 495.572 479.404, 485.574 479.207, 475.576 479.010, 465.578 478.812, 455.580 478.615, 445.582 478.418, 435.583 478.221, 425.585 478.023, 415.587 477.826, 405.589 477.629, 395.591 477.431, 385.593 477.234, 375.595 477.037, 365.597 476.840, 355.599 476.642, 345.601 476.445, 335.603 476.248, 325.605 476.050, 315.607 475.853, 305.609 475.656, 295.611 475.532, 289.330 466.027, 286.222 456.522, 283.114 447.017, 280.006 437.513, 276.898 428.008, 273.790 418.503, 270.682 408.998, 267.575 399.494, 264.467 389.989, 261.359 380.484, 258.251 370.979, 255.143 361.474, 252.035 351.970, 248.927 342.465, 245.819 332.960, 242.711 323.455, 239.603 314.123, 236.552 304.358, 238.709 294.593, 240.866 284.829, 243.023 275.064, 245.180 265.300, 247.337 255.535, 249.494 245.770, 251.651 236.006, 253.808 226.241, 255.965 216.477, 258.122 206.712, 260.279 196.948, 262.436 187.183, 264.593 177.418, 266.750 167.654, 268.907 157.889, 271.064 148.125, 273.221 138.360, 275.378 128.595, 277.535 118.831, 279.692 109.066, 281.849 99.302, 284.006 90.440, 285.963 " />
            <path fill="none" stroke-width="3.0" stroke-linecap="butt" stroke-opacity="1.0" stroke="rgb(0, 0, 0)" stroke-linejoin="round" d=" M 475.532, 289.330 465.875, 291.927 456.218, 294.524 446.561, 297.121 436.904, 299.718 427.247, 302.315 417.590, 304.912 407.933, 307.509 398.277, 310.106 388.620, 312.702 378.963, 315.299 369.306, 317.896 359.649, 320.493 349.992, 323.090 340.335, 325.687 330.678, 328.284 321.021, 330.881 311.364, 333.478 301.707, 336.075 292.051, 338.672 282.394, 341.269 272.737, 343.866 263.080, 346.463 253.423, 349.059 242.236, 352.068 " />
            <path fill="none" stroke-width="3.0" stroke-linecap="butt" stroke-opacity="1.0" stroke="rgb(0, 0, 0)" stroke-linejoin="round" d=" M 90.440, 285.963 99.609, 289.956 108.777, 293.949 117.945, 297.941 127.114, 301.934 136.282, 305.927 145.451, 309.919 154.619, 313.912 163.787, 317.905 172.956, 321.897 182.124, 325.890 191.292, 329.883 200.461, 333.875 209.629, 337.868 218.797, 341.861 227.966, 345.853 237.134, 349.846 242.236, 352.068 243.162, 362.025 244.087, 371.982 245.012, 381.939 245.937, 391.896 246.863, 401.853 247.788, 411.810 248.713, 421.767 249.638, 431.725 250.564, 441.682 251.489, 451.639 252.414, 461.596 253.340, 471.553 254.265, 481.510 255.190, 491.467 256.115, 501.424 257.041, 511.381 257.966, 521.339 258.891, 531.296 259.817, 541.253 260.742, 551.210 261.667, 561.167 262.592, 571.124 263.518, 581.081 264.443, 591.038 265.368, 600.995 266.294, 610.952 267.282, 621.593 " />
        </g>
    </g>
</svg>
