<?xml version='1.0' encoding='ascii'?>
<svg xmlns="http://www.w3.org/2000/svg" version="1.1" width="1080" height="1080">
    <g id="ViewLayer_LineSet" xmlns:inkscape="http://www.inkscape.org/namespaces/inkscape" inkscape:groupmode="lineset" inkscape:label="ViewLayer_LineSet">
        <g xmlns:inkscape="http://www.inkscape.org/namespaces/inkscape" inkscape:groupmode="layer" id="strokes" inkscape:label="strokes">
            <path fill="none" stroke-width="3.0" stroke-linecap="butt" stroke-opacity="1.0" stroke="rgb(0, 0, 0)" stroke-linejoin="round" d=" M -92.718, 393.552 -83.014, 391.138 -73.310, 388.724 -63.605, 386.310 -53.901, 383.896 -44.197, 381.482 -34.492, 379.068 -24.788, 376.654 -15.084, 374.240 -5.380, 371.826 4.325, 369.412 14.029, 366.998 23.733, 364.584 33.437, 362.170 43.142, 359.756 52.846, 357.342 62.550, 354.928 72.254, 352.514 81.959, 350.100 91.663, 347.686 94.129, 347.072 92.753, 337.168 91.377, 327.263 90.001, 317.358 88.625, 307.453 87.249, 297.548 85.872, 287.643 84.496, 277.738 83.120, 267.833 81.744, 257.929 80.368, 248.024 78.992, 238.119 77.616, 228.214 76.240, 218.309 74.864, 208.404 73.488, 198.499 72.111, 188.595 70.735, 178.690 69.359, 168.785 67.983, 158.880 67.574, 155.934 58.069, 152.826 48.564, 149.718 39.059, 146.610 29.555, 143.502 20.050, 140.394 10.545, 137.286 1.040, 134.178 -8.464, 131.070 -17.969, 127.962 -21.142, 126.925 " />
            <path fill="none" stroke-width="3.0" stroke-linecap="butt" stroke-opacity="1.0" stroke="rgb(0, 0, 0)" stroke-linejoin="round" d=" M 67.574, 155.934 57.701, 157.522 47.828, 159.110 37.955, 160.698 28.081, 162.286 18.208, 163.874 8.335, 165.463 -1.538, 167.051 -11.411, 168.639 -21.284, 170.227 -31.157, 171.815 -41.030, 173.403 -50.903, 174.991 -60.776, 176.580 -70.649, 178.168 -80.522, 179.756 -90.396, 181.344 -100.269, 182.932 -110.142, 184.520 -120.015, 186.108 -129.888, 187.697 -133.774, 188.322 " />
        </g>
    </g>
</svg>
