<?xml version='1.0' encoding='ascii'?>
<svg xmlns="http://www.w3.org/2000/svg" version="1.1" width="1080" height="1080">
    <g id="ViewLayer_LineSet" xmlns:inkscape="http://www.inkscape.org/namespaces/inkscape" inkscape:groupmode="lineset" inkscape:label="ViewLayer_LineSet">
        <g xmlns:inkscape="http://www.inkscape.org/namespaces/inkscape" inkscape:groupmode="layer" id="strokes" inkscape:label="strokes">
            <path fill="none" stroke-width="3.0" stroke-linecap="butt" stroke-opacity="1.0" stroke="rgb(0, 0, 0)" stroke-linejoin="round" d=" M -0.494, 451.971 7.954, 457.322 16.402, 462.673 24.849, 468.024 33.297, 473.376 41.745, 478.727 50.193, 484.078 58.640, 489.429 67.088, 494.780 75.536, 500.132 83.984, 505.483 92.432, 510.834 100.879, 516.185 109.327, 521.536 112.162, 523.332 121.657, 520.193 131.151, 517.052 140.645, 513.913 150.139, 510.773 159.634, 507.633 169.128, 504.493 178.622, 501.353 188.116, 498.213 197.610, 495.073 207.105, 491.933 216.599, 488.793 226.093, 485.653 235.587, 482.513 245.082, 479.373 254.576, 476.233 264.070, 473.093 273.564, 469.953 283.059, 466.813 292.553, 463.673 302.047, 460.533 311.541, 457.393 316.703, 455.686 315.984, 445.712 315.266, 435.738 314.548, 425.763 313.829, 415.789 313.111, 405.815 312.393, 395.841 311.674, 385.867 310.956, 375.893 310.238, 365.918 309.520, 355.944 308.801, 345.970 308.083, 335.996 307.365, 326.022 306.646, 316.047 305.928, 306.073 305.210, 296.099 304.491, 286.125 303.773, 276.151 303.055, 266.177 302.337, 256.203 301.618, 246.228 300.900, 236.254 300.603, 232.131 291.098, 229.023 281.593, 225.915 272.089, 222.807 262.584, 219.699 253.079, 216.591 243.574, 213.483 234.070, 210.375 224.565, 207.267 215.060, 204.160 205.555, 201.052 196.050, 197.944 186.546, 194.836 177.041, 191.728 172.750, 190.325 162.917, 192.142 153.083, 193.959 143.250, 195.776 133.416, 197.593 123.583, 199.410 113.749, 201.227 103.916, 203.044 94.082, 204.861 84.249, 206.678 74.415, 208.496 64.581, 210.313 54.748, 212.130 44.914, 213.947 35.081, 215.764 25.247, 217.581 15.414, 219.398 5.580, 221.215 -4.253, 223.032 -14.087, 224.849 -23.920, 226.666 -33.754, 228.483 -39.228, 229.495 " />
            <path fill="none" stroke-width="3.0" stroke-linecap="butt" stroke-opacity="1.0" stroke="rgb(0, 0, 0)" stroke-linejoin="round" d=" M 300.603, 232.131 290.831, 234.254 281.059, 236.376 271.287, 238.499 261.515, 240.622 251.743, 242.745 241.970, 244.867 232.198, 246.990 222.426, 249.113 212.654, 251.236 202.882, 253.359 193.110, 255.481 183.338, 257.604 173.566, 259.727 163.794, 261.850 154.022, 263.972 144.249, 266.095 134.477, 268.218 124.705, 270.341 114.933, 272.464 105.161, 274.586 95.389, 276.709 85.617, 278.832 77.909, 280.506 " />
            <path fill="none" stroke-width="3.0" stroke-linecap="butt" stroke-opacity="1.0" stroke="rgb(0, 0, 0)" stroke-linejoin="round" d=" M -39.228, 229.495 -30.060, 233.487 -20.892, 237.480 -11.723, 241.473 -2.555, 245.465 6.613, 249.458 15.782, 253.451 24.950, 257.443 34.118, 261.436 43.287, 265.429 52.455, 269.421 61.623, 273.414 70.792, 277.407 77.909, 280.506 79.306, 290.408 80.703, 300.310 82.100, 310.212 83.496, 320.114 84.893, 330.016 86.290, 339.918 87.687, 349.820 89.083, 359.722 90.480, 369.624 91.877, 379.526 93.274, 389.428 94.671, 399.330 96.067, 409.232 97.464, 419.134 98.861, 429.036 100.258, 438.938 101.654, 448.840 103.051, 458.742 104.448, 468.644 105.845, 478.546 107.241, 488.448 108.638, 498.350 110.035, 508.252 111.432, 518.154 112.162, 523.332 " />
        </g>
    </g>
</svg>
