<?xml version='1.0' encoding='ascii'?>
<svg xmlns="http://www.w3.org/2000/svg" version="1.1" width="1080" height="1080">
    <g id="ViewLayer_LineSet" xmlns:inkscape="http://www.inkscape.org/namespaces/inkscape" inkscape:groupmode="lineset" inkscape:label="ViewLayer_LineSet">
        <g xmlns:inkscape="http://www.inkscape.org/namespaces/inkscape" inkscape:groupmode="layer" id="strokes" inkscape:label="strokes">
            <path fill="none" stroke-width="3.0" stroke-linecap="butt" stroke-opacity="1.0" stroke="rgb(0, 0, 0)" stroke-linejoin="round" d=" M -4.713, 449.298 4.911, 446.583 14.535, 443.867 24.160, 441.151 33.784, 438.435 43.408, 435.719 53.032, 433.003 62.656, 430.287 72.280, 427.571 81.904, 424.856 91.529, 422.140 101.153, 419.424 110.777, 416.708 120.401, 413.992 130.025, 411.276 139.649, 408.560 149.273, 405.845 158.898, 403.129 168.522, 400.413 178.146, 397.697 187.770, 394.981 190.643, 394.170 189.545, 384.231 188.447, 374.291 187.349, 364.352 186.251, 354.412 185.153, 344.473 184.054, 334.533 182.956, 324.594 181.858, 314.654 180.760, 304.715 179.662, 294.775 178.564, 284.836 177.466, 274.896 176.368, 264.956 175.270, 255.017 174.171, 245.077 173.073, 235.138 171.975, 225.198 170.877, 215.259 169.779, 205.319 168.681, 195.380 167.949, 188.755 158.444, 185.647 148.939, 182.539 139.435, 179.431 129.930, 176.323 120.425, 173.215 110.920, 170.107 101.415, 166.999 91.911, 163.892 82.406, 160.784 72.901, 157.676 63.172, 154.494 53.297, 156.073 43.423, 157.652 33.548, 159.231 23.673, 160.810 13.799, 162.389 3.924, 163.968 -5.950, 165.547 -15.825, 167.126 -25.699, 168.705 -35.574, 170.284 -45.448, 171.863 -55.323, 173.442 -65.198, 175.021 -75.072, 176.600 -84.947, 178.179 -94.821, 179.758 -104.696, 181.337 -114.570, 182.916 -124.445, 184.495 -134.319, 186.074 -137.696, 186.614 " />
            <path fill="none" stroke-width="3.0" stroke-linecap="butt" stroke-opacity="1.0" stroke="rgb(0, 0, 0)" stroke-linejoin="round" d=" M 167.949, 188.755 158.113, 190.561 148.278, 192.367 138.442, 194.173 128.607, 195.980 118.771, 197.786 108.936, 199.592 99.100, 201.398 89.265, 203.204 79.429, 205.011 69.594, 206.817 59.758, 208.623 49.923, 210.429 40.087, 212.235 30.251, 214.042 20.416, 215.848 10.580, 217.654 0.745, 219.460 -9.091, 221.266 -18.926, 223.072 -28.762, 224.879 -38.597, 226.685 -43.580, 227.600 " />
        </g>
    </g>
</svg>
