<?xml version='1.0' encoding='ascii'?>
<svg xmlns="http://www.w3.org/2000/svg" version="1.1" width="1080" height="1080">
    <g id="ViewLayer_LineSet" xmlns:inkscape="http://www.inkscape.org/namespaces/inkscape" inkscape:groupmode="lineset" inkscape:label="ViewLayer_LineSet">
        <g xmlns:inkscape="http://www.inkscape.org/namespaces/inkscape" inkscape:groupmode="layer" id="strokes" inkscape:label="strokes">
            <path fill="none" stroke-width="3.0" stroke-linecap="butt" stroke-opacity="1.0" stroke="rgb(0, 0, 0)" stroke-linejoin="round" d=" M -58.355, 415.319 -48.680, 412.789 -39.006, 410.259 -29.331, 407.729 -19.657, 405.199 -9.982, 402.668 -0.307, 400.138 9.367, 397.608 19.042, 395.078 28.717, 392.548 38.391, 390.018 48.066, 387.488 57.741, 384.958 67.415, 382.428 77.090, 379.898 86.764, 377.368 96.439, 374.837 106.114, 372.307 115.788, 369.777 125.463, 367.247 131.980, 365.543 130.711, 355.624 129.443, 345.705 128.174, 335.785 126.906, 325.866 125.637, 315.947 124.369, 306.028 123.101, 296.108 121.832, 286.189 120.564, 276.270 119.295, 266.351 118.027, 256.432 116.759, 246.512 115.490, 236.593 114.222, 226.674 112.953, 216.755 111.685, 206.835 110.417, 196.916 109.148, 186.997 107.880, 177.078 106.817, 168.766 97.312, 165.658 87.807, 162.550 78.302, 159.442 68.798, 156.334 59.293, 153.226 49.788, 150.118 40.283, 147.010 30.779, 143.902 21.274, 140.794 11.967, 137.751 2.076, 139.226 -7.814, 140.700 -17.705, 142.175 -27.596, 143.649 -37.486, 145.124 -47.377, 146.599 -57.268, 148.073 -67.159, 149.548 -77.049, 151.022 -86.940, 152.497 -96.831, 153.972 -106.721, 155.446 -116.612, 156.921 -126.503, 158.395 -136.393, 159.870 -146.284, 161.344 -156.175, 162.819 -166.065, 164.294 -175.956, 165.768 -183.114, 166.835 " />
            <path fill="none" stroke-width="3.0" stroke-linecap="butt" stroke-opacity="1.0" stroke="rgb(0, 0, 0)" stroke-linejoin="round" d=" M 106.817, 168.766 96.957, 170.437 87.098, 172.108 77.239, 173.780 67.379, 175.451 57.520, 177.122 47.661, 178.794 37.801, 180.465 27.942, 182.136 18.083, 183.808 8.223, 185.479 -1.636, 187.150 -11.495, 188.822 -21.355, 190.493 -31.214, 192.164 -41.073, 193.836 -50.933, 195.507 -60.792, 197.178 -70.651, 198.849 -80.511, 200.521 -90.370, 202.192 -98.686, 203.602 " />
        </g>
    </g>
</svg>
