<?xml version='1.0' encoding='ascii'?>
<svg xmlns="http://www.w3.org/2000/svg" version="1.1" width="1080" height="1080">
    <g id="ViewLayer_LineSet" xmlns:inkscape="http://www.inkscape.org/namespaces/inkscape" inkscape:groupmode="lineset" inkscape:label="ViewLayer_LineSet">
        <g xmlns:inkscape="http://www.inkscape.org/namespaces/inkscape" inkscape:groupmode="layer" id="strokes" inkscape:label="strokes">
            <path fill="none" stroke-width="3.0" stroke-linecap="butt" stroke-opacity="1.0" stroke="rgb(0, 0, 0)" stroke-linejoin="round" d=" M 134.520, 305.159 135.757, 315.082 136.995, 325.005 138.232, 334.929 139.470, 344.852 140.708, 354.775 141.945, 364.698 143.183, 374.621 144.420, 384.544 145.658, 394.467 146.896, 404.390 148.133, 414.314 149.371, 424.237 150.608, 434.160 151.846, 444.083 153.084, 454.006 154.321, 463.929 155.559, 473.852 156.796, 483.775 158.034, 493.698 159.271, 503.622 160.509, 513.545 161.747, 523.468 162.984, 533.391 164.222, 543.314 165.459, 553.237 165.982, 557.424 174.429, 562.775 182.877, 568.126 191.325, 573.478 199.773, 578.829 208.220, 584.180 216.668, 589.531 225.116, 594.882 233.564, 600.234 242.011, 605.585 250.459, 610.936 258.907, 616.287 267.355, 621.638 275.802, 626.990 284.250, 632.341 292.698, 637.692 301.146, 643.043 309.594, 648.394 318.041, 653.746 320.330, 655.195 329.513, 651.236 338.695, 647.276 347.878, 643.316 357.060, 639.356 366.243, 635.396 375.425, 631.436 384.608, 627.477 393.791, 623.517 402.973, 619.557 412.156, 615.597 421.338, 611.637 430.521, 607.677 439.703, 603.717 448.886, 599.758 458.069, 595.798 467.251, 591.838 476.434, 587.878 485.616, 583.918 494.799, 579.958 503.981, 575.998 513.164, 572.039 522.347, 568.079 531.529, 564.119 535.445, 562.430 535.430, 552.430 535.415, 542.430 535.400, 532.430 535.384, 522.430 535.369, 512.430 535.354, 502.430 535.339, 492.430 535.324, 482.430 535.308, 472.430 535.293, 462.430 535.278, 452.430 535.263, 442.430 535.247, 432.430 535.232, 422.430 535.217, 412.430 535.202, 402.430 535.187, 392.430 535.171, 382.430 535.156, 372.430 535.141, 362.430 535.126, 352.430 535.111, 342.430 535.095, 332.430 535.080, 322.430 535.065, 312.430 535.059, 308.795 525.555, 305.687 516.050, 302.579 506.545, 299.471 497.040, 296.363 487.536, 293.255 478.031, 290.147 468.526, 287.039 459.021, 283.931 449.516, 280.823 440.012, 277.715 430.507, 274.608 421.002, 271.500 411.497, 268.392 401.992, 265.284 392.488, 262.176 382.983, 259.068 373.478, 255.960 363.973, 252.852 361.441, 252.024 351.704, 254.304 341.968, 256.584 332.231, 258.864 322.494, 261.144 312.758, 263.423 303.021, 265.703 293.284, 267.983 283.548, 270.263 273.811, 272.543 264.074, 274.823 254.338, 277.103 244.601, 279.383 234.865, 281.663 225.128, 283.943 215.391, 286.223 205.655, 288.502 195.918, 290.782 186.181, 293.062 176.445, 295.342 166.708, 297.622 156.971, 299.902 147.235, 302.182 137.498, 304.462 134.520, 305.159 " />
            <path fill="none" stroke-width="3.0" stroke-linecap="butt" stroke-opacity="1.0" stroke="rgb(0, 0, 0)" stroke-linejoin="round" d=" M 535.059, 308.795 525.452, 311.570 515.845, 314.344 506.237, 317.119 496.630, 319.894 487.023, 322.669 477.416, 325.444 467.808, 328.218 458.201, 330.993 448.594, 333.768 438.986, 336.543 429.379, 339.318 419.772, 342.093 410.164, 344.867 400.557, 347.642 390.950, 350.417 381.342, 353.192 371.735, 355.967 362.128, 358.741 352.521, 361.516 342.913, 364.291 333.306, 367.066 323.699, 369.841 314.091, 372.616 304.484, 375.390 299.258, 376.900 " />
            <path fill="none" stroke-width="3.0" stroke-linecap="butt" stroke-opacity="1.0" stroke="rgb(0, 0, 0)" stroke-linejoin="round" d=" M 134.520, 305.159 143.688, 309.152 152.856, 313.144 162.025, 317.137 171.193, 321.130 180.361, 325.122 189.530, 329.115 198.698, 333.108 207.867, 337.100 217.035, 341.093 226.203, 345.086 235.372, 349.078 244.540, 353.071 253.708, 357.064 262.877, 361.056 272.045, 365.049 281.213, 369.042 290.382, 373.034 299.258, 376.900 300.013, 386.871 300.768, 396.843 301.523, 406.814 302.278, 416.786 303.033, 426.757 303.788, 436.729 304.543, 446.700 305.298, 456.671 306.053, 466.643 306.808, 476.614 307.563, 486.586 308.318, 496.557 309.073, 506.529 309.828, 516.500 310.583, 526.472 311.338, 536.443 312.093, 546.415 312.848, 556.386 313.603, 566.357 314.358, 576.329 315.113, 586.300 315.868, 596.272 316.623, 606.243 317.379, 616.215 318.134, 626.186 318.889, 636.158 319.644, 646.129 320.330, 655.195 " />
        </g>
    </g>
</svg>
