<?xml version='1.0' encoding='ascii'?>
<svg xmlns="http://www.w3.org/2000/svg" version="1.1" width="1080" height="1080">
    <g id="ViewLayer_LineSet" xmlns:inkscape="http://www.inkscape.org/namespaces/inkscape" inkscape:groupmode="lineset" inkscape:label="ViewLayer_LineSet">
        <g xmlns:inkscape="http://www.inkscape.org/namespaces/inkscape" inkscape:groupmode="layer" id="strokes" inkscape:label="strokes">
            <path fill="none" stroke-width="3.0" stroke-linecap="butt" stroke-opacity="1.0" stroke="rgb(0, 0, 0)" stroke-linejoin="round" d=" M 59.402, 272.447 60.850, 282.341 62.298, 292.236 63.746, 302.131 65.194, 312.025 66.642, 321.920 68.091, 331.814 69.539, 341.709 70.987, 351.604 72.435, 361.498 73.883, 371.393 75.331, 381.287 76.779, 391.182 78.227, 401.077 79.675, 410.971 81.123, 420.866 82.571, 430.760 84.019, 440.655 85.467, 450.550 86.915, 460.444 88.364, 470.339 89.812, 480.233 91.260, 490.128 92.708, 500.023 94.480, 512.132 102.928, 517.483 111.375, 522.834 119.823, 528.185 128.271, 533.536 136.719, 538.888 145.166, 544.239 153.614, 549.590 162.062, 554.941 170.510, 560.292 178.958, 565.644 187.405, 570.995 195.853, 576.346 204.301, 581.697 212.749, 587.048 221.196, 592.400 230.026, 597.993 239.357, 594.398 248.689, 590.804 258.021, 587.210 267.353, 583.615 276.684, 580.021 286.016, 576.427 295.348, 572.832 304.679, 569.238 314.011, 565.644 323.343, 562.049 332.675, 558.455 342.006, 554.861 351.338, 551.267 360.670, 547.672 370.001, 544.078 379.333, 540.484 388.665, 536.889 397.997, 533.295 407.328, 529.701 416.660, 526.106 425.992, 522.512 435.323, 518.918 441.446, 516.559 441.122, 506.565 440.798, 496.570 440.474, 486.575 440.150, 476.580 439.826, 466.586 439.502, 456.591 439.178, 446.596 438.854, 436.601 438.530, 426.607 438.206, 416.612 437.882, 406.617 437.558, 396.622 437.234, 386.628 436.909, 376.633 436.585, 366.638 436.261, 356.643 435.937, 346.649 435.613, 336.654 435.289, 326.659 434.965, 316.664 434.641, 306.670 434.317, 296.675 433.993, 286.680 433.635, 275.630 424.130, 272.522 414.625, 269.414 405.121, 266.307 395.616, 263.199 386.111, 260.091 376.606, 256.983 367.101, 253.875 357.597, 250.767 348.092, 247.659 338.587, 244.551 329.082, 241.443 319.577, 238.335 310.073, 235.227 300.568, 232.119 291.063, 229.011 280.581, 225.584 270.798, 227.657 261.015, 229.729 251.232, 231.802 241.449, 233.875 231.666, 235.948 221.884, 238.020 212.101, 240.093 202.318, 242.166 192.535, 244.239 182.752, 246.312 172.969, 248.384 163.187, 250.457 153.404, 252.530 143.621, 254.603 133.838, 256.675 124.055, 258.748 114.273, 260.821 104.490, 262.894 94.707, 264.966 84.924, 267.039 75.141, 269.112 65.358, 271.185 59.402, 272.447 " />
            <path fill="none" stroke-width="3.0" stroke-linecap="butt" stroke-opacity="1.0" stroke="rgb(0, 0, 0)" stroke-linejoin="round" d=" M 433.635, 275.630 423.946, 278.107 414.258, 280.584 404.570, 283.061 394.881, 285.538 385.193, 288.015 375.505, 290.492 365.816, 292.969 356.128, 295.446 346.439, 297.923 336.751, 300.400 327.063, 302.877 317.374, 305.354 307.686, 307.831 297.998, 310.308 288.309, 312.785 278.621, 315.262 268.932, 317.739 259.244, 320.216 249.556, 322.693 239.867, 325.170 230.179, 327.647 220.491, 330.124 210.802, 332.601 202.442, 334.738 " />
            <path fill="none" stroke-width="3.0" stroke-linecap="butt" stroke-opacity="1.0" stroke="rgb(0, 0, 0)" stroke-linejoin="round" d=" M 59.402, 272.447 68.570, 276.439 77.739, 280.432 86.907, 284.425 96.076, 288.417 105.244, 292.410 114.412, 296.403 123.581, 300.395 132.749, 304.388 141.917, 308.381 151.086, 312.373 160.254, 316.366 169.422, 320.359 178.591, 324.351 187.759, 328.344 196.927, 332.337 202.442, 334.738 203.484, 344.684 204.526, 354.629 205.568, 364.575 206.610, 374.520 207.653, 384.466 208.695, 394.411 209.737, 404.357 210.779, 414.303 211.821, 424.248 212.863, 434.194 213.905, 444.139 214.947, 454.085 215.989, 464.030 217.031, 473.976 218.073, 483.921 219.115, 493.867 220.158, 503.813 221.200, 513.758 222.242, 523.704 223.284, 533.649 224.326, 543.595 225.368, 553.540 226.410, 563.486 227.452, 573.431 228.494, 583.377 229.536, 593.323 230.026, 597.993 " />
        </g>
    </g>
</svg>
