<?xml version='1.0' encoding='ascii'?>
<svg xmlns="http://www.w3.org/2000/svg" version="1.1" width="1080" height="1080">
    <g id="ViewLayer_LineSet" xmlns:inkscape="http://www.inkscape.org/namespaces/inkscape" inkscape:groupmode="lineset" inkscape:label="ViewLayer_LineSet">
        <g xmlns:inkscape="http://www.inkscape.org/namespaces/inkscape" inkscape:groupmode="layer" id="strokes" inkscape:label="strokes">
            <path fill="none" stroke-width="3.0" stroke-linecap="butt" stroke-opacity="1.0" stroke="rgb(0, 0, 0)" stroke-linejoin="round" d=" M -26.382, 235.089 -24.701, 244.947 -23.020, 254.805 -21.339, 264.662 -19.658, 274.520 -17.977, 284.378 -16.296, 294.235 -14.615, 304.093 -12.934, 313.951 -11.253, 323.808 -9.571, 333.666 -7.890, 343.524 -6.209, 353.382 -4.528, 363.239 -2.847, 373.097 -1.166, 382.955 0.515, 392.812 2.196, 402.670 3.877, 412.528 5.558, 422.385 7.239, 432.243 8.920, 442.101 10.601, 451.958 11.947, 459.852 20.395, 465.203 28.843, 470.554 37.291, 475.905 45.738, 481.256 54.186, 486.608 62.634, 491.959 71.082, 497.310 79.529, 502.661 87.977, 508.012 96.425, 513.364 104.873, 518.715 113.320, 524.066 121.768, 529.417 127.469, 533.028 136.944, 529.831 146.419, 526.633 155.894, 523.436 165.369, 520.238 174.844, 517.041 184.319, 513.843 193.794, 510.646 203.269, 507.448 212.744, 504.251 222.219, 501.053 231.694, 497.856 241.169, 494.658 250.644, 491.461 260.119, 488.263 269.594, 485.066 279.069, 481.868 288.544, 478.671 298.019, 475.473 307.494, 472.276 316.969, 469.078 326.444, 465.881 333.036, 463.656 332.368, 453.679 331.701, 443.701 331.033, 433.723 330.365, 423.746 329.697, 413.768 329.030, 403.790 328.362, 393.813 327.694, 383.835 327.027, 373.857 326.359, 363.880 325.691, 353.902 325.023, 343.924 324.356, 333.947 323.688, 323.969 323.020, 313.991 322.353, 304.013 321.685, 294.036 321.017, 284.058 320.349, 274.080 319.682, 264.103 319.014, 254.125 318.346, 244.147 317.921, 237.794 308.416, 234.686 298.912, 231.578 289.407, 228.470 279.902, 225.362 270.397, 222.254 260.892, 219.146 251.388, 216.038 241.883, 212.930 232.378, 209.822 222.873, 206.714 213.369, 203.607 203.864, 200.499 194.359, 197.391 186.903, 194.953 177.076, 196.802 167.248, 198.651 157.421, 200.501 147.593, 202.350 137.766, 204.200 127.938, 206.049 118.111, 207.898 108.283, 209.748 98.456, 211.597 88.628, 213.446 78.801, 215.296 68.973, 217.145 59.146, 218.994 49.318, 220.844 39.491, 222.693 29.663, 224.543 19.836, 226.392 10.008, 228.241 0.181, 230.091 -9.647, 231.940 -19.474, 233.789 -26.382, 235.089 " />
            <path fill="none" stroke-width="3.0" stroke-linecap="butt" stroke-opacity="1.0" stroke="rgb(0, 0, 0)" stroke-linejoin="round" d=" M 317.921, 237.794 308.159, 239.960 298.396, 242.127 288.634, 244.294 278.871, 246.460 269.109, 248.627 259.346, 250.794 249.584, 252.961 239.822, 255.127 230.059, 257.294 220.297, 259.461 210.534, 261.627 200.772, 263.794 191.009, 265.961 181.247, 268.128 171.484, 270.294 161.722, 272.461 151.960, 274.628 142.197, 276.794 132.435, 278.961 122.672, 281.128 112.910, 283.294 103.147, 285.461 93.966, 287.499 " />
            <path fill="none" stroke-width="3.0" stroke-linecap="butt" stroke-opacity="1.0" stroke="rgb(0, 0, 0)" stroke-linejoin="round" d=" M -26.382, 235.089 -17.214, 239.082 -8.045, 243.075 1.123, 247.067 10.291, 251.060 19.460, 255.053 28.628, 259.045 37.796, 263.038 46.965, 267.031 56.133, 271.023 65.301, 275.016 74.470, 279.008 83.638, 283.001 93.966, 287.499 95.318, 297.407 96.670, 307.315 98.022, 317.223 99.374, 327.132 100.726, 337.040 102.078, 346.948 103.430, 356.856 104.782, 366.764 106.134, 376.672 107.486, 386.581 108.838, 396.489 110.190, 406.397 111.542, 416.305 112.894, 426.213 114.246, 436.122 115.598, 446.030 116.950, 455.938 118.302, 465.846 119.654, 475.754 121.006, 485.663 122.358, 495.571 123.709, 505.479 125.061, 515.387 126.413, 525.295 127.469, 533.028 " />
        </g>
    </g>
</svg>
