<?xml version='1.0' encoding='ascii'?>
<svg xmlns="http://www.w3.org/2000/svg" version="1.1" width="1080" height="1080">
    <g id="ViewLayer_LineSet" xmlns:inkscape="http://www.inkscape.org/namespaces/inkscape" inkscape:groupmode="lineset" inkscape:label="ViewLayer_LineSet">
        <g xmlns:inkscape="http://www.inkscape.org/namespaces/inkscape" inkscape:groupmode="layer" id="strokes" inkscape:label="strokes">
            <path fill="none" stroke-width="3.0" stroke-linecap="butt" stroke-opacity="1.0" stroke="rgb(0, 0, 0)" stroke-linejoin="round" d=" M -0.852, 246.207 0.761, 256.076 2.373, 265.945 3.986, 275.815 5.598, 285.684 7.211, 295.553 8.824, 305.422 10.436, 315.291 12.049, 325.160 13.661, 335.029 15.274, 344.899 16.886, 354.768 18.499, 364.637 20.111, 374.506 21.724, 384.375 23.336, 394.244 24.949, 404.113 26.561, 413.982 28.174, 423.852 29.787, 433.721 31.399, 443.590 33.012, 453.459 34.624, 463.328 36.609, 475.473 45.056, 480.824 53.504, 486.176 61.952, 491.527 70.400, 496.878 78.847, 502.229 87.295, 507.581 95.743, 512.932 104.191, 518.283 112.638, 523.634 121.086, 528.985 129.534, 534.336 137.982, 539.688 146.429, 545.039 154.877, 550.390 157.927, 552.322 167.363, 549.009 176.798, 545.696 186.233, 542.382 195.668, 539.069 205.103, 535.756 214.538, 532.443 223.974, 529.129 233.409, 525.816 242.844, 522.503 252.279, 519.190 261.714, 515.876 271.149, 512.563 280.585, 509.250 290.020, 505.937 299.455, 502.623 308.890, 499.310 318.325, 495.997 327.760, 492.684 337.196, 489.370 346.631, 486.057 356.066, 482.744 365.420, 479.459 364.853, 469.475 364.287, 459.491 363.720, 449.507 363.154, 439.523 362.587, 429.540 362.021, 419.556 361.454, 409.572 360.888, 399.588 360.321, 389.604 359.755, 379.620 359.188, 369.636 358.622, 359.652 358.055, 349.668 357.489, 339.684 356.922, 329.700 356.356, 319.716 355.789, 309.732 355.223, 299.748 354.656, 289.764 354.090, 279.780 353.523, 269.797 352.957, 259.813 352.346, 249.050 342.841, 245.942 333.337, 242.834 323.832, 239.726 314.327, 236.618 304.822, 233.511 295.318, 230.403 285.813, 227.295 276.308, 224.187 266.803, 221.079 257.298, 217.971 247.794, 214.863 238.289, 211.755 228.784, 208.647 219.279, 205.539 214.933, 204.118 205.118, 206.033 195.303, 207.947 185.488, 209.861 175.673, 211.776 165.858, 213.690 156.043, 215.605 146.228, 217.519 136.413, 219.434 126.598, 221.348 116.783, 223.263 106.968, 225.177 97.153, 227.091 87.338, 229.006 77.523, 230.920 67.708, 232.835 57.893, 234.749 48.078, 236.664 38.263, 238.578 28.448, 240.492 18.633, 242.407 8.818, 244.321 -0.852, 246.207 " />
            <path fill="none" stroke-width="3.0" stroke-linecap="butt" stroke-opacity="1.0" stroke="rgb(0, 0, 0)" stroke-linejoin="round" d=" M 352.346, 249.050 342.604, 251.306 332.862, 253.562 323.120, 255.818 313.377, 258.074 303.635, 260.330 293.893, 262.586 284.151, 264.841 274.409, 267.097 264.666, 269.353 254.924, 271.609 245.182, 273.865 235.440, 276.121 225.697, 278.377 215.955, 280.633 206.213, 282.889 196.471, 285.145 186.729, 287.401 176.986, 289.656 167.244, 291.912 157.502, 294.168 147.760, 296.424 138.017, 298.680 126.021, 301.458 " />
            <path fill="none" stroke-width="3.0" stroke-linecap="butt" stroke-opacity="1.0" stroke="rgb(0, 0, 0)" stroke-linejoin="round" d=" M -0.852, 246.207 8.317, 250.200 17.485, 254.193 26.653, 258.185 35.822, 262.178 44.990, 266.171 54.158, 270.163 63.327, 274.156 72.495, 278.148 81.663, 282.141 90.832, 286.134 100.000, 290.126 109.169, 294.119 118.337, 298.112 126.021, 301.458 127.283, 311.378 128.544, 321.298 129.806, 331.218 131.068, 341.138 132.329, 351.058 133.591, 360.979 134.853, 370.899 136.115, 380.819 137.376, 390.739 138.638, 400.659 139.900, 410.579 141.161, 420.499 142.423, 430.419 143.685, 440.339 144.946, 450.259 146.208, 460.179 147.470, 470.099 148.732, 480.020 149.993, 489.940 151.255, 499.860 152.517, 509.780 153.778, 519.700 155.040, 529.620 156.302, 539.540 157.563, 549.460 157.927, 552.322 " />
        </g>
    </g>
</svg>
