<?xml version='1.0' encoding='ascii'?>
<svg xmlns="http://www.w3.org/2000/svg" version="1.1" width="1080" height="1080">
    <g id="ViewLayer_LineSet" xmlns:inkscape="http://www.inkscape.org/namespaces/inkscape" inkscape:groupmode="lineset" inkscape:label="ViewLayer_LineSet">
        <g xmlns:inkscape="http://www.inkscape.org/namespaces/inkscape" inkscape:groupmode="layer" id="strokes" inkscape:label="strokes">
            <path fill="none" stroke-width="3.0" stroke-linecap="butt" stroke-opacity="1.0" stroke="rgb(0, 0, 0)" stroke-linejoin="round" d=" M 99.483, 289.901 100.820, 299.812 102.157, 309.722 103.493, 319.632 104.830, 329.543 106.166, 339.453 107.503, 349.363 108.839, 359.273 110.176, 369.184 111.512, 379.094 112.849, 389.004 114.185, 398.915 115.522, 408.825 116.858, 418.735 118.195, 428.645 119.531, 438.556 120.868, 448.466 122.204, 458.376 123.541, 468.287 124.877, 478.197 126.214, 488.107 127.550, 498.017 128.887, 507.928 130.223, 517.838 131.560, 527.748 132.720, 536.355 141.168, 541.706 149.616, 547.057 158.064, 552.409 166.511, 557.760 174.959, 563.111 183.407, 568.462 191.855, 573.813 200.303, 579.165 208.750, 584.516 217.198, 589.867 225.646, 595.218 234.094, 600.569 242.541, 605.921 250.989, 611.272 259.437, 616.623 267.885, 621.974 276.332, 627.325 278.152, 628.478 287.407, 624.691 296.662, 620.903 305.917, 617.116 315.172, 613.329 324.427, 609.542 333.683, 605.754 342.938, 601.967 352.193, 598.180 361.448, 594.392 370.703, 590.605 379.958, 586.818 389.213, 583.030 398.468, 579.243 407.723, 575.456 416.978, 571.669 426.233, 567.881 435.488, 564.094 444.743, 560.307 453.999, 556.519 463.254, 552.732 472.509, 548.945 481.764, 545.157 491.710, 541.087 491.549, 531.089 491.389, 521.090 491.229, 511.091 491.069, 501.093 490.909, 491.094 490.749, 481.095 490.589, 471.096 490.429, 461.098 490.268, 451.099 490.108, 441.100 489.948, 431.102 489.788, 421.103 489.628, 411.104 489.468, 401.105 489.308, 391.107 489.147, 381.108 488.987, 371.109 488.827, 361.111 488.667, 351.112 488.507, 341.113 488.347, 331.114 488.187, 321.116 488.027, 311.117 487.866, 301.118 487.742, 293.322 478.237, 290.215 468.732, 287.107 459.227, 283.999 449.722, 280.891 440.218, 277.783 430.713, 274.675 421.208, 271.567 411.703, 268.459 402.199, 265.351 392.694, 262.243 383.189, 259.135 373.684, 256.027 364.179, 252.919 354.675, 249.812 345.170, 246.704 335.665, 243.596 326.160, 240.488 323.860, 239.736 314.101, 241.918 304.342, 244.100 294.583, 246.281 284.824, 248.463 275.065, 250.645 265.306, 252.827 255.547, 255.009 245.788, 257.191 236.029, 259.373 226.270, 261.555 216.511, 263.737 206.752, 265.919 196.993, 268.101 187.234, 270.282 177.474, 272.464 167.715, 274.646 157.956, 276.828 148.197, 279.010 138.438, 281.192 128.679, 283.374 118.920, 285.556 109.161, 287.738 99.483, 289.901 " />
            <path fill="none" stroke-width="3.0" stroke-linecap="butt" stroke-opacity="1.0" stroke="rgb(0, 0, 0)" stroke-linejoin="round" d=" M 487.742, 293.322 478.094, 295.955 468.447, 298.588 458.800, 301.221 449.153, 303.853 439.505, 306.486 429.858, 309.119 420.211, 311.751 410.564, 314.384 400.917, 317.017 391.269, 319.649 381.622, 322.282 371.975, 324.915 362.328, 327.547 352.680, 330.180 343.033, 332.813 333.386, 335.446 323.739, 338.078 314.092, 340.711 304.444, 343.344 294.797, 345.976 285.150, 348.609 275.503, 351.242 265.855, 353.874 253.886, 357.141 " />
            <path fill="none" stroke-width="3.0" stroke-linecap="butt" stroke-opacity="1.0" stroke="rgb(0, 0, 0)" stroke-linejoin="round" d=" M 99.483, 289.901 108.652, 293.894 117.820, 297.887 126.989, 301.879 136.157, 305.872 145.325, 309.865 154.494, 313.857 163.662, 317.850 172.830, 321.843 181.999, 325.835 191.167, 329.828 200.335, 333.821 209.504, 337.813 218.672, 341.806 227.840, 345.799 237.009, 349.791 246.177, 353.784 253.886, 357.141 254.776, 367.101 255.667, 377.061 256.558, 387.022 257.449, 396.982 258.340, 406.942 259.230, 416.902 260.121, 426.863 261.012, 436.823 261.903, 446.783 262.793, 456.743 263.684, 466.704 264.575, 476.664 265.466, 486.624 266.357, 496.584 267.247, 506.545 268.138, 516.505 269.029, 526.465 269.920, 536.425 270.810, 546.386 271.701, 556.346 272.592, 566.306 273.483, 576.266 274.373, 586.227 275.264, 596.187 276.155, 606.147 277.046, 616.107 278.152, 628.478 " />
        </g>
    </g>
</svg>
