<?xml version='1.0' encoding='ascii'?>
<svg xmlns="http://www.w3.org/2000/svg" version="1.1" width="1080" height="1080">
    <g id="ViewLayer_LineSet" xmlns:inkscape="http://www.inkscape.org/namespaces/inkscape" inkscape:groupmode="lineset" inkscape:label="ViewLayer_LineSet">
        <g xmlns:inkscape="http://www.inkscape.org/namespaces/inkscape" inkscape:groupmode="layer" id="strokes" inkscape:label="strokes">
            <path fill="none" stroke-width="3.0" stroke-linecap="butt" stroke-opacity="1.0" stroke="rgb(0, 0, 0)" stroke-linejoin="round" d=" M -85.020, 398.428 -76.572, 403.779 -68.125, 409.130 -59.677, 414.482 -51.229, 419.833 -42.781, 425.184 -34.334, 430.535 -25.886, 435.886 -17.438, 441.238 -8.990, 446.589 -0.543, 451.940 7.905, 457.291 9.214, 458.120 18.824, 455.355 28.434, 452.590 38.044, 449.825 47.654, 447.060 57.264, 444.295 66.874, 441.530 76.484, 438.765 86.095, 436.000 95.705, 433.235 105.315, 430.470 114.925, 427.705 124.535, 424.940 134.145, 422.175 143.755, 419.410 153.366, 416.645 162.976, 413.880 172.586, 411.115 182.196, 408.350 191.806, 405.585 201.416, 402.820 205.789, 401.561 204.736, 391.617 203.682, 381.673 202.629, 371.728 201.575, 361.784 200.522, 351.840 199.469, 341.895 198.415, 331.951 197.362, 322.007 196.308, 312.062 195.255, 302.118 194.201, 292.174 193.148, 282.229 192.094, 272.285 191.041, 262.341 189.987, 252.396 188.934, 242.452 187.880, 232.507 186.827, 222.563 185.773, 212.619 184.720, 202.674 183.794, 193.936 174.289, 190.828 164.785, 187.720 155.280, 184.612 145.775, 181.504 136.270, 178.396 126.765, 175.289 117.261, 172.181 107.756, 169.073 98.251, 165.965 88.746, 162.857 79.242, 159.749 76.370, 158.810 66.500, 160.417 56.630, 162.023 46.760, 163.630 36.890, 165.236 27.020, 166.843 17.150, 168.450 7.280, 170.056 -2.590, 171.663 -12.460, 173.269 -22.331, 174.876 -32.201, 176.482 -42.071, 178.089 -51.941, 179.695 -61.811, 181.302 -71.681, 182.909 -81.551, 184.515 -91.421, 186.122 -101.291, 187.728 -111.162, 189.335 -121.032, 190.941 -125.928, 191.739 " />
            <path fill="none" stroke-width="3.0" stroke-linecap="butt" stroke-opacity="1.0" stroke="rgb(0, 0, 0)" stroke-linejoin="round" d=" M 183.794, 193.936 173.965, 195.778 164.136, 197.621 154.308, 199.463 144.479, 201.305 134.650, 203.147 124.821, 204.989 114.992, 206.832 105.163, 208.674 95.334, 210.516 85.506, 212.358 75.677, 214.201 65.848, 216.043 56.019, 217.885 46.190, 219.727 36.361, 221.570 26.533, 223.412 16.704, 225.254 6.875, 227.096 -2.954, 228.939 -12.783, 230.781 -22.612, 232.623 -29.207, 233.859 -27.518, 243.716 -25.830, 253.572 -24.141, 263.428 -22.452, 273.285 -20.764, 283.141 -19.075, 292.998 -17.387, 302.854 -15.698, 312.710 -14.009, 322.567 -12.321, 332.423 -10.632, 342.280 -8.944, 352.136 -7.255, 361.992 -5.566, 371.849 -3.878, 381.705 -2.189, 391.562 -0.501, 401.418 1.188, 411.274 2.877, 421.131 4.565, 430.987 6.254, 440.844 7.942, 450.700 9.214, 458.120 " />
        </g>
    </g>
</svg>
