<?xml version='1.0' encoding='ascii'?>
<svg xmlns="http://www.w3.org/2000/svg" version="1.1" width="1080" height="1080">
    <g id="ViewLayer_LineSet" xmlns:inkscape="http://www.inkscape.org/namespaces/inkscape" inkscape:groupmode="lineset" inkscape:label="ViewLayer_LineSet">
        <g xmlns:inkscape="http://www.inkscape.org/namespaces/inkscape" inkscape:groupmode="layer" id="strokes" inkscape:label="strokes">
            <path fill="none" stroke-width="3.0" stroke-linecap="butt" stroke-opacity="1.0" stroke="rgb(0, 0, 0)" stroke-linejoin="round" d=" M -93.954, 392.769 -84.249, 390.359 -74.544, 387.949 -64.838, 385.539 -55.133, 383.129 -45.428, 380.719 -35.723, 378.310 -26.017, 375.900 -16.312, 373.490 -6.607, 371.080 3.099, 368.670 12.804, 366.260 22.509, 363.850 32.214, 361.440 41.920, 359.031 51.625, 356.621 61.330, 354.211 71.036, 351.801 80.741, 349.391 90.446, 346.981 92.763, 346.406 91.383, 336.502 90.003, 326.597 88.623, 316.693 87.243, 306.789 85.864, 296.884 84.484, 286.980 83.104, 277.076 81.724, 267.171 80.344, 257.267 78.964, 247.363 77.584, 237.458 76.204, 227.554 74.824, 217.650 73.444, 207.745 72.064, 197.841 70.684, 187.937 69.304, 178.032 67.924, 168.128 66.544, 158.224 66.161, 155.472 56.656, 152.364 47.151, 149.256 37.646, 146.148 28.142, 143.040 18.637, 139.932 9.132, 136.824 -0.373, 133.716 -9.878, 130.608 -19.382, 127.500 -22.338, 126.534 " />
            <path fill="none" stroke-width="3.0" stroke-linecap="butt" stroke-opacity="1.0" stroke="rgb(0, 0, 0)" stroke-linejoin="round" d=" M 66.161, 155.472 56.287, 157.057 46.414, 158.642 36.540, 160.227 26.666, 161.812 16.793, 163.398 6.919, 164.983 -2.954, 166.568 -12.828, 168.153 -22.701, 169.738 -32.575, 171.324 -42.448, 172.909 -52.322, 174.494 -62.196, 176.079 -72.069, 177.664 -81.943, 179.250 -91.816, 180.835 -101.690, 182.420 -111.563, 184.005 -121.437, 185.590 -131.310, 187.176 -135.034, 187.773 " />
        </g>
    </g>
</svg>
