<?xml version='1.0' encoding='ascii'?>
<svg xmlns="http://www.w3.org/2000/svg" version="1.1" width="1080" height="1080">
    <g id="ViewLayer_LineSet" xmlns:inkscape="http://www.inkscape.org/namespaces/inkscape" inkscape:groupmode="lineset" inkscape:label="ViewLayer_LineSet">
        <g xmlns:inkscape="http://www.inkscape.org/namespaces/inkscape" inkscape:groupmode="layer" id="strokes" inkscape:label="strokes">
            <path fill="none" stroke-width="3.0" stroke-linecap="butt" stroke-opacity="1.0" stroke="rgb(0, 0, 0)" stroke-linejoin="round" d=" M -82.475, 400.040 -72.780, 397.592 -63.084, 395.143 -53.389, 392.695 -43.693, 390.246 -33.997, 387.798 -24.302, 385.350 -14.606, 382.901 -4.910, 380.453 4.785, 378.005 14.481, 375.556 24.177, 373.108 33.872, 370.660 43.568, 368.211 53.264, 365.763 62.959, 363.315 72.655, 360.866 82.350, 358.418 92.046, 355.969 101.742, 353.521 105.433, 352.589 104.089, 342.680 102.745, 332.770 101.401, 322.861 100.057, 312.952 98.713, 303.043 97.369, 293.133 96.025, 283.224 94.680, 273.315 93.336, 263.406 91.992, 253.496 90.648, 243.587 89.304, 233.678 87.960, 223.768 86.616, 213.859 85.272, 203.950 83.928, 194.041 82.583, 184.131 81.239, 174.222 79.895, 164.313 79.278, 159.761 69.773, 156.653 60.268, 153.545 50.763, 150.437 41.259, 147.329 31.754, 144.221 22.249, 141.113 12.744, 138.005 3.239, 134.897 -6.265, 131.789 -11.248, 130.160 " />
            <path fill="none" stroke-width="3.0" stroke-linecap="butt" stroke-opacity="1.0" stroke="rgb(0, 0, 0)" stroke-linejoin="round" d=" M 79.278, 159.761 69.409, 161.373 59.539, 162.986 49.670, 164.599 39.801, 166.211 29.932, 167.824 20.063, 169.437 10.194, 171.049 0.325, 172.662 -9.544, 174.275 -19.413, 175.888 -29.282, 177.500 -39.152, 179.113 -49.021, 180.726 -58.890, 182.338 -68.759, 183.951 -78.628, 185.564 -88.497, 187.176 -98.366, 188.789 -108.235, 190.402 -118.104, 192.014 -123.333, 192.869 " />
        </g>
    </g>
</svg>
