<?xml version='1.0' encoding='ascii'?>
<svg xmlns="http://www.w3.org/2000/svg" version="1.1" width="1080" height="1080">
    <g id="ViewLayer_LineSet" xmlns:inkscape="http://www.inkscape.org/namespaces/inkscape" inkscape:groupmode="lineset" inkscape:label="ViewLayer_LineSet">
        <g xmlns:inkscape="http://www.inkscape.org/namespaces/inkscape" inkscape:groupmode="layer" id="strokes" inkscape:label="strokes">
            <path fill="none" stroke-width="3.0" stroke-linecap="butt" stroke-opacity="1.0" stroke="rgb(0, 0, 0)" stroke-linejoin="round" d=" M -73.265, 405.874 -64.817, 411.225 -56.370, 416.577 -47.922, 421.928 -39.474, 427.279 -31.026, 432.630 -22.579, 437.981 -14.131, 443.333 -5.683, 448.684 2.765, 454.035 11.212, 459.386 19.660, 464.737 23.422, 467.121 33.018, 464.305 42.613, 461.490 52.209, 458.674 61.804, 455.858 71.400, 453.043 80.995, 450.227 90.591, 447.412 100.186, 444.596 109.782, 441.781 119.377, 438.965 128.972, 436.150 138.568, 433.334 148.163, 430.519 157.759, 427.703 167.354, 424.888 176.950, 422.072 186.545, 419.256 196.141, 416.441 205.736, 413.625 215.332, 410.810 221.208, 409.086 220.200, 399.136 219.192, 389.187 218.185, 379.238 217.177, 369.289 216.169, 359.340 215.161, 349.391 214.154, 339.442 213.146, 329.493 212.138, 319.544 211.130, 309.595 210.122, 299.646 209.115, 289.696 208.107, 279.747 207.099, 269.798 206.091, 259.849 205.084, 249.900 204.076, 239.951 203.068, 230.002 202.060, 220.053 201.053, 210.104 199.950, 199.219 190.445, 196.111 180.941, 193.003 171.436, 189.895 161.931, 186.787 152.426, 183.679 142.921, 180.571 133.417, 177.463 123.912, 174.355 114.407, 171.248 104.902, 168.140 95.398, 165.032 89.797, 163.200 79.932, 164.835 70.066, 166.470 60.201, 168.105 50.335, 169.740 40.470, 171.375 30.604, 173.010 20.739, 174.645 10.874, 176.280 1.008, 177.915 -8.857, 179.550 -18.723, 181.185 -28.588, 182.820 -38.454, 184.455 -48.319, 186.090 -58.185, 187.724 -68.050, 189.359 -77.915, 190.994 -87.781, 192.629 -97.646, 194.264 -107.512, 195.899 -113.931, 196.963 " />
            <path fill="none" stroke-width="3.0" stroke-linecap="butt" stroke-opacity="1.0" stroke="rgb(0, 0, 0)" stroke-linejoin="round" d=" M 199.950, 199.219 190.128, 201.098 180.307, 202.978 170.485, 204.857 160.663, 206.737 150.841, 208.616 141.019, 210.496 131.198, 212.375 121.376, 214.255 111.554, 216.134 101.732, 218.014 91.910, 219.893 82.089, 221.772 72.267, 223.652 62.445, 225.531 52.623, 227.411 42.801, 229.290 32.980, 231.170 23.158, 233.049 13.336, 234.929 3.514, 236.808 -6.308, 238.688 -14.513, 240.258 -12.864, 250.121 -11.215, 259.984 -9.565, 269.847 -7.916, 279.710 -6.267, 289.573 -4.617, 299.436 -2.968, 309.299 -1.319, 319.162 0.330, 329.025 1.980, 338.888 3.629, 348.752 5.278, 358.615 6.928, 368.478 8.577, 378.341 10.226, 388.204 11.875, 398.067 13.525, 407.930 15.174, 417.793 16.823, 427.656 18.473, 437.519 20.122, 447.382 21.771, 457.245 23.422, 467.121 " />
        </g>
    </g>
</svg>
