<?xml version='1.0' encoding='ascii'?>
<svg xmlns="http://www.w3.org/2000/svg" version="1.1" width="1080" height="1080">
    <g id="ViewLayer_LineSet" xmlns:inkscape="http://www.inkscape.org/namespaces/inkscape" inkscape:groupmode="lineset" inkscape:label="ViewLayer_LineSet">
        <g xmlns:inkscape="http://www.inkscape.org/namespaces/inkscape" inkscape:groupmode="layer" id="strokes" inkscape:label="strokes">
            <path fill="none" stroke-width="3.0" stroke-linecap="butt" stroke-opacity="1.0" stroke="rgb(0, 0, 0)" stroke-linejoin="round" d=" M -70.606, 407.559 -60.921, 405.070 -51.235, 402.582 -41.550, 400.093 -31.864, 397.605 -22.179, 395.116 -12.493, 392.628 -2.808, 390.139 6.877, 387.651 16.563, 385.163 26.248, 382.674 35.934, 380.186 45.619, 377.697 55.305, 375.209 64.990, 372.720 74.675, 370.232 84.361, 367.744 94.046, 365.255 103.732, 362.767 113.417, 360.278 118.510, 358.970 117.203, 349.056 115.896, 339.141 114.589, 329.227 113.282, 319.313 111.975, 309.399 110.668, 299.484 109.361, 289.570 108.054, 279.656 106.747, 269.742 105.440, 259.828 104.133, 249.913 102.826, 239.999 101.520, 230.085 100.213, 220.171 98.906, 210.256 97.599, 200.342 96.292, 190.428 94.985, 180.514 93.678, 170.600 92.833, 164.193 83.329, 161.085 73.824, 157.977 64.319, 154.870 54.814, 151.762 45.310, 148.654 35.805, 145.546 26.300, 142.438 16.795, 139.330 7.290, 136.222 0.191, 133.900 -9.703, 135.352 -19.598, 136.803 -29.492, 138.254 -39.386, 139.705 -49.280, 141.156 -59.174, 142.607 -69.068, 144.059 -78.962, 145.510 -88.857, 146.961 -98.751, 148.412 -108.645, 149.863 -118.539, 151.314 -128.433, 152.766 -138.327, 154.217 -148.221, 155.668 -158.116, 157.119 -168.010, 158.570 -177.904, 160.021 -187.798, 161.473 -193.506, 162.310 " />
            <path fill="none" stroke-width="3.0" stroke-linecap="butt" stroke-opacity="1.0" stroke="rgb(0, 0, 0)" stroke-linejoin="round" d=" M 92.833, 164.193 82.969, 165.835 73.105, 167.476 63.240, 169.117 53.376, 170.759 43.512, 172.400 33.647, 174.042 23.783, 175.683 13.918, 177.324 4.054, 178.966 -5.810, 180.607 -15.675, 182.249 -25.539, 183.890 -35.403, 185.531 -45.268, 187.173 -55.132, 188.814 -64.997, 190.456 -74.861, 192.097 -84.725, 193.738 -94.590, 195.380 -104.454, 197.021 -111.215, 198.146 " />
        </g>
    </g>
</svg>
