<?xml version='1.0' encoding='ascii'?>
<svg xmlns="http://www.w3.org/2000/svg" version="1.1" width="1080" height="1080">
    <g id="ViewLayer_LineSet" xmlns:inkscape="http://www.inkscape.org/namespaces/inkscape" inkscape:groupmode="lineset" inkscape:label="ViewLayer_LineSet">
        <g xmlns:inkscape="http://www.inkscape.org/namespaces/inkscape" inkscape:groupmode="layer" id="strokes" inkscape:label="strokes">
            <path fill="none" stroke-width="3.0" stroke-linecap="butt" stroke-opacity="1.0" stroke="rgb(0, 0, 0)" stroke-linejoin="round" d=" M -31.630, 432.248 -21.980, 429.626 -12.330, 427.004 -2.679, 424.382 6.971, 421.760 16.621, 419.138 26.271, 416.516 35.921, 413.894 45.571, 411.272 55.221, 408.650 64.872, 406.028 74.522, 403.406 84.172, 400.784 93.822, 398.162 103.472, 395.541 113.122, 392.919 122.772, 390.297 132.423, 387.675 142.073, 385.053 151.723, 382.431 161.271, 379.837 160.087, 369.907 158.903, 359.977 157.719, 350.048 156.535, 340.118 155.351, 330.188 154.167, 320.259 152.983, 310.329 151.799, 300.399 150.615, 290.470 149.432, 280.540 148.248, 270.610 147.064, 260.681 145.880, 250.751 144.696, 240.821 143.512, 230.892 142.328, 220.962 141.144, 211.032 139.960, 201.103 138.776, 191.173 137.593, 181.243 137.293, 178.731 127.788, 175.623 118.283, 172.515 108.779, 169.407 99.274, 166.299 89.769, 163.191 80.264, 160.083 70.760, 156.975 61.255, 153.867 51.750, 150.760 42.245, 147.652 37.551, 146.117 27.668, 147.643 17.785, 149.169 7.902, 150.695 -1.981, 152.221 -11.864, 153.748 -21.747, 155.274 -31.629, 156.800 -41.512, 158.326 -51.395, 159.853 -61.278, 161.379 -71.161, 162.905 -81.044, 164.431 -90.926, 165.957 -100.809, 167.484 -110.692, 169.010 -120.575, 170.536 -130.458, 172.062 -140.341, 173.589 -150.224, 175.115 -160.469, 176.697 " />
            <path fill="none" stroke-width="3.0" stroke-linecap="butt" stroke-opacity="1.0" stroke="rgb(0, 0, 0)" stroke-linejoin="round" d=" M 137.293, 178.731 127.445, 180.469 117.597, 182.206 107.749, 183.944 97.902, 185.682 88.054, 187.420 78.206, 189.157 68.358, 190.895 58.510, 192.633 48.662, 194.371 38.814, 196.108 28.967, 197.846 19.119, 199.584 9.271, 201.321 -0.577, 203.059 -10.425, 204.797 -20.273, 206.535 -30.121, 208.272 -39.968, 210.010 -49.816, 211.748 -59.664, 213.486 -71.283, 215.536 " />
        </g>
    </g>
</svg>
