<?xml version='1.0' encoding='ascii'?>
<svg xmlns="http://www.w3.org/2000/svg" version="1.1" width="1080" height="1080">
    <g id="ViewLayer_LineSet" xmlns:inkscape="http://www.inkscape.org/namespaces/inkscape" inkscape:groupmode="lineset" inkscape:label="ViewLayer_LineSet">
        <g xmlns:inkscape="http://www.inkscape.org/namespaces/inkscape" inkscape:groupmode="layer" id="strokes" inkscape:label="strokes">
            <path fill="none" stroke-width="3.0" stroke-linecap="butt" stroke-opacity="1.0" stroke="rgb(0, 0, 0)" stroke-linejoin="round" d=" M 136.466, 306.007 137.698, 315.930 138.930, 325.854 140.162, 335.778 141.394, 345.702 142.626, 355.626 143.858, 365.549 145.090, 375.473 146.322, 385.397 147.554, 395.321 148.786, 405.245 150.018, 415.169 151.250, 425.092 152.482, 435.016 153.714, 444.940 154.947, 454.864 156.179, 464.788 157.411, 474.711 158.643, 484.635 159.875, 494.559 161.107, 504.483 162.339, 514.407 163.571, 524.330 164.803, 534.254 166.035, 544.178 167.267, 554.102 167.824, 558.591 176.272, 563.943 184.720, 569.294 193.168, 574.645 201.615, 579.996 210.063, 585.347 218.511, 590.699 226.959, 596.050 235.407, 601.401 243.854, 606.752 252.302, 612.103 260.750, 617.455 269.198, 622.806 277.645, 628.157 286.093, 633.508 294.541, 638.859 302.989, 644.211 311.436, 649.562 319.884, 654.913 322.676, 656.681 331.854, 652.712 341.032, 648.742 350.211, 644.773 359.389, 640.803 368.568, 636.834 377.746, 632.864 386.924, 628.895 396.103, 624.925 405.281, 620.955 414.460, 616.986 423.638, 613.016 432.816, 609.047 441.995, 605.077 451.173, 601.108 460.351, 597.138 469.530, 593.169 478.708, 589.199 487.887, 585.230 497.065, 581.260 506.243, 577.290 515.422, 573.321 524.600, 569.351 533.779, 565.382 537.869, 563.613 537.862, 553.613 537.855, 543.613 537.848, 533.613 537.840, 523.613 537.833, 513.613 537.826, 503.613 537.819, 493.613 537.812, 483.613 537.805, 473.613 537.798, 463.613 537.791, 453.613 537.784, 443.613 537.776, 433.613 537.769, 423.613 537.762, 413.613 537.755, 403.613 537.748, 393.613 537.741, 383.613 537.734, 373.613 537.727, 363.613 537.719, 353.613 537.712, 343.613 537.705, 333.613 537.698, 323.613 537.691, 313.613 537.688, 309.654 528.183, 306.546 518.679, 303.438 509.174, 300.330 499.669, 297.223 490.164, 294.115 480.659, 291.007 471.155, 287.899 461.650, 284.791 452.145, 281.683 442.640, 278.575 433.136, 275.467 423.631, 272.359 414.126, 269.251 404.621, 266.143 395.116, 263.035 385.612, 259.927 376.107, 256.820 366.602, 253.712 363.521, 252.704 353.786, 254.990 344.051, 257.275 334.315, 259.560 324.580, 261.846 314.845, 264.131 305.109, 266.417 295.374, 268.702 285.639, 270.988 275.903, 273.273 266.168, 275.558 256.432, 277.844 246.697, 280.129 236.962, 282.415 227.226, 284.700 217.491, 286.985 207.756, 289.271 198.020, 291.556 188.285, 293.842 178.550, 296.127 168.814, 298.413 159.079, 300.698 149.344, 302.983 139.608, 305.269 136.466, 306.007 " />
            <path fill="none" stroke-width="3.0" stroke-linecap="butt" stroke-opacity="1.0" stroke="rgb(0, 0, 0)" stroke-linejoin="round" d=" M 537.688, 309.654 528.083, 312.437 518.478, 315.220 508.873, 318.003 499.268, 320.786 489.663, 323.569 480.058, 326.352 470.453, 329.134 460.848, 331.917 451.243, 334.700 441.638, 337.483 432.033, 340.266 422.428, 343.049 412.823, 345.832 403.218, 348.615 393.613, 351.397 384.008, 354.180 374.404, 356.963 364.799, 359.746 355.194, 362.529 345.589, 365.312 335.984, 368.095 326.379, 370.878 316.774, 373.661 307.169, 376.443 301.789, 378.002 " />
            <path fill="none" stroke-width="3.0" stroke-linecap="butt" stroke-opacity="1.0" stroke="rgb(0, 0, 0)" stroke-linejoin="round" d=" M 136.466, 306.007 145.634, 309.999 154.802, 313.992 163.971, 317.985 173.139, 321.977 182.307, 325.970 191.476, 329.963 200.644, 333.955 209.813, 337.948 218.981, 341.940 228.149, 345.933 237.318, 349.926 246.486, 353.918 255.654, 357.911 264.823, 361.904 273.991, 365.896 283.159, 369.889 292.328, 373.882 301.789, 378.002 302.537, 387.974 303.284, 397.946 304.031, 407.918 304.779, 417.890 305.526, 427.862 306.274, 437.834 307.021, 447.806 307.768, 457.778 308.516, 467.750 309.263, 477.722 310.010, 487.694 310.758, 497.666 311.505, 507.638 312.253, 517.610 313.000, 527.583 313.747, 537.555 314.495, 547.527 315.242, 557.499 315.990, 567.471 316.737, 577.443 317.484, 587.415 318.232, 597.387 318.979, 607.359 319.726, 617.331 320.474, 627.303 321.221, 637.275 321.969, 647.247 322.676, 656.681 " />
        </g>
    </g>
</svg>
