<?xml version='1.0' encoding='ascii'?>
<svg xmlns="http://www.w3.org/2000/svg" version="1.1" width="1080" height="1080">
    <g id="ViewLayer_LineSet" xmlns:inkscape="http://www.inkscape.org/namespaces/inkscape" inkscape:groupmode="lineset" inkscape:label="ViewLayer_LineSet">
        <g xmlns:inkscape="http://www.inkscape.org/namespaces/inkscape" inkscape:groupmode="layer" id="strokes" inkscape:label="strokes">
            <path fill="none" stroke-width="3.0" stroke-linecap="butt" stroke-opacity="1.0" stroke="rgb(0, 0, 0)" stroke-linejoin="round" d=" M -61.327, 413.436 -52.879, 418.788 -44.431, 424.139 -35.984, 429.490 -27.536, 434.841 -19.088, 440.192 -10.640, 445.544 -2.193, 450.895 6.255, 456.246 14.703, 461.597 23.151, 466.948 31.598, 472.300 37.889, 476.284 47.469, 473.417 57.049, 470.549 66.629, 467.682 76.209, 464.815 85.789, 461.947 95.369, 459.080 104.949, 456.212 114.529, 453.345 124.109, 450.478 133.689, 447.610 143.270, 444.743 152.850, 441.875 162.430, 439.008 172.010, 436.141 181.590, 433.273 191.170, 430.406 200.750, 427.539 210.330, 424.671 219.910, 421.804 229.490, 418.936 236.869, 416.728 235.908, 406.774 234.947, 396.820 233.986, 386.867 233.025, 376.913 232.064, 366.959 231.103, 357.006 230.142, 347.052 229.181, 337.098 228.220, 327.144 227.258, 317.191 226.297, 307.237 225.336, 297.283 224.375, 287.330 223.414, 277.376 222.453, 267.422 221.492, 257.469 220.531, 247.515 219.570, 237.561 218.609, 227.607 217.648, 217.654 216.687, 207.700 216.387, 204.594 206.882, 201.486 197.378, 198.378 187.873, 195.270 178.368, 192.162 168.863, 189.054 159.359, 185.946 149.854, 182.838 140.349, 179.730 130.844, 176.622 121.339, 173.514 111.835, 170.406 103.426, 167.657 93.565, 169.321 83.704, 170.985 73.844, 172.649 63.983, 174.313 54.123, 175.977 44.262, 177.641 34.402, 179.305 24.541, 180.969 14.680, 182.633 4.820, 184.297 -5.041, 185.961 -14.901, 187.625 -24.762, 189.289 -34.623, 190.953 -44.483, 192.617 -54.344, 194.281 -64.204, 195.945 -74.065, 197.609 -83.925, 199.273 -93.786, 200.938 -101.727, 202.278 " />
            <path fill="none" stroke-width="3.0" stroke-linecap="butt" stroke-opacity="1.0" stroke="rgb(0, 0, 0)" stroke-linejoin="round" d=" M 216.387, 204.594 206.573, 206.511 196.758, 208.429 186.944, 210.347 177.130, 212.265 167.315, 214.183 157.501, 216.101 147.687, 218.018 137.872, 219.936 128.058, 221.854 118.244, 223.772 108.429, 225.690 98.615, 227.608 88.800, 229.526 78.986, 231.443 69.172, 233.361 59.357, 235.279 49.543, 237.197 39.729, 239.115 29.914, 241.033 20.100, 242.951 10.285, 244.868 0.476, 246.785 " />
            <path fill="none" stroke-width="3.0" stroke-linecap="butt" stroke-opacity="1.0" stroke="rgb(0, 0, 0)" stroke-linejoin="round" d=" M -101.727, 202.278 -92.559, 206.270 -83.391, 210.263 -74.222, 214.256 -65.054, 218.248 -55.886, 222.241 -46.717, 226.234 -37.549, 230.226 -28.381, 234.219 -19.212, 238.212 -10.044, 242.204 -0.876, 246.197 0.476, 246.785 2.085, 256.655 3.694, 266.525 5.303, 276.394 6.912, 286.264 8.521, 296.134 10.129, 306.004 11.738, 315.873 13.347, 325.743 14.956, 335.613 16.565, 345.482 18.174, 355.352 19.783, 365.222 21.392, 375.092 23.001, 384.961 24.610, 394.831 26.219, 404.701 27.828, 414.570 29.437, 424.440 31.046, 434.310 32.655, 444.180 34.264, 454.049 35.873, 463.919 37.482, 473.789 37.889, 476.284 " />
        </g>
    </g>
</svg>
