<?xml version='1.0' encoding='ascii'?>
<svg xmlns="http://www.w3.org/2000/svg" version="1.1" width="1080" height="1080">
    <g id="ViewLayer_LineSet" xmlns:inkscape="http://www.inkscape.org/namespaces/inkscape" inkscape:groupmode="lineset" inkscape:label="ViewLayer_LineSet">
        <g xmlns:inkscape="http://www.inkscape.org/namespaces/inkscape" inkscape:groupmode="layer" id="strokes" inkscape:label="strokes">
            <path fill="none" stroke-width="3.0" stroke-linecap="butt" stroke-opacity="1.0" stroke="rgb(0, 0, 0)" stroke-linejoin="round" d=" M 70.321, 277.202 71.739, 287.101 73.157, 297.000 74.575, 306.899 75.992, 316.798 77.410, 326.697 78.828, 336.596 80.246, 346.495 81.664, 356.393 83.082, 366.292 84.499, 376.191 85.917, 386.090 87.335, 395.989 88.753, 405.888 90.171, 415.787 91.589, 425.686 93.007, 435.585 94.424, 445.484 95.842, 455.383 97.260, 465.282 98.678, 475.181 100.096, 485.080 101.514, 494.979 102.932, 504.878 104.349, 514.777 104.917, 518.743 113.365, 524.094 121.813, 529.446 130.261, 534.797 138.709, 540.148 147.156, 545.499 155.604, 550.850 164.052, 556.202 172.500, 561.553 180.947, 566.904 189.395, 572.255 197.843, 577.606 206.291, 582.958 214.738, 588.309 223.186, 593.660 231.634, 599.011 240.082, 604.362 243.123, 606.289 252.434, 602.643 261.746, 598.996 271.057, 595.350 280.369, 591.703 289.680, 588.057 298.992, 584.411 308.303, 580.764 317.615, 577.118 326.926, 573.471 336.238, 569.825 345.549, 566.178 354.861, 562.532 364.172, 558.886 373.484, 555.239 382.795, 551.593 392.107, 547.946 401.418, 544.300 410.730, 540.654 420.041, 537.007 429.353, 533.361 438.664, 529.714 447.976, 526.068 455.163, 523.253 454.884, 513.257 454.604, 503.261 454.324, 493.265 454.045, 483.269 453.765, 473.273 453.486, 463.277 453.206, 453.281 452.926, 443.284 452.647, 433.288 452.367, 423.292 452.088, 413.296 451.808, 403.300 451.528, 393.304 451.249, 383.308 450.969, 373.312 450.690, 363.316 450.410, 353.320 450.130, 343.324 449.851, 333.327 449.571, 323.331 449.292, 313.335 449.012, 303.339 448.733, 293.343 448.453, 283.347 448.372, 280.449 438.867, 277.341 429.362, 274.233 419.858, 271.125 410.353, 268.017 400.848, 264.909 391.343, 261.802 381.838, 258.694 372.334, 255.586 362.829, 252.478 353.324, 249.370 343.819, 246.262 334.315, 243.154 324.810, 240.046 315.305, 236.938 305.800, 233.830 296.295, 230.722 292.401, 229.449 282.625, 231.551 272.848, 233.653 263.072, 235.756 253.295, 237.858 243.519, 239.960 233.742, 242.062 223.966, 244.164 214.189, 246.267 204.412, 248.369 194.636, 250.471 184.859, 252.573 175.083, 254.675 165.306, 256.778 155.530, 258.880 145.753, 260.982 135.977, 263.084 126.200, 265.186 116.424, 267.289 106.647, 269.391 96.871, 271.493 87.094, 273.595 77.317, 275.697 70.321, 277.202 " />
            <path fill="none" stroke-width="3.0" stroke-linecap="butt" stroke-opacity="1.0" stroke="rgb(0, 0, 0)" stroke-linejoin="round" d=" M 448.372, 280.449 438.694, 282.968 429.017, 285.487 419.339, 288.005 409.661, 290.524 399.984, 293.043 390.306, 295.561 380.629, 298.080 370.951, 300.599 361.273, 303.117 351.596, 305.636 341.918, 308.155 332.241, 310.673 322.563, 313.192 312.885, 315.711 303.208, 318.229 293.530, 320.748 283.852, 323.267 274.175, 325.786 264.497, 328.304 254.820, 330.823 245.142, 333.342 235.464, 335.860 225.787, 338.379 216.408, 340.820 " />
            <path fill="none" stroke-width="3.0" stroke-linecap="butt" stroke-opacity="1.0" stroke="rgb(0, 0, 0)" stroke-linejoin="round" d=" M 70.321, 277.202 79.489, 281.194 88.658, 285.187 97.826, 289.180 106.994, 293.172 116.163, 297.165 125.331, 301.158 134.499, 305.150 143.668, 309.143 152.836, 313.136 162.005, 317.128 171.173, 321.121 180.341, 325.114 189.510, 329.106 198.678, 333.099 207.846, 337.092 216.408, 340.820 217.409, 350.770 218.410, 360.719 219.412, 370.669 220.413, 380.619 221.414, 390.569 222.415, 400.518 223.417, 410.468 224.418, 420.418 225.419, 430.368 226.421, 440.317 227.422, 450.267 228.423, 460.217 229.424, 470.167 230.426, 480.116 231.427, 490.066 232.428, 500.016 233.430, 509.966 234.431, 519.915 235.432, 529.865 236.433, 539.815 237.435, 549.765 238.436, 559.714 239.437, 569.664 240.439, 579.614 241.440, 589.564 242.441, 599.513 243.123, 606.289 " />
        </g>
    </g>
</svg>
