<?xml version='1.0' encoding='ascii'?>
<svg xmlns="http://www.w3.org/2000/svg" version="1.1" width="1080" height="1080">
    <g id="ViewLayer_LineSet" xmlns:inkscape="http://www.inkscape.org/namespaces/inkscape" inkscape:groupmode="lineset" inkscape:label="ViewLayer_LineSet">
        <g xmlns:inkscape="http://www.inkscape.org/namespaces/inkscape" inkscape:groupmode="layer" id="strokes" inkscape:label="strokes">
            <path fill="none" stroke-width="3.0" stroke-linecap="butt" stroke-opacity="1.0" stroke="rgb(0, 0, 0)" stroke-linejoin="round" d=" M -134.530, 367.066 -124.793, 364.790 -115.055, 362.514 -105.317, 360.239 -95.580, 357.963 -85.842, 355.687 -76.105, 353.411 -66.367, 351.136 -56.629, 348.860 -46.892, 346.584 -37.154, 344.308 -27.417, 342.032 -17.679, 339.757 -7.941, 337.481 1.796, 335.205 11.534, 332.929 21.271, 330.654 31.009, 328.378 40.747, 326.102 47.785, 324.457 46.279, 314.571 44.774, 304.685 43.268, 294.799 41.762, 284.913 40.257, 275.027 38.751, 265.141 37.246, 255.255 35.740, 245.369 34.234, 235.483 32.729, 225.597 31.223, 215.711 29.717, 205.825 28.212, 195.939 26.706, 186.053 25.201, 176.167 23.695, 166.281 22.189, 156.395 20.684, 146.509 19.737, 140.292 10.232, 137.184 0.727, 134.076 -8.778, 130.968 -18.282, 127.860 -27.787, 124.752 -37.292, 121.644 -46.797, 118.536 -56.301, 115.428 -61.758, 113.644 " />
            <path fill="none" stroke-width="3.0" stroke-linecap="butt" stroke-opacity="1.0" stroke="rgb(0, 0, 0)" stroke-linejoin="round" d=" M 19.737, 140.292 9.848, 141.782 -0.040, 143.272 -9.928, 144.762 -19.817, 146.252 -29.705, 147.742 -39.593, 149.233 -49.482, 150.723 -59.370, 152.213 -69.258, 153.703 -79.147, 155.193 -89.035, 156.683 -98.923, 158.174 -108.812, 159.664 -118.700, 161.154 -128.588, 162.644 -138.477, 164.134 -148.365, 165.624 -158.254, 167.115 -168.142, 168.605 -176.246, 169.826 " />
        </g>
    </g>
</svg>
