<?xml version='1.0' encoding='ascii'?>
<svg xmlns="http://www.w3.org/2000/svg" version="1.1" width="1080" height="1080">
    <g id="ViewLayer_LineSet" xmlns:inkscape="http://www.inkscape.org/namespaces/inkscape" inkscape:groupmode="lineset" inkscape:label="ViewLayer_LineSet">
        <g xmlns:inkscape="http://www.inkscape.org/namespaces/inkscape" inkscape:groupmode="layer" id="strokes" inkscape:label="strokes">
            <path fill="none" stroke-width="3.0" stroke-linecap="butt" stroke-opacity="1.0" stroke="rgb(0, 0, 0)" stroke-linejoin="round" d=" M 121.586, 299.527 122.860, 309.445 124.134, 319.364 125.408, 329.282 126.683, 339.201 127.957, 349.119 129.231, 359.037 130.505, 368.956 131.780, 378.874 133.054, 388.793 134.328, 398.711 135.603, 408.630 136.877, 418.548 138.151, 428.467 139.425, 438.385 140.700, 448.304 141.974, 458.222 143.248, 468.141 144.522, 478.059 145.797, 487.978 147.071, 497.896 148.345, 507.815 149.619, 517.733 150.894, 527.652 152.168, 537.570 153.721, 549.658 162.169, 555.009 170.616, 560.360 179.064, 565.711 187.512, 571.062 195.960, 576.414 204.407, 581.765 212.855, 587.116 221.303, 592.467 229.751, 597.818 238.198, 603.170 246.646, 608.521 255.094, 613.872 263.542, 619.223 271.989, 624.574 280.437, 629.926 288.885, 635.277 297.333, 640.628 304.748, 645.325 313.958, 641.429 323.168, 637.533 332.377, 633.638 341.587, 629.742 350.797, 625.846 360.007, 621.950 369.217, 618.055 378.427, 614.159 387.637, 610.263 396.847, 606.367 406.057, 602.472 415.267, 598.576 424.477, 594.680 433.687, 590.785 442.897, 586.889 452.107, 582.993 461.317, 579.097 470.527, 575.202 479.737, 571.306 488.947, 567.410 498.157, 563.514 507.367, 559.619 516.577, 555.723 519.321, 554.562 519.253, 544.562 519.184, 534.562 519.115, 524.562 519.046, 514.563 518.977, 504.563 518.908, 494.563 518.839, 484.563 518.770, 474.564 518.701, 464.564 518.633, 454.564 518.564, 444.564 518.495, 434.565 518.426, 424.565 518.357, 414.565 518.288, 404.565 518.219, 394.566 518.150, 384.566 518.081, 374.566 518.013, 364.566 517.944, 354.567 517.875, 344.567 517.806, 334.567 517.737, 324.567 517.668, 314.567 517.589, 303.082 508.084, 299.974 498.580, 296.866 489.075, 293.758 479.570, 290.650 470.065, 287.543 460.560, 284.435 451.056, 281.327 441.551, 278.219 432.046, 275.111 422.541, 272.003 413.036, 268.895 403.532, 265.787 394.027, 262.679 384.522, 259.571 375.017, 256.463 365.513, 253.355 356.008, 250.247 347.595, 247.497 337.850, 249.740 328.104, 251.983 318.359, 254.227 308.614, 256.470 298.869, 258.714 289.124, 260.957 279.379, 263.201 269.634, 265.444 259.889, 267.688 250.144, 269.931 240.399, 272.174 230.654, 274.418 220.908, 276.661 211.163, 278.905 201.418, 281.148 191.673, 283.392 181.928, 285.635 172.183, 287.878 162.438, 290.122 152.693, 292.365 142.948, 294.609 133.203, 296.852 121.586, 299.527 " />
            <path fill="none" stroke-width="3.0" stroke-linecap="butt" stroke-opacity="1.0" stroke="rgb(0, 0, 0)" stroke-linejoin="round" d=" M 517.589, 303.082 507.967, 305.804 498.344, 308.526 488.722, 311.247 479.099, 313.969 469.477, 316.691 459.854, 319.412 450.232, 322.134 440.609, 324.856 430.987, 327.577 421.364, 330.299 411.742, 333.021 402.119, 335.742 392.497, 338.464 382.874, 341.186 373.252, 343.907 363.629, 346.629 354.007, 349.351 344.384, 352.072 334.762, 354.794 325.139, 357.516 315.517, 360.237 305.894, 362.959 296.272, 365.681 286.649, 368.403 282.464, 369.586 " />
            <path fill="none" stroke-width="3.0" stroke-linecap="butt" stroke-opacity="1.0" stroke="rgb(0, 0, 0)" stroke-linejoin="round" d=" M 121.586, 299.527 130.754, 303.519 139.922, 307.512 149.091, 311.505 158.259, 315.497 167.427, 319.490 176.596, 323.483 185.764, 327.475 194.932, 331.468 204.101, 335.461 213.269, 339.453 222.438, 343.446 231.606, 347.438 240.774, 351.431 249.943, 355.424 259.111, 359.416 268.279, 363.409 277.448, 367.402 282.464, 369.586 283.270, 379.554 284.075, 389.521 284.881, 399.489 285.686, 409.456 286.492, 419.424 287.297, 429.391 288.103, 439.359 288.908, 449.326 289.714, 459.294 290.519, 469.261 291.325, 479.229 292.130, 489.196 292.936, 499.164 293.741, 509.131 294.547, 519.099 295.352, 529.066 296.158, 539.034 296.963, 549.001 297.769, 558.969 298.574, 568.936 299.380, 578.904 300.185, 588.871 300.991, 598.839 301.796, 608.806 302.602, 618.774 303.407, 628.741 304.213, 638.709 304.748, 645.325 " />
        </g>
    </g>
</svg>
