<?xml version='1.0' encoding='ascii'?>
<svg xmlns="http://www.w3.org/2000/svg" version="1.1" width="1080" height="1080">
    <g id="ViewLayer_LineSet" xmlns:inkscape="http://www.inkscape.org/namespaces/inkscape" inkscape:groupmode="lineset" inkscape:label="ViewLayer_LineSet">
        <g xmlns:inkscape="http://www.inkscape.org/namespaces/inkscape" inkscape:groupmode="layer" id="strokes" inkscape:label="strokes">
            <path fill="none" stroke-width="3.0" stroke-linecap="butt" stroke-opacity="1.0" stroke="rgb(0, 0, 0)" stroke-linejoin="round" d=" M -124.692, 373.298 -114.962, 370.990 -105.232, 368.682 -95.502, 366.374 -85.772, 364.066 -76.042, 361.758 -66.312, 359.450 -56.582, 357.142 -46.852, 354.834 -37.122, 352.526 -27.392, 350.218 -17.662, 347.910 -7.932, 345.602 1.798, 343.294 11.528, 340.986 21.258, 338.678 30.988, 336.370 40.718, 334.062 50.448, 331.754 58.718, 329.792 57.243, 319.902 55.768, 310.011 54.292, 300.121 52.817, 290.230 51.342, 280.339 49.867, 270.449 48.391, 260.558 46.916, 250.668 45.441, 240.777 43.965, 230.887 42.490, 220.996 41.015, 211.105 39.539, 201.215 38.064, 191.324 36.589, 181.434 35.114, 171.543 33.638, 161.653 32.163, 151.762 31.001, 143.975 21.497, 140.867 11.992, 137.759 2.487, 134.651 -7.018, 131.543 -16.523, 128.435 -26.027, 125.328 -35.532, 122.220 -45.037, 119.112 -52.168, 116.780 " />
            <path fill="none" stroke-width="3.0" stroke-linecap="butt" stroke-opacity="1.0" stroke="rgb(0, 0, 0)" stroke-linejoin="round" d=" M 31.001, 143.975 21.116, 145.488 11.232, 147.001 1.347, 148.514 -8.538, 150.027 -18.423, 151.540 -28.308, 153.052 -38.193, 154.565 -48.078, 156.078 -57.963, 157.591 -67.848, 159.104 -77.732, 160.617 -87.617, 162.130 -97.502, 163.643 -107.387, 165.156 -117.272, 166.669 -127.157, 168.181 -137.042, 169.694 -146.927, 171.207 -156.812, 172.720 -166.275, 174.169 " />
        </g>
    </g>
</svg>
