<?xml version='1.0' encoding='ascii'?>
<svg xmlns="http://www.w3.org/2000/svg" version="1.1" width="1080" height="1080">
    <g id="ViewLayer_LineSet" xmlns:inkscape="http://www.inkscape.org/namespaces/inkscape" inkscape:groupmode="lineset" inkscape:label="ViewLayer_LineSet">
        <g xmlns:inkscape="http://www.inkscape.org/namespaces/inkscape" inkscape:groupmode="layer" id="strokes" inkscape:label="strokes">
            <path fill="none" stroke-width="3.0" stroke-linecap="butt" stroke-opacity="1.0" stroke="rgb(0, 0, 0)" stroke-linejoin="round" d=" M 80.922, 281.818 82.311, 291.722 83.699, 301.625 85.087, 311.528 86.476, 321.431 87.864, 331.334 89.253, 341.237 90.641, 351.140 92.029, 361.044 93.418, 370.947 94.806, 380.850 96.195, 390.753 97.583, 400.656 98.971, 410.559 100.360, 420.463 101.748, 430.366 103.136, 440.269 104.525, 450.172 105.913, 460.075 107.302, 469.978 108.690, 479.881 110.078, 489.785 111.467, 499.688 112.855, 509.591 114.244, 519.494 115.037, 525.153 123.485, 530.505 131.933, 535.856 140.380, 541.207 148.828, 546.558 157.276, 551.909 165.724, 557.261 174.171, 562.612 182.619, 567.963 191.067, 573.314 199.515, 578.665 207.962, 584.017 216.410, 589.368 224.858, 594.719 233.306, 600.070 241.753, 605.421 250.201, 610.773 255.849, 614.350 265.140, 610.653 274.432, 606.955 283.723, 603.258 293.014, 599.561 302.306, 595.863 311.597, 592.166 320.889, 588.469 330.180, 584.771 339.471, 581.074 348.763, 577.377 358.054, 573.679 367.345, 569.982 376.637, 566.285 385.928, 562.587 395.220, 558.890 404.511, 555.193 413.802, 551.495 423.094, 547.798 432.385, 544.101 441.676, 540.403 450.968, 536.706 460.259, 533.009 468.464, 529.744 468.228, 519.747 467.991, 509.749 467.755, 499.752 467.519, 489.755 467.282, 479.758 467.046, 469.761 466.810, 459.763 466.574, 449.766 466.337, 439.769 466.101, 429.772 465.865, 419.774 465.628, 409.777 465.392, 399.780 465.156, 389.783 464.919, 379.786 464.683, 369.788 464.447, 359.791 464.211, 349.794 463.974, 339.797 463.738, 329.800 463.502, 319.802 463.265, 309.805 463.029, 299.808 462.793, 289.811 462.682, 285.128 453.177, 282.020 443.673, 278.913 434.168, 275.805 424.663, 272.697 415.158, 269.589 405.654, 266.481 396.149, 263.373 386.644, 260.265 377.139, 257.157 367.634, 254.049 358.130, 250.941 348.625, 247.833 339.120, 244.725 329.615, 241.617 320.111, 238.510 310.606, 235.402 303.856, 233.195 294.086, 235.326 284.316, 237.457 274.546, 239.588 264.775, 241.719 255.005, 243.850 245.235, 245.981 235.464, 248.112 225.694, 250.243 215.924, 252.374 206.153, 254.505 196.383, 256.635 186.613, 258.766 176.842, 260.897 167.072, 263.028 157.302, 265.159 147.532, 267.290 137.761, 269.421 127.991, 271.552 118.221, 273.683 108.450, 275.814 98.680, 277.945 88.910, 280.076 80.922, 281.818 " />
            <path fill="none" stroke-width="3.0" stroke-linecap="butt" stroke-opacity="1.0" stroke="rgb(0, 0, 0)" stroke-linejoin="round" d=" M 462.682, 285.128 453.015, 287.688 443.348, 290.248 433.682, 292.807 424.015, 295.367 414.348, 297.927 404.681, 300.487 395.014, 303.046 385.347, 305.606 375.681, 308.166 366.014, 310.725 356.347, 313.285 346.680, 315.845 337.013, 318.404 327.346, 320.964 317.679, 323.524 308.013, 326.083 298.346, 328.643 288.679, 331.203 279.012, 333.763 269.345, 336.322 259.678, 338.882 250.011, 341.442 240.345, 344.001 230.002, 346.740 " />
            <path fill="none" stroke-width="3.0" stroke-linecap="butt" stroke-opacity="1.0" stroke="rgb(0, 0, 0)" stroke-linejoin="round" d=" M 80.922, 281.818 90.091, 285.811 99.259, 289.804 108.427, 293.796 117.596, 297.789 126.764, 301.782 135.932, 305.774 145.101, 309.767 154.269, 313.760 163.437, 317.752 172.606, 321.745 181.774, 325.738 190.943, 329.730 200.111, 333.723 209.279, 337.716 218.448, 341.708 227.616, 345.701 230.002, 346.740 230.963, 356.694 231.925, 366.647 232.886, 376.601 233.847, 386.555 234.809, 396.508 235.770, 406.462 236.732, 416.416 237.693, 426.369 238.654, 436.323 239.616, 446.277 240.577, 456.230 241.538, 466.184 242.500, 476.138 243.461, 486.091 244.422, 496.045 245.384, 505.999 246.345, 515.953 247.307, 525.906 248.268, 535.860 249.229, 545.814 250.191, 555.767 251.152, 565.721 252.113, 575.675 253.075, 585.628 254.036, 595.582 254.998, 605.536 255.849, 614.350 " />
        </g>
    </g>
</svg>
