<?xml version='1.0' encoding='ascii'?>
<svg xmlns="http://www.w3.org/2000/svg" version="1.1" width="1080" height="1080">
    <g id="ViewLayer_LineSet" xmlns:inkscape="http://www.inkscape.org/namespaces/inkscape" inkscape:groupmode="lineset" inkscape:label="ViewLayer_LineSet">
        <g xmlns:inkscape="http://www.inkscape.org/namespaces/inkscape" inkscape:groupmode="layer" id="strokes" inkscape:label="strokes">
            <path fill="none" stroke-width="3.0" stroke-linecap="butt" stroke-opacity="1.0" stroke="rgb(0, 0, 0)" stroke-linejoin="round" d=" M -24.679, 436.651 -16.232, 442.002 -7.784, 447.353 0.664, 452.704 9.112, 458.055 17.559, 463.407 26.007, 468.758 34.455, 474.109 42.903, 479.460 51.350, 484.811 59.798, 490.163 68.246, 495.514 76.694, 500.865 82.520, 504.556 92.050, 501.526 101.580, 498.496 111.110, 495.466 120.640, 492.436 130.170, 489.406 139.700, 486.376 149.230, 483.346 158.760, 480.317 168.290, 477.287 177.820, 474.257 187.350, 471.227 196.880, 468.197 206.409, 465.167 215.939, 462.137 225.469, 459.107 234.999, 456.077 244.529, 453.047 254.059, 450.018 263.589, 446.988 273.119, 443.958 282.649, 440.928 284.956, 440.194 284.141, 430.227 283.325, 420.261 282.509, 410.294 281.694, 400.327 280.878, 390.361 280.062, 380.394 279.246, 370.427 278.431, 360.461 277.615, 350.494 276.799, 340.527 275.983, 330.561 275.168, 320.594 274.352, 310.627 273.536, 300.661 272.721, 290.694 271.905, 280.727 271.089, 270.761 270.273, 260.794 269.458, 250.827 268.642, 240.861 267.826, 230.894 267.029, 221.153 257.524, 218.045 248.019, 214.937 238.515, 211.829 229.010, 208.721 219.505, 205.613 210.000, 202.505 200.495, 199.397 190.991, 196.289 181.486, 193.181 171.981, 190.073 162.476, 186.965 152.972, 183.858 145.213, 181.320 135.368, 183.076 125.523, 184.831 115.678, 186.586 105.834, 188.342 95.989, 190.097 86.144, 191.852 76.299, 193.607 66.455, 195.363 56.610, 197.118 46.765, 198.873 36.920, 200.628 27.076, 202.384 17.231, 204.139 7.386, 205.894 -2.459, 207.649 -12.303, 209.405 -22.148, 211.160 -31.993, 212.915 -41.838, 214.670 -51.682, 216.426 -61.527, 218.181 -64.139, 218.647 " />
            <path fill="none" stroke-width="3.0" stroke-linecap="butt" stroke-opacity="1.0" stroke="rgb(0, 0, 0)" stroke-linejoin="round" d=" M 267.029, 221.153 257.239, 223.192 247.449, 225.231 237.659, 227.271 227.870, 229.310 218.080, 231.349 208.290, 233.389 198.500, 235.428 188.710, 237.468 178.920, 239.507 169.130, 241.546 159.341, 243.586 149.551, 245.625 139.761, 247.665 129.971, 249.704 120.181, 251.743 110.391, 253.783 100.602, 255.822 90.812, 257.861 81.022, 259.901 71.232, 261.940 61.442, 263.980 51.652, 266.019 46.910, 267.007 " />
            <path fill="none" stroke-width="3.0" stroke-linecap="butt" stroke-opacity="1.0" stroke="rgb(0, 0, 0)" stroke-linejoin="round" d=" M -64.139, 218.647 -54.971, 222.639 -45.802, 226.632 -36.634, 230.625 -27.466, 234.617 -18.297, 238.610 -9.129, 242.603 0.039, 246.595 9.208, 250.588 18.376, 254.581 27.544, 258.573 36.713, 262.566 46.910, 267.007 48.393, 276.896 49.875, 286.786 51.358, 296.675 52.840, 306.565 54.323, 316.454 55.805, 326.344 57.288, 336.233 58.770, 346.123 60.253, 356.012 61.735, 365.902 63.218, 375.791 64.700, 385.681 66.183, 395.570 67.665, 405.460 69.148, 415.349 70.630, 425.239 72.113, 435.128 73.595, 445.018 75.078, 454.907 76.560, 464.797 78.043, 474.686 79.525, 484.576 81.008, 494.465 82.520, 504.556 " />
        </g>
    </g>
</svg>
