<?xml version='1.0' encoding='ascii'?>
<svg xmlns="http://www.w3.org/2000/svg" version="1.1" width="1080" height="1080">
    <g id="ViewLayer_LineSet" xmlns:inkscape="http://www.inkscape.org/namespaces/inkscape" inkscape:groupmode="lineset" inkscape:label="ViewLayer_LineSet">
        <g xmlns:inkscape="http://www.inkscape.org/namespaces/inkscape" inkscape:groupmode="layer" id="strokes" inkscape:label="strokes">
            <path fill="none" stroke-width="3.0" stroke-linecap="butt" stroke-opacity="1.0" stroke="rgb(0, 0, 0)" stroke-linejoin="round" d=" M 127.015, 301.891 128.274, 311.811 129.533, 321.732 130.791, 331.652 132.050, 341.573 133.309, 351.493 134.568, 361.414 135.827, 371.334 137.086, 381.254 138.345, 391.175 139.604, 401.095 140.862, 411.016 142.121, 420.936 143.380, 430.857 144.639, 440.777 145.898, 450.698 147.157, 460.618 148.416, 470.538 149.675, 480.459 150.934, 490.379 152.192, 500.300 153.451, 510.220 154.710, 520.141 155.969, 530.061 157.228, 539.982 158.487, 549.902 158.870, 552.919 167.318, 558.270 175.765, 563.622 184.213, 568.973 192.661, 574.324 201.109, 579.675 209.556, 585.026 218.004, 590.378 226.452, 595.729 234.900, 601.080 243.347, 606.431 251.795, 611.782 260.243, 617.134 268.691, 622.485 277.138, 627.836 285.586, 633.187 294.034, 638.538 302.482, 643.890 311.287, 649.467 320.485, 645.544 329.684, 641.622 338.882, 637.699 348.081, 633.777 357.279, 629.854 366.478, 625.931 375.676, 622.009 384.875, 618.086 394.074, 614.164 403.272, 610.241 412.471, 606.318 421.669, 602.396 430.868, 598.473 440.066, 594.551 449.265, 590.628 458.463, 586.705 467.662, 582.783 476.860, 578.860 486.059, 574.938 495.258, 571.015 504.456, 567.092 513.655, 563.170 522.853, 559.247 526.092, 557.866 526.046, 547.866 526.000, 537.866 525.953, 527.866 525.907, 517.866 525.861, 507.866 525.814, 497.867 525.768, 487.867 525.721, 477.867 525.675, 467.867 525.629, 457.867 525.582, 447.867 525.536, 437.867 525.490, 427.867 525.443, 417.867 525.397, 407.868 525.350, 397.868 525.304, 387.868 525.258, 377.868 525.211, 367.868 525.165, 357.868 525.118, 347.868 525.072, 337.868 525.026, 327.868 524.979, 317.869 524.922, 305.480 515.417, 302.372 505.912, 299.264 496.408, 296.156 486.903, 293.048 477.398, 289.940 467.893, 286.832 458.388, 283.724 448.884, 280.617 439.379, 277.509 429.874, 274.401 420.369, 271.293 410.865, 268.185 401.360, 265.077 391.855, 261.969 382.350, 258.861 372.845, 255.753 363.341, 252.645 353.410, 249.398 343.669, 251.657 333.927, 253.916 324.186, 256.174 314.444, 258.433 304.703, 260.692 294.961, 262.950 285.219, 265.209 275.478, 267.468 265.736, 269.727 255.995, 271.985 246.253, 274.244 236.512, 276.503 226.770, 278.761 217.028, 281.020 207.287, 283.279 197.545, 285.537 187.804, 287.796 178.062, 290.055 168.321, 292.314 158.579, 294.572 148.837, 296.831 139.096, 299.090 129.354, 301.348 127.015, 301.891 " />
            <path fill="none" stroke-width="3.0" stroke-linecap="butt" stroke-opacity="1.0" stroke="rgb(0, 0, 0)" stroke-linejoin="round" d=" M 524.922, 305.480 515.306, 308.224 505.689, 310.968 496.073, 313.712 486.457, 316.455 476.841, 319.199 467.225, 321.943 457.609, 324.687 447.992, 327.431 438.376, 330.175 428.760, 332.919 419.144, 335.663 409.528, 338.407 399.911, 341.150 390.295, 343.894 380.679, 346.638 371.063, 349.382 361.447, 352.126 351.831, 354.870 342.214, 357.614 332.598, 360.358 322.982, 363.102 313.366, 365.845 303.750, 368.589 294.133, 371.333 289.507, 372.653 " />
            <path fill="none" stroke-width="3.0" stroke-linecap="butt" stroke-opacity="1.0" stroke="rgb(0, 0, 0)" stroke-linejoin="round" d=" M 127.015, 301.891 136.183, 305.884 145.351, 309.876 154.520, 313.869 163.688, 317.862 172.856, 321.854 182.025, 325.847 191.193, 329.839 200.362, 333.832 209.530, 337.825 218.698, 341.817 227.867, 345.810 237.035, 349.803 246.203, 353.795 255.372, 357.788 264.540, 361.781 273.708, 365.773 282.877, 369.766 289.507, 372.653 290.291, 382.622 291.076, 392.592 291.860, 402.561 292.644, 412.530 293.429, 422.499 294.213, 432.468 294.998, 442.438 295.782, 452.407 296.566, 462.376 297.351, 472.345 298.135, 482.314 298.919, 492.284 299.704, 502.253 300.488, 512.222 301.273, 522.191 302.057, 532.160 302.841, 542.130 303.626, 552.099 304.410, 562.068 305.194, 572.037 305.979, 582.006 306.763, 591.975 307.548, 601.945 308.332, 611.914 309.116, 621.883 309.901, 631.852 310.685, 641.821 311.287, 649.467 " />
        </g>
    </g>
</svg>
