<?xml version='1.0' encoding='ascii'?>
<svg xmlns="http://www.w3.org/2000/svg" version="1.1" width="1080" height="1080">
    <g id="ViewLayer_LineSet" xmlns:inkscape="http://www.inkscape.org/namespaces/inkscape" inkscape:groupmode="lineset" inkscape:label="ViewLayer_LineSet">
        <g xmlns:inkscape="http://www.inkscape.org/namespaces/inkscape" inkscape:groupmode="layer" id="strokes" inkscape:label="strokes">
            <path fill="none" stroke-width="3.0" stroke-linecap="butt" stroke-opacity="1.0" stroke="rgb(0, 0, 0)" stroke-linejoin="round" d=" M 137.122, 306.292 138.352, 316.216 139.582, 326.140 140.813, 336.065 142.043, 345.989 143.273, 355.913 144.503, 365.837 145.733, 375.761 146.963, 385.685 148.194, 395.609 149.424, 405.533 150.654, 415.457 151.884, 425.381 153.114, 435.305 154.345, 445.229 155.575, 455.153 156.805, 465.077 158.035, 475.001 159.265, 484.925 160.496, 494.849 161.726, 504.773 162.956, 514.697 164.186, 524.621 165.416, 534.545 166.646, 544.469 167.877, 554.393 168.446, 558.985 176.894, 564.336 185.341, 569.687 193.789, 575.039 202.237, 580.390 210.685, 585.741 219.132, 591.092 227.580, 596.443 236.028, 601.795 244.476, 607.146 252.923, 612.497 261.371, 617.848 269.819, 623.199 278.267, 628.551 286.714, 633.902 295.162, 639.253 303.610, 644.604 312.058, 649.955 320.506, 655.307 323.467, 657.182 332.644, 653.210 341.821, 649.237 350.998, 645.264 360.175, 641.291 369.352, 637.318 378.529, 633.346 387.706, 629.373 396.883, 625.400 406.060, 621.427 415.236, 617.454 424.413, 613.481 433.590, 609.509 442.767, 605.536 451.944, 601.563 461.121, 597.590 470.298, 593.617 479.475, 589.645 488.652, 585.672 497.829, 581.699 507.006, 577.726 516.183, 573.753 525.360, 569.781 534.537, 565.808 538.686, 564.012 538.682, 554.012 538.677, 544.012 538.673, 534.012 538.669, 524.012 538.664, 514.012 538.660, 504.012 538.655, 494.012 538.651, 484.012 538.647, 474.012 538.642, 464.012 538.638, 454.012 538.633, 444.012 538.629, 434.012 538.625, 424.012 538.620, 414.012 538.616, 404.012 538.612, 394.012 538.607, 384.012 538.603, 374.012 538.598, 364.012 538.594, 354.012 538.590, 344.012 538.585, 334.012 538.581, 324.012 538.576, 314.012 538.575, 309.944 529.070, 306.836 519.565, 303.728 510.060, 300.620 500.556, 297.512 491.051, 294.404 481.546, 291.297 472.041, 288.189 462.536, 285.081 453.032, 281.973 443.527, 278.865 434.022, 275.757 424.517, 272.649 415.012, 269.541 405.508, 266.433 396.003, 263.325 386.498, 260.217 376.993, 257.109 367.489, 254.002 364.223, 252.934 354.488, 255.221 344.753, 257.508 335.018, 259.795 325.283, 262.083 315.548, 264.370 305.813, 266.657 296.078, 268.945 286.343, 271.232 276.609, 273.519 266.874, 275.806 257.139, 278.094 247.404, 280.381 237.669, 282.668 227.934, 284.956 218.199, 287.243 208.464, 289.530 198.729, 291.817 188.994, 294.105 179.260, 296.392 169.525, 298.679 159.790, 300.966 150.055, 303.254 140.320, 305.541 137.122, 306.292 " />
            <path fill="none" stroke-width="3.0" stroke-linecap="butt" stroke-opacity="1.0" stroke="rgb(0, 0, 0)" stroke-linejoin="round" d=" M 538.575, 309.944 528.970, 312.730 519.366, 315.515 509.762, 318.301 500.158, 321.087 490.554, 323.872 480.949, 326.658 471.345, 329.443 461.741, 332.229 452.137, 335.015 442.533, 337.800 432.929, 340.586 423.324, 343.371 413.720, 346.157 404.116, 348.943 394.512, 351.728 384.908, 354.514 375.303, 357.299 365.699, 360.085 356.095, 362.871 346.491, 365.656 336.887, 368.442 327.283, 371.227 317.678, 374.013 308.074, 376.799 302.643, 378.374 " />
            <path fill="none" stroke-width="3.0" stroke-linecap="butt" stroke-opacity="1.0" stroke="rgb(0, 0, 0)" stroke-linejoin="round" d=" M 137.122, 306.292 146.290, 310.285 155.459, 314.278 164.627, 318.270 173.795, 322.263 182.964, 326.256 192.132, 330.248 201.300, 334.241 210.469, 338.234 219.637, 342.226 228.805, 346.219 237.974, 350.212 247.142, 354.204 256.311, 358.197 265.479, 362.190 274.647, 366.182 283.816, 370.175 292.984, 374.168 302.643, 378.374 303.388, 388.346 304.133, 398.318 304.878, 408.291 305.622, 418.263 306.367, 428.235 307.112, 438.207 307.857, 448.179 308.602, 458.152 309.346, 468.124 310.091, 478.096 310.836, 488.068 311.581, 498.041 312.326, 508.013 313.070, 517.985 313.815, 527.957 314.560, 537.930 315.305, 547.902 316.050, 557.874 316.794, 567.846 317.539, 577.818 318.284, 587.791 319.029, 597.763 319.774, 607.735 320.518, 617.707 321.263, 627.680 322.008, 637.652 322.753, 647.624 323.467, 657.182 " />
        </g>
    </g>
</svg>
