<?xml version='1.0' encoding='ascii'?>
<svg xmlns="http://www.w3.org/2000/svg" version="1.1" width="1080" height="1080">
    <g id="ViewLayer_LineSet" xmlns:inkscape="http://www.inkscape.org/namespaces/inkscape" inkscape:groupmode="lineset" inkscape:label="ViewLayer_LineSet">
        <g xmlns:inkscape="http://www.inkscape.org/namespaces/inkscape" inkscape:groupmode="layer" id="strokes" inkscape:label="strokes">
            <path fill="none" stroke-width="3.0" stroke-linecap="butt" stroke-opacity="1.0" stroke="rgb(0, 0, 0)" stroke-linejoin="round" d=" M -103.781, 386.544 -94.067, 384.167 -84.354, 381.790 -74.641, 379.413 -64.927, 377.036 -55.214, 374.659 -45.501, 372.282 -35.787, 369.904 -26.074, 367.527 -16.361, 365.150 -6.647, 362.773 3.066, 360.396 12.780, 358.019 22.493, 355.642 32.206, 353.265 41.920, 350.888 51.633, 348.510 61.346, 346.133 71.060, 343.756 81.898, 341.104 80.488, 331.204 79.077, 321.304 77.667, 311.404 76.256, 301.504 74.845, 291.604 73.435, 281.704 72.024, 271.804 70.614, 261.904 69.203, 252.004 67.793, 242.104 66.382, 232.204 64.972, 222.304 63.561, 212.404 62.151, 202.504 60.740, 192.604 59.330, 182.704 57.919, 172.804 56.509, 162.904 54.926, 151.798 45.422, 148.690 35.917, 145.582 26.412, 142.474 16.907, 139.366 7.402, 136.259 -2.102, 133.151 -11.607, 130.043 -21.112, 126.935 -30.617, 123.827 -31.853, 123.423 " />
            <path fill="none" stroke-width="3.0" stroke-linecap="butt" stroke-opacity="1.0" stroke="rgb(0, 0, 0)" stroke-linejoin="round" d=" M 54.926, 151.798 45.049, 153.360 35.172, 154.922 25.294, 156.484 15.417, 158.046 5.540, 159.608 -4.337, 161.169 -14.215, 162.731 -24.092, 164.293 -33.969, 165.855 -43.846, 167.417 -53.724, 168.979 -63.601, 170.541 -73.478, 172.103 -83.356, 173.664 -93.233, 175.226 -103.110, 176.788 -112.987, 178.350 -122.865, 179.912 -132.742, 181.474 -142.619, 183.036 -145.035, 183.418 " />
        </g>
    </g>
</svg>
